999
dxfrw 0.6.3
  0
SECTION
  2
HEADER
  9
$ACADVER
  1
AC1021
  9
$DWGCODEPAGE
  3
ANSI_1252
  9
$INSBASE
 10
0
 20
0
 30
0
  9
$EXTMIN
 10
-46.30455647995166
 20
25.5739527730272
 30
0
  9
$EXTMAX
 10
508.4454435200485
 20
300
 30
0
  9
$LIMMIN
 10
0
 20
0
  9
$LIMMAX
 10
420
 20
297
  9
$ORTHOMODE
 70
    0
  9
$REGENMODE
 70
    1
  9
$FILLMODE
 70
    1
  9
$QTEXTMODE
 70
    0
  9
$MIRRTEXT
 70
    0
  9
$LTSCALE
 40
1
  9
$ATTMODE
 70
    0
  9
$TEXTSIZE
 40
2.5
  9
$TRACEWID
 40
15.68
  9
$TEXTSTYLE
  7
STANDARD
  9
$CLAYER
  8
notation
  9
$CELTYPE
  6
BYLAYER
  9
$CECOLOR
 62
  256
  9
$CELTSCALE
 40
1
  9
$DISPSILH
 70
    0
  9
$DIMSCALE
 40
2.5
  9
$DIMASZ
 40
2
  9
$DIMEXO
 40
0.625
  9
$DIMDLI
 40
3.75
  9
$DIMRND
 40
0
  9
$DIMDLE
 40
0
  9
$DIMEXE
 40
1.25
  9
$DIMTP
 40
0
  9
$DIMTM
 40
0
  9
$DIMTXT
 40
1
  9
$DIMCEN
 40
2.5
  9
$DIMTSZ
 40
0
  9
$DIMTOL
 70
    0
  9
$DIMLIM
 70
    0
  9
$DIMTIH
 70
    0
  9
$DIMTOH
 70
    0
  9
$DIMSE1
 70
    0
  9
$DIMSE2
 70
    0
  9
$DIMTAD
 70
    1
  9
$DIMZIN
 70
    8
  9
$DIMBLK
  1

  9
$DIMASO
 70
    1
  9
$DIMSHO
 70
    1
  9
$DIMPOST
  1

  9
$DIMAPOST
  1

  9
$DIMALT
 70
    0
  9
$DIMALTD
 70
    3
  9
$DIMALTF
 40
0.03937
  9
$DIMLFAC
 40
1
  9
$DIMTOFL
 70
    1
  9
$DIMTVP
 40
0
  9
$DIMTIX
 70
    0
  9
$DIMSOXD
 70
    0
  9
$DIMSAH
 70
    0
  9
$DIMBLK1
  1

  9
$DIMBLK2
  1

  9
$DIMSTYLE
  2
STANDARD
  9
$DIMCLRD
 70
    0
  9
$DIMCLRE
 70
    0
  9
$DIMCLRT
 70
    0
  9
$DIMTFAC
 40
1
  9
$DIMGAP
 40
0.625
  9
$DIMJUST
 70
    0
  9
$DIMSD1
 70
    0
  9
$DIMSD2
 70
    0
  9
$DIMTOLJ
 70
    0
  9
$DIMTZIN
 70
    8
  9
$DIMALTZ
 70
    0
  9
$DIMALTTZ
 70
    0
  9
$DIMUPT
 70
    0
  9
$DIMDEC
 70
    1
  9
$DIMTDEC
 70
    2
  9
$DIMALTU
 70
    2
  9
$DIMALTTD
 70
    3
  9
$DIMTXSTY
  7
standard
  9
$DIMAUNIT
 70
    0
  9
$DIMADEC
 70
    1
  9
$DIMALTRND
 40
0
  9
$DIMAZIN
 70
    0
  9
$DIMDSEP
 70
    0
  9
$DIMATFIT
 70
    3
  9
$DIMFRAC
 70
    0
  9
$DIMLDRBLK
  1
STANDARD
  9
$DIMLUNIT
 70
    2
  9
$DIMLWD
 70
   -2
  9
$DIMLWE
 70
   -2
  9
$DIMTMOVE
 70
    0
  9
$DIMFXL
 40
1
  9
$DIMFXLON
 70
    0
  9
$DIMJOGANG
 40
0.7854
  9
$DIMTFILL
 70
    0
  9
$DIMTFILLCLR
 70
    0
  9
$DIMARCSYM
 70
    0
  9
$DIMLTYPE
  6

  9
$DIMLTEX1
  6

  9
$DIMLTEX2
  6

  9
$LUNITS
 70
    2
  9
$LUPREC
 70
    1
  9
$SKETCHINC
 40
1
  9
$FILLETRAD
 40
0
  9
$AUNITS
 70
    0
  9
$AUPREC
 70
    1
  9
$MENU
  1
.
  9
$ELEVATION
 40
0
  9
$PELEVATION
 40
0
  9
$THICKNESS
 40
0
  9
$LIMCHECK
 70
    0
  9
$CHAMFERA
 40
0
  9
$CHAMFERB
 40
0
  9
$CHAMFERC
 40
0
  9
$CHAMFERD
 40
0
  9
$SKPOLY
 70
    0
  9
$USRTIMER
 70
    1
  9
$ANGBASE
 50
0
  9
$ANGDIR
 70
    0
  9
$PDMODE
 70
   34
  9
$PDSIZE
 40
0
  9
$PLINEWID
 40
0
  9
$SPLFRAME
 70
    0
  9
$SPLINETYPE
 70
    2
  9
$SPLINESEGS
 70
    8
  9
$HANDSEED
  5
20000
  9
$SURFTAB1
 70
    6
  9
$SURFTAB2
 70
    6
  9
$SURFTYPE
 70
    6
  9
$SURFU
 70
    6
  9
$SURFV
 70
    6
  9
$UCSBASE
  2

  9
$UCSNAME
  2

  9
$UCSORG
 10
0
 20
0
 30
0
  9
$UCSXDIR
 10
1
 20
0
 30
0
  9
$UCSYDIR
 10
0
 20
1
 30
0
  9
$UCSORTHOREF
  2

  9
$UCSORTHOVIEW
 70
    0
  9
$UCSORGTOP
 10
0
 20
0
 30
0
  9
$UCSORGBOTTOM
 10
0
 20
0
 30
0
  9
$UCSORGLEFT
 10
0
 20
0
 30
0
  9
$UCSORGRIGHT
 10
0
 20
0
 30
0
  9
$UCSORGFRONT
 10
0
 20
0
 30
0
  9
$UCSORGBACK
 10
0
 20
0
 30
0
  9
$PUCSBASE
  2

  9
$PUCSNAME
  2

  9
$PUCSORG
 10
0
 20
0
 30
0
  9
$PUCSXDIR
 10
1
 20
0
 30
0
  9
$PUCSYDIR
 10
0
 20
1
 30
0
  9
$PUCSORTHOREF
  2

  9
$PUCSORTHOVIEW
 70
    0
  9
$PUCSORGTOP
 10
0
 20
0
 30
0
  9
$PUCSORGBOTTOM
 10
0
 20
0
 30
0
  9
$PUCSORGLEFT
 10
0
 20
0
 30
0
  9
$PUCSORGRIGHT
 10
0
 20
0
 30
0
  9
$PUCSORGFRONT
 10
0
 20
0
 30
0
  9
$PUCSORGBACK
 10
0
 20
0
 30
0
  9
$USERI1
 70
    0
  9
$USERI2
 70
    0
  9
$USERI3
 70
    0
  9
$USERI4
 70
    0
  9
$USERI5
 70
    0
  9
$USERR1
 40
0
  9
$USERR2
 40
0
  9
$USERR3
 40
0
  9
$USERR4
 40
0
  9
$USERR5
 40
0
  9
$WORLDVIEW
 70
    1
  9
$SHADEDGE
 70
    3
  9
$SHADEDIF
 70
   70
  9
$TILEMODE
 70
    1
  9
$MAXACTVP
 70
   64
  9
$PINSBASE
 10
0
 20
0
 30
0
  9
$PLIMCHECK
 70
    0
  9
$PEXTMIN
 10
0
 20
0
 30
0
  9
$PEXTMAX
 10
0
 20
0
 30
0
  9
$GRIDMODE
 70
    1
  9
$SNAPSTYLE
 70
    0
  9
$GRIDUNIT
 10
0
 20
0
  9
$PLIMMIN
 10
0
 20
0
  9
$PLIMMAX
 10
210
 20
297
  9
$UNITMODE
 70
    0
  9
$VISRETAIN
 70
    1
  9
$PLINEGEN
 70
    0
  9
$PSLTSCALE
 70
    1
  9
$TREEDEPTH
 70
 3020
  9
$CMLSTYLE
  2
Standard
  9
$CMLJUST
 70
    0
  9
$CMLSCALE
 40
20
  9
$PROXYGRAPHICS
 70
    1
  9
$MEASUREMENT
 70
    1
  9
$CELWEIGHT
370
   -1
  9
$ENDCAPS
280
    0
  9
$JOINSTYLE
280
    0
  9
$LWDISPLAY
290
    0
  9
$INSUNITS
 70
    4
  9
$HYPERLINKBASE
  1

  9
$STYLESHEET
  1

  9
$XEDIT
290
    1
  9
$CEPSNTYPE
380
    0
  9
$PSTYLEMODE
290
    1
  9
$EXTNAMES
290
    1
  9
$PSVPSCALE
 40
1
  9
$OLESTARTUP
290
    0
  9
$SORTENTS
280
  127
  9
$INDEXCTL
280
    0
  9
$HIDETEXT
280
    1
  9
$XCLIPFRAME
290
    0
  9
$HALOGAP
280
    0
  9
$OBSCOLOR
 70
  257
  9
$OBSLTYPE
280
    0
  9
$INTERSECTIONDISPLAY
280
    0
  9
$INTERSECTIONCOLOR
 70
  257
  9
$DIMASSOC
280
    1
  9
$PROJECTNAME
  1

  9
$CAMERADISPLAY
290
    0
  9
$LENSLENGTH
 40
50
  9
$CAMERAHEIGHT
 40
0
  9
$STEPSPERSEC
 40
2
  9
$STEPSIZE
 40
50
  9
$3DDWFPREC
 40
2
  9
$PSOLWIDTH
 40
5
  9
$PSOLHEIGHT
 40
80
  9
$LOFTANG1
 40
1.570796326794897
  9
$LOFTANG2
 40
1.570796326794897
  9
$LOFTMAG1
 40
0
  9
$LOFTMAG2
 40
0
  9
$LOFTPARAM
 70
    7
  9
$LOFTNORMALS
280
    1
  9
$LATITUDE
 40
1
  9
$LONGITUDE
 40
1
  9
$NORTHDIRECTION
 40
0
  9
$TIMEZONE
 70
-8000
  9
$LIGHTGLYPHDISPLAY
280
    1
  9
$TILEMODELIGHTSYNCH
280
    1
  9
$SOLIDHIST
280
    1
  9
$SHOWHIST
280
    1
  9
$DWFFRAME
280
    2
  9
$DGNFRAME
280
    0
  9
$REALWORLDSCALE
290
    1
  9
$INTERFERECOLOR
 62
    1
  9
$CSHADOW
280
    0
  9
$SHADOWPLANELOCATION
 40
0
  0
ENDSEC
  0
SECTION
  2
CLASSES
  0
ENDSEC
  0
SECTION
  2
TABLES
  0
TABLE
  2
VPORT
  5
8
330
0
100
AcDbSymbolTable
 70
    1
  0
VPORT
  5
31
330
2
100
AcDbSymbolTableRecord
100
AcDbViewportTableRecord
  2
*ACTIVE
 70
    0
 10
0
 20
0
 11
1
 21
1
 12
136.2478394004671
 22
97.16148058975328
 13
0
 23
0
 14
10
 24
10
 15
10
 25
10
 16
0
 26
0
 36
1
 17
0
 27
0
 37
0
 40
214.2819529126371
 41
1.197930142302717
 42
50
 43
0
 44
0
 50
0
 51
0
 71
    0
 72
  100
 73
    1
 74
    3
 75
    0
 76
    1
 77
    0
 78
    0
281
    0
 65
    1
110
0
120
0
130
0
111
1
121
0
131
0
112
0
122
1
132
0
 79
    0
146
0
348
10020
 60
    7
 61
    5
292
1
282
    1
141
0
142
0
 63
  250
421
3358443
  0
ENDTAB
  0
TABLE
  2
LTYPE
  5
5
330
0
100
AcDbSymbolTable
 70
    4
  0
LTYPE
  5
14
330
5
100
AcDbSymbolTableRecord
100
AcDbLinetypeTableRecord
  2
ByBlock
 70
    0
  3

 72
   65
 73
    0
 40
0
  0
LTYPE
  5
15
330
5
100
AcDbSymbolTableRecord
100
AcDbLinetypeTableRecord
  2
ByLayer
 70
    0
  3

 72
   65
 73
    0
 40
0
  0
LTYPE
  5
16
330
5
100
AcDbSymbolTableRecord
100
AcDbLinetypeTableRecord
  2
Continuous
 70
    0
  3
Solid line
 72
   65
 73
    0
 40
0
  0
LTYPE
  5
32
330
5
100
AcDbSymbolTableRecord
100
AcDbLinetypeTableRecord
  2
DOT
 70
    0
  3
Dot . . . . . . . . . . . . . . . . . . . . . .
 72
   65
 73
    2
 40
6.35
 49
0
 74
    0
 49
-6.35
 74
    0
  0
LTYPE
  5
33
330
5
100
AcDbSymbolTableRecord
100
AcDbLinetypeTableRecord
  2
DOTTINY
 70
    0
  3
Dot (.15x) .....................................
 72
   65
 73
    2
 40
0.9525
 49
0
 74
    0
 49
-0.9525
 74
    0
  0
LTYPE
  5
34
330
5
100
AcDbSymbolTableRecord
100
AcDbLinetypeTableRecord
  2
DOT2
 70
    0
  3
Dot (.5x) .....................................
 72
   65
 73
    2
 40
3.175
 49
0
 74
    0
 49
-3.175
 74
    0
  0
LTYPE
  5
35
330
5
100
AcDbSymbolTableRecord
100
AcDbLinetypeTableRecord
  2
DOTX2
 70
    0
  3
Dot (2x) .  .  .  .  .  .  .  .  .  .  .  .  .
 72
   65
 73
    2
 40
12.7
 49
0
 74
    0
 49
-12.7
 74
    0
  0
LTYPE
  5
36
330
5
100
AcDbSymbolTableRecord
100
AcDbLinetypeTableRecord
  2
DASHED
 70
    0
  3
Dashed _ _ _ _ _ _ _ _ _ _ _ _ _ _ _ _ _
 72
   65
 73
    2
 40
19.05
 49
12.7
 74
    0
 49
-6.35
 74
    0
  0
LTYPE
  5
37
330
5
100
AcDbSymbolTableRecord
100
AcDbLinetypeTableRecord
  2
DASHEDTINY
 70
    0
  3
Dashed (.15x) _ _ _ _ _ _ _ _ _ _ _ _ _ _ _ _ _
 72
   65
 73
    2
 40
2.8575
 49
1.905
 74
    0
 49
-0.9525
 74
    0
  0
LTYPE
  5
38
330
5
100
AcDbSymbolTableRecord
100
AcDbLinetypeTableRecord
  2
DASHED2
 70
    0
  3
Dashed (.5x) _ _ _ _ _ _ _ _ _ _ _ _ _ _ _ _ _
 72
   65
 73
    2
 40
9.524999999999999
 49
6.35
 74
    0
 49
-3.175
 74
    0
  0
LTYPE
  5
39
330
5
100
AcDbSymbolTableRecord
100
AcDbLinetypeTableRecord
  2
DASHEDX2
 70
    0
  3
Dashed (2x) ____  ____  ____  ____  ____  ___
 72
   65
 73
    2
 40
38.09999999999999
 49
25.4
 74
    0
 49
-12.7
 74
    0
  0
LTYPE
  5
3A
330
5
100
AcDbSymbolTableRecord
100
AcDbLinetypeTableRecord
  2
DASHDOT
 70
    0
  3
Dash dot __ . __ . __ . __ . __ . __ . __ . __
 72
   65
 73
    4
 40
25.4
 49
12.7
 74
    0
 49
-6.35
 74
    0
 49
0
 74
    0
 49
-6.35
 74
    0
  0
LTYPE
  5
3B
330
5
100
AcDbSymbolTableRecord
100
AcDbLinetypeTableRecord
  2
DASHDOTTINY
 70
    0
  3
Dash dot (.15x) _._._._._._._._._._._._._._._.
 72
   65
 73
    4
 40
3.81
 49
1.905
 74
    0
 49
-0.9525
 74
    0
 49
0
 74
    0
 49
-0.9525
 74
    0
  0
LTYPE
  5
3C
330
5
100
AcDbSymbolTableRecord
100
AcDbLinetypeTableRecord
  2
DASHDOT2
 70
    0
  3
Dash dot (.5x) _._._._._._._._._._._._._._._.
 72
   65
 73
    4
 40
12.7
 49
6.35
 74
    0
 49
-3.175
 74
    0
 49
0
 74
    0
 49
-3.175
 74
    0
  0
LTYPE
  5
3D
330
5
100
AcDbSymbolTableRecord
100
AcDbLinetypeTableRecord
  2
DASHDOTX2
 70
    0
  3
Dash dot (2x) ____  .  ____  .  ____  .  ___
 72
   65
 73
    4
 40
50.8
 49
25.4
 74
    0
 49
-12.7
 74
    0
 49
0
 74
    0
 49
-12.7
 74
    0
  0
LTYPE
  5
3E
330
5
100
AcDbSymbolTableRecord
100
AcDbLinetypeTableRecord
  2
DIVIDE
 70
    0
  3
Divide ____ . . ____ . . ____ . . ____ . . ____
 72
   65
 73
    6
 40
31.75
 49
12.7
 74
    0
 49
-6.35
 74
    0
 49
0
 74
    0
 49
-6.35
 74
    0
 49
0
 74
    0
 49
-6.35
 74
    0
  0
LTYPE
  5
3F
330
5
100
AcDbSymbolTableRecord
100
AcDbLinetypeTableRecord
  2
DIVIDETINY
 70
    0
  3
Divide (.15x) __..__..__..__..__..__..__..__.._
 72
   65
 73
    6
 40
4.7625
 49
1.905
 74
    0
 49
-0.9525
 74
    0
 49
0
 74
    0
 49
-0.9525
 74
    0
 49
0
 74
    0
 49
-0.9525
 74
    0
  0
LTYPE
  5
40
330
5
100
AcDbSymbolTableRecord
100
AcDbLinetypeTableRecord
  2
DIVIDE2
 70
    0
  3
Divide (.5x) __..__..__..__..__..__..__..__.._
 72
   65
 73
    6
 40
15.875
 49
6.35
 74
    0
 49
-3.175
 74
    0
 49
0
 74
    0
 49
-3.175
 74
    0
 49
0
 74
    0
 49
-3.175
 74
    0
  0
LTYPE
  5
41
330
5
100
AcDbSymbolTableRecord
100
AcDbLinetypeTableRecord
  2
DIVIDEX2
 70
    0
  3
Divide (2x) ________  .  .  ________  .  .  _
 72
   65
 73
    6
 40
63.5
 49
25.4
 74
    0
 49
-12.7
 74
    0
 49
0
 74
    0
 49
-12.7
 74
    0
 49
0
 74
    0
 49
-12.7
 74
    0
  0
LTYPE
  5
42
330
5
100
AcDbSymbolTableRecord
100
AcDbLinetypeTableRecord
  2
BORDER
 70
    0
  3
Border __ __ . __ __ . __ __ . __ __ . __ __ .
 72
   65
 73
    6
 40
44.45
 49
12.7
 74
    0
 49
-6.35
 74
    0
 49
12.7
 74
    0
 49
-6.35
 74
    0
 49
0
 74
    0
 49
-6.35
 74
    0
  0
LTYPE
  5
43
330
5
100
AcDbSymbolTableRecord
100
AcDbLinetypeTableRecord
  2
BORDERTINY
 70
    0
  3
Border (.15x) __.__.__.__.__.__.__.__.__.__.__.
 72
   65
 73
    6
 40
6.6675
 49
1.905
 74
    0
 49
-0.9525
 74
    0
 49
1.905
 74
    0
 49
-0.9525
 74
    0
 49
0
 74
    0
 49
-0.9525
 74
    0
  0
LTYPE
  5
44
330
5
100
AcDbSymbolTableRecord
100
AcDbLinetypeTableRecord
  2
BORDER2
 70
    0
  3
Border (.5x) __.__.__.__.__.__.__.__.__.__.__.
 72
   65
 73
    6
 40
22.225
 49
6.35
 74
    0
 49
-3.175
 74
    0
 49
6.35
 74
    0
 49
-3.175
 74
    0
 49
0
 74
    0
 49
-3.175
 74
    0
  0
LTYPE
  5
45
330
5
100
AcDbSymbolTableRecord
100
AcDbLinetypeTableRecord
  2
BORDERX2
 70
    0
  3
Border (2x) ____  ____  .  ____  ____  .  ___
 72
   65
 73
    6
 40
88.89999999999999
 49
25.4
 74
    0
 49
-12.7
 74
    0
 49
25.4
 74
    0
 49
-12.7
 74
    0
 49
0
 74
    0
 49
-12.7
 74
    0
  0
LTYPE
  5
46
330
5
100
AcDbSymbolTableRecord
100
AcDbLinetypeTableRecord
  2
CENTER
 70
    0
  3
Center ____ _ ____ _ ____ _ ____ _ ____ _ ____
 72
   65
 73
    4
 40
50.8
 49
31.75
 74
    0
 49
-6.35
 74
    0
 49
6.35
 74
    0
 49
-6.35
 74
    0
  0
LTYPE
  5
47
330
5
100
AcDbSymbolTableRecord
100
AcDbLinetypeTableRecord
  2
CENTERTINY
 70
    0
  3
Center (.15x) ___ _ ___ _ ___ _ ___ _ ___ _ ___
 72
   65
 73
    4
 40
7.62
 49
4.7625
 74
    0
 49
-0.9525
 74
    0
 49
0.9525
 74
    0
 49
-0.9525
 74
    0
  0
LTYPE
  5
48
330
5
100
AcDbSymbolTableRecord
100
AcDbLinetypeTableRecord
  2
CENTER2
 70
    0
  3
Center (.5x) ___ _ ___ _ ___ _ ___ _ ___ _ ___
 72
   65
 73
    4
 40
28.575
 49
19.05
 74
    0
 49
-3.175
 74
    0
 49
3.175
 74
    0
 49
-3.175
 74
    0
  0
LTYPE
  5
49
330
5
100
AcDbSymbolTableRecord
100
AcDbLinetypeTableRecord
  2
CENTERX2
 70
    0
  3
Center (2x) ________  __  ________  __  _____
 72
   65
 73
    4
 40
101.6
 49
63.5
 74
    0
 49
-12.7
 74
    0
 49
12.7
 74
    0
 49
-12.7
 74
    0
  0
ENDTAB
  0
TABLE
  2
LAYER
  5
2
330
0
100
AcDbSymbolTable
 70
    1
  0
LAYER
  5
10
330
2
100
AcDbSymbolTableRecord
100
AcDbLayerTableRecord
  2
0
 70
    0
 62
    7
  6
CONTINUOUS
370
    0
390
F
  0
LAYER
  5
4A
330
2
100
AcDbSymbolTableRecord
100
AcDbLayerTableRecord
  2
center
 70
    0
 62
    1
  6
CENTERTINY
370
    0
390
F
  0
LAYER
  5
4B
330
2
100
AcDbSymbolTableRecord
100
AcDbLayerTableRecord
  2
notation
 70
    0
 62
   96
420
32768
  6
CONTINUOUS
370
    0
390
F
  0
LAYER
  5
4C
330
2
100
AcDbSymbolTableRecord
100
AcDbLayerTableRecord
  2
虚线
 70
    0
 62
    7
  6
DASHEDTINY
370
    0
390
F
  0
ENDTAB
  0
TABLE
  2
STYLE
  5
3
330
0
100
AcDbSymbolTable
 70
    3
  0
STYLE
  5
4D
330
2
100
AcDbSymbolTableRecord
100
AcDbTextStyleTableRecord
  2
wqy-unicode
 70
    0
 40
0
 41
1
 50
0
 71
    0
 42
1
  3
wqy-unicode
  4

  0
STYLE
  5
4E
330
2
100
AcDbSymbolTableRecord
100
AcDbTextStyleTableRecord
  2
Standard
 70
    0
 40
0
 41
1
 50
0
 71
    0
 42
1
  3
txt
  4

  0
ENDTAB
  0
TABLE
  2
VIEW
  5
6
330
0
100
AcDbSymbolTable
 70
    0
  0
ENDTAB
  0
TABLE
  2
UCS
  5
7
330
0
100
AcDbSymbolTable
 70
    0
  0
ENDTAB
  0
TABLE
  2
APPID
  5
9
330
0
100
AcDbSymbolTable
 70
    1
  0
APPID
  5
12
330
9
100
AcDbSymbolTableRecord
100
AcDbRegAppTableRecord
  2
ACAD
 70
    0
  0
APPID
  5
4F
330
9
100
AcDbSymbolTableRecord
100
AcDbRegAppTableRecord
  2
LibreCad
 70
    0
  0
ENDTAB
  0
TABLE
  2
DIMSTYLE
  5
A
330
0
100
AcDbSymbolTable
 70
    1
100
AcDbDimStyleTable
 71
    1
  0
DIMSTYLE
105
50
330
A
100
AcDbSymbolTableRecord
100
AcDbDimStyleTableRecord
  2
Standard
 70
    0
 40
2.5
 41
2
 42
0.625
 43
0.38
 44
1.25
 45
0
 46
0
 47
0
 48
0
 49
1
140
1
141
0.09
142
0
143
25.4
144
1
145
0
146
1
147
0.625
148
0
 71
    0
 72
    0
 73
    0
 74
    1
 75
    0
 76
    0
 77
    0
 78
    8
 79
    0
170
    0
171
    2
172
    0
173
    0
174
    0
175
    0
176
    0
177
    0
178
    0
179
    1
271
    1
272
    4
273
    2
274
    2
275
    0
276
    0
277
    2
278
    0
279
    0
280
    0
281
    0
282
    0
283
    1
284
    0
285
    0
286
    0
288
    0
289
    3
340
standard
341

371
   -2
372
   -2
  0
ENDTAB
  0
TABLE
  2
BLOCK_RECORD
  5
1
330
0
100
AcDbSymbolTable
 70
    2
  0
BLOCK_RECORD
  5
1F
330
1
100
AcDbSymbolTableRecord
100
AcDbBlockTableRecord
  2
*Model_Space
 70
    0
280
    1
281
    0
  0
BLOCK_RECORD
  5
1E
330
1
100
AcDbSymbolTableRecord
100
AcDbBlockTableRecord
  2
*Paper_Space
 70
    0
280
    1
281
    0
  0
BLOCK_RECORD
  5
51
330
1
100
AcDbSymbolTableRecord
100
AcDbBlockTableRecord
  2
*D1
 70
    0
280
    1
281
    0
  0
BLOCK_RECORD
  5
54
330
1
100
AcDbSymbolTableRecord
100
AcDbBlockTableRecord
  2
*D4
 70
    0
280
    1
281
    0
  0
BLOCK_RECORD
  5
57
330
1
100
AcDbSymbolTableRecord
100
AcDbBlockTableRecord
  2
*D10
 70
    0
280
    1
281
    0
  0
BLOCK_RECORD
  5
5A
330
1
100
AcDbSymbolTableRecord
100
AcDbBlockTableRecord
  2
*D7
 70
    0
280
    1
281
    0
  0
BLOCK_RECORD
  5
5D
330
1
100
AcDbSymbolTableRecord
100
AcDbBlockTableRecord
  2
*D9
 70
    0
280
    1
281
    0
  0
BLOCK_RECORD
  5
60
330
1
100
AcDbSymbolTableRecord
100
AcDbBlockTableRecord
  2
*D8
 70
    0
280
    1
281
    0
  0
BLOCK_RECORD
  5
63
330
1
100
AcDbSymbolTableRecord
100
AcDbBlockTableRecord
  2
*D2
 70
    0
280
    1
281
    0
  0
BLOCK_RECORD
  5
66
330
1
100
AcDbSymbolTableRecord
100
AcDbBlockTableRecord
  2
*D6
 70
    0
280
    1
281
    0
  0
BLOCK_RECORD
  5
69
330
1
100
AcDbSymbolTableRecord
100
AcDbBlockTableRecord
  2
*D3
 70
    0
280
    1
281
    0
  0
BLOCK_RECORD
  5
6C
330
1
100
AcDbSymbolTableRecord
100
AcDbBlockTableRecord
  2
*D5
 70
    0
280
    1
281
    0
  0
ENDTAB
  0
ENDSEC
  0
SECTION
  2
BLOCKS
  0
BLOCK
  5
20
330
1F
100
AcDbEntity
  8
0
100
AcDbBlockBegin
  2
*Model_Space
 70
    0
 10
0
 20
0
 30
0
  3
*Model_Space
  1

  0
ENDBLK
  5
21
330
1F
100
AcDbEntity
  8
0
100
AcDbBlockEnd
  0
BLOCK
  5
1C
330
1B
100
AcDbEntity
  8
0
100
AcDbBlockBegin
  2
*Paper_Space
 70
    0
 10
0
 20
0
 30
0
  3
*Paper_Space
  1

  0
ENDBLK
  5
1D
330
1F
100
AcDbEntity
  8
0
100
AcDbBlockEnd
  0
BLOCK
  5
52
330
51
100
AcDbEntity
  8
0
100
AcDbBlockBegin
  2
*D1
 70
    1
 10
0
 20
0
  3
*D1
  1

  0
SOLID
  5
6F
100
AcDbEntity
  8
notation
  6
ByBlock
 62
    0
370
   -2
100
AcDbTrace
 10
206.4333915230021
 20
75.73713901245659
 30
0
 11
203.5204135141588
 21
79.88535920733337
 31
0
 12
205.0217928152659
 22
80.60546118272283
 32
0
 13
205.0217928152659
 23
80.60546118272283
 33
0
  0
LINE
  5
70
100
AcDbEntity
  8
notation
  6
ByBlock
 62
    0
370
   -2
100
AcDbLine
 10
190.0000000000001
 20
110
 11
206.4333915230021
 21
75.73713901245658
  0
MTEXT
  5
71
100
AcDbEntity
  8
notation
  6
CONTINUOUS
 62
    0
370
   -2
100
AcDbMText
 10
200.7525983016976
 20
94.08485670776619
 30
0
 40
2.5
 41
5.555555555555555
 71
    5
 72
    1
  1
R40
  7
standard
210
0
220
0
230
1
 50
295.6236315675693
 73
    2
 44
1
  0
ENDBLK
  5
53
330
51
100
AcDbEntity
  8
0
100
AcDbBlockEnd
  0
BLOCK
  5
55
330
54
100
AcDbEntity
  8
0
100
AcDbBlockBegin
  2
*D4
 70
    1
 10
0
 20
0
  3
*D4
  1

  0
LINE
  5
72
100
AcDbEntity
  8
notation
  6
ByBlock
 62
    0
370
   -2
100
AcDbLine
 10
113.7322757006908
 20
139
 11
113.7322757006908
 21
81
  0
SOLID
  5
73
100
AcDbEntity
  8
notation
  6
ByBlock
 62
    0
370
   -2
100
AcDbTrace
 10
113.7322757006908
 20
139
 30
0
 11
114.5648450162365
 21
134
 31
0
 12
112.8997063851451
 22
134
 32
0
 13
112.8997063851451
 23
134
 33
0
  0
SOLID
  5
74
100
AcDbEntity
  8
notation
  6
ByBlock
 62
    0
370
   -2
100
AcDbTrace
 10
113.7322757006908
 20
81
 30
0
 11
112.8997063851451
 21
86
 31
0
 12
114.5648450162365
 22
86
 32
0
 13
114.5648450162365
 23
86
 33
0
  0
MTEXT
  5
75
100
AcDbEntity
  8
notation
  6
CONTINUOUS
 62
    0
370
   -2
100
AcDbMText
 10
110.9197757006908
 20
110
 30
0
 40
2.5
 41
5.555555555555712
 71
    5
 72
    1
  1
%%C58
  7
standard
210
0
220
0
230
1
 50
90
 73
    2
 44
1
  0
LINE
  5
76
100
AcDbEntity
  8
notation
  6
ByBlock
 62
    0
370
   -2
100
AcDbLine
 10
118.4375000000001
 20
139
 11
110.6072757006908
 21
139
  0
LINE
  5
77
100
AcDbEntity
  8
notation
  6
ByBlock
 62
    0
370
   -2
100
AcDbLine
 10
118.4375000000001
 20
81
 11
110.6072757006908
 21
81
  0
ENDBLK
  5
56
330
54
100
AcDbEntity
  8
0
100
AcDbBlockEnd
  0
BLOCK
  5
58
330
57
100
AcDbEntity
  8
0
100
AcDbBlockBegin
  2
*D10
 70
    1
 10
0
 20
0
  3
*D10
  1

  0
LINE
  5
78
100
AcDbEntity
  8
notation
  6
ByBlock
 62
    0
370
   -2
100
AcDbLine
 10
128.9999999999982
 20
55.97382613412969
 11
48.99999999999841
 21
55.97382613412969
  0
SOLID
  5
79
100
AcDbEntity
  8
notation
  6
ByBlock
 62
    0
370
   -2
100
AcDbTrace
 10
128.9999999999982
 20
55.97382613412969
 30
0
 11
123.9999999999982
 21
55.14125681858401
 31
0
 12
123.9999999999982
 22
56.80639544967538
 32
0
 13
123.9999999999982
 23
56.80639544967538
 33
0
  0
SOLID
  5
7A
100
AcDbEntity
  8
notation
  6
ByBlock
 62
    0
370
   -2
100
AcDbTrace
 10
48.99999999999841
 20
55.97382613412969
 30
0
 11
53.99999999999841
 21
56.80639544967538
 31
0
 12
53.99999999999841
 22
55.14125681858401
 32
0
 13
53.99999999999841
 23
55.14125681858401
 33
0
  0
MTEXT
  5
7B
100
AcDbEntity
  8
notation
  6
CONTINUOUS
 62
    0
370
   -2
100
AcDbMText
 10
88.99999999999829
 20
58.78632613412969
 30
0
 40
2.5
 41
3.055555555555711
 71
    5
 72
    1
  1
86
  7
standard
210
0
220
0
230
1
 50
360
 73
    2
 44
1
  0
LINE
  5
7C
100
AcDbEntity
  8
notation
  6
ByBlock
 62
    0
370
   -2
100
AcDbLine
 10
128.9999999999982
 20
70.43750000000031
 11
128.9999999999982
 21
52.84882613412969
  0
LINE
  5
7D
100
AcDbEntity
  8
notation
  6
ByBlock
 62
    0
370
   -2
100
AcDbLine
 10
48.99999999999841
 20
90.43750000000051
 11
48.99999999999841
 21
52.84882613412969
  0
ENDBLK
  5
59
330
57
100
AcDbEntity
  8
0
100
AcDbBlockEnd
  0
BLOCK
  5
5B
330
5A
100
AcDbEntity
  8
0
100
AcDbBlockBegin
  2
*D7
 70
    1
 10
0
 20
0
  3
*D7
  1

  0
LINE
  5
7E
100
AcDbEntity
  8
notation
  6
ByBlock
 62
    0
370
   -2
100
AcDbLine
 10
138.9999999999982
 20
61.07506199365571
 11
110.0000000000001
 21
61.07506199365571
  0
SOLID
  5
7F
100
AcDbEntity
  8
notation
  6
ByBlock
 62
    0
370
   -2
100
AcDbTrace
 10
128.9999999999982
 20
61.07506199365571
 30
0
 11
133.9999999999982
 21
61.90763130920139
 31
0
 12
133.9999999999982
 22
60.24249267811003
 32
0
 13
133.9999999999982
 23
60.24249267811003
 33
0
  0
SOLID
  5
80
100
AcDbEntity
  8
notation
  6
ByBlock
 62
    0
370
   -2
100
AcDbTrace
 10
120.0000000000001
 20
61.07506199365571
 30
0
 11
115.0000000000001
 21
60.24249267811003
 31
0
 12
115.0000000000001
 22
61.90763130920139
 32
0
 13
115.0000000000001
 23
61.90763130920139
 33
0
  0
MTEXT
  5
81
100
AcDbEntity
  8
notation
  6
CONTINUOUS
 62
    0
370
   -2
100
AcDbMText
 10
124.4999999999991
 20
63.88756199365571
 30
0
 40
2.5
 41
2.5
 71
    5
 72
    1
  1
12
  7
standard
210
0
220
0
230
1
 50
360
 73
    2
 44
1
  0
LINE
  5
82
100
AcDbEntity
  8
notation
  6
ByBlock
 62
    0
370
   -2
100
AcDbLine
 10
128.9999999999982
 20
70.43750000000031
 11
128.9999999999982
 21
57.95006199365571
  0
LINE
  5
83
100
AcDbEntity
  8
notation
  6
ByBlock
 62
    0
370
   -2
100
AcDbLine
 10
120.0000000000001
 20
79.4375
 11
120.0000000000001
 21
57.95006199365571
  0
ENDBLK
  5
5C
330
5A
100
AcDbEntity
  8
0
100
AcDbBlockEnd
  0
BLOCK
  5
5E
330
5D
100
AcDbEntity
  8
0
100
AcDbBlockBegin
  2
*D9
 70
    1
 10
0
 20
0
  3
*D9
  1

  0
LINE
  5
84
100
AcDbEntity
  8
notation
  6
ByBlock
 62
    0
370
   -2
100
AcDbLine
 10
136.7511770947252
 20
127.9999999999995
 11
136.7511770947252
 21
92.00000000000051
  0
SOLID
  5
85
100
AcDbEntity
  8
notation
  6
ByBlock
 62
    0
370
   -2
100
AcDbTrace
 10
136.7511770947252
 20
127.9999999999995
 30
0
 11
137.5837464102709
 21
122.9999999999995
 31
0
 12
135.9186077791796
 22
122.9999999999995
 32
0
 13
135.9186077791796
 23
122.9999999999995
 33
0
  0
SOLID
  5
86
100
AcDbEntity
  8
notation
  6
ByBlock
 62
    0
370
   -2
100
AcDbTrace
 10
136.7511770947252
 20
92.00000000000051
 30
0
 11
135.9186077791796
 21
97.00000000000051
 31
0
 12
137.5837464102709
 22
97.00000000000051
 32
0
 13
137.5837464102709
 23
97.00000000000051
 33
0
  0
MTEXT
  5
87
100
AcDbEntity
  8
notation
  6
CONTINUOUS
 62
    0
370
   -2
100
AcDbMText
 10
133.9386770947252
 20
110
 30
0
 40
2.5
 41
5.555555555555866
 71
    5
 72
    1
  1
%%C36
  7
standard
210
0
220
0
230
1
 50
90
 73
    2
 44
1
  0
LINE
  5
88
100
AcDbEntity
  8
notation
  6
ByBlock
 62
    0
370
   -2
100
AcDbLine
 10
130.5624999999982
 20
127.9999999999995
 11
139.8761770947252
 21
127.9999999999995
  0
LINE
  5
89
100
AcDbEntity
  8
notation
  6
ByBlock
 62
    0
370
   -2
100
AcDbLine
 10
130.5624999999982
 20
92.00000000000051
 11
139.8761770947252
 21
92.00000000000051
  0
ENDBLK
  5
5F
330
5D
100
AcDbEntity
  8
0
100
AcDbBlockEnd
  0
BLOCK
  5
61
330
60
100
AcDbEntity
  8
0
100
AcDbBlockBegin
  2
*D8
 70
    1
 10
0
 20
0
  3
*D8
  1

  0
LINE
  5
8A
100
AcDbEntity
  8
notation
  6
ByBlock
 62
    0
370
   -2
100
AcDbLine
 10
111
 20
66.37249923239429
 11
138.9999999999982
 21
66.37249923239429
  0
SOLID
  5
8B
100
AcDbEntity
  8
notation
  6
ByBlock
 62
    0
370
   -2
100
AcDbTrace
 10
121
 20
66.37249923239429
 30
0
 11
116
 21
65.53992991684861
 31
0
 12
116
 22
67.20506854793997
 32
0
 13
116
 23
67.20506854793997
 33
0
  0
SOLID
  5
8C
100
AcDbEntity
  8
notation
  6
ByBlock
 62
    0
370
   -2
100
AcDbTrace
 10
128.9999999999982
 20
66.37249923239429
 30
0
 11
133.9999999999982
 21
67.20506854793997
 31
0
 12
133.9999999999982
 22
65.53992991684861
 32
0
 13
133.9999999999982
 23
65.53992991684861
 33
0
  0
MTEXT
  5
8D
100
AcDbEntity
  8
notation
  6
CONTINUOUS
 62
    0
370
   -2
100
AcDbMText
 10
124.9999999999991
 20
69.18499923239429
 30
0
 40
2.5
 41
2.5
 71
    5
 72
    1
  1
10
  7
standard
210
0
220
0
230
1
 50
0
 73
    2
 44
1
  0
LINE
  5
8E
100
AcDbEntity
  8
notation
  6
ByBlock
 62
    0
370
   -2
100
AcDbLine
 10
121
 20
70.43750000000031
 11
121
 21
63.24749923239429
  0
LINE
  5
8F
100
AcDbEntity
  8
notation
  6
ByBlock
 62
    0
370
   -2
100
AcDbLine
 10
128.9999999999982
 20
70.43750000000031
 11
128.9999999999982
 21
63.24749923239429
  0
ENDBLK
  5
62
330
60
100
AcDbEntity
  8
0
100
AcDbBlockEnd
  0
BLOCK
  5
64
330
63
100
AcDbEntity
  8
0
100
AcDbBlockBegin
  2
*D2
 70
    1
 10
0
 20
0
  3
*D2
  1

  0
LINE
  5
90
100
AcDbEntity
  8
notation
  6
ByBlock
 62
    0
370
   -2
100
AcDbLine
 10
184.0743482893085
 20
103.9060151129512
 11
195.9256517106915
 21
116.0939848870488
  0
SOLID
  5
91
100
AcDbEntity
  8
notation
  6
ByBlock
 62
    0
370
   -2
100
AcDbTrace
 10
184.0743482893085
 20
103.9060151129512
 30
0
 11
186.9631240219087
 21
108.0711257275602
 31
0
 12
188.156927510463
 22
106.9102984831055
 32
0
 13
188.156927510463
 23
106.9102984831055
 33
0
  0
SOLID
  5
92
100
AcDbEntity
  8
notation
  6
ByBlock
 62
    0
370
   -2
100
AcDbTrace
 10
195.9256517106915
 20
116.0939848870488
 30
0
 11
193.0368759780913
 21
111.9288742724398
 31
0
 12
191.843072489537
 22
113.0897015168945
 32
0
 13
191.843072489537
 23
113.0897015168945
 33
0
  0
MTEXT
  5
93
100
AcDbEntity
  8
notation
  6
CONTINUOUS
 62
    0
370
   -2
100
AcDbMText
 10
187.9836079417853
 20
111.9606935807435
 30
0
 40
2.5
 41
10.5864191046363
 71
    5
 72
    1
  1
 %%C12\S+0.1^ 0  ???;
  7
standard
210
0
220
0
230
1
 50
45.80236619393475
 73
    2
 44
1
  0
ENDBLK
  5
65
330
63
100
AcDbEntity
  8
0
100
AcDbBlockEnd
  0
BLOCK
  5
67
330
66
100
AcDbEntity
  8
0
100
AcDbBlockBegin
  2
*D6
 70
    1
 10
0
 20
0
  3
*D6
  1

  0
LINE
  5
94
100
AcDbEntity
  8
notation
  6
ByBlock
 62
    0
370
   -2
100
AcDbLine
 10
95.43876758323267
 20
137.4999999999997
 11
95.43876758323267
 21
82.50000000000031
  0
SOLID
  5
95
100
AcDbEntity
  8
notation
  6
ByBlock
 62
    0
370
   -2
100
AcDbTrace
 10
95.43876758323267
 20
137.4999999999997
 30
0
 11
96.27133689877836
 21
132.4999999999997
 31
0
 12
94.60619826768699
 22
132.4999999999997
 32
0
 13
94.60619826768699
 23
132.4999999999997
 33
0
  0
SOLID
  5
96
100
AcDbEntity
  8
notation
  6
ByBlock
 62
    0
370
   -2
100
AcDbTrace
 10
95.43876758323267
 20
82.50000000000031
 30
0
 11
94.60619826768699
 21
87.50000000000031
 31
0
 12
96.27133689877836
 22
87.50000000000031
 32
0
 13
96.27133689877836
 23
87.50000000000031
 33
0
  0
MTEXT
  5
97
100
AcDbEntity
  8
notation
  6
CONTINUOUS
 62
    0
370
   -2
100
AcDbMText
 10
92.62626758323267
 20
110
 30
0
 40
2.5
 41
14.16666666666713
 71
    5
 72
    1
  1
%%C55%%P0.05
  7
standard
210
0
220
0
230
1
 50
90
 73
    2
 44
1
  0
LINE
  5
98
100
AcDbEntity
  8
notation
  6
ByBlock
 62
    0
370
   -2
100
AcDbLine
 10
104.4375
 20
137.4999999999997
 11
92.31376758323267
 21
137.4999999999997
  0
LINE
  5
99
100
AcDbEntity
  8
notation
  6
ByBlock
 62
    0
370
   -2
100
AcDbLine
 10
104.4375
 20
82.50000000000031
 11
92.31376758323267
 21
82.50000000000031
  0
ENDBLK
  5
68
330
66
100
AcDbEntity
  8
0
100
AcDbBlockEnd
  0
BLOCK
  5
6A
330
69
100
AcDbEntity
  8
0
100
AcDbBlockBegin
  2
*D3
 70
    1
 10
0
 20
0
  3
*D3
  1

  0
LINE
  5
9A
100
AcDbEntity
  8
notation
  6
ByBlock
 62
    0
370
   -2
100
AcDbLine
 10
106
 20
73.8281516424708
 11
120.0000000000001
 21
73.8281516424708
  0
SOLID
  5
9B
100
AcDbEntity
  8
notation
  6
ByBlock
 62
    0
370
   -2
100
AcDbTrace
 10
106
 20
73.8281516424708
 30
0
 11
111
 21
74.66072095801648
 31
0
 12
111
 22
72.99558232692512
 32
0
 13
111
 23
72.99558232692512
 33
0
  0
SOLID
  5
9C
100
AcDbEntity
  8
notation
  6
ByBlock
 62
    0
370
   -2
100
AcDbTrace
 10
120.0000000000001
 20
73.8281516424708
 30
0
 11
115.0000000000001
 21
72.99558232692512
 31
0
 12
115.0000000000001
 22
74.66072095801648
 32
0
 13
115.0000000000001
 23
74.66072095801648
 33
0
  0
MTEXT
  5
9D
100
AcDbEntity
  8
notation
  6
CONTINUOUS
 62
    0
370
   -2
100
AcDbMText
 10
113.0000000000001
 20
76.6406516424708
 30
0
 40
2.5
 41
2.777777777777778
 71
    5
 72
    1
  1
14
  7
standard
210
0
220
0
230
1
 50
0
 73
    2
 44
1
  0
LINE
  5
9E
100
AcDbEntity
  8
notation
  6
ByBlock
 62
    0
370
   -2
100
AcDbLine
 10
106
 20
80.93750000000031
 11
106
 21
70.7031516424708
  0
LINE
  5
9F
100
AcDbEntity
  8
notation
  6
ByBlock
 62
    0
370
   -2
100
AcDbLine
 10
120.0000000000001
 20
79.4375
 11
120.0000000000001
 21
70.7031516424708
  0
ENDBLK
  5
6B
330
69
100
AcDbEntity
  8
0
100
AcDbBlockEnd
  0
BLOCK
  5
6D
330
6C
100
AcDbEntity
  8
0
100
AcDbBlockBegin
  2
*D5
 70
    1
 10
0
 20
0
  3
*D5
  1

  0
LINE
  5
A0
100
AcDbEntity
  8
notation
  6
ByBlock
 62
    0
370
   -2
100
AcDbLine
 10
43.29598056338901
 20
127.9999999999995
 11
43.29598056338901
 21
92.00000000000051
  0
SOLID
  5
A1
100
AcDbEntity
  8
notation
  6
ByBlock
 62
    0
370
   -2
100
AcDbTrace
 10
43.29598056338901
 20
127.9999999999995
 30
0
 11
44.12854987893469
 21
122.9999999999995
 31
0
 12
42.46341124784333
 22
122.9999999999995
 32
0
 13
42.46341124784333
 23
122.9999999999995
 33
0
  0
SOLID
  5
A2
100
AcDbEntity
  8
notation
  6
ByBlock
 62
    0
370
   -2
100
AcDbTrace
 10
43.29598056338901
 20
92.00000000000051
 30
0
 11
42.46341124784333
 21
97.00000000000051
 31
0
 12
44.12854987893469
 22
97.00000000000051
 32
0
 13
44.12854987893469
 23
97.00000000000051
 33
0
  0
MTEXT
  5
A3
100
AcDbEntity
  8
notation
  6
CONTINUOUS
 62
    0
370
   -2
100
AcDbMText
 10
40.48348056338901
 20
110
 30
0
 40
2.5
 41
5.555555555555866
 71
    5
 72
    1
  1
%%C36
  7
standard
210
0
220
0
230
1
 50
90
 73
    2
 44
1
  0
LINE
  5
A4
100
AcDbEntity
  8
notation
  6
ByBlock
 62
    0
370
   -2
100
AcDbLine
 10
47.43749999999841
 20
127.9999999999995
 11
40.17098056338901
 21
127.9999999999995
  0
LINE
  5
A5
100
AcDbEntity
  8
notation
  6
ByBlock
 62
    0
370
   -2
100
AcDbLine
 10
47.43749999999841
 20
92.00000000000051
 11
40.17098056338901
 21
92.00000000000051
  0
ENDBLK
  5
6E
330
6C
100
AcDbEntity
  8
0
100
AcDbBlockEnd
  0
ENDSEC
  0
SECTION
  2
ENTITIES
  0
LINE
  5
A6
100
AcDbEntity
  8
notation
  6
CENTERTINY
 62
    1
370
   -1
100
AcDbLine
 10
190
 20
210
 11
190
 21
37.7500000000001
  0
LINE
  5
A7
100
AcDbEntity
  8
center
  6
ByLayer
 62
  256
370
   -1
100
AcDbLine
 10
190
 20
110
 11
190
 21
122
  0
CIRCLE
  5
A8
100
AcDbEntity
  8
0
  6
ByLayer
 62
  256
370
   -1
100
AcDbCircle
 10
190.0000000000001
 20
110
 40
38
  0
CIRCLE
  5
A9
100
AcDbEntity
  8
0
  6
ByLayer
 62
  256
370
   -1
100
AcDbCircle
 10
190
 20
110
 40
38
  0
CIRCLE
  5
AA
100
AcDbEntity
  8
0
  6
ByLayer
 62
  256
370
   -1
100
AcDbCircle
 10
190.0000000000001
 20
110
 40
23
  0
CIRCLE
  5
AB
100
AcDbEntity
  8
0
  6
ByLayer
 62
  256
370
   -1
100
AcDbCircle
 10
190
 20
110
 40
8.5
  0
CIRCLE
  5
AC
100
AcDbEntity
  8
虚线
  6
ByLayer
 62
  256
370
   -1
100
AcDbCircle
 10
190
 20
110
 40
18
  0
CIRCLE
  5
AD
100
AcDbEntity
  8
0
  6
ByLayer
 62
  256
370
   -1
100
AcDbCircle
 10
190
 20
110
 40
29
  0
CIRCLE
  5
AE
100
AcDbEntity
  8
0
  6
ByLayer
 62
  256
370
   -1
100
AcDbCircle
 10
190
 20
110
 40
27.5
  0
DIMENSION
  5
AF
100
AcDbEntity
  8
notation
  6
ByLayer
 62
  256
370
   -1
100
AcDbDimension
  2
*D1
 10
190.0000000000001
 20
110
 30
0
 11
200.7525983016976
 21
94.08485670776619
 31
0
 70
   36
  1
R40
 71
    5
 72
    0
  3
Standard
 53
0
210
0
220
0
230
1
100
AcDbRadialDimension
 15
206.4333915230021
 25
75.73713901245659
 35
0
 40
0
  0
DIMENSION
  5
B0
100
AcDbEntity
  8
notation
  6
ByLayer
 62
  256
370
   -1
100
AcDbDimension
  2
*D2
 10
184.0743482893085
 20
103.9060151129512
 30
0
 11
187.9836079417853
 21
111.9606935807435
 31
0
 70
   35
  1
 %%C12\S+0.1^ 0  ???;
 71
    5
  3
Standard
 53
0
210
0
220
0
230
1
100
AcDbDiametricDimension
 15
195.9256517106915
 25
116.0939848870488
 35
0
 40
0
  0
LINE
  5
B1
100
AcDbEntity
  8
0
  6
ByLayer
 62
  256
370
   -1
100
AcDbLine
 10
121
 20
147.9999999999997
 11
128.9999999999982
 21
147.9999999999997
  0
LINE
  5
B2
100
AcDbEntity
  8
0
  6
ByLayer
 62
  256
370
   -1
100
AcDbLine
 10
121
 20
72.00000000000031
 11
128.9999999999982
 21
72.00000000000031
  0
LINE
  5
B3
100
AcDbEntity
  8
0
  6
ByLayer
 62
  256
370
   -1
100
AcDbLine
 10
128.9999999999982
 20
147.9999999999997
 11
128.9999999999982
 21
72.00000000000031
  0
LINE
  5
B4
100
AcDbEntity
  8
0
  6
ByLayer
 62
  256
370
   -1
100
AcDbLine
 10
106
 20
137.4999999999997
 11
106
 21
82.50000000000031
  0
LINE
  5
B5
100
AcDbEntity
  8
0
  6
ByLayer
 62
  256
370
   -1
100
AcDbLine
 10
48.99999999999841
 20
127.9999999999995
 11
106
 21
127.9999999999995
  0
LINE
  5
B6
100
AcDbEntity
  8
0
  6
ByLayer
 62
  256
370
   -1
100
AcDbLine
 10
106
 20
92.00000000000051
 11
48.99999999999841
 21
92.00000000000051
  0
LINE
  5
B7
100
AcDbEntity
  8
0
  6
ByLayer
 62
  256
370
   -1
100
AcDbLine
 10
48.99999999999841
 20
92.00000000000051
 11
48.99999999999841
 21
127.9999999999995
  0
LINE
  5
B8
100
AcDbEntity
  8
虚线
  6
ByLayer
 62
  256
370
   -1
100
AcDbLine
 10
48.99999999999841
 20
118.5000000000007
 11
115.9999999999998
 21
118.5000000000007
  0
LINE
  5
B9
100
AcDbEntity
  8
虚线
  6
ByLayer
 62
  256
370
   -1
100
AcDbLine
 10
48.99999999999841
 20
101.5000000000011
 11
115.9999999999998
 21
101.5000000000011
  0
LINE
  5
BA
100
AcDbEntity
  8
0
  6
ByLayer
 62
  256
370
   -1
100
AcDbLine
 10
120.0000000000001
 20
138.9999999999997
 11
120.0000000000001
 21
80.99999999999969
  0
LINE
  5
BB
100
AcDbEntity
  8
0
  6
ByLayer
 62
  256
370
   -1
100
AcDbLine
 10
106
 20
137.4999999999997
 11
120.0000000000001
 21
137.4999999999997
  0
LINE
  5
BC
100
AcDbEntity
  8
0
  6
ByLayer
 62
  256
370
   -1
100
AcDbLine
 10
106
 20
82.50000000000031
 11
120.0000000000001
 21
82.50000000000031
  0
LINE
  5
BD
100
AcDbEntity
  8
0
  6
ByLayer
 62
  256
370
   -1
100
AcDbLine
 10
121
 20
72
 11
121
 21
148
  0
LINE
  5
BE
100
AcDbEntity
  8
0
  6
ByLayer
 62
  256
370
   -1
100
AcDbLine
 10
120
 20
81
 11
121
 21
81
  0
LINE
  5
BF
100
AcDbEntity
  8
0
  6
ByLayer
 62
  256
370
   -1
100
AcDbLine
 10
120
 20
139
 11
121
 21
139
  0
DIMENSION
  5
C0
100
AcDbEntity
  8
notation
  6
ByLayer
 62
  256
370
   -1
100
AcDbDimension
  2
*D3
 10
120.0000000000001
 20
73.8281516424708
 30
0
 11
113.0000000000001
 21
76.6406516424708
 31
0
 70
   32
 71
    5
  3
Standard
 53
0
210
0
220
0
230
1
100
AcDbAlignedDimension
 13
106
 23
82.50000000000031
 33
0
 14
120.0000000000001
 24
81
 34
0
100
AcDbRotatedDimension
  0
DIMENSION
  5
C1
100
AcDbEntity
  8
notation
  6
ByLayer
 62
  256
370
   -1
100
AcDbDimension
  2
*D4
 10
113.7322757006908
 20
81
 30
0
 11
110.9197757006908
 21
110
 31
0
 70
   32
  1
%%C<>
 71
    5
  3
Standard
 53
0
210
0
220
0
230
1
100
AcDbAlignedDimension
 13
120.0000000000001
 23
139
 33
0
 14
120.0000000000001
 24
81
 34
0
 50
90
100
AcDbRotatedDimension
  0
DIMENSION
  5
C2
100
AcDbEntity
  8
notation
  6
ByLayer
 62
  256
370
   -1
100
AcDbDimension
  2
*D5
 10
43.29598056338901
 20
92.00000000000051
 30
0
 11
40.48348056338901
 21
110
 31
0
 70
   32
  1
%%C<>
 71
    5
  3
Standard
 53
0
210
0
220
0
230
1
100
AcDbAlignedDimension
 13
48.99999999999841
 23
127.9999999999995
 33
0
 14
48.99999999999841
 24
92.00000000000051
 34
0
 50
90
100
AcDbRotatedDimension
  0
DIMENSION
  5
C3
100
AcDbEntity
  8
notation
  6
ByLayer
 62
  256
370
   -1
100
AcDbDimension
  2
*D6
 10
95.43876758323267
 20
82.50000000000031
 30
0
 11
92.62626758323267
 21
110
 31
0
 70
   32
  1
%%C55%%P0.05
 71
    5
  3
Standard
 53
0
210
0
220
0
230
1
100
AcDbAlignedDimension
 13
106
 23
137.4999999999997
 33
0
 14
106
 24
82.50000000000031
 34
0
 50
90
100
AcDbRotatedDimension
  0
DIMENSION
  5
C4
100
AcDbEntity
  8
notation
  6
ByLayer
 62
  256
370
   -1
100
AcDbDimension
  2
*D7
 10
120.0000000000001
 20
61.07506199365571
 30
0
 11
124.4999999999991
 21
63.88756199365571
 31
0
 70
   32
  1
12
 71
    5
  3
Standard
 53
0
210
0
220
0
230
1
100
AcDbAlignedDimension
 13
128.9999999999982
 23
72.00000000000031
 33
0
 14
120.0000000000001
 24
81
 34
0
100
AcDbRotatedDimension
  0
DIMENSION
  5
C5
100
AcDbEntity
  8
notation
  6
ByLayer
 62
  256
370
   -1
100
AcDbDimension
  2
*D8
 10
128.9999999999982
 20
66.37249923239429
 30
0
 11
124.9999999999991
 21
69.18499923239429
 31
0
 70
   32
  1
10
 71
    5
  3
Standard
 53
0
210
0
220
0
230
1
100
AcDbAlignedDimension
 13
121
 23
72.00000000000031
 33
0
 14
128.9999999999982
 24
72.00000000000031
 34
0
100
AcDbRotatedDimension
  0
LINE
  5
C6
100
AcDbEntity
  8
虚线
  6
ByLayer
 62
  256
370
   -1
100
AcDbLine
 10
115.9999999999998
 20
127.9999999999995
 11
128.9999999999982
 21
127.9999999999995
  0
LINE
  5
C7
100
AcDbEntity
  8
虚线
  6
ByLayer
 62
  256
370
   -1
100
AcDbLine
 10
115.9999999999997
 20
92.00000000000051
 11
128.9999999999982
 21
92.00000000000051
  0
LINE
  5
C8
100
AcDbEntity
  8
虚线
  6
ByLayer
 62
  256
370
   -1
100
AcDbLine
 10
115.9999999999998
 20
127.9999999999995
 11
115.9999999999997
 21
92.00000000000051
  0
DIMENSION
  5
C9
100
AcDbEntity
  8
notation
  6
ByLayer
 62
  256
370
   -1
100
AcDbDimension
  2
*D9
 10
136.7511770947252
 20
92.00000000000051
 30
0
 11
133.9386770947252
 21
110
 31
0
 70
   32
  1
%%C<>
 71
    5
 72
    0
  3
Standard
 53
0
210
0
220
0
230
1
100
AcDbAlignedDimension
 13
128.9999999999982
 23
127.9999999999995
 33
0
 14
128.9999999999982
 24
92.00000000000051
 34
0
 50
90
100
AcDbRotatedDimension
  0
MTEXT
  5
CA
100
AcDbEntity
  8
0
  6
ByLayer
 62
  256
370
   -1
100
AcDbMText
 10
168.6842855888497
 20
29.16395277302721
 30
0
 40
3
 41
49.54000000000001
 71
    1
 72
    1
  1
5臂内基座. 铝合金, 1件
  7
wqy-unicode
210
0
220
0
230
1
 50
0
 73
    2
 44
1
  0
LINE
  5
CB
100
AcDbEntity
  8
notation
  6
CENTERTINY
 62
    1
370
   -1
100
AcDbLine
 10
-46.30455647995166
 20
110
 11
368.4454435200485
 21
110
  0
DIMENSION
  5
CC
100
AcDbEntity
  8
notation
  6
ByLayer
 62
  256
370
   -1
100
AcDbDimension
  2
*D10
 10
48.99999999999841
 20
55.97382613412969
 30
0
 11
88.99999999999829
 21
58.78632613412969
 31
0
 70
   32
  1
86
 71
    5
  3
Standard
 53
0
210
0
220
0
230
1
100
AcDbAlignedDimension
 13
128.9999999999982
 23
72.00000000000031
 33
0
 14
48.99999999999841
 24
92.00000000000051
 34
0
100
AcDbRotatedDimension
  0
ENDSEC
  0
SECTION
  2
OBJECTS
  0
DICTIONARY
  5
C
330
0
100
AcDbDictionary
281
    1
  3
ACAD_GROUP
350
D
  0
DICTIONARY
  5
D
330
C
100
AcDbDictionary
281
    1
  0
ENDSEC
  0
EOF
