999
dxfrw 0.6.3
  0
SECTION
  2
HEADER
  9
$ACADVER
  1
AC1021
  9
$DWGCODEPAGE
  3
ANSI_1252
  9
$INSBASE
 10
0
 20
0
 30
0
  9
$EXTMIN
 10
5.999999999999691
 20
26.34666666666667
 30
0
  9
$EXTMAX
 10
234.9999999999998
 20
228.4880369509077
 30
0
  9
$LIMMIN
 10
0
 20
0
  9
$LIMMAX
 10
420
 20
297
  9
$ORTHOMODE
 70
    0
  9
$REGENMODE
 70
    1
  9
$FILLMODE
 70
    1
  9
$QTEXTMODE
 70
    0
  9
$MIRRTEXT
 70
    0
  9
$LTSCALE
 40
1
  9
$ATTMODE
 70
    0
  9
$TEXTSIZE
 40
2.5
  9
$TRACEWID
 40
15.68
  9
$TEXTSTYLE
  7
STANDARD
  9
$CLAYER
  8
notation
  9
$CELTYPE
  6
BYLAYER
  9
$CECOLOR
 62
  256
  9
$CELTSCALE
 40
1
  9
$DISPSILH
 70
    0
  9
$DIMSCALE
 40
2.5
  9
$DIMASZ
 40
2
  9
$DIMEXO
 40
0.625
  9
$DIMDLI
 40
3.75
  9
$DIMRND
 40
0
  9
$DIMDLE
 40
0
  9
$DIMEXE
 40
1.25
  9
$DIMTP
 40
0
  9
$DIMTM
 40
0
  9
$DIMTXT
 40
1
  9
$DIMCEN
 40
2.5
  9
$DIMTSZ
 40
0
  9
$DIMTOL
 70
    0
  9
$DIMLIM
 70
    0
  9
$DIMTIH
 70
    0
  9
$DIMTOH
 70
    0
  9
$DIMSE1
 70
    0
  9
$DIMSE2
 70
    0
  9
$DIMTAD
 70
    1
  9
$DIMZIN
 70
    8
  9
$DIMBLK
  1

  9
$DIMASO
 70
    1
  9
$DIMSHO
 70
    1
  9
$DIMPOST
  1

  9
$DIMAPOST
  1

  9
$DIMALT
 70
    0
  9
$DIMALTD
 70
    3
  9
$DIMALTF
 40
0.03937
  9
$DIMLFAC
 40
1
  9
$DIMTOFL
 70
    1
  9
$DIMTVP
 40
0
  9
$DIMTIX
 70
    0
  9
$DIMSOXD
 70
    0
  9
$DIMSAH
 70
    0
  9
$DIMBLK1
  1

  9
$DIMBLK2
  1

  9
$DIMSTYLE
  2
STANDARD
  9
$DIMCLRD
 70
    0
  9
$DIMCLRE
 70
    0
  9
$DIMCLRT
 70
    0
  9
$DIMTFAC
 40
1
  9
$DIMGAP
 40
0.625
  9
$DIMJUST
 70
    0
  9
$DIMSD1
 70
    0
  9
$DIMSD2
 70
    0
  9
$DIMTOLJ
 70
    0
  9
$DIMTZIN
 70
    8
  9
$DIMALTZ
 70
    0
  9
$DIMALTTZ
 70
    0
  9
$DIMUPT
 70
    0
  9
$DIMDEC
 70
    1
  9
$DIMTDEC
 70
    2
  9
$DIMALTU
 70
    2
  9
$DIMALTTD
 70
    3
  9
$DIMTXSTY
  7
standard
  9
$DIMAUNIT
 70
    0
  9
$DIMADEC
 70
    1
  9
$DIMALTRND
 40
0
  9
$DIMAZIN
 70
    0
  9
$DIMDSEP
 70
    0
  9
$DIMATFIT
 70
    3
  9
$DIMFRAC
 70
    0
  9
$DIMLDRBLK
  1
STANDARD
  9
$DIMLUNIT
 70
    2
  9
$DIMLWD
 70
   -2
  9
$DIMLWE
 70
   -2
  9
$DIMTMOVE
 70
    0
  9
$DIMFXL
 40
1
  9
$DIMFXLON
 70
    0
  9
$DIMJOGANG
 40
0.7854
  9
$DIMTFILL
 70
    0
  9
$DIMTFILLCLR
 70
    0
  9
$DIMARCSYM
 70
    0
  9
$DIMLTYPE
  6

  9
$DIMLTEX1
  6

  9
$DIMLTEX2
  6

  9
$LUNITS
 70
    2
  9
$LUPREC
 70
    1
  9
$SKETCHINC
 40
1
  9
$FILLETRAD
 40
0
  9
$AUNITS
 70
    0
  9
$AUPREC
 70
    1
  9
$MENU
  1
.
  9
$ELEVATION
 40
0
  9
$PELEVATION
 40
0
  9
$THICKNESS
 40
0
  9
$LIMCHECK
 70
    0
  9
$CHAMFERA
 40
0
  9
$CHAMFERB
 40
0
  9
$CHAMFERC
 40
0
  9
$CHAMFERD
 40
0
  9
$SKPOLY
 70
    0
  9
$USRTIMER
 70
    1
  9
$ANGBASE
 50
0
  9
$ANGDIR
 70
    0
  9
$PDMODE
 70
   34
  9
$PDSIZE
 40
0
  9
$PLINEWID
 40
0
  9
$SPLFRAME
 70
    0
  9
$SPLINETYPE
 70
    2
  9
$SPLINESEGS
 70
    8
  9
$HANDSEED
  5
20000
  9
$SURFTAB1
 70
    6
  9
$SURFTAB2
 70
    6
  9
$SURFTYPE
 70
    6
  9
$SURFU
 70
    6
  9
$SURFV
 70
    6
  9
$UCSBASE
  2

  9
$UCSNAME
  2

  9
$UCSORG
 10
0
 20
0
 30
0
  9
$UCSXDIR
 10
1
 20
0
 30
0
  9
$UCSYDIR
 10
0
 20
1
 30
0
  9
$UCSORTHOREF
  2

  9
$UCSORTHOVIEW
 70
    0
  9
$UCSORGTOP
 10
0
 20
0
 30
0
  9
$UCSORGBOTTOM
 10
0
 20
0
 30
0
  9
$UCSORGLEFT
 10
0
 20
0
 30
0
  9
$UCSORGRIGHT
 10
0
 20
0
 30
0
  9
$UCSORGFRONT
 10
0
 20
0
 30
0
  9
$UCSORGBACK
 10
0
 20
0
 30
0
  9
$PUCSBASE
  2

  9
$PUCSNAME
  2

  9
$PUCSORG
 10
0
 20
0
 30
0
  9
$PUCSXDIR
 10
1
 20
0
 30
0
  9
$PUCSYDIR
 10
0
 20
1
 30
0
  9
$PUCSORTHOREF
  2

  9
$PUCSORTHOVIEW
 70
    0
  9
$PUCSORGTOP
 10
0
 20
0
 30
0
  9
$PUCSORGBOTTOM
 10
0
 20
0
 30
0
  9
$PUCSORGLEFT
 10
0
 20
0
 30
0
  9
$PUCSORGRIGHT
 10
0
 20
0
 30
0
  9
$PUCSORGFRONT
 10
0
 20
0
 30
0
  9
$PUCSORGBACK
 10
0
 20
0
 30
0
  9
$USERI1
 70
    0
  9
$USERI2
 70
    0
  9
$USERI3
 70
    0
  9
$USERI4
 70
    0
  9
$USERI5
 70
    0
  9
$USERR1
 40
0
  9
$USERR2
 40
0
  9
$USERR3
 40
0
  9
$USERR4
 40
0
  9
$USERR5
 40
0
  9
$WORLDVIEW
 70
    1
  9
$SHADEDGE
 70
    3
  9
$SHADEDIF
 70
   70
  9
$TILEMODE
 70
    1
  9
$MAXACTVP
 70
   64
  9
$PINSBASE
 10
0
 20
0
 30
0
  9
$PLIMCHECK
 70
    0
  9
$PEXTMIN
 10
0
 20
0
 30
0
  9
$PEXTMAX
 10
0
 20
0
 30
0
  9
$GRIDMODE
 70
    1
  9
$SNAPSTYLE
 70
    0
  9
$GRIDUNIT
 10
0
 20
0
  9
$PLIMMIN
 10
0
 20
0
  9
$PLIMMAX
 10
210
 20
297
  9
$UNITMODE
 70
    0
  9
$VISRETAIN
 70
    1
  9
$PLINEGEN
 70
    0
  9
$PSLTSCALE
 70
    1
  9
$TREEDEPTH
 70
 3020
  9
$CMLSTYLE
  2
Standard
  9
$CMLJUST
 70
    0
  9
$CMLSCALE
 40
20
  9
$PROXYGRAPHICS
 70
    1
  9
$MEASUREMENT
 70
    1
  9
$CELWEIGHT
370
   -1
  9
$ENDCAPS
280
    0
  9
$JOINSTYLE
280
    0
  9
$LWDISPLAY
290
    0
  9
$INSUNITS
 70
    4
  9
$HYPERLINKBASE
  1

  9
$STYLESHEET
  1

  9
$XEDIT
290
    1
  9
$CEPSNTYPE
380
    0
  9
$PSTYLEMODE
290
    1
  9
$EXTNAMES
290
    1
  9
$PSVPSCALE
 40
1
  9
$OLESTARTUP
290
    0
  9
$SORTENTS
280
  127
  9
$INDEXCTL
280
    0
  9
$HIDETEXT
280
    1
  9
$XCLIPFRAME
290
    0
  9
$HALOGAP
280
    0
  9
$OBSCOLOR
 70
  257
  9
$OBSLTYPE
280
    0
  9
$INTERSECTIONDISPLAY
280
    0
  9
$INTERSECTIONCOLOR
 70
  257
  9
$DIMASSOC
280
    1
  9
$PROJECTNAME
  1

  9
$CAMERADISPLAY
290
    0
  9
$LENSLENGTH
 40
50
  9
$CAMERAHEIGHT
 40
0
  9
$STEPSPERSEC
 40
2
  9
$STEPSIZE
 40
50
  9
$3DDWFPREC
 40
2
  9
$PSOLWIDTH
 40
5
  9
$PSOLHEIGHT
 40
80
  9
$LOFTANG1
 40
1.570796326794897
  9
$LOFTANG2
 40
1.570796326794897
  9
$LOFTMAG1
 40
0
  9
$LOFTMAG2
 40
0
  9
$LOFTPARAM
 70
    7
  9
$LOFTNORMALS
280
    1
  9
$LATITUDE
 40
1
  9
$LONGITUDE
 40
1
  9
$NORTHDIRECTION
 40
0
  9
$TIMEZONE
 70
-8000
  9
$LIGHTGLYPHDISPLAY
280
    1
  9
$TILEMODELIGHTSYNCH
280
    1
  9
$SOLIDHIST
280
    1
  9
$SHOWHIST
280
    1
  9
$DWFFRAME
280
    2
  9
$DGNFRAME
280
    0
  9
$REALWORLDSCALE
290
    1
  9
$INTERFERECOLOR
 62
    1
  9
$CSHADOW
280
    0
  9
$SHADOWPLANELOCATION
 40
0
  0
ENDSEC
  0
SECTION
  2
CLASSES
  0
ENDSEC
  0
SECTION
  2
TABLES
  0
TABLE
  2
VPORT
  5
8
330
0
100
AcDbSymbolTable
 70
    1
  0
VPORT
  5
31
330
2
100
AcDbSymbolTableRecord
100
AcDbViewportTableRecord
  2
*ACTIVE
 70
    0
 10
0
 20
0
 11
1
 21
1
 12
110.1855452405094
 22
122.8258783525159
 13
0
 23
0
 14
10
 24
10
 15
10
 25
10
 16
0
 26
0
 36
1
 17
0
 27
0
 37
0
 40
184.3580659543588
 41
1.197930142302717
 42
50
 43
0
 44
0
 50
0
 51
0
 71
    0
 72
  100
 73
    1
 74
    3
 75
    0
 76
    1
 77
    0
 78
    0
281
    0
 65
    1
110
0
120
0
130
0
111
1
121
0
131
0
112
0
122
1
132
0
 79
    0
146
0
348
10020
 60
    7
 61
    5
292
1
282
    1
141
0
142
0
 63
  250
421
3358443
  0
ENDTAB
  0
TABLE
  2
LTYPE
  5
5
330
0
100
AcDbSymbolTable
 70
    4
  0
LTYPE
  5
14
330
5
100
AcDbSymbolTableRecord
100
AcDbLinetypeTableRecord
  2
ByBlock
 70
    0
  3

 72
   65
 73
    0
 40
0
  0
LTYPE
  5
15
330
5
100
AcDbSymbolTableRecord
100
AcDbLinetypeTableRecord
  2
ByLayer
 70
    0
  3

 72
   65
 73
    0
 40
0
  0
LTYPE
  5
16
330
5
100
AcDbSymbolTableRecord
100
AcDbLinetypeTableRecord
  2
Continuous
 70
    0
  3
Solid line
 72
   65
 73
    0
 40
0
  0
LTYPE
  5
32
330
5
100
AcDbSymbolTableRecord
100
AcDbLinetypeTableRecord
  2
DOT
 70
    0
  3
Dot . . . . . . . . . . . . . . . . . . . . . .
 72
   65
 73
    2
 40
6.35
 49
0
 74
    0
 49
-6.35
 74
    0
  0
LTYPE
  5
33
330
5
100
AcDbSymbolTableRecord
100
AcDbLinetypeTableRecord
  2
DOTTINY
 70
    0
  3
Dot (.15x) .....................................
 72
   65
 73
    2
 40
0.9525
 49
0
 74
    0
 49
-0.9525
 74
    0
  0
LTYPE
  5
34
330
5
100
AcDbSymbolTableRecord
100
AcDbLinetypeTableRecord
  2
DOT2
 70
    0
  3
Dot (.5x) .....................................
 72
   65
 73
    2
 40
3.175
 49
0
 74
    0
 49
-3.175
 74
    0
  0
LTYPE
  5
35
330
5
100
AcDbSymbolTableRecord
100
AcDbLinetypeTableRecord
  2
DOTX2
 70
    0
  3
Dot (2x) .  .  .  .  .  .  .  .  .  .  .  .  .
 72
   65
 73
    2
 40
12.7
 49
0
 74
    0
 49
-12.7
 74
    0
  0
LTYPE
  5
36
330
5
100
AcDbSymbolTableRecord
100
AcDbLinetypeTableRecord
  2
DASHED
 70
    0
  3
Dashed _ _ _ _ _ _ _ _ _ _ _ _ _ _ _ _ _
 72
   65
 73
    2
 40
19.05
 49
12.7
 74
    0
 49
-6.35
 74
    0
  0
LTYPE
  5
37
330
5
100
AcDbSymbolTableRecord
100
AcDbLinetypeTableRecord
  2
DASHEDTINY
 70
    0
  3
Dashed (.15x) _ _ _ _ _ _ _ _ _ _ _ _ _ _ _ _ _
 72
   65
 73
    2
 40
2.8575
 49
1.905
 74
    0
 49
-0.9525
 74
    0
  0
LTYPE
  5
38
330
5
100
AcDbSymbolTableRecord
100
AcDbLinetypeTableRecord
  2
DASHED2
 70
    0
  3
Dashed (.5x) _ _ _ _ _ _ _ _ _ _ _ _ _ _ _ _ _
 72
   65
 73
    2
 40
9.524999999999999
 49
6.35
 74
    0
 49
-3.175
 74
    0
  0
LTYPE
  5
39
330
5
100
AcDbSymbolTableRecord
100
AcDbLinetypeTableRecord
  2
DASHEDX2
 70
    0
  3
Dashed (2x) ____  ____  ____  ____  ____  ___
 72
   65
 73
    2
 40
38.09999999999999
 49
25.4
 74
    0
 49
-12.7
 74
    0
  0
LTYPE
  5
3A
330
5
100
AcDbSymbolTableRecord
100
AcDbLinetypeTableRecord
  2
DASHDOT
 70
    0
  3
Dash dot __ . __ . __ . __ . __ . __ . __ . __
 72
   65
 73
    4
 40
25.4
 49
12.7
 74
    0
 49
-6.35
 74
    0
 49
0
 74
    0
 49
-6.35
 74
    0
  0
LTYPE
  5
3B
330
5
100
AcDbSymbolTableRecord
100
AcDbLinetypeTableRecord
  2
DASHDOTTINY
 70
    0
  3
Dash dot (.15x) _._._._._._._._._._._._._._._.
 72
   65
 73
    4
 40
3.81
 49
1.905
 74
    0
 49
-0.9525
 74
    0
 49
0
 74
    0
 49
-0.9525
 74
    0
  0
LTYPE
  5
3C
330
5
100
AcDbSymbolTableRecord
100
AcDbLinetypeTableRecord
  2
DASHDOT2
 70
    0
  3
Dash dot (.5x) _._._._._._._._._._._._._._._.
 72
   65
 73
    4
 40
12.7
 49
6.35
 74
    0
 49
-3.175
 74
    0
 49
0
 74
    0
 49
-3.175
 74
    0
  0
LTYPE
  5
3D
330
5
100
AcDbSymbolTableRecord
100
AcDbLinetypeTableRecord
  2
DASHDOTX2
 70
    0
  3
Dash dot (2x) ____  .  ____  .  ____  .  ___
 72
   65
 73
    4
 40
50.8
 49
25.4
 74
    0
 49
-12.7
 74
    0
 49
0
 74
    0
 49
-12.7
 74
    0
  0
LTYPE
  5
3E
330
5
100
AcDbSymbolTableRecord
100
AcDbLinetypeTableRecord
  2
DIVIDE
 70
    0
  3
Divide ____ . . ____ . . ____ . . ____ . . ____
 72
   65
 73
    6
 40
31.75
 49
12.7
 74
    0
 49
-6.35
 74
    0
 49
0
 74
    0
 49
-6.35
 74
    0
 49
0
 74
    0
 49
-6.35
 74
    0
  0
LTYPE
  5
3F
330
5
100
AcDbSymbolTableRecord
100
AcDbLinetypeTableRecord
  2
DIVIDETINY
 70
    0
  3
Divide (.15x) __..__..__..__..__..__..__..__.._
 72
   65
 73
    6
 40
4.7625
 49
1.905
 74
    0
 49
-0.9525
 74
    0
 49
0
 74
    0
 49
-0.9525
 74
    0
 49
0
 74
    0
 49
-0.9525
 74
    0
  0
LTYPE
  5
40
330
5
100
AcDbSymbolTableRecord
100
AcDbLinetypeTableRecord
  2
DIVIDE2
 70
    0
  3
Divide (.5x) __..__..__..__..__..__..__..__.._
 72
   65
 73
    6
 40
15.875
 49
6.35
 74
    0
 49
-3.175
 74
    0
 49
0
 74
    0
 49
-3.175
 74
    0
 49
0
 74
    0
 49
-3.175
 74
    0
  0
LTYPE
  5
41
330
5
100
AcDbSymbolTableRecord
100
AcDbLinetypeTableRecord
  2
DIVIDEX2
 70
    0
  3
Divide (2x) ________  .  .  ________  .  .  _
 72
   65
 73
    6
 40
63.5
 49
25.4
 74
    0
 49
-12.7
 74
    0
 49
0
 74
    0
 49
-12.7
 74
    0
 49
0
 74
    0
 49
-12.7
 74
    0
  0
LTYPE
  5
42
330
5
100
AcDbSymbolTableRecord
100
AcDbLinetypeTableRecord
  2
BORDER
 70
    0
  3
Border __ __ . __ __ . __ __ . __ __ . __ __ .
 72
   65
 73
    6
 40
44.45
 49
12.7
 74
    0
 49
-6.35
 74
    0
 49
12.7
 74
    0
 49
-6.35
 74
    0
 49
0
 74
    0
 49
-6.35
 74
    0
  0
LTYPE
  5
43
330
5
100
AcDbSymbolTableRecord
100
AcDbLinetypeTableRecord
  2
BORDERTINY
 70
    0
  3
Border (.15x) __.__.__.__.__.__.__.__.__.__.__.
 72
   65
 73
    6
 40
6.6675
 49
1.905
 74
    0
 49
-0.9525
 74
    0
 49
1.905
 74
    0
 49
-0.9525
 74
    0
 49
0
 74
    0
 49
-0.9525
 74
    0
  0
LTYPE
  5
44
330
5
100
AcDbSymbolTableRecord
100
AcDbLinetypeTableRecord
  2
BORDER2
 70
    0
  3
Border (.5x) __.__.__.__.__.__.__.__.__.__.__.
 72
   65
 73
    6
 40
22.225
 49
6.35
 74
    0
 49
-3.175
 74
    0
 49
6.35
 74
    0
 49
-3.175
 74
    0
 49
0
 74
    0
 49
-3.175
 74
    0
  0
LTYPE
  5
45
330
5
100
AcDbSymbolTableRecord
100
AcDbLinetypeTableRecord
  2
BORDERX2
 70
    0
  3
Border (2x) ____  ____  .  ____  ____  .  ___
 72
   65
 73
    6
 40
88.89999999999999
 49
25.4
 74
    0
 49
-12.7
 74
    0
 49
25.4
 74
    0
 49
-12.7
 74
    0
 49
0
 74
    0
 49
-12.7
 74
    0
  0
LTYPE
  5
46
330
5
100
AcDbSymbolTableRecord
100
AcDbLinetypeTableRecord
  2
CENTER
 70
    0
  3
Center ____ _ ____ _ ____ _ ____ _ ____ _ ____
 72
   65
 73
    4
 40
50.8
 49
31.75
 74
    0
 49
-6.35
 74
    0
 49
6.35
 74
    0
 49
-6.35
 74
    0
  0
LTYPE
  5
47
330
5
100
AcDbSymbolTableRecord
100
AcDbLinetypeTableRecord
  2
CENTERTINY
 70
    0
  3
Center (.15x) ___ _ ___ _ ___ _ ___ _ ___ _ ___
 72
   65
 73
    4
 40
7.62
 49
4.7625
 74
    0
 49
-0.9525
 74
    0
 49
0.9525
 74
    0
 49
-0.9525
 74
    0
  0
LTYPE
  5
48
330
5
100
AcDbSymbolTableRecord
100
AcDbLinetypeTableRecord
  2
CENTER2
 70
    0
  3
Center (.5x) ___ _ ___ _ ___ _ ___ _ ___ _ ___
 72
   65
 73
    4
 40
28.575
 49
19.05
 74
    0
 49
-3.175
 74
    0
 49
3.175
 74
    0
 49
-3.175
 74
    0
  0
LTYPE
  5
49
330
5
100
AcDbSymbolTableRecord
100
AcDbLinetypeTableRecord
  2
CENTERX2
 70
    0
  3
Center (2x) ________  __  ________  __  _____
 72
   65
 73
    4
 40
101.6
 49
63.5
 74
    0
 49
-12.7
 74
    0
 49
12.7
 74
    0
 49
-12.7
 74
    0
  0
ENDTAB
  0
TABLE
  2
LAYER
  5
2
330
0
100
AcDbSymbolTable
 70
    1
  0
LAYER
  5
10
330
2
100
AcDbSymbolTableRecord
100
AcDbLayerTableRecord
  2
0
 70
    0
 62
    7
  6
CONTINUOUS
370
    0
390
F
  0
LAYER
  5
4A
330
2
100
AcDbSymbolTableRecord
100
AcDbLayerTableRecord
  2
center
 70
    0
 62
    1
  6
CENTERTINY
370
    0
390
F
  0
LAYER
  5
4B
330
2
100
AcDbSymbolTableRecord
100
AcDbLayerTableRecord
  2
notation
 70
    0
 62
   96
420
32768
  6
CONTINUOUS
370
    0
390
F
  0
LAYER
  5
4C
330
2
100
AcDbSymbolTableRecord
100
AcDbLayerTableRecord
  2
notation2
 70
    0
 62
    2
  6
DOTTINY
370
    0
390
F
  0
LAYER
  5
4D
330
2
100
AcDbSymbolTableRecord
100
AcDbLayerTableRecord
  2
虚线
 70
    0
 62
    7
  6
DASHEDTINY
370
    0
390
F
  0
ENDTAB
  0
TABLE
  2
STYLE
  5
3
330
0
100
AcDbSymbolTable
 70
    3
  0
STYLE
  5
4E
330
2
100
AcDbSymbolTableRecord
100
AcDbTextStyleTableRecord
  2
wqy-unicode
 70
    0
 40
0
 41
1
 50
0
 71
    0
 42
1
  3
wqy-unicode
  4

  0
STYLE
  5
4F
330
2
100
AcDbSymbolTableRecord
100
AcDbTextStyleTableRecord
  2
Standard
 70
    0
 40
0
 41
1
 50
0
 71
    0
 42
1
  3
txt
  4

  0
ENDTAB
  0
TABLE
  2
VIEW
  5
6
330
0
100
AcDbSymbolTable
 70
    0
  0
ENDTAB
  0
TABLE
  2
UCS
  5
7
330
0
100
AcDbSymbolTable
 70
    0
  0
ENDTAB
  0
TABLE
  2
APPID
  5
9
330
0
100
AcDbSymbolTable
 70
    1
  0
APPID
  5
12
330
9
100
AcDbSymbolTableRecord
100
AcDbRegAppTableRecord
  2
ACAD
 70
    0
  0
APPID
  5
50
330
9
100
AcDbSymbolTableRecord
100
AcDbRegAppTableRecord
  2
LibreCad
 70
    0
  0
ENDTAB
  0
TABLE
  2
DIMSTYLE
  5
A
330
0
100
AcDbSymbolTable
 70
    1
100
AcDbDimStyleTable
 71
    1
  0
DIMSTYLE
105
51
330
A
100
AcDbSymbolTableRecord
100
AcDbDimStyleTableRecord
  2
Standard
 70
    0
 40
2.5
 41
2
 42
0.625
 43
0.38
 44
1.25
 45
0
 46
0
 47
0
 48
0
 49
1
140
1
141
0.09
142
0
143
25.4
144
1
145
0
146
1
147
0.625
148
0
 71
    0
 72
    0
 73
    0
 74
    1
 75
    0
 76
    0
 77
    0
 78
    8
 79
    0
170
    0
171
    2
172
    0
173
    0
174
    0
175
    0
176
    0
177
    0
178
    0
179
    1
271
    1
272
    4
273
    2
274
    2
275
    0
276
    0
277
    2
278
    0
279
    0
280
    0
281
    0
282
    0
283
    1
284
    0
285
    0
286
    0
288
    0
289
    3
340
standard
341

371
   -2
372
   -2
  0
ENDTAB
  0
TABLE
  2
BLOCK_RECORD
  5
1
330
0
100
AcDbSymbolTable
 70
    2
  0
BLOCK_RECORD
  5
1F
330
1
100
AcDbSymbolTableRecord
100
AcDbBlockTableRecord
  2
*Model_Space
 70
    0
280
    1
281
    0
  0
BLOCK_RECORD
  5
1E
330
1
100
AcDbSymbolTableRecord
100
AcDbBlockTableRecord
  2
*Paper_Space
 70
    0
280
    1
281
    0
  0
BLOCK_RECORD
  5
52
330
1
100
AcDbSymbolTableRecord
100
AcDbBlockTableRecord
  2
*D1
 70
    0
280
    1
281
    0
  0
BLOCK_RECORD
  5
55
330
1
100
AcDbSymbolTableRecord
100
AcDbBlockTableRecord
  2
*D12
 70
    0
280
    1
281
    0
  0
BLOCK_RECORD
  5
58
330
1
100
AcDbSymbolTableRecord
100
AcDbBlockTableRecord
  2
*D2
 70
    0
280
    1
281
    0
  0
BLOCK_RECORD
  5
5B
330
1
100
AcDbSymbolTableRecord
100
AcDbBlockTableRecord
  2
*D8
 70
    0
280
    1
281
    0
  0
BLOCK_RECORD
  5
5E
330
1
100
AcDbSymbolTableRecord
100
AcDbBlockTableRecord
  2
*D9
 70
    0
280
    1
281
    0
  0
BLOCK_RECORD
  5
61
330
1
100
AcDbSymbolTableRecord
100
AcDbBlockTableRecord
  2
*D11
 70
    0
280
    1
281
    0
  0
BLOCK_RECORD
  5
64
330
1
100
AcDbSymbolTableRecord
100
AcDbBlockTableRecord
  2
*D10
 70
    0
280
    1
281
    0
  0
BLOCK_RECORD
  5
67
330
1
100
AcDbSymbolTableRecord
100
AcDbBlockTableRecord
  2
*D4
 70
    0
280
    1
281
    0
  0
BLOCK_RECORD
  5
6A
330
1
100
AcDbSymbolTableRecord
100
AcDbBlockTableRecord
  2
*D6
 70
    0
280
    1
281
    0
  0
BLOCK_RECORD
  5
6D
330
1
100
AcDbSymbolTableRecord
100
AcDbBlockTableRecord
  2
*D3
 70
    0
280
    1
281
    0
  0
BLOCK_RECORD
  5
70
330
1
100
AcDbSymbolTableRecord
100
AcDbBlockTableRecord
  2
*D5
 70
    0
280
    1
281
    0
  0
BLOCK_RECORD
  5
73
330
1
100
AcDbSymbolTableRecord
100
AcDbBlockTableRecord
  2
*D7
 70
    0
280
    1
281
    0
  0
BLOCK_RECORD
  5
76
330
1
100
AcDbSymbolTableRecord
100
AcDbBlockTableRecord
  2
*D13
 70
    0
280
    1
281
    0
  0
ENDTAB
  0
ENDSEC
  0
SECTION
  2
BLOCKS
  0
BLOCK
  5
20
330
1F
100
AcDbEntity
  8
0
100
AcDbBlockBegin
  2
*Model_Space
 70
    0
 10
0
 20
0
 30
0
  3
*Model_Space
  1

  0
ENDBLK
  5
21
330
1F
100
AcDbEntity
  8
0
100
AcDbBlockEnd
  0
BLOCK
  5
1C
330
1B
100
AcDbEntity
  8
0
100
AcDbBlockBegin
  2
*Paper_Space
 70
    0
 10
0
 20
0
 30
0
  3
*Paper_Space
  1

  0
ENDBLK
  5
1D
330
1F
100
AcDbEntity
  8
0
100
AcDbBlockEnd
  0
BLOCK
  5
53
330
52
100
AcDbEntity
  8
0
100
AcDbBlockBegin
  2
*D1
 70
    1
 10
0
 20
0
  3
*D1
  1

  0
LINE
  5
79
100
AcDbEntity
  8
notation
  6
ByBlock
 62
    0
370
   -2
100
AcDbLine
 10
24.33610480200335
 20
173.0921920059653
 11
95.66389519799665
 21
182.9078079940347
  0
SOLID
  5
7A
100
AcDbEntity
  8
notation
  6
ByBlock
 62
    0
370
   -2
100
AcDbTrace
 10
24.33610480200335
 20
173.0921920059653
 30
0
 11
29.17592106999113
 21
174.5986282499892
 31
0
 12
29.40292608901464
 22
172.9490357602843
 32
0
 13
29.40292608901464
 23
172.9490357602843
 33
0
  0
SOLID
  5
7B
100
AcDbEntity
  8
notation
  6
ByBlock
 62
    0
370
   -2
100
AcDbTrace
 10
95.66389519799665
 20
182.9078079940347
 30
0
 11
90.82407893000887
 21
181.4013717500108
 31
0
 12
90.59707391098536
 22
183.0509642397157
 32
0
 13
90.59707391098536
 23
183.0509642397157
 33
0
  0
MTEXT
  5
7C
100
AcDbEntity
  8
notation
  6
CONTINUOUS
 62
    0
370
   -2
100
AcDbMText
 10
59.61657750046604
 20
180.7862418123435
 30
0
 40
2.5
 41
14.16666666666667
 71
    5
 72
    1
  1
             %%C72%%P0.02
  7
standard
210
0
220
0
230
1
 50
7.835418692644865
 73
    2
 44
1
  0
ENDBLK
  5
54
330
52
100
AcDbEntity
  8
0
100
AcDbBlockEnd
  0
BLOCK
  5
56
330
55
100
AcDbEntity
  8
0
100
AcDbBlockBegin
  2
*D12
 70
    1
 10
0
 20
0
  3
*D12
  1

  0
LINE
  5
7D
100
AcDbEntity
  8
notation
  6
ByBlock
 62
    0
370
   -2
100
AcDbLine
 10
123.0000000000001
 20
123.1524429681697
 11
146.9999999999981
 21
123.1524429681697
  0
SOLID
  5
7E
100
AcDbEntity
  8
notation
  6
ByBlock
 62
    0
370
   -2
100
AcDbTrace
 10
123.0000000000001
 20
123.1524429681697
 30
0
 11
128.0000000000001
 21
123.9850122837153
 31
0
 12
128.0000000000001
 22
122.319873652624
 32
0
 13
128.0000000000001
 23
122.319873652624
 33
0
  0
SOLID
  5
7F
100
AcDbEntity
  8
notation
  6
ByBlock
 62
    0
370
   -2
100
AcDbTrace
 10
146.9999999999981
 20
123.1524429681697
 30
0
 11
141.9999999999981
 21
122.319873652624
 31
0
 12
141.9999999999981
 22
123.9850122837153
 32
0
 13
141.9999999999981
 23
123.9850122837153
 33
0
  0
MTEXT
  5
80
100
AcDbEntity
  8
notation
  6
CONTINUOUS
 62
    0
370
   -2
100
AcDbMText
 10
134.9999999999991
 20
125.9649429681697
 30
0
 40
2.5
 41
3.333333333333333
 71
    5
 72
    1
  1
24
  7
standard
210
0
220
0
230
1
 50
0
 73
    2
 44
1
  0
LINE
  5
81
100
AcDbEntity
  8
notation
  6
ByBlock
 62
    0
370
   -2
100
AcDbLine
 10
123.0000000000001
 20
136.4374999999988
 11
123.0000000000001
 21
120.0274429681697
  0
LINE
  5
82
100
AcDbEntity
  8
notation
  6
ByBlock
 62
    0
370
   -2
100
AcDbLine
 10
146.9999999999981
 20
136.4374999999988
 11
146.9999999999981
 21
120.0274429681697
  0
ENDBLK
  5
57
330
55
100
AcDbEntity
  8
0
100
AcDbBlockEnd
  0
BLOCK
  5
59
330
58
100
AcDbEntity
  8
0
100
AcDbBlockBegin
  2
*D2
 70
    1
 10
0
 20
0
  3
*D2
  1

  0
LINE
  5
83
100
AcDbEntity
  8
notation
  6
ByBlock
 62
    0
370
   -2
100
AcDbLine
 10
33.06323654674942
 20
157.2536563543447
 11
86.93676345325058
 21
198.7463436456553
  0
SOLID
  5
84
100
AcDbEntity
  8
notation
  6
ByBlock
 62
    0
370
   -2
100
AcDbTrace
 10
33.06323654674942
 20
157.2536563543447
 30
0
 11
36.51650266842925
 21
160.9641987349202
 31
0
 12
37.53254791131977
 22
159.6449797519032
 32
0
 13
37.53254791131977
 23
159.6449797519032
 33
0
  0
SOLID
  5
85
100
AcDbEntity
  8
notation
  6
ByBlock
 62
    0
370
   -2
100
AcDbTrace
 10
86.93676345325058
 20
198.7463436456553
 30
0
 11
83.48349733157075
 21
195.0358012650798
 31
0
 12
82.46745208868023
 22
196.3550202480968
 32
0
 13
82.46745208868023
 23
196.3550202480968
 33
0
  0
MTEXT
  5
86
100
AcDbEntity
  8
notation
  6
CONTINUOUS
 62
    0
370
   -2
100
AcDbMText
 10
58.28385024989984
 20
180.2282249180079
 30
0
 40
2.5
 41
5.555555555555717
 71
    5
 72
    1
  1
           %%C68
  7
standard
210
0
220
0
230
1
 50
37.60299497811084
 73
    2
 44
1
  0
ENDBLK
  5
5A
330
58
100
AcDbEntity
  8
0
100
AcDbBlockEnd
  0
BLOCK
  5
5C
330
5B
100
AcDbEntity
  8
0
100
AcDbBlockBegin
  2
*D8
 70
    1
 10
0
 20
0
  3
*D8
  1

  0
LINE
  5
87
100
AcDbEntity
  8
notation
  6
ByBlock
 62
    0
370
   -2
100
AcDbLine
 10
214.537183119113
 20
217.9999999999987
 11
214.537183119113
 21
137.9999999999988
  0
SOLID
  5
88
100
AcDbEntity
  8
notation
  6
ByBlock
 62
    0
370
   -2
100
AcDbTrace
 10
214.537183119113
 20
217.9999999999987
 30
0
 11
215.3697524346587
 21
212.9999999999987
 31
0
 12
213.7046138035673
 22
212.9999999999987
 32
0
 13
213.7046138035673
 23
212.9999999999987
 33
0
  0
SOLID
  5
89
100
AcDbEntity
  8
notation
  6
ByBlock
 62
    0
370
   -2
100
AcDbTrace
 10
214.537183119113
 20
137.9999999999988
 30
0
 11
213.7046138035673
 21
142.9999999999988
 31
0
 12
215.3697524346587
 22
142.9999999999988
 32
0
 13
215.3697524346587
 23
142.9999999999988
 33
0
  0
MTEXT
  5
8A
100
AcDbEntity
  8
notation
  6
CONTINUOUS
 62
    0
370
   -2
100
AcDbMText
 10
211.724683119113
 20
177.9999999999987
 30
0
 40
2.5
 41
3.333333333333333
 71
    5
 72
    1
  1
84
  7
standard
210
0
220
0
230
1
 50
90
 73
    2
 44
1
  0
LINE
  5
8B
100
AcDbEntity
  8
notation
  6
ByBlock
 62
    0
370
   -2
100
AcDbLine
 10
206.5624999999998
 20
217.9999999999987
 11
217.662183119113
 21
217.9999999999987
  0
LINE
  5
8C
100
AcDbEntity
  8
notation
  6
ByBlock
 62
    0
370
   -2
100
AcDbLine
 10
206.5624999999998
 20
137.9999999999988
 11
217.662183119113
 21
137.9999999999988
  0
ENDBLK
  5
5D
330
5B
100
AcDbEntity
  8
0
100
AcDbBlockEnd
  0
BLOCK
  5
5F
330
5E
100
AcDbEntity
  8
0
100
AcDbBlockBegin
  2
*D9
 70
    1
 10
0
 20
0
  3
*D9
  1

  0
LINE
  5
8D
100
AcDbEntity
  8
notation
  6
ByBlock
 62
    0
370
   -2
100
AcDbLine
 10
90.9999999999997
 20
155.3212503116679
 11
114
 21
155.3212503116679
  0
SOLID
  5
8E
100
AcDbEntity
  8
notation
  6
ByBlock
 62
    0
370
   -2
100
AcDbTrace
 10
100.9999999999997
 20
155.3212503116679
 30
0
 11
95.9999999999997
 21
154.4886809961222
 31
0
 12
95.9999999999997
 22
156.1538196272136
 32
0
 13
95.9999999999997
 23
156.1538196272136
 33
0
  0
SOLID
  5
8F
100
AcDbEntity
  8
notation
  6
ByBlock
 62
    0
370
   -2
100
AcDbTrace
 10
104
 20
155.3212503116679
 30
0
 11
109
 21
156.1538196272136
 31
0
 12
109
 22
154.4886809961222
 32
0
 13
109
 23
154.4886809961222
 33
0
  0
MTEXT
  5
90
100
AcDbEntity
  8
notation
  6
CONTINUOUS
 62
    0
370
   -2
100
AcDbMText
 10
109.1736111111112
 20
158.1337503116679
 30
0
 40
2.5
 41
7.222222222222378
 71
    5
 72
    1
  1
3%%P0.1
  7
standard
210
0
220
0
230
1
 50
0
 73
    2
 44
1
  0
LINE
  5
91
100
AcDbEntity
  8
notation
  6
ByBlock
 62
    0
370
   -2
100
AcDbLine
 10
100.9999999999997
 20
160.4374999999999
 11
100.9999999999997
 21
152.1962503116679
  0
LINE
  5
92
100
AcDbEntity
  8
notation
  6
ByBlock
 62
    0
370
   -2
100
AcDbLine
 10
104
 20
160.4374999999999
 11
104
 21
152.1962503116679
  0
ENDBLK
  5
60
330
5E
100
AcDbEntity
  8
0
100
AcDbBlockEnd
  0
BLOCK
  5
62
330
61
100
AcDbEntity
  8
0
100
AcDbBlockBegin
  2
*D11
 70
    1
 10
0
 20
0
  3
*D11
  1

  0
SOLID
  5
93
100
AcDbEntity
  8
notation
  6
ByBlock
 62
    0
370
   -2
100
AcDbTrace
 10
153.2112503762905
 20
166.5798262376135
 30
0
 11
156.3315840789211
 21
162.5852437501168
 31
0
 12
154.8688015784962
 22
161.7896596771216
 32
0
 13
154.8688015784962
 23
161.7896596771216
 33
0
  0
LINE
  5
94
100
AcDbEntity
  8
notation
  6
ByBlock
 62
    0
370
   -2
100
AcDbLine
 10
147.0000000000032
 20
177.9999999999987
 11
160.2453587084108
 21
153.646723472519
  0
MTEXT
  5
95
100
AcDbEntity
  8
notation
  6
CONTINUOUS
 62
    0
370
   -2
100
AcDbMText
 10
159.1990152120975
 20
161.4570549845515
 30
0
 40
2.5
 41
4.722222222222378
 71
    5
 72
    1
  1
R13
  7
standard
210
0
220
0
230
1
 50
298.5410641853098
 73
    2
 44
1
  0
ENDBLK
  5
63
330
61
100
AcDbEntity
  8
0
100
AcDbBlockEnd
  0
BLOCK
  5
65
330
64
100
AcDbEntity
  8
0
100
AcDbBlockBegin
  2
*D10
 70
    1
 10
0
 20
0
  3
*D10
  1

  0
LINE
  5
96
100
AcDbEntity
  8
notation
  6
ByBlock
 62
    0
370
   -2
100
AcDbLine
 10
132.9816300148597
 20
170.2873284161953
 11
161.0183699851467
 21
185.7126715838047
  0
SOLID
  5
97
100
AcDbEntity
  8
notation
  6
ByBlock
 62
    0
370
   -2
100
AcDbTrace
 10
132.9816300148597
 20
170.2873284161953
 30
0
 11
136.9610372788697
 21
173.4269923301091
 31
0
 12
137.7637039915643
 22
171.9680842421594
 32
0
 13
137.7637039915643
 23
171.9680842421594
 33
0
  0
SOLID
  5
98
100
AcDbEntity
  8
notation
  6
ByBlock
 62
    0
370
   -2
100
AcDbTrace
 10
161.0183699851467
 20
185.7126715838047
 30
0
 11
157.0389627211366
 21
182.5730076698909
 31
0
 12
156.236296008442
 22
184.0319157578406
 32
0
 13
156.236296008442
 23
184.0319157578406
 33
0
  0
MTEXT
  5
99
100
AcDbEntity
  8
notation
  6
CONTINUOUS
 62
    0
370
   -2
100
AcDbMText
 10
145.6442569481625
 20
180.464166598951
 30
0
 40
2.5
 41
9.845679012345837
 71
    5
 72
    1
  1
%%C32\S+0.02^ 0;
  7
standard
210
0
220
0
230
1
 50
28.81885168909185
 73
    2
 44
1
  0
ENDBLK
  5
66
330
64
100
AcDbEntity
  8
0
100
AcDbBlockEnd
  0
BLOCK
  5
68
330
67
100
AcDbEntity
  8
0
100
AcDbBlockBegin
  2
*D4
 70
    1
 10
0
 20
0
  3
*D4
  1

  0
LINE
  5
9A
100
AcDbEntity
  8
notation
  6
ByBlock
 62
    0
370
   -2
100
AcDbLine
 10
15.99999999999969
 20
112.9849640256937
 11
104
 21
112.9849640256937
  0
SOLID
  5
9B
100
AcDbEntity
  8
notation
  6
ByBlock
 62
    0
370
   -2
100
AcDbTrace
 10
15.99999999999969
 20
112.9849640256937
 30
0
 11
20.99999999999969
 21
113.8175333412394
 31
0
 12
20.99999999999969
 22
112.152394710148
 32
0
 13
20.99999999999969
 23
112.152394710148
 33
0
  0
SOLID
  5
9C
100
AcDbEntity
  8
notation
  6
ByBlock
 62
    0
370
   -2
100
AcDbTrace
 10
104
 20
112.9849640256937
 30
0
 11
99
 21
112.152394710148
 31
0
 12
99
 22
113.8175333412394
 32
0
 13
99
 23
113.8175333412394
 33
0
  0
MTEXT
  5
9D
100
AcDbEntity
  8
notation
  6
CONTINUOUS
 62
    0
370
   -2
100
AcDbMText
 10
59.99999999999984
 20
115.7974640256937
 30
0
 40
2.5
 41
3.055555555555556
 71
    5
 72
    1
  1
88
  7
standard
210
0
220
0
230
1
 50
0
 73
    2
 44
1
  0
LINE
  5
9E
100
AcDbEntity
  8
notation
  6
ByBlock
 62
    0
370
   -2
100
AcDbLine
 10
15.99999999999969
 20
136.4374999999988
 11
15.99999999999969
 21
109.8599640256937
  0
LINE
  5
9F
100
AcDbEntity
  8
notation
  6
ByBlock
 62
    0
370
   -2
100
AcDbLine
 10
104
 20
136.4374999999988
 11
104
 21
109.8599640256937
  0
ENDBLK
  5
69
330
67
100
AcDbEntity
  8
0
100
AcDbBlockEnd
  0
BLOCK
  5
6B
330
6A
100
AcDbEntity
  8
0
100
AcDbBlockBegin
  2
*D6
 70
    1
 10
0
 20
0
  3
*D6
  1

  0
LINE
  5
A0
100
AcDbEntity
  8
notation
  6
ByBlock
 62
    0
370
   -2
100
AcDbLine
 10
123.0000000000001
 20
112.8546191776617
 11
204.9999999999999
 21
112.8546191776617
  0
SOLID
  5
A1
100
AcDbEntity
  8
notation
  6
ByBlock
 62
    0
370
   -2
100
AcDbTrace
 10
123.0000000000001
 20
112.8546191776617
 30
0
 11
128.0000000000001
 21
113.6871884932074
 31
0
 12
128.0000000000001
 22
112.022049862116
 32
0
 13
128.0000000000001
 23
112.022049862116
 33
0
  0
SOLID
  5
A2
100
AcDbEntity
  8
notation
  6
ByBlock
 62
    0
370
   -2
100
AcDbTrace
 10
204.9999999999999
 20
112.8546191776617
 30
0
 11
199.9999999999999
 21
112.022049862116
 31
0
 12
199.9999999999999
 22
113.6871884932074
 32
0
 13
199.9999999999999
 23
113.6871884932074
 33
0
  0
MTEXT
  5
A3
100
AcDbEntity
  8
notation
  6
CONTINUOUS
 62
    0
370
   -2
100
AcDbMText
 10
164
 20
115.6671191776617
 30
0
 40
2.5
 41
3.055555555555556
 71
    5
 72
    1
  1
82
  7
standard
210
0
220
0
230
1
 50
0
 73
    2
 44
1
  0
LINE
  5
A4
100
AcDbEntity
  8
notation
  6
ByBlock
 62
    0
370
   -2
100
AcDbLine
 10
123.0000000000001
 20
131.4374999999986
 11
123.0000000000001
 21
109.7296191776617
  0
LINE
  5
A5
100
AcDbEntity
  8
notation
  6
ByBlock
 62
    0
370
   -2
100
AcDbLine
 10
204.9999999999999
 20
131.4374999999986
 11
204.9999999999999
 21
109.7296191776617
  0
ENDBLK
  5
6C
330
6A
100
AcDbEntity
  8
0
100
AcDbBlockEnd
  0
BLOCK
  5
6E
330
6D
100
AcDbEntity
  8
0
100
AcDbBlockBegin
  2
*D3
 70
    1
 10
0
 20
0
  3
*D3
  1

  0
LINE
  5
A6
100
AcDbEntity
  8
notation
  6
ByBlock
 62
    0
370
   -2
100
AcDbLine
 10
54.02840038884267
 20
163.1561461175319
 11
65.9715996111575
 21
192.8438538824655
  0
SOLID
  5
A7
100
AcDbEntity
  8
notation
  6
ByBlock
 62
    0
370
   -2
100
AcDbTrace
 10
54.02840038884267
 20
163.1561461175319
 30
0
 11
55.12211668814277
 21
168.1055861183637
 31
0
 12
56.66693384651595
 22
167.4841147932419
 32
0
 13
56.66693384651595
 23
167.4841147932419
 33
0
  0
SOLID
  5
A8
100
AcDbEntity
  8
notation
  6
ByBlock
 62
    0
370
   -2
100
AcDbTrace
 10
65.9715996111575
 20
192.8438538824655
 30
0
 11
64.8778833118574
 21
187.8944138816337
 31
0
 12
63.33306615348422
 22
188.5158852067555
 32
0
 13
63.33306615348422
 23
188.5158852067555
 33
0
  0
MTEXT
  5
A9
100
AcDbEntity
  8
notation
  6
CONTINUOUS
 62
    0
370
   -2
100
AcDbMText
 10
57.39072880972272
 20
179.0496952441474
 30
0
 40
2.5
 41
14.16666666666682
 71
    5
 72
    1
  1
   %%C32%%P0.02
  7
standard
210
0
220
0
230
1
 50
68.08535208851058
 73
    2
 44
1
  0
ENDBLK
  5
6F
330
6D
100
AcDbEntity
  8
0
100
AcDbBlockEnd
  0
BLOCK
  5
71
330
70
100
AcDbEntity
  8
0
100
AcDbBlockBegin
  2
*D5
 70
    1
 10
0
 20
0
  3
*D5
  1

  0
LINE
  5
AA
100
AcDbEntity
  8
notation
  6
ByBlock
 62
    0
370
   -2
100
AcDbLine
 10
5.999999999999691
 20
188.6610757618727
 11
34
 21
188.6610757618727
  0
SOLID
  5
AB
100
AcDbEntity
  8
notation
  6
ByBlock
 62
    0
370
   -2
100
AcDbTrace
 10
15.99999999999969
 20
188.6610757618727
 30
0
 11
10.99999999999969
 21
187.828506446327
 31
0
 12
10.99999999999969
 22
189.4936450774184
 32
0
 13
10.99999999999969
 23
189.4936450774184
 33
0
  0
SOLID
  5
AC
100
AcDbEntity
  8
notation
  6
ByBlock
 62
    0
370
   -2
100
AcDbTrace
 10
24
 20
188.6610757618727
 30
0
 11
29
 21
189.4936450774184
 31
0
 12
29
 22
187.828506446327
 32
0
 13
29
 23
187.828506446327
 33
0
  0
MTEXT
  5
AD
100
AcDbEntity
  8
notation
  6
CONTINUOUS
 62
    0
370
   -2
100
AcDbMText
 10
19.99999999999984
 20
191.4735757618727
 30
0
 40
2.5
 41
1.111111111111111
 71
    5
 72
    1
  1
8
  7
standard
210
0
220
0
230
1
 50
0
 73
    2
 44
1
  0
LINE
  5
AE
100
AcDbEntity
  8
notation
  6
ByBlock
 62
    0
370
   -2
100
AcDbLine
 10
15.99999999999969
 20
190.2235757618727
 11
15.99999999999969
 21
191.7860757618727
  0
LINE
  5
AF
100
AcDbEntity
  8
notation
  6
ByBlock
 62
    0
370
   -2
100
AcDbLine
 10
24
 20
190.2235757618727
 11
24
 21
191.7860757618727
  0
ENDBLK
  5
72
330
70
100
AcDbEntity
  8
0
100
AcDbBlockEnd
  0
BLOCK
  5
74
330
73
100
AcDbEntity
  8
0
100
AcDbBlockBegin
  2
*D7
 70
    1
 10
0
 20
0
  3
*D7
  1

  0
LINE
  5
B0
100
AcDbEntity
  8
notation
  6
ByBlock
 62
    0
370
   -2
100
AcDbLine
 10
113.0000000000001
 20
224.3691005836747
 11
141.0000000000002
 21
224.3691005836747
  0
SOLID
  5
B1
100
AcDbEntity
  8
notation
  6
ByBlock
 62
    0
370
   -2
100
AcDbTrace
 10
123.0000000000001
 20
224.3691005836747
 30
0
 11
118.0000000000001
 21
223.536531268129
 31
0
 12
118.0000000000001
 22
225.2016698992204
 32
0
 13
118.0000000000001
 23
225.2016698992204
 33
0
  0
SOLID
  5
B2
100
AcDbEntity
  8
notation
  6
ByBlock
 62
    0
370
   -2
100
AcDbTrace
 10
131.0000000000002
 20
224.3691005836747
 30
0
 11
136.0000000000002
 21
225.2016698992204
 31
0
 12
136.0000000000002
 22
223.536531268129
 32
0
 13
136.0000000000002
 23
223.536531268129
 33
0
  0
MTEXT
  5
B3
100
AcDbEntity
  8
notation
  6
CONTINUOUS
 62
    0
370
   -2
100
AcDbMText
 10
127.0000000000002
 20
227.1816005836747
 30
0
 40
2.5
 41
1.111111111111111
 71
    5
 72
    1
  1
8
  7
standard
210
0
220
0
230
1
 50
0
 73
    2
 44
1
  0
LINE
  5
B4
100
AcDbEntity
  8
notation
  6
ByBlock
 62
    0
370
   -2
100
AcDbLine
 10
123.0000000000001
 20
219.5624999999987
 11
123.0000000000001
 21
227.4941005836747
  0
LINE
  5
B5
100
AcDbEntity
  8
notation
  6
ByBlock
 62
    0
370
   -2
100
AcDbLine
 10
131.0000000000002
 20
213.5624999999984
 11
131.0000000000002
 21
227.4941005836747
  0
ENDBLK
  5
75
330
73
100
AcDbEntity
  8
0
100
AcDbBlockEnd
  0
BLOCK
  5
77
330
76
100
AcDbEntity
  8
0
100
AcDbBlockBegin
  2
*D13
 70
    1
 10
0
 20
0
  3
*D13
  1

  0
LINE
  5
B6
100
AcDbEntity
  8
notation
  6
ByBlock
 62
    0
370
   -2
100
AcDbLine
 10
186.9999999999997
 20
224.4255369509077
 11
214.9999999999998
 21
224.4255369509077
  0
SOLID
  5
B7
100
AcDbEntity
  8
notation
  6
ByBlock
 62
    0
370
   -2
100
AcDbTrace
 10
196.9999999999997
 20
224.4255369509077
 30
0
 11
191.9999999999997
 21
223.592967635362
 31
0
 12
191.9999999999997
 22
225.2581062664534
 32
0
 13
191.9999999999997
 23
225.2581062664534
 33
0
  0
SOLID
  5
B8
100
AcDbEntity
  8
notation
  6
ByBlock
 62
    0
370
   -2
100
AcDbTrace
 10
204.9999999999998
 20
224.4255369509077
 30
0
 11
209.9999999999998
 21
225.2581062664534
 31
0
 12
209.9999999999998
 22
223.592967635362
 32
0
 13
209.9999999999998
 23
223.592967635362
 33
0
  0
MTEXT
  5
B9
100
AcDbEntity
  8
notation
  6
CONTINUOUS
 62
    0
370
   -2
100
AcDbMText
 10
200.9999999999997
 20
227.2380369509077
 30
0
 40
2.5
 41
1.111111111111111
 71
    5
 72
    1
  1
8
  7
standard
210
0
220
0
230
1
 50
0
 73
    2
 44
1
  0
LINE
  5
BA
100
AcDbEntity
  8
notation
  6
ByBlock
 62
    0
370
   -2
100
AcDbLine
 10
196.9999999999997
 20
215.5624999999984
 11
196.9999999999997
 21
227.5505369509077
  0
LINE
  5
BB
100
AcDbEntity
  8
notation
  6
ByBlock
 62
    0
370
   -2
100
AcDbLine
 10
204.9999999999998
 20
219.5624999999987
 11
204.9999999999998
 21
227.5505369509077
  0
ENDBLK
  5
78
330
76
100
AcDbEntity
  8
0
100
AcDbBlockEnd
  0
ENDSEC
  0
SECTION
  2
ENTITIES
  0
CIRCLE
  5
BC
100
AcDbEntity
  8
0
  6
ByLayer
 62
  256
370
   -1
100
AcDbCircle
 10
60.00000000000009
 20
177.9999999999987
 40
16
  0
CIRCLE
  5
BD
100
AcDbEntity
  8
0
  6
ByLayer
 62
  256
370
   -1
100
AcDbCircle
 10
60
 20
178
 40
34
  0
CIRCLE
  5
BE
100
AcDbEntity
  8
0
  6
ByLayer
 62
  256
370
   -1
100
AcDbCircle
 10
60
 20
178
 40
36
  0
LINE
  5
BF
100
AcDbEntity
  8
center
  6
ByLayer
 62
  256
370
   -1
100
AcDbLine
 10
60.00000000000009
 20
227.9999999999987
 11
60.00000000000009
 21
47.17714729959768
  0
DIMENSION
  5
C0
100
AcDbEntity
  8
notation
  6
ByLayer
 62
  256
370
   -1
100
AcDbDimension
  2
*D1
 10
24.33610480200335
 20
173.0921920059653
 30
0
 11
59.61657750046604
 21
180.7862418123435
 31
0
 70
   35
  1
             %%C72%%P0.02
 71
    5
  3
Standard
 53
0
210
0
220
0
230
1
100
AcDbDiametricDimension
 15
95.66389519799665
 25
182.9078079940347
 35
0
 40
0
  0
DIMENSION
  5
C1
100
AcDbEntity
  8
notation
  6
ByLayer
 62
  256
370
   -1
100
AcDbDimension
  2
*D2
 10
33.06323654674942
 20
157.2536563543447
 30
0
 11
58.28385024989984
 21
180.2282249180079
 31
0
 70
   35
  1
           %%C<>
 71
    5
  3
Standard
 53
0
210
0
220
0
230
1
100
AcDbDiametricDimension
 15
86.93676345325058
 25
198.7463436456553
 35
0
 40
0
  0
DIMENSION
  5
C2
100
AcDbEntity
  8
notation
  6
ByLayer
 62
  256
370
   -1
100
AcDbDimension
  2
*D3
 10
54.02840038884267
 20
163.1561461175319
 30
0
 11
57.39072880972272
 21
179.0496952441474
 31
0
 70
   35
  1
   %%C32%%P0.02
 71
    5
  3
Standard
 53
0
210
0
220
0
230
1
100
AcDbDiametricDimension
 15
65.9715996111575
 25
192.8438538824655
 35
0
 40
0
  0
MTEXT
  5
C3
100
AcDbEntity
  8
0
  6
ByLayer
 62
  256
370
   -1
100
AcDbMText
 10
100
 20
30
 30
0
 40
3
 41
65.81666666666666
 71
    1
 72
    1
  1
第5臂外基座：铝合金（6061），1件
  7
wqy-unicode
210
0
220
0
230
1
 50
0
 73
    2
 44
1
  0
LINE
  5
C4
100
AcDbEntity
  8
0
  6
ByLayer
 62
  256
370
   -1
100
AcDbLine
 10
104
 20
217.9999999999987
 11
15.99999999999969
 21
217.9999999999987
  0
LINE
  5
C5
100
AcDbEntity
  8
虚线
  6
ByLayer
 62
  256
370
   -1
100
AcDbLine
 10
100.9999999999996
 20
194.0000000000001
 11
104
 21
194.0000000000001
  0
LINE
  5
C6
100
AcDbEntity
  8
虚线
  6
ByLayer
 62
  256
370
   -1
100
AcDbLine
 10
100.9999999999996
 20
161.9999999999999
 11
104
 21
161.9999999999999
  0
LINE
  5
C7
100
AcDbEntity
  8
虚线
  6
ByLayer
 62
  256
370
   -1
100
AcDbLine
 10
100.9999999999996
 20
161.9999999999999
 11
100.9999999999996
 21
194.0000000000001
  0
LINE
  5
C8
100
AcDbEntity
  8
虚线
  6
ByLayer
 62
  256
370
   -1
100
AcDbLine
 10
24
 20
194.0000000000014
 11
16.00000000000003
 21
194.0000000000014
  0
LINE
  5
C9
100
AcDbEntity
  8
虚线
  6
ByLayer
 62
  256
370
   -1
100
AcDbLine
 10
24
 20
162.0000000000012
 11
16.00000000000003
 21
162.0000000000012
  0
LINE
  5
CA
100
AcDbEntity
  8
虚线
  6
ByLayer
 62
  256
370
   -1
100
AcDbLine
 10
24
 20
162.0000000000012
 11
24
 21
194.0000000000014
  0
LINE
  5
CB
100
AcDbEntity
  8
0
  6
ByLayer
 62
  256
370
   -1
100
AcDbLine
 10
104
 20
137.9999999999988
 11
15.99999999999969
 21
137.9999999999988
  0
LINE
  5
CC
100
AcDbEntity
  8
0
  6
ByLayer
 62
  256
370
   -1
100
AcDbLine
 10
15.99999999999969
 20
137.9999999999988
 11
15.99999999999969
 21
217.9999999999987
  0
LINE
  5
CD
100
AcDbEntity
  8
0
  6
ByLayer
 62
  256
370
   -1
100
AcDbLine
 10
104
 20
137.9999999999988
 11
104
 21
217.9999999999987
  0
LINE
  5
CE
100
AcDbEntity
  8
虚线
  6
ByLayer
 62
  256
370
   -1
100
AcDbLine
 10
100.9999999999997
 20
190.9999999999983
 11
91.41655614481091
 21
190.9999999999984
  0
LINE
  5
CF
100
AcDbEntity
  8
虚线
  6
ByLayer
 62
  256
370
   -1
100
AcDbLine
 10
100.9999999999997
 20
164.9999999999991
 11
91.41655614480975
 21
164.9999999999991
  0
LINE
  5
D0
100
AcDbEntity
  8
虚线
  6
ByLayer
 62
  256
370
   -1
100
AcDbLine
 10
28.58344385519031
 20
164.9999999999991
 11
24
 21
164.9999999999991
  0
LINE
  5
D1
100
AcDbEntity
  8
虚线
  6
ByLayer
 62
  256
370
   -1
100
AcDbLine
 10
28.58344385518912
 20
190.9999999999983
 11
24
 21
190.9999999999983
  0
DIMENSION
  5
D2
100
AcDbEntity
  8
notation
  6
ByLayer
 62
  256
370
   -1
100
AcDbDimension
  2
*D4
 10
104
 20
112.9849640256937
 30
0
 11
59.99999999999984
 21
115.7974640256937
 31
0
 70
   32
 71
    5
  3
Standard
 53
0
210
0
220
0
230
1
100
AcDbAlignedDimension
 13
15.99999999999969
 23
137.9999999999988
 33
0
 14
104
 24
137.9999999999988
 34
0
100
AcDbRotatedDimension
  0
DIMENSION
  5
D3
100
AcDbEntity
  8
notation
  6
ByLayer
 62
  256
370
   -1
100
AcDbDimension
  2
*D5
 10
24
 20
188.6610757618727
 30
0
 11
19.99999999999984
 21
191.4735757618727
 31
0
 70
   32
 71
    5
 72
    0
  3
Standard
 53
0
210
0
220
0
230
1
100
AcDbAlignedDimension
 13
15.99999999999969
 23
188.6610757618727
 33
0
 14
24
 24
188.6610757618727
 34
0
100
AcDbRotatedDimension
  0
LINE
  5
D4
100
AcDbEntity
  8
0
  6
ByLayer
 62
  256
370
   -1
100
AcDbLine
 10
123.0000000000001
 20
217.9999999999987
 11
204.9999999999998
 21
217.9999999999987
  0
DIMENSION
  5
D5
100
AcDbEntity
  8
notation
  6
ByLayer
 62
  256
370
   -1
100
AcDbDimension
  2
*D6
 10
204.9999999999999
 20
112.8546191776617
 30
0
 11
164
 21
115.6671191776617
 31
0
 70
   32
 71
    5
 72
    0
  3
Standard
 53
0
210
0
220
0
230
1
100
AcDbAlignedDimension
 13
123.0000000000001
 23
132.9999999999986
 33
0
 14
204.9999999999999
 24
132.9999999999986
 34
0
100
AcDbRotatedDimension
  0
LINE
  5
D6
100
AcDbEntity
  8
虚线
  6
ByLayer
 62
  256
370
   -1
100
AcDbLine
 10
196.9999999999997
 20
213.9999999999984
 11
196.9999999999997
 21
141.9999999999989
  0
LINE
  5
D7
100
AcDbEntity
  8
虚线
  6
ByLayer
 62
  256
370
   -1
100
AcDbLine
 10
131.0000000000002
 20
143.9999999999989
 11
131.0000000000002
 21
211.9999999999984
  0
LINE
  5
D8
100
AcDbEntity
  8
虚线
  6
ByLayer
 62
  256
370
   -1
100
AcDbLine
 10
131.0000000000002
 20
193.9999999999976
 11
123.0000000000001
 21
193.9999999999976
  0
LINE
  5
D9
100
AcDbEntity
  8
虚线
  6
ByLayer
 62
  256
370
   -1
100
AcDbLine
 10
131.0000000000002
 20
161.9999999999996
 11
123.0000000000001
 21
161.9999999999996
  0
LINE
  5
DA
100
AcDbEntity
  8
虚线
  6
ByLayer
 62
  256
370
   -1
100
AcDbLine
 10
196.9999999999997
 20
211.9999999999984
 11
131.0000000000002
 21
211.9999999999984
  0
LINE
  5
DB
100
AcDbEntity
  8
虚线
  6
ByLayer
 62
  256
370
   -1
100
AcDbLine
 10
196.9999999999997
 20
143.9999999999989
 11
131.0000000000002
 21
143.9999999999989
  0
LINE
  5
DC
100
AcDbEntity
  8
虚线
  6
ByLayer
 62
  256
370
   -1
100
AcDbLine
 10
204.9999999999998
 20
213.9999999999984
 11
196.9999999999997
 21
213.9999999999984
  0
LINE
  5
DD
100
AcDbEntity
  8
虚线
  6
ByLayer
 62
  256
370
   -1
100
AcDbLine
 10
204.9999999999998
 20
141.9999999999989
 11
196.9999999999997
 21
141.9999999999989
  0
LINE
  5
DE
100
AcDbEntity
  8
center
  6
ByLayer
 62
  256
370
   -1
100
AcDbLine
 10
234.9999999999998
 20
177.9999999999987
 11
19.32678493562407
 21
177.9999999999987
  0
DIMENSION
  5
DF
100
AcDbEntity
  8
notation
  6
ByLayer
 62
  256
370
   -1
100
AcDbDimension
  2
*D7
 10
131.0000000000002
 20
224.3691005836747
 30
0
 11
127.0000000000002
 21
227.1816005836747
 31
0
 70
   32
 71
    5
  3
Standard
 53
0
210
0
220
0
230
1
100
AcDbAlignedDimension
 13
123.0000000000001
 23
217.9999999999987
 33
0
 14
131.0000000000002
 24
211.9999999999984
 34
0
100
AcDbRotatedDimension
  0
LINE
  5
E0
100
AcDbEntity
  8
0
  6
ByLayer
 62
  256
370
   -1
100
AcDbLine
 10
204.9999999999998
 20
137.9999999999988
 11
123.0000000000001
 21
137.9999999999988
  0
LINE
  5
E1
100
AcDbEntity
  8
0
  6
ByLayer
 62
  256
370
   -1
100
AcDbLine
 10
123.0000000000001
 20
137.9999999999988
 11
123.0000000000001
 21
217.9999999999987
  0
LINE
  5
E2
100
AcDbEntity
  8
0
  6
ByLayer
 62
  256
370
   -1
100
AcDbLine
 10
204.9999999999998
 20
137.9999999999988
 11
204.9999999999998
 21
217.9999999999987
  0
DIMENSION
  5
E3
100
AcDbEntity
  8
notation
  6
ByLayer
 62
  256
370
   -1
100
AcDbDimension
  2
*D8
 10
214.537183119113
 20
137.9999999999988
 30
0
 11
211.724683119113
 21
177.9999999999987
 31
0
 70
   32
  1
84
 71
    5
  3
Standard
 53
0
210
0
220
0
230
1
100
AcDbAlignedDimension
 13
204.9999999999998
 23
217.9999999999987
 33
0
 14
204.9999999999998
 24
137.9999999999988
 34
0
 50
90
100
AcDbRotatedDimension
  0
DIMENSION
  5
E4
100
AcDbEntity
  8
notation
  6
ByLayer
 62
  256
370
   -1
100
AcDbDimension
  2
*D9
 10
104
 20
155.3212503116679
 30
0
 11
102.4999999999999
 21
158.1337503116679
 31
0
 70
   32
  1
3%%P0.1
 71
    5
  3
Standard
 53
0
210
0
220
0
230
1
100
AcDbAlignedDimension
 13
100.9999999999997
 23
161.9999999999999
 33
0
 14
104
 24
161.9999999999999
 34
0
100
AcDbRotatedDimension
  0
CIRCLE
  5
E5
100
AcDbEntity
  8
0
  6
ByLayer
 62
  256
370
   -1
100
AcDbCircle
 10
147.0000000000032
 20
178
 40
16
  0
CIRCLE
  5
E6
100
AcDbEntity
  8
0
  6
ByLayer
 62
  256
370
   -1
100
AcDbCircle
 10
147.0000000000032
 20
177.9999999999987
 40
13
  0
DIMENSION
  5
E7
100
AcDbEntity
  8
notation
  6
ByLayer
 62
  256
370
   -1
100
AcDbDimension
  2
*D10
 10
132.9816300148597
 20
170.2873284161953
 30
0
 11
145.6442569481625
 21
180.464166598951
 31
0
 70
   35
  1
%%C32\S+0.02^ 0;
 71
    5
  3
Standard
 53
0
210
0
220
0
230
1
100
AcDbDiametricDimension
 15
161.0183699851467
 25
185.7126715838047
 35
0
 40
0
  0
DIMENSION
  5
E8
100
AcDbEntity
  8
notation
  6
ByLayer
 62
  256
370
   -1
100
AcDbDimension
  2
*D11
 10
147.0000000000032
 20
177.9999999999987
 30
0
 11
159.1990152120975
 21
161.4570549845515
 31
0
 70
   36
  1
R13
 71
    5
  3
Standard
 53
0
210
0
220
0
230
1
100
AcDbRadialDimension
 15
153.2112503762905
 25
166.5798262376135
 35
0
 40
0
  0
LINE
  5
E9
100
AcDbEntity
  8
center
  6
ByLayer
 62
  256
370
   -1
100
AcDbLine
 10
146.9999999999981
 20
227.9999999999987
 11
146.9999999999981
 21
130.2777157971271
  0
DIMENSION
  5
EA
100
AcDbEntity
  8
notation
  6
ByLayer
 62
  256
370
   -1
100
AcDbDimension
  2
*D12
 10
146.9999999999981
 20
123.1524429681697
 30
0
 11
134.9999999999991
 21
125.9649429681697
 31
0
 70
   32
 71
    5
  3
Standard
 53
0
210
0
220
0
230
1
100
AcDbAlignedDimension
 13
123.0000000000001
 23
137.9999999999988
 33
0
 14
146.9999999999981
 24
137.9999999999988
 34
0
100
AcDbRotatedDimension
  0
DIMENSION
  5
EB
100
AcDbEntity
  8
notation
  6
ByLayer
 62
  256
370
   -1
100
AcDbDimension
  2
*D13
 10
204.9999999999998
 20
224.4255369509077
 30
0
 11
200.9999999999997
 21
227.2380369509077
 31
0
 70
   32
 71
    5
  3
Standard
 53
0
210
0
220
0
230
1
100
AcDbAlignedDimension
 13
196.9999999999997
 23
213.9999999999984
 33
0
 14
204.9999999999998
 24
217.9999999999987
 34
0
100
AcDbRotatedDimension
  0
ENDSEC
  0
SECTION
  2
OBJECTS
  0
DICTIONARY
  5
C
330
0
100
AcDbDictionary
281
    1
  3
ACAD_GROUP
350
D
  0
DICTIONARY
  5
D
330
C
100
AcDbDictionary
281
    1
  0
ENDSEC
  0
EOF
