999
dxfrw 0.6.3
  0
SECTION
  2
HEADER
  9
$ACADVER
  1
AC1021
  9
$DWGCODEPAGE
  3
ANSI_1252
  9
$INSBASE
 10
0
 20
0
 30
0
  9
$EXTMIN
 10
70
 20
25.06860072699209
 30
0
  9
$EXTMAX
 10
470
 20
134.846646506479
 30
0
  9
$LIMMIN
 10
0
 20
0
  9
$LIMMAX
 10
420
 20
297
  9
$ORTHOMODE
 70
    0
  9
$REGENMODE
 70
    1
  9
$FILLMODE
 70
    1
  9
$QTEXTMODE
 70
    0
  9
$MIRRTEXT
 70
    0
  9
$LTSCALE
 40
1
  9
$ATTMODE
 70
    0
  9
$TEXTSIZE
 40
2.5
  9
$TRACEWID
 40
15.68
  9
$TEXTSTYLE
  7
STANDARD
  9
$CLAYER
  8
标注
  9
$CELTYPE
  6
BYLAYER
  9
$CECOLOR
 62
  256
  9
$CELTSCALE
 40
1
  9
$DISPSILH
 70
    0
  9
$DIMSCALE
 40
2.5
  9
$DIMASZ
 40
2
  9
$DIMEXO
 40
0.625
  9
$DIMDLI
 40
3.75
  9
$DIMRND
 40
0
  9
$DIMDLE
 40
0
  9
$DIMEXE
 40
1.25
  9
$DIMTP
 40
0
  9
$DIMTM
 40
0
  9
$DIMTXT
 40
1
  9
$DIMCEN
 40
2.5
  9
$DIMTSZ
 40
0
  9
$DIMTOL
 70
    0
  9
$DIMLIM
 70
    0
  9
$DIMTIH
 70
    0
  9
$DIMTOH
 70
    0
  9
$DIMSE1
 70
    0
  9
$DIMSE2
 70
    0
  9
$DIMTAD
 70
    1
  9
$DIMZIN
 70
    1
  9
$DIMBLK
  1

  9
$DIMASO
 70
    1
  9
$DIMSHO
 70
    1
  9
$DIMPOST
  1

  9
$DIMAPOST
  1

  9
$DIMALT
 70
    0
  9
$DIMALTD
 70
    3
  9
$DIMALTF
 40
0.03937
  9
$DIMLFAC
 40
1
  9
$DIMTOFL
 70
    1
  9
$DIMTVP
 40
0
  9
$DIMTIX
 70
    0
  9
$DIMSOXD
 70
    0
  9
$DIMSAH
 70
    0
  9
$DIMBLK1
  1

  9
$DIMBLK2
  1

  9
$DIMSTYLE
  2
STANDARD
  9
$DIMCLRD
 70
    0
  9
$DIMCLRE
 70
    0
  9
$DIMCLRT
 70
    0
  9
$DIMTFAC
 40
1
  9
$DIMGAP
 40
0.5
  9
$DIMJUST
 70
    0
  9
$DIMSD1
 70
    0
  9
$DIMSD2
 70
    0
  9
$DIMTOLJ
 70
    0
  9
$DIMTZIN
 70
    8
  9
$DIMALTZ
 70
    0
  9
$DIMALTTZ
 70
    0
  9
$DIMUPT
 70
    0
  9
$DIMDEC
 70
    1
  9
$DIMTDEC
 70
    2
  9
$DIMALTU
 70
    2
  9
$DIMALTTD
 70
    3
  9
$DIMTXSTY
  7
standard
  9
$DIMAUNIT
 70
    0
  9
$DIMADEC
 70
    1
  9
$DIMALTRND
 40
0
  9
$DIMAZIN
 70
    0
  9
$DIMDSEP
 70
    0
  9
$DIMATFIT
 70
    3
  9
$DIMFRAC
 70
    0
  9
$DIMLDRBLK
  1
STANDARD
  9
$DIMLUNIT
 70
    2
  9
$DIMLWD
 70
   -2
  9
$DIMLWE
 70
   -2
  9
$DIMTMOVE
 70
    0
  9
$DIMFXL
 40
1
  9
$DIMFXLON
 70
    0
  9
$DIMJOGANG
 40
0.7854
  9
$DIMTFILL
 70
    0
  9
$DIMTFILLCLR
 70
    0
  9
$DIMARCSYM
 70
    0
  9
$DIMLTYPE
  6

  9
$DIMLTEX1
  6

  9
$DIMLTEX2
  6

  9
$LUNITS
 70
    2
  9
$LUPREC
 70
    1
  9
$SKETCHINC
 40
1
  9
$FILLETRAD
 40
0
  9
$AUNITS
 70
    0
  9
$AUPREC
 70
    1
  9
$MENU
  1
.
  9
$ELEVATION
 40
0
  9
$PELEVATION
 40
0
  9
$THICKNESS
 40
0
  9
$LIMCHECK
 70
    0
  9
$CHAMFERA
 40
0
  9
$CHAMFERB
 40
0
  9
$CHAMFERC
 40
0
  9
$CHAMFERD
 40
0
  9
$SKPOLY
 70
    0
  9
$USRTIMER
 70
    1
  9
$ANGBASE
 50
0
  9
$ANGDIR
 70
    0
  9
$PDMODE
 70
   34
  9
$PDSIZE
 40
0
  9
$PLINEWID
 40
0
  9
$SPLFRAME
 70
    0
  9
$SPLINETYPE
 70
    2
  9
$SPLINESEGS
 70
    8
  9
$HANDSEED
  5
20000
  9
$SURFTAB1
 70
    6
  9
$SURFTAB2
 70
    6
  9
$SURFTYPE
 70
    6
  9
$SURFU
 70
    6
  9
$SURFV
 70
    6
  9
$UCSBASE
  2

  9
$UCSNAME
  2

  9
$UCSORG
 10
0
 20
0
 30
0
  9
$UCSXDIR
 10
1
 20
0
 30
0
  9
$UCSYDIR
 10
0
 20
1
 30
0
  9
$UCSORTHOREF
  2

  9
$UCSORTHOVIEW
 70
    0
  9
$UCSORGTOP
 10
0
 20
0
 30
0
  9
$UCSORGBOTTOM
 10
0
 20
0
 30
0
  9
$UCSORGLEFT
 10
0
 20
0
 30
0
  9
$UCSORGRIGHT
 10
0
 20
0
 30
0
  9
$UCSORGFRONT
 10
0
 20
0
 30
0
  9
$UCSORGBACK
 10
0
 20
0
 30
0
  9
$PUCSBASE
  2

  9
$PUCSNAME
  2

  9
$PUCSORG
 10
0
 20
0
 30
0
  9
$PUCSXDIR
 10
1
 20
0
 30
0
  9
$PUCSYDIR
 10
0
 20
1
 30
0
  9
$PUCSORTHOREF
  2

  9
$PUCSORTHOVIEW
 70
    0
  9
$PUCSORGTOP
 10
0
 20
0
 30
0
  9
$PUCSORGBOTTOM
 10
0
 20
0
 30
0
  9
$PUCSORGLEFT
 10
0
 20
0
 30
0
  9
$PUCSORGRIGHT
 10
0
 20
0
 30
0
  9
$PUCSORGFRONT
 10
0
 20
0
 30
0
  9
$PUCSORGBACK
 10
0
 20
0
 30
0
  9
$USERI1
 70
    0
  9
$USERI2
 70
    0
  9
$USERI3
 70
    0
  9
$USERI4
 70
    0
  9
$USERI5
 70
    0
  9
$USERR1
 40
0
  9
$USERR2
 40
0
  9
$USERR3
 40
0
  9
$USERR4
 40
0
  9
$USERR5
 40
0
  9
$WORLDVIEW
 70
    1
  9
$SHADEDGE
 70
    3
  9
$SHADEDIF
 70
   70
  9
$TILEMODE
 70
    1
  9
$MAXACTVP
 70
   64
  9
$PINSBASE
 10
-18.25
 20
28.125
 30
0
  9
$PLIMCHECK
 70
    0
  9
$PEXTMIN
 10
0
 20
0
 30
0
  9
$PEXTMAX
 10
0
 20
0
 30
0
  9
$GRIDMODE
 70
    1
  9
$SNAPSTYLE
 70
    0
  9
$GRIDUNIT
 10
10
 20
10
  9
$PLIMMIN
 10
0
 20
0
  9
$PLIMMAX
 10
148
 20
210
  9
$UNITMODE
 70
    0
  9
$VISRETAIN
 70
    1
  9
$PLINEGEN
 70
    0
  9
$PSLTSCALE
 70
    1
  9
$TREEDEPTH
 70
 3020
  9
$CMLSTYLE
  2
Standard
  9
$CMLJUST
 70
    0
  9
$CMLSCALE
 40
20
  9
$PROXYGRAPHICS
 70
    1
  9
$MEASUREMENT
 70
    1
  9
$CELWEIGHT
370
   -1
  9
$ENDCAPS
280
    0
  9
$JOINSTYLE
280
    0
  9
$LWDISPLAY
290
    0
  9
$INSUNITS
 70
    4
  9
$HYPERLINKBASE
  1

  9
$STYLESHEET
  1

  9
$XEDIT
290
    1
  9
$CEPSNTYPE
380
    0
  9
$PSTYLEMODE
290
    1
  9
$EXTNAMES
290
    1
  9
$PSVPSCALE
 40
0.3075002383126847
  9
$OLESTARTUP
290
    0
  9
$SORTENTS
280
  127
  9
$INDEXCTL
280
    0
  9
$HIDETEXT
280
    1
  9
$XCLIPFRAME
290
    0
  9
$HALOGAP
280
    0
  9
$OBSCOLOR
 70
  257
  9
$OBSLTYPE
280
    0
  9
$INTERSECTIONDISPLAY
280
    0
  9
$INTERSECTIONCOLOR
 70
  257
  9
$DIMASSOC
280
    1
  9
$PROJECTNAME
  1

  9
$CAMERADISPLAY
290
    0
  9
$LENSLENGTH
 40
50
  9
$CAMERAHEIGHT
 40
0
  9
$STEPSPERSEC
 40
2
  9
$STEPSIZE
 40
50
  9
$3DDWFPREC
 40
2
  9
$PSOLWIDTH
 40
5
  9
$PSOLHEIGHT
 40
80
  9
$LOFTANG1
 40
1.570796326794897
  9
$LOFTANG2
 40
1.570796326794897
  9
$LOFTMAG1
 40
0
  9
$LOFTMAG2
 40
0
  9
$LOFTPARAM
 70
    7
  9
$LOFTNORMALS
280
    1
  9
$LATITUDE
 40
1
  9
$LONGITUDE
 40
1
  9
$NORTHDIRECTION
 40
0
  9
$TIMEZONE
 70
-8000
  9
$LIGHTGLYPHDISPLAY
280
    1
  9
$TILEMODELIGHTSYNCH
280
    1
  9
$SOLIDHIST
280
    1
  9
$SHOWHIST
280
    1
  9
$DWFFRAME
280
    2
  9
$DGNFRAME
280
    0
  9
$REALWORLDSCALE
290
    1
  9
$INTERFERECOLOR
 62
    1
  9
$CSHADOW
280
    0
  9
$SHADOWPLANELOCATION
 40
0
  0
ENDSEC
  0
SECTION
  2
CLASSES
  0
ENDSEC
  0
SECTION
  2
TABLES
  0
TABLE
  2
VPORT
  5
8
330
0
100
AcDbSymbolTable
 70
    1
  0
VPORT
  5
31
330
2
100
AcDbSymbolTableRecord
100
AcDbViewportTableRecord
  2
*ACTIVE
 70
    0
 10
0
 20
0
 11
1
 21
1
 12
167.3360291031763
 22
79.72696567991072
 13
0
 23
0
 14
10
 24
10
 15
10
 25
10
 16
0
 26
0
 36
1
 17
0
 27
0
 37
0
 40
144.4145264702019
 41
1.848180677540778
 42
50
 43
0
 44
0
 50
0
 51
0
 71
    0
 72
  100
 73
    1
 74
    3
 75
    0
 76
    1
 77
    0
 78
    0
281
    0
 65
    1
110
0
120
0
130
0
111
1
121
0
131
0
112
0
122
1
132
0
 79
    0
146
0
348
10020
 60
    3
 61
    5
292
1
282
    1
141
0
142
0
 63
  250
421
3358443
  0
ENDTAB
  0
TABLE
  2
LTYPE
  5
5
330
0
100
AcDbSymbolTable
 70
    4
  0
LTYPE
  5
14
330
5
100
AcDbSymbolTableRecord
100
AcDbLinetypeTableRecord
  2
ByBlock
 70
    0
  3

 72
   65
 73
    0
 40
0
  0
LTYPE
  5
15
330
5
100
AcDbSymbolTableRecord
100
AcDbLinetypeTableRecord
  2
ByLayer
 70
    0
  3

 72
   65
 73
    0
 40
0
  0
LTYPE
  5
16
330
5
100
AcDbSymbolTableRecord
100
AcDbLinetypeTableRecord
  2
Continuous
 70
    0
  3
Solid line
 72
   65
 73
    0
 40
0
  0
LTYPE
  5
32
330
5
100
AcDbSymbolTableRecord
100
AcDbLinetypeTableRecord
  2
DOT
 70
    0
  3
Dot . . . . . . . . . . . . . . . . . . . . . .
 72
   65
 73
    2
 40
6.35
 49
0
 74
    0
 49
-6.35
 74
    0
  0
LTYPE
  5
33
330
5
100
AcDbSymbolTableRecord
100
AcDbLinetypeTableRecord
  2
DOTTINY
 70
    0
  3
Dot (.15x) .....................................
 72
   65
 73
    2
 40
0.9525
 49
0
 74
    0
 49
-0.9525
 74
    0
  0
LTYPE
  5
34
330
5
100
AcDbSymbolTableRecord
100
AcDbLinetypeTableRecord
  2
DOT2
 70
    0
  3
Dot (.5x) .....................................
 72
   65
 73
    2
 40
3.175
 49
0
 74
    0
 49
-3.175
 74
    0
  0
LTYPE
  5
35
330
5
100
AcDbSymbolTableRecord
100
AcDbLinetypeTableRecord
  2
DOTX2
 70
    0
  3
Dot (2x) .  .  .  .  .  .  .  .  .  .  .  .  .
 72
   65
 73
    2
 40
12.7
 49
0
 74
    0
 49
-12.7
 74
    0
  0
LTYPE
  5
36
330
5
100
AcDbSymbolTableRecord
100
AcDbLinetypeTableRecord
  2
DASHED
 70
    0
  3
Dashed _ _ _ _ _ _ _ _ _ _ _ _ _ _ _ _ _
 72
   65
 73
    2
 40
19.05
 49
12.7
 74
    0
 49
-6.35
 74
    0
  0
LTYPE
  5
37
330
5
100
AcDbSymbolTableRecord
100
AcDbLinetypeTableRecord
  2
DASHEDTINY
 70
    0
  3
Dashed (.15x) _ _ _ _ _ _ _ _ _ _ _ _ _ _ _ _ _
 72
   65
 73
    2
 40
2.8575
 49
1.905
 74
    0
 49
-0.9525
 74
    0
  0
LTYPE
  5
38
330
5
100
AcDbSymbolTableRecord
100
AcDbLinetypeTableRecord
  2
DASHED2
 70
    0
  3
Dashed (.5x) _ _ _ _ _ _ _ _ _ _ _ _ _ _ _ _ _
 72
   65
 73
    2
 40
9.524999999999999
 49
6.35
 74
    0
 49
-3.175
 74
    0
  0
LTYPE
  5
39
330
5
100
AcDbSymbolTableRecord
100
AcDbLinetypeTableRecord
  2
DASHEDX2
 70
    0
  3
Dashed (2x) ____  ____  ____  ____  ____  ___
 72
   65
 73
    2
 40
38.09999999999999
 49
25.4
 74
    0
 49
-12.7
 74
    0
  0
LTYPE
  5
3A
330
5
100
AcDbSymbolTableRecord
100
AcDbLinetypeTableRecord
  2
DASHDOT
 70
    0
  3
Dash dot __ . __ . __ . __ . __ . __ . __ . __
 72
   65
 73
    4
 40
25.4
 49
12.7
 74
    0
 49
-6.35
 74
    0
 49
0
 74
    0
 49
-6.35
 74
    0
  0
LTYPE
  5
3B
330
5
100
AcDbSymbolTableRecord
100
AcDbLinetypeTableRecord
  2
DASHDOTTINY
 70
    0
  3
Dash dot (.15x) _._._._._._._._._._._._._._._.
 72
   65
 73
    4
 40
3.81
 49
1.905
 74
    0
 49
-0.9525
 74
    0
 49
0
 74
    0
 49
-0.9525
 74
    0
  0
LTYPE
  5
3C
330
5
100
AcDbSymbolTableRecord
100
AcDbLinetypeTableRecord
  2
DASHDOT2
 70
    0
  3
Dash dot (.5x) _._._._._._._._._._._._._._._.
 72
   65
 73
    4
 40
12.7
 49
6.35
 74
    0
 49
-3.175
 74
    0
 49
0
 74
    0
 49
-3.175
 74
    0
  0
LTYPE
  5
3D
330
5
100
AcDbSymbolTableRecord
100
AcDbLinetypeTableRecord
  2
DASHDOTX2
 70
    0
  3
Dash dot (2x) ____  .  ____  .  ____  .  ___
 72
   65
 73
    4
 40
50.8
 49
25.4
 74
    0
 49
-12.7
 74
    0
 49
0
 74
    0
 49
-12.7
 74
    0
  0
LTYPE
  5
3E
330
5
100
AcDbSymbolTableRecord
100
AcDbLinetypeTableRecord
  2
DIVIDE
 70
    0
  3
Divide ____ . . ____ . . ____ . . ____ . . ____
 72
   65
 73
    6
 40
31.75
 49
12.7
 74
    0
 49
-6.35
 74
    0
 49
0
 74
    0
 49
-6.35
 74
    0
 49
0
 74
    0
 49
-6.35
 74
    0
  0
LTYPE
  5
3F
330
5
100
AcDbSymbolTableRecord
100
AcDbLinetypeTableRecord
  2
DIVIDETINY
 70
    0
  3
Divide (.15x) __..__..__..__..__..__..__..__.._
 72
   65
 73
    6
 40
4.7625
 49
1.905
 74
    0
 49
-0.9525
 74
    0
 49
0
 74
    0
 49
-0.9525
 74
    0
 49
0
 74
    0
 49
-0.9525
 74
    0
  0
LTYPE
  5
40
330
5
100
AcDbSymbolTableRecord
100
AcDbLinetypeTableRecord
  2
DIVIDE2
 70
    0
  3
Divide (.5x) __..__..__..__..__..__..__..__.._
 72
   65
 73
    6
 40
15.875
 49
6.35
 74
    0
 49
-3.175
 74
    0
 49
0
 74
    0
 49
-3.175
 74
    0
 49
0
 74
    0
 49
-3.175
 74
    0
  0
LTYPE
  5
41
330
5
100
AcDbSymbolTableRecord
100
AcDbLinetypeTableRecord
  2
DIVIDEX2
 70
    0
  3
Divide (2x) ________  .  .  ________  .  .  _
 72
   65
 73
    6
 40
63.5
 49
25.4
 74
    0
 49
-12.7
 74
    0
 49
0
 74
    0
 49
-12.7
 74
    0
 49
0
 74
    0
 49
-12.7
 74
    0
  0
LTYPE
  5
42
330
5
100
AcDbSymbolTableRecord
100
AcDbLinetypeTableRecord
  2
BORDER
 70
    0
  3
Border __ __ . __ __ . __ __ . __ __ . __ __ .
 72
   65
 73
    6
 40
44.45
 49
12.7
 74
    0
 49
-6.35
 74
    0
 49
12.7
 74
    0
 49
-6.35
 74
    0
 49
0
 74
    0
 49
-6.35
 74
    0
  0
LTYPE
  5
43
330
5
100
AcDbSymbolTableRecord
100
AcDbLinetypeTableRecord
  2
BORDERTINY
 70
    0
  3
Border (.15x) __.__.__.__.__.__.__.__.__.__.__.
 72
   65
 73
    6
 40
6.6675
 49
1.905
 74
    0
 49
-0.9525
 74
    0
 49
1.905
 74
    0
 49
-0.9525
 74
    0
 49
0
 74
    0
 49
-0.9525
 74
    0
  0
LTYPE
  5
44
330
5
100
AcDbSymbolTableRecord
100
AcDbLinetypeTableRecord
  2
BORDER2
 70
    0
  3
Border (.5x) __.__.__.__.__.__.__.__.__.__.__.
 72
   65
 73
    6
 40
22.225
 49
6.35
 74
    0
 49
-3.175
 74
    0
 49
6.35
 74
    0
 49
-3.175
 74
    0
 49
0
 74
    0
 49
-3.175
 74
    0
  0
LTYPE
  5
45
330
5
100
AcDbSymbolTableRecord
100
AcDbLinetypeTableRecord
  2
BORDERX2
 70
    0
  3
Border (2x) ____  ____  .  ____  ____  .  ___
 72
   65
 73
    6
 40
88.89999999999999
 49
25.4
 74
    0
 49
-12.7
 74
    0
 49
25.4
 74
    0
 49
-12.7
 74
    0
 49
0
 74
    0
 49
-12.7
 74
    0
  0
LTYPE
  5
46
330
5
100
AcDbSymbolTableRecord
100
AcDbLinetypeTableRecord
  2
CENTER
 70
    0
  3
Center ____ _ ____ _ ____ _ ____ _ ____ _ ____
 72
   65
 73
    4
 40
50.8
 49
31.75
 74
    0
 49
-6.35
 74
    0
 49
6.35
 74
    0
 49
-6.35
 74
    0
  0
LTYPE
  5
47
330
5
100
AcDbSymbolTableRecord
100
AcDbLinetypeTableRecord
  2
CENTERTINY
 70
    0
  3
Center (.15x) ___ _ ___ _ ___ _ ___ _ ___ _ ___
 72
   65
 73
    4
 40
7.62
 49
4.7625
 74
    0
 49
-0.9525
 74
    0
 49
0.9525
 74
    0
 49
-0.9525
 74
    0
  0
LTYPE
  5
48
330
5
100
AcDbSymbolTableRecord
100
AcDbLinetypeTableRecord
  2
CENTER2
 70
    0
  3
Center (.5x) ___ _ ___ _ ___ _ ___ _ ___ _ ___
 72
   65
 73
    4
 40
28.575
 49
19.05
 74
    0
 49
-3.175
 74
    0
 49
3.175
 74
    0
 49
-3.175
 74
    0
  0
LTYPE
  5
49
330
5
100
AcDbSymbolTableRecord
100
AcDbLinetypeTableRecord
  2
CENTERX2
 70
    0
  3
Center (2x) ________  __  ________  __  _____
 72
   65
 73
    4
 40
101.6
 49
63.5
 74
    0
 49
-12.7
 74
    0
 49
12.7
 74
    0
 49
-12.7
 74
    0
  0
ENDTAB
  0
TABLE
  2
LAYER
  5
2
330
0
100
AcDbSymbolTable
 70
    1
  0
LAYER
  5
10
330
2
100
AcDbSymbolTableRecord
100
AcDbLayerTableRecord
  2
0
 70
    0
 62
    7
  6
CONTINUOUS
370
    0
390
F
  0
LAYER
  5
4A
330
2
100
AcDbSymbolTableRecord
100
AcDbLayerTableRecord
  2
中心线
 70
    0
 62
    1
  6
CENTERTINY
370
   13
390
F
  0
LAYER
  5
4B
330
2
100
AcDbSymbolTableRecord
100
AcDbLayerTableRecord
  2
剖面线
 70
    0
 62
    7
  6
CONTINUOUS
370
   30
390
F
  0
LAYER
  5
4C
330
2
100
AcDbSymbolTableRecord
100
AcDbLayerTableRecord
  2
标注
 70
    0
 62
   96
420
32768
  6
CONTINUOUS
370
    0
390
F
  0
LAYER
  5
4D
330
2
100
AcDbSymbolTableRecord
100
AcDbLayerTableRecord
  2
虚线
 70
    0
 62
    7
  6
DASHEDTINY
370
    0
390
F
  0
ENDTAB
  0
TABLE
  2
STYLE
  5
3
330
0
100
AcDbSymbolTable
 70
    3
  0
STYLE
  5
4E
330
2
100
AcDbSymbolTableRecord
100
AcDbTextStyleTableRecord
  2
Standard
 70
    0
 40
0
 41
1
 50
0
 71
    0
 42
1
  3
txt
  4

  0
ENDTAB
  0
TABLE
  2
VIEW
  5
6
330
0
100
AcDbSymbolTable
 70
    0
  0
ENDTAB
  0
TABLE
  2
UCS
  5
7
330
0
100
AcDbSymbolTable
 70
    0
  0
ENDTAB
  0
TABLE
  2
APPID
  5
9
330
0
100
AcDbSymbolTable
 70
    1
  0
APPID
  5
12
330
9
100
AcDbSymbolTableRecord
100
AcDbRegAppTableRecord
  2
ACAD
 70
    0
  0
APPID
  5
4F
330
9
100
AcDbSymbolTableRecord
100
AcDbRegAppTableRecord
  2
LibreCad
 70
    0
  0
ENDTAB
  0
TABLE
  2
DIMSTYLE
  5
A
330
0
100
AcDbSymbolTable
 70
    1
100
AcDbDimStyleTable
 71
    1
  0
DIMSTYLE
105
50
330
A
100
AcDbSymbolTableRecord
100
AcDbDimStyleTableRecord
  2
Standard
 70
    0
 40
2.5
 41
2
 42
0.625
 43
0.38
 44
1.25
 45
0
 46
0
 47
0
 48
0
 49
1
140
1
141
0.09
142
0
143
25.4
144
1
145
0
146
1
147
0.5
148
0
 71
    0
 72
    0
 73
    0
 74
    1
 75
    0
 76
    0
 77
    0
 78
    1
 79
    0
170
    0
171
    2
172
    0
173
    0
174
    0
175
    0
176
    0
177
    0
178
    0
179
    1
271
    1
272
    4
273
    2
274
    2
275
    0
276
    0
277
    2
278
    0
279
    0
280
    0
281
    0
282
    0
283
    1
284
    0
285
    0
286
    0
288
    0
289
    3
340
standard
341

371
   -2
372
   -2
  0
ENDTAB
  0
TABLE
  2
BLOCK_RECORD
  5
1
330
0
100
AcDbSymbolTable
 70
    2
  0
BLOCK_RECORD
  5
1F
330
1
100
AcDbSymbolTableRecord
100
AcDbBlockTableRecord
  2
*Model_Space
 70
    0
280
    1
281
    0
  0
BLOCK_RECORD
  5
1E
330
1
100
AcDbSymbolTableRecord
100
AcDbBlockTableRecord
  2
*Paper_Space
 70
    0
280
    1
281
    0
  0
BLOCK_RECORD
  5
51
330
1
100
AcDbSymbolTableRecord
100
AcDbBlockTableRecord
  2
*D9
 70
    0
280
    1
281
    0
  0
BLOCK_RECORD
  5
54
330
1
100
AcDbSymbolTableRecord
100
AcDbBlockTableRecord
  2
*D12
 70
    0
280
    1
281
    0
  0
BLOCK_RECORD
  5
57
330
1
100
AcDbSymbolTableRecord
100
AcDbBlockTableRecord
  2
*D14
 70
    0
280
    1
281
    0
  0
BLOCK_RECORD
  5
5A
330
1
100
AcDbSymbolTableRecord
100
AcDbBlockTableRecord
  2
*D6
 70
    0
280
    1
281
    0
  0
BLOCK_RECORD
  5
5D
330
1
100
AcDbSymbolTableRecord
100
AcDbBlockTableRecord
  2
*D7
 70
    0
280
    1
281
    0
  0
BLOCK_RECORD
  5
60
330
1
100
AcDbSymbolTableRecord
100
AcDbBlockTableRecord
  2
*D4
 70
    0
280
    1
281
    0
  0
BLOCK_RECORD
  5
63
330
1
100
AcDbSymbolTableRecord
100
AcDbBlockTableRecord
  2
*D8
 70
    0
280
    1
281
    0
  0
BLOCK_RECORD
  5
66
330
1
100
AcDbSymbolTableRecord
100
AcDbBlockTableRecord
  2
*D13
 70
    0
280
    1
281
    0
  0
BLOCK_RECORD
  5
69
330
1
100
AcDbSymbolTableRecord
100
AcDbBlockTableRecord
  2
*D1
 70
    0
280
    1
281
    0
  0
BLOCK_RECORD
  5
6C
330
1
100
AcDbSymbolTableRecord
100
AcDbBlockTableRecord
  2
*D5
 70
    0
280
    1
281
    0
  0
BLOCK_RECORD
  5
6F
330
1
100
AcDbSymbolTableRecord
100
AcDbBlockTableRecord
  2
*D2
 70
    0
280
    1
281
    0
  0
BLOCK_RECORD
  5
72
330
1
100
AcDbSymbolTableRecord
100
AcDbBlockTableRecord
  2
*D3
 70
    0
280
    1
281
    0
  0
BLOCK_RECORD
  5
75
330
1
100
AcDbSymbolTableRecord
100
AcDbBlockTableRecord
  2
*D11
 70
    0
280
    1
281
    0
  0
BLOCK_RECORD
  5
78
330
1
100
AcDbSymbolTableRecord
100
AcDbBlockTableRecord
  2
*D15
 70
    0
280
    1
281
    0
  0
BLOCK_RECORD
  5
7B
330
1
100
AcDbSymbolTableRecord
100
AcDbBlockTableRecord
  2
*D10
 70
    0
280
    1
281
    0
  0
BLOCK_RECORD
  5
7E
330
1
100
AcDbSymbolTableRecord
100
AcDbBlockTableRecord
  2
*D17
 70
    0
280
    1
281
    0
  0
BLOCK_RECORD
  5
81
330
1
100
AcDbSymbolTableRecord
100
AcDbBlockTableRecord
  2
*D16
 70
    0
280
    1
281
    0
  0
ENDTAB
  0
ENDSEC
  0
SECTION
  2
BLOCKS
  0
BLOCK
  5
20
330
1F
100
AcDbEntity
  8
0
100
AcDbBlockBegin
  2
*Model_Space
 70
    0
 10
0
 20
0
 30
0
  3
*Model_Space
  1

  0
ENDBLK
  5
21
330
1F
100
AcDbEntity
  8
0
100
AcDbBlockEnd
  0
BLOCK
  5
1C
330
1B
100
AcDbEntity
  8
0
100
AcDbBlockBegin
  2
*Paper_Space
 70
    0
 10
0
 20
0
 30
0
  3
*Paper_Space
  1

  0
ENDBLK
  5
1D
330
1F
100
AcDbEntity
  8
0
100
AcDbBlockEnd
  0
BLOCK
  5
52
330
51
100
AcDbEntity
  8
0
100
AcDbBlockBegin
  2
*D9
 70
    1
 10
0
 20
0
  3
*D9
  1

  0
LINE
  5
84
100
AcDbEntity
  8
标注
  6
ByBlock
 62
    0
370
   -2
100
AcDbLine
 10
97.9999999999982
 20
28.19360072699209
 11
130
 21
28.19360072699209
  0
SOLID
  5
85
100
AcDbEntity
  8
标注
  6
ByBlock
 62
    0
370
   -2
100
AcDbTrace
 10
107.9999999999982
 20
28.19360072699209
 30
0
 11
102.9999999999982
 21
27.36103141144641
 31
0
 12
102.9999999999982
 22
29.02617004253777
 32
0
 13
102.9999999999982
 23
29.02617004253777
 33
0
  0
SOLID
  5
86
100
AcDbEntity
  8
标注
  6
ByBlock
 62
    0
370
   -2
100
AcDbTrace
 10
120
 20
28.19360072699209
 30
0
 11
125
 21
29.02617004253777
 31
0
 12
125
 22
27.36103141144641
 32
0
 13
125
 23
27.36103141144641
 33
0
  0
MTEXT
  5
87
100
AcDbEntity
  8
标注
  6
CONTINUOUS
 62
    0
370
   -2
100
AcDbMText
 10
113.9999999999991
 20
30.69360072699209
 30
0
 40
2.5
 41
5.277777777777778
 71
    5
 72
    1
  1
12.0
  7
standard
210
0
220
0
230
1
 50
0
 73
    2
 44
1
  0
LINE
  5
88
100
AcDbEntity
  8
标注
  6
ByBlock
 62
    0
370
   -2
100
AcDbLine
 10
107.9999999999982
 20
41.93750000000352
 11
107.9999999999982
 21
25.06860072699209
  0
LINE
  5
89
100
AcDbEntity
  8
标注
  6
ByBlock
 62
    0
370
   -2
100
AcDbLine
 10
120
 20
43.43750000000188
 11
120
 21
25.06860072699209
  0
ENDBLK
  5
53
330
51
100
AcDbEntity
  8
0
100
AcDbBlockEnd
  0
BLOCK
  5
55
330
54
100
AcDbEntity
  8
0
100
AcDbBlockBegin
  2
*D12
 70
    1
 10
0
 20
0
  3
*D12
  1

  0
LINE
  5
8A
100
AcDbEntity
  8
标注
  6
ByBlock
 62
    0
370
   -2
100
AcDbLine
 10
125.8309878479059
 20
65.00000000000102
 11
125.8309878479059
 21
35.00000000000188
  0
SOLID
  5
8B
100
AcDbEntity
  8
标注
  6
ByBlock
 62
    0
370
   -2
100
AcDbTrace
 10
125.8309878479059
 20
55.00000000000102
 30
0
 11
124.9984185323602
 21
60.00000000000102
 31
0
 12
126.6635571634516
 22
60.00000000000102
 32
0
 13
126.6635571634516
 23
60.00000000000102
 33
0
  0
SOLID
  5
8C
100
AcDbEntity
  8
标注
  6
ByBlock
 62
    0
370
   -2
100
AcDbTrace
 10
125.8309878479059
 20
45.00000000000188
 30
0
 11
126.6635571634516
 21
40.00000000000188
 31
0
 12
124.9984185323602
 22
40.00000000000188
 32
0
 13
124.9984185323602
 23
40.00000000000188
 33
0
  0
MTEXT
  5
8D
100
AcDbEntity
  8
标注
  6
CONTINUOUS
 62
    0
370
   -2
100
AcDbMText
 10
123.3309878479059
 20
64.02777777777891
 30
0
 40
2.5
 41
15.55555555555571
 71
    5
 72
    1
  1
%%C10%%P0.005
  7
standard
210
0
220
0
230
1
 50
90
 73
    2
 44
1
  0
LINE
  5
8E
100
AcDbEntity
  8
标注
  6
ByBlock
 62
    0
370
   -2
100
AcDbLine
 10
121.5625
 20
55.00000000000102
 11
128.9559878479059
 21
55.00000000000102
  0
LINE
  5
8F
100
AcDbEntity
  8
标注
  6
ByBlock
 62
    0
370
   -2
100
AcDbLine
 10
121.5625
 20
45.00000000000188
 11
128.9559878479059
 21
45.00000000000188
  0
ENDBLK
  5
56
330
54
100
AcDbEntity
  8
0
100
AcDbBlockEnd
  0
BLOCK
  5
58
330
57
100
AcDbEntity
  8
0
100
AcDbBlockBegin
  2
*D14
 70
    1
 10
0
 20
0
  3
*D14
  1

  0
LINE
  5
90
100
AcDbEntity
  8
标注
  6
ByBlock
 62
    0
370
   -2
100
AcDbLine
 10
129.3306611027705
 20
42.57267157747368
 11
150.6693388972295
 21
57.42732842252632
  0
SOLID
  5
91
100
AcDbEntity
  8
标注
  6
ByBlock
 62
    0
370
   -2
100
AcDbTrace
 10
137.5378448698701
 20
48.28600113326314
 30
0
 11
133.9099272740954
 21
44.74603141821524
 31
0
 12
132.9585786985453
 22
46.11264129252159
 32
0
 13
132.9585786985453
 23
46.11264129252159
 33
0
  0
SOLID
  5
92
100
AcDbEntity
  8
标注
  6
ByBlock
 62
    0
370
   -2
100
AcDbTrace
 10
142.4621551301299
 20
51.71399886673686
 30
0
 11
146.0900727259046
 21
55.25396858178475
 31
0
 12
147.0414213014547
 22
53.88735870747841
 32
0
 13
147.0414213014547
 23
53.88735870747841
 33
0
  0
MTEXT
  5
93
100
AcDbEntity
  8
标注
  6
CONTINUOUS
 62
    0
370
   -2
100
AcDbMText
 10
138.5716676110526
 20
52.05179594177491
 30
0
 40
2.5
 41
3.611111111111265
 71
    5
 72
    1
  1
       M6
  7
standard
210
0
220
0
230
1
 50
34.84322919930893
 73
    2
 44
1
  0
ENDBLK
  5
59
330
57
100
AcDbEntity
  8
0
100
AcDbBlockEnd
  0
BLOCK
  5
5B
330
5A
100
AcDbEntity
  8
0
100
AcDbBlockBegin
  2
*D6
 70
    1
 10
0
 20
0
  3
*D6
  1

  0
LINE
  5
94
100
AcDbEntity
  8
标注
  6
ByBlock
 62
    0
370
   -2
100
AcDbLine
 10
116.0984142709164
 20
125.9999999999988
 11
116.0984142709164
 21
94.00000000000109
  0
SOLID
  5
95
100
AcDbEntity
  8
标注
  6
ByBlock
 62
    0
370
   -2
100
AcDbTrace
 10
116.0984142709164
 20
115.9999999999988
 30
0
 11
115.2658449553707
 21
120.9999999999988
 31
0
 12
116.9309835864621
 22
120.9999999999988
 32
0
 13
116.9309835864621
 23
120.9999999999988
 33
0
  0
SOLID
  5
96
100
AcDbEntity
  8
标注
  6
ByBlock
 62
    0
370
   -2
100
AcDbTrace
 10
116.0984142709164
 20
104.0000000000011
 30
0
 11
116.9309835864621
 21
99.00000000000109
 31
0
 12
115.2658449553707
 22
99.00000000000109
 32
0
 13
115.2658449553707
 23
99.00000000000109
 33
0
  0
MTEXT
  5
97
100
AcDbEntity
  8
标注
  6
CONTINUOUS
 62
    0
370
   -2
100
AcDbMText
 10
113.5984142709164
 20
110
 30
0
 40
2.5
 41
5
 71
    5
 72
    1
  1
%%C12
  7
standard
210
0
220
0
230
1
 50
90
 73
    2
 44
1
  0
LINE
  5
98
100
AcDbEntity
  8
标注
  6
ByBlock
 62
    0
370
   -2
100
AcDbLine
 10
118.4375060396148
 20
115.9999999999988
 11
112.9734142709164
 21
115.9999999999988
  0
LINE
  5
99
100
AcDbEntity
  8
标注
  6
ByBlock
 62
    0
370
   -2
100
AcDbLine
 10
118.4375
 20
104.0000000000011
 11
112.9734142709164
 21
104.0000000000011
  0
ENDBLK
  5
5C
330
5A
100
AcDbEntity
  8
0
100
AcDbBlockEnd
  0
BLOCK
  5
5E
330
5D
100
AcDbEntity
  8
0
100
AcDbBlockBegin
  2
*D7
 70
    1
 10
0
 20
0
  3
*D7
  1

  0
LINE
  5
9A
100
AcDbEntity
  8
标注
  6
ByBlock
 62
    0
370
   -2
100
AcDbLine
 10
130.0000060396148
 20
119.0590215720596
 11
98.9659844580105
 21
119.0590215720596
  0
SOLID
  5
9B
100
AcDbEntity
  8
标注
  6
ByBlock
 62
    0
370
   -2
100
AcDbTrace
 10
120.0000060396148
 20
119.0590215720596
 30
0
 11
125.0000060396148
 21
119.8915908876053
 31
0
 12
125.0000060396148
 22
118.2264522565139
 32
0
 13
125.0000060396148
 23
118.2264522565139
 33
0
  0
SOLID
  5
9C
100
AcDbEntity
  8
标注
  6
ByBlock
 62
    0
370
   -2
100
AcDbTrace
 10
108.9659844580105
 20
119.0590215720596
 30
0
 11
103.9659844580105
 21
118.2264522565139
 31
0
 12
103.9659844580105
 22
119.8915908876053
 32
0
 13
103.9659844580105
 23
119.8915908876053
 33
0
  0
MTEXT
  5
9D
100
AcDbEntity
  8
标注
  6
CONTINUOUS
 62
    0
370
   -2
100
AcDbMText
 10
114.4829952488126
 20
121.5590215720596
 30
0
 40
2.5
 41
3.055555555555556
 71
    5
 72
    1
  1
     20  
  7
standard
210
0
220
0
230
1
 50
360
 73
    2
 44
1
  0
LINE
  5
9E
100
AcDbEntity
  8
标注
  6
ByBlock
 62
    0
370
   -2
100
AcDbLine
 10
120.0000060396148
 20
117.5624999999988
 11
120.0000060396148
 21
122.1840215720596
  0
LINE
  5
9F
100
AcDbEntity
  8
标注
  6
ByBlock
 62
    0
370
   -2
100
AcDbLine
 10
108.9659844580105
 20
114.6516720373231
 11
108.9659844580105
 21
122.1840215720596
  0
ENDBLK
  5
5F
330
5D
100
AcDbEntity
  8
0
100
AcDbBlockEnd
  0
BLOCK
  5
61
330
60
100
AcDbEntity
  8
0
100
AcDbBlockBegin
  2
*D4
 70
    1
 10
0
 20
0
  3
*D4
  1

  0
LINE
  5
A0
100
AcDbEntity
  8
标注
  6
ByBlock
 62
    0
370
   -2
100
AcDbLine
 10
104.6748628582993
 20
123.999999999998
 11
104.6748628582993
 21
95.9999999999966
  0
SOLID
  5
A1
100
AcDbEntity
  8
标注
  6
ByBlock
 62
    0
370
   -2
100
AcDbTrace
 10
104.6748628582993
 20
113.999999999998
 30
0
 11
103.8422935427536
 21
118.999999999998
 31
0
 12
105.507432173845
 22
118.999999999998
 32
0
 13
105.507432173845
 23
118.999999999998
 33
0
  0
SOLID
  5
A2
100
AcDbEntity
  8
标注
  6
ByBlock
 62
    0
370
   -2
100
AcDbTrace
 10
104.6748628582993
 20
105.9999999999966
 30
0
 11
105.507432173845
 21
100.9999999999966
 31
0
 12
103.8422935427536
 22
100.9999999999966
 32
0
 13
103.8422935427536
 23
100.9999999999966
 33
0
  0
MTEXT
  5
A3
100
AcDbEntity
  8
标注
  6
CONTINUOUS
 62
    0
370
   -2
100
AcDbMText
 10
102.1748628582993
 20
109.9999999999973
 30
0
 40
2.5
 41
3.611111111111266
 71
    5
 72
    1
  1
M6
  7
standard
210
0
220
0
230
1
 50
90
 73
    2
 44
1
  0
LINE
  5
A4
100
AcDbEntity
  8
标注
  6
ByBlock
 62
    0
370
   -2
100
AcDbLine
 10
108.4375
 20
113.999999999998
 11
101.5498628582993
 21
113.999999999998
  0
LINE
  5
A5
100
AcDbEntity
  8
标注
  6
ByBlock
 62
    0
370
   -2
100
AcDbLine
 10
108.4375
 20
105.9999999999966
 11
101.5498628582993
 21
105.9999999999966
  0
ENDBLK
  5
62
330
60
100
AcDbEntity
  8
0
100
AcDbBlockEnd
  0
BLOCK
  5
64
330
63
100
AcDbEntity
  8
0
100
AcDbBlockBegin
  2
*D8
 70
    1
 10
0
 20
0
  3
*D8
  1

  0
LINE
  5
A6
100
AcDbEntity
  8
标注
  6
ByBlock
 62
    0
370
   -2
100
AcDbLine
 10
165.1949092057421
 20
56.49999999999653
 11
165.1949092057421
 21
43.50000000000352
  0
SOLID
  5
A7
100
AcDbEntity
  8
标注
  6
ByBlock
 62
    0
370
   -2
100
AcDbTrace
 10
165.1949092057421
 20
56.49999999999653
 30
0
 11
166.0274785212878
 21
51.49999999999653
 31
0
 12
164.3623398901964
 22
51.49999999999653
 32
0
 13
164.3623398901964
 23
51.49999999999653
 33
0
  0
SOLID
  5
A8
100
AcDbEntity
  8
标注
  6
ByBlock
 62
    0
370
   -2
100
AcDbTrace
 10
165.1949092057421
 20
43.50000000000352
 30
0
 11
164.3623398901964
 21
48.50000000000352
 31
0
 12
166.0274785212878
 22
48.50000000000352
 32
0
 13
166.0274785212878
 23
48.50000000000352
 33
0
  0
MTEXT
  5
A9
100
AcDbEntity
  8
标注
  6
CONTINUOUS
 62
    0
370
   -2
100
AcDbMText
 10
162.6949092057421
 20
50
 30
0
 40
2.5
 41
5.277777777777933
 71
    5
 72
    1
  1
13.0
  7
standard
210
0
220
0
230
1
 50
90
 73
    2
 44
1
  0
LINE
  5
AA
100
AcDbEntity
  8
标注
  6
ByBlock
 62
    0
370
   -2
100
AcDbLine
 10
146.2261895265524
 20
56.49999999999653
 11
168.3199092057421
 21
56.49999999999653
  0
LINE
  5
AB
100
AcDbEntity
  8
标注
  6
ByBlock
 62
    0
370
   -2
100
AcDbLine
 10
146.2261895265484
 20
43.50000000000352
 11
168.3199092057421
 21
43.50000000000352
  0
ENDBLK
  5
65
330
63
100
AcDbEntity
  8
0
100
AcDbBlockEnd
  0
BLOCK
  5
67
330
66
100
AcDbEntity
  8
0
100
AcDbBlockBegin
  2
*D13
 70
    1
 10
0
 20
0
  3
*D13
  1

  0
SOLID
  5
AC
100
AcDbEntity
  8
标注
  6
ByBlock
 62
    0
370
   -2
100
AcDbTrace
 10
147.6879069841086
 20
47.78728985095336
 30
0
 11
152.7231281709631
 21
47.20443543976646
 31
0
 12
152.2625695273899
 22
45.60425657583193
 32
0
 13
152.2625695273899
 23
45.60425657583193
 33
0
  0
LINE
  5
AD
100
AcDbEntity
  8
标注
  6
ByBlock
 62
    0
370
   -2
100
AcDbLine
 10
140
 20
50
 11
160.5010852909563
 21
44.09943960254228
  0
MTEXT
  5
AE
100
AcDbEntity
  8
标注
  6
CONTINUOUS
 62
    0
370
   -2
100
AcDbMText
 10
154.7859680591095
 20
48.34583565928176
 30
0
 40
2.5
 41
3.333333333333333
 71
    5
 72
    1
  1
R8
  7
standard
210
0
220
0
230
1
 50
343.9432832020804
 73
    2
 44
1
  0
ENDBLK
  5
68
330
66
100
AcDbEntity
  8
0
100
AcDbBlockEnd
  0
BLOCK
  5
6A
330
69
100
AcDbEntity
  8
0
100
AcDbBlockBegin
  2
*D1
 70
    1
 10
0
 20
0
  3
*D1
  1

  0
LINE
  5
AF
100
AcDbEntity
  8
标注
  6
ByBlock
 62
    0
370
   -2
100
AcDbLine
 10
120
 20
102.4375000000011
 11
120
 21
91.57882693730494
  0
LINE
  5
B0
100
AcDbEntity
  8
标注
  6
ByBlock
 62
    0
370
   -2
100
AcDbLine
 10
123.9999999999983
 20
102.4375000000011
 11
123.9999999999983
 21
91.57882693730494
  0
LINE
  5
B1
100
AcDbEntity
  8
标注
  6
ByBlock
 62
    0
370
   -2
100
AcDbLine
 10
110
 20
94.70382693730494
 11
133.9999999999983
 21
94.70382693730494
  0
SOLID
  5
B2
100
AcDbEntity
  8
标注
  6
ByBlock
 62
    0
370
   -2
100
AcDbTrace
 10
120
 20
94.70382693730494
 30
0
 11
115
 21
93.87125762175926
 31
0
 12
115
 22
95.53639625285062
 32
0
 13
115
 23
95.53639625285062
 33
0
  0
SOLID
  5
B3
100
AcDbEntity
  8
标注
  6
ByBlock
 62
    0
370
   -2
100
AcDbTrace
 10
123.9999999999983
 20
94.70382693730494
 30
0
 11
128.9999999999983
 21
95.53639625285062
 31
0
 12
128.9999999999983
 22
93.87125762175926
 32
0
 13
128.9999999999983
 23
93.87125762175926
 33
0
  0
MTEXT
  5
B4
100
AcDbEntity
  8
标注
  6
CONTINUOUS
 62
    0
370
   -2
100
AcDbMText
 10
127.3333333333316
 20
97.20382693730494
 30
0
 40
2.5
 41
4.166666666666667
 71
    5
 72
    1
  1
4.0
  7
standard
210
0
220
0
230
1
 50
0
 73
    2
 44
1
  0
ENDBLK
  5
6B
330
69
100
AcDbEntity
  8
0
100
AcDbBlockEnd
  0
BLOCK
  5
6D
330
6C
100
AcDbEntity
  8
0
100
AcDbBlockBegin
  2
*D5
 70
    1
 10
0
 20
0
  3
*D5
  1

  0
LINE
  5
B5
100
AcDbEntity
  8
标注
  6
ByBlock
 62
    0
370
   -2
100
AcDbLine
 10
146.9732425591058
 20
125.000000000001
 11
146.9732425591058
 21
95.0000000000019
  0
SOLID
  5
B6
100
AcDbEntity
  8
标注
  6
ByBlock
 62
    0
370
   -2
100
AcDbTrace
 10
146.9732425591058
 20
115.000000000001
 30
0
 11
146.1406732435601
 21
120.000000000001
 31
0
 12
147.8058118746515
 22
120.000000000001
 32
0
 13
147.8058118746515
 23
120.000000000001
 33
0
  0
SOLID
  5
B7
100
AcDbEntity
  8
标注
  6
ByBlock
 62
    0
370
   -2
100
AcDbTrace
 10
146.9732425591058
 20
105.0000000000019
 30
0
 11
147.8058118746515
 21
100.0000000000019
 31
0
 12
146.1406732435601
 22
100.0000000000019
 32
0
 13
146.1406732435601
 23
100.0000000000019
 33
0
  0
MTEXT
  5
B8
100
AcDbEntity
  8
标注
  6
CONTINUOUS
 62
    0
370
   -2
100
AcDbMText
 10
144.4732425591058
 20
124.0277777777789
 30
0
 40
2.5
 41
15.55555555555571
 71
    5
 72
    1
  1
%%C10%%P0.005
  7
standard
210
0
220
0
230
1
 50
90
 73
    2
 44
1
  0
LINE
  5
B9
100
AcDbEntity
  8
标注
  6
ByBlock
 62
    0
370
   -2
100
AcDbLine
 10
131.5625
 20
115.000000000001
 11
150.0982425591058
 21
115.000000000001
  0
LINE
  5
BA
100
AcDbEntity
  8
标注
  6
ByBlock
 62
    0
370
   -2
100
AcDbLine
 10
131.5625
 20
105.0000000000019
 11
150.0982425591058
 21
105.0000000000019
  0
ENDBLK
  5
6E
330
6C
100
AcDbEntity
  8
0
100
AcDbBlockEnd
  0
BLOCK
  5
70
330
6F
100
AcDbEntity
  8
0
100
AcDbBlockBegin
  2
*D2
 70
    1
 10
0
 20
0
  3
*D2
  1

  0
LINE
  5
BB
100
AcDbEntity
  8
标注
  6
ByBlock
 62
    0
370
   -2
100
AcDbLine
 10
113.9999999999983
 20
99.46288795788917
 11
140
 21
99.46288795788917
  0
SOLID
  5
BC
100
AcDbEntity
  8
标注
  6
ByBlock
 62
    0
370
   -2
100
AcDbTrace
 10
123.9999999999983
 20
99.46288795788917
 30
0
 11
118.9999999999983
 21
98.63031864234348
 31
0
 12
118.9999999999983
 22
100.2954572734348
 32
0
 13
118.9999999999983
 23
100.2954572734348
 33
0
  0
SOLID
  5
BD
100
AcDbEntity
  8
标注
  6
ByBlock
 62
    0
370
   -2
100
AcDbTrace
 10
130
 20
99.46288795788917
 30
0
 11
135
 21
100.2954572734348
 31
0
 12
135
 22
98.63031864234348
 32
0
 13
135
 23
98.63031864234348
 33
0
  0
MTEXT
  5
BE
100
AcDbEntity
  8
标注
  6
CONTINUOUS
 62
    0
370
   -2
100
AcDbMText
 10
126.9999999999991
 20
101.9628879578892
 30
0
 40
2.5
 41
3.888888888889044
 71
    5
 72
    1
  1
6.0
  7
standard
210
0
220
0
230
1
 50
0
 73
    2
 44
1
  0
LINE
  5
BF
100
AcDbEntity
  8
标注
  6
ByBlock
 62
    0
370
   -2
100
AcDbLine
 10
123.9999999999983
 20
102.4375000000011
 11
123.9999999999983
 21
96.33788795788917
  0
LINE
  5
C0
100
AcDbEntity
  8
标注
  6
ByBlock
 62
    0
370
   -2
100
AcDbLine
 10
130
 20
103.4375000000019
 11
130
 21
96.33788795788917
  0
ENDBLK
  5
71
330
6F
100
AcDbEntity
  8
0
100
AcDbBlockEnd
  0
BLOCK
  5
73
330
72
100
AcDbEntity
  8
0
100
AcDbBlockBegin
  2
*D3
 70
    1
 10
0
 20
0
  3
*D3
  1

  0
LINE
  5
C1
100
AcDbEntity
  8
标注
  6
ByBlock
 62
    0
370
   -2
100
AcDbLine
 10
257.5241319605358
 20
122.9999999999978
 11
257.5241319605358
 21
97.0000000000022
  0
SOLID
  5
C2
100
AcDbEntity
  8
标注
  6
ByBlock
 62
    0
370
   -2
100
AcDbTrace
 10
257.5241319605358
 20
112.9999999999978
 30
0
 11
256.6915626449901
 21
117.9999999999978
 31
0
 12
258.3567012760815
 22
117.9999999999978
 32
0
 13
258.3567012760815
 23
117.9999999999978
 33
0
  0
SOLID
  5
C3
100
AcDbEntity
  8
标注
  6
ByBlock
 62
    0
370
   -2
100
AcDbTrace
 10
257.5241319605358
 20
107.0000000000022
 30
0
 11
258.3567012760815
 21
102.0000000000022
 31
0
 12
256.6915626449901
 22
102.0000000000022
 32
0
 13
256.6915626449901
 23
102.0000000000022
 33
0
  0
MTEXT
  5
C4
100
AcDbEntity
  8
标注
  6
CONTINUOUS
 62
    0
370
   -2
100
AcDbMText
 10
255.0241319605358
 20
110
 30
0
 40
2.5
 41
3.611111111111266
 71
    5
 72
    1
  1
M6
  7
standard
210
0
220
0
230
1
 50
90
 73
    2
 44
1
  0
LINE
  5
C5
100
AcDbEntity
  8
标注
  6
ByBlock
 62
    0
370
   -2
100
AcDbLine
 10
251.5625
 20
112.9999999999978
 11
260.6491319605358
 21
112.9999999999978
  0
LINE
  5
C6
100
AcDbEntity
  8
标注
  6
ByBlock
 62
    0
370
   -2
100
AcDbLine
 10
251.5625
 20
107.0000000000022
 11
260.6491319605358
 21
107.0000000000022
  0
ENDBLK
  5
74
330
72
100
AcDbEntity
  8
0
100
AcDbBlockEnd
  0
BLOCK
  5
76
330
75
100
AcDbEntity
  8
0
100
AcDbBlockBegin
  2
*D11
 70
    1
 10
0
 20
0
  3
*D11
  1

  0
LINE
  5
C7
100
AcDbEntity
  8
标注
  6
ByBlock
 62
    0
370
   -2
100
AcDbLine
 10
102.9999999999978
 20
40.58904830350221
 11
123.9999999999983
 21
40.58904830350221
  0
SOLID
  5
C8
100
AcDbEntity
  8
标注
  6
ByBlock
 62
    0
370
   -2
100
AcDbTrace
 10
112.9999999999978
 20
40.58904830350221
 30
0
 11
107.9999999999978
 21
39.75647898795653
 31
0
 12
107.9999999999978
 22
41.42161761904789
 32
0
 13
107.9999999999978
 23
41.42161761904789
 33
0
  0
SOLID
  5
C9
100
AcDbEntity
  8
标注
  6
ByBlock
 62
    0
370
   -2
100
AcDbTrace
 10
113.9999999999983
 20
40.58904830350221
 30
0
 11
118.9999999999983
 21
41.42161761904789
 31
0
 12
118.9999999999983
 22
39.75647898795653
 32
0
 13
118.9999999999983
 23
39.75647898795653
 33
0
  0
MTEXT
  5
CA
100
AcDbEntity
  8
标注
  6
CONTINUOUS
 62
    0
370
   -2
100
AcDbMText
 10
116.9166666666649
 20
43.08904830350221
 30
0
 40
2.5
 41
3.333333333333333
 71
    5
 72
    1
  1
1.0
  7
standard
210
0
220
0
230
1
 50
0
 73
    2
 44
1
  0
LINE
  5
CB
100
AcDbEntity
  8
标注
  6
ByBlock
 62
    0
370
   -2
100
AcDbLine
 10
112.9999999999978
 20
42.43750000000114
 11
112.9999999999978
 21
37.46404830350221
  0
LINE
  5
CC
100
AcDbEntity
  8
标注
  6
ByBlock
 62
    0
370
   -2
100
AcDbLine
 10
113.9999999999983
 20
42.43750000000114
 11
113.9999999999983
 21
37.46404830350221
  0
ENDBLK
  5
77
330
75
100
AcDbEntity
  8
0
100
AcDbBlockEnd
  0
BLOCK
  5
79
330
78
100
AcDbEntity
  8
0
100
AcDbBlockBegin
  2
*D15
 70
    1
 10
0
 20
0
  3
*D15
  1

  0
LINE
  5
CD
100
AcDbEntity
  8
标注
  6
ByBlock
 62
    0
370
   -2
100
AcDbLine
 10
97.02694410376805
 20
65.99999999999881
 11
97.02694410376805
 21
34.00000000000114
  0
SOLID
  5
CE
100
AcDbEntity
  8
标注
  6
ByBlock
 62
    0
370
   -2
100
AcDbTrace
 10
97.02694410376805
 20
55.99999999999881
 30
0
 11
96.19437478822236
 21
60.99999999999881
 31
0
 12
97.85951341931373
 22
60.99999999999881
 32
0
 13
97.85951341931373
 23
60.99999999999881
 33
0
  0
SOLID
  5
CF
100
AcDbEntity
  8
标注
  6
ByBlock
 62
    0
370
   -2
100
AcDbTrace
 10
97.02694410376805
 20
44.00000000000114
 30
0
 11
97.85951341931373
 21
39.00000000000114
 31
0
 12
96.19437478822236
 22
39.00000000000114
 32
0
 13
96.19437478822236
 23
39.00000000000114
 33
0
  0
MTEXT
  5
D0
100
AcDbEntity
  8
标注
  6
CONTINUOUS
 62
    0
370
   -2
100
AcDbMText
 10
94.52694410376805
 20
50
 30
0
 40
2.5
 41
5
 71
    5
 72
    1
  1
%%C12
  7
standard
210
0
220
0
230
1
 50
90
 73
    2
 44
1
  0
LINE
  5
D1
100
AcDbEntity
  8
标注
  6
ByBlock
 62
    0
370
   -2
100
AcDbLine
 10
111.4374999999978
 20
55.99999999999881
 11
93.90194410376805
 21
55.99999999999881
  0
LINE
  5
D2
100
AcDbEntity
  8
标注
  6
ByBlock
 62
    0
370
   -2
100
AcDbLine
 10
111.4374999999978
 20
44.00000000000114
 11
93.90194410376805
 21
44.00000000000114
  0
ENDBLK
  5
7A
330
78
100
AcDbEntity
  8
0
100
AcDbBlockEnd
  0
BLOCK
  5
7C
330
7B
100
AcDbEntity
  8
0
100
AcDbBlockBegin
  2
*D10
 70
    1
 10
0
 20
0
  3
*D10
  1

  0
LINE
  5
D3
100
AcDbEntity
  8
标注
  6
ByBlock
 62
    0
370
   -2
100
AcDbLine
 10
103.9999999999983
 20
35.98263197439371
 11
130
 21
35.98263197439371
  0
SOLID
  5
D4
100
AcDbEntity
  8
标注
  6
ByBlock
 62
    0
370
   -2
100
AcDbTrace
 10
113.9999999999983
 20
35.98263197439371
 30
0
 11
108.9999999999983
 21
35.15006265884803
 31
0
 12
108.9999999999983
 22
36.8152012899394
 32
0
 13
108.9999999999983
 23
36.8152012899394
 33
0
  0
SOLID
  5
D5
100
AcDbEntity
  8
标注
  6
ByBlock
 62
    0
370
   -2
100
AcDbTrace
 10
120
 20
35.98263197439371
 30
0
 11
125
 21
36.8152012899394
 31
0
 12
125
 22
35.15006265884803
 32
0
 13
125
 23
35.15006265884803
 33
0
  0
MTEXT
  5
D6
100
AcDbEntity
  8
标注
  6
CONTINUOUS
 62
    0
370
   -2
100
AcDbMText
 10
116.9999999999991
 20
38.48263197439371
 30
0
 40
2.5
 41
3.888888888889044
 71
    5
 72
    1
  1
6.0
  7
standard
210
0
220
0
230
1
 50
0
 73
    2
 44
1
  0
LINE
  5
D7
100
AcDbEntity
  8
标注
  6
ByBlock
 62
    0
370
   -2
100
AcDbLine
 10
113.9999999999983
 20
43.43750000000188
 11
113.9999999999983
 21
32.85763197439371
  0
LINE
  5
D8
100
AcDbEntity
  8
标注
  6
ByBlock
 62
    0
370
   -2
100
AcDbLine
 10
120
 20
43.43750000000188
 11
120
 21
32.85763197439371
  0
ENDBLK
  5
7D
330
7B
100
AcDbEntity
  8
0
100
AcDbBlockEnd
  0
BLOCK
  5
7F
330
7E
100
AcDbEntity
  8
0
100
AcDbBlockBegin
  2
*D17
 70
    1
 10
0
 20
0
  3
*D17
  1

  0
LINE
  5
D9
100
AcDbEntity
  8
标注
  6
ByBlock
 62
    0
370
   -2
100
AcDbLine
 10
212.7341034260816
 20
117.0124556475823
 11
251.0154331935531
 21
117.0124556475823
  0
SOLID
  5
DA
100
AcDbEntity
  8
标注
  6
ByBlock
 62
    0
370
   -2
100
AcDbTrace
 10
212.7341034260816
 20
117.0124556475823
 30
0
 11
217.7341034260816
 21
117.845024963128
 31
0
 12
217.7341034260816
 22
116.1798863320366
 32
0
 13
217.7341034260816
 23
116.1798863320366
 33
0
  0
SOLID
  5
DB
100
AcDbEntity
  8
标注
  6
ByBlock
 62
    0
370
   -2
100
AcDbTrace
 10
251.0154331935531
 20
117.0124556475823
 30
0
 11
246.0154331935531
 21
116.1798863320366
 31
0
 12
246.0154331935531
 22
117.845024963128
 32
0
 13
246.0154331935531
 23
117.845024963128
 33
0
  0
MTEXT
  5
DC
100
AcDbEntity
  8
标注
  6
CONTINUOUS
 62
    0
370
   -2
100
AcDbMText
 10
231.8747683098173
 20
119.5124556475823
 30
0
 40
2.5
 41
3.055555555555556
 71
    5
 72
    1
  1
70
  7
standard
210
0
220
0
230
1
 50
0
 73
    2
 44
1
  0
LINE
  5
DD
100
AcDbEntity
  8
标注
  6
ByBlock
 62
    0
370
   -2
100
AcDbLine
 10
212.7341034260816
 20
114.5624999999978
 11
212.7341034260816
 21
120.1374556475823
  0
LINE
  5
DE
100
AcDbEntity
  8
标注
  6
ByBlock
 62
    0
370
   -2
100
AcDbLine
 10
251.0154331935531
 20
113.6231418468148
 11
251.0154331935531
 21
120.1374556475823
  0
ENDBLK
  5
80
330
7E
100
AcDbEntity
  8
0
100
AcDbBlockEnd
  0
BLOCK
  5
82
330
81
100
AcDbEntity
  8
0
100
AcDbBlockBegin
  2
*D16
 70
    1
 10
0
 20
0
  3
*D16
  1

  0
LINE
  5
DF
100
AcDbEntity
  8
标注
  6
ByBlock
 62
    0
370
   -2
100
AcDbLine
 10
108.9659844580106
 20
131.096646506479
 11
251.0154331935531
 21
131.096646506479
  0
SOLID
  5
E0
100
AcDbEntity
  8
标注
  6
ByBlock
 62
    0
370
   -2
100
AcDbTrace
 10
108.9659844580106
 20
131.096646506479
 30
0
 11
113.9659844580106
 21
131.9292158220247
 31
0
 12
113.9659844580106
 22
130.2640771909333
 32
0
 13
113.9659844580106
 23
130.2640771909333
 33
0
  0
SOLID
  5
E1
100
AcDbEntity
  8
标注
  6
ByBlock
 62
    0
370
   -2
100
AcDbTrace
 10
251.0154331935531
 20
131.096646506479
 30
0
 11
246.0154331935531
 21
130.2640771909333
 31
0
 12
246.0154331935531
 22
131.9292158220247
 32
0
 13
246.0154331935531
 23
131.9292158220247
 33
0
  0
MTEXT
  5
E2
100
AcDbEntity
  8
标注
  6
CONTINUOUS
 62
    0
370
   -2
100
AcDbMText
 10
179.9907088257818
 20
133.596646506479
 30
0
 40
2.5
 41
4.444444444444599
 71
    5
 72
    1
  1
160
  7
standard
210
0
220
0
230
1
 50
0
 73
    2
 44
1
  0
LINE
  5
E3
100
AcDbEntity
  8
标注
  6
ByBlock
 62
    0
370
   -2
100
AcDbLine
 10
108.9659844580106
 20
114.6516720373231
 11
108.9659844580106
 21
134.221646506479
  0
LINE
  5
E4
100
AcDbEntity
  8
标注
  6
ByBlock
 62
    0
370
   -2
100
AcDbLine
 10
251.0154331935531
 20
113.6231418468148
 11
251.0154331935531
 21
134.221646506479
  0
ENDBLK
  5
83
330
81
100
AcDbEntity
  8
0
100
AcDbBlockEnd
  0
ENDSEC
  0
SECTION
  2
ENTITIES
  0
LINE
  5
E5
100
AcDbEntity
  8
中心线
  6
ByLayer
 62
  256
370
   -1
100
AcDbLine
 10
70
 20
110
 11
470
 21
110
  0
LINE
  5
E6
100
AcDbEntity
  8
0
  6
ByLayer
 62
  256
370
   -1
100
AcDbLine
 10
120
 20
115.9999999999988
 11
123.9999999999983
 21
115.9999999999988
  0
LINE
  5
E7
100
AcDbEntity
  8
0
  6
ByLayer
 62
  256
370
   -1
100
AcDbLine
 10
120
 20
104.0000000000011
 11
120.0000060396148
 21
115.9999999999989
  0
LINE
  5
E8
100
AcDbEntity
  8
0
  6
ByLayer
 62
  256
370
   -1
100
AcDbLine
 10
120.0000060396148
 20
115.9999999999989
 11
120.0000010066024
 21
105.9999999999966
  0
LINE
  5
E9
100
AcDbEntity
  8
0
  6
ByLayer
 62
  256
370
   -1
100
AcDbLine
 10
123.9999999999983
 20
115.000000000001
 11
130
 21
115.000000000001
  0
LINE
  5
EA
100
AcDbEntity
  8
0
  6
ByLayer
 62
  256
370
   -1
100
AcDbLine
 10
120
 20
104.0000000000011
 11
123.9999999999983
 21
104.0000000000011
  0
LINE
  5
EB
100
AcDbEntity
  8
0
  6
ByLayer
 62
  256
370
   -1
100
AcDbLine
 10
123.9999999999983
 20
105.0000000000019
 11
130
 21
105.0000000000019
  0
LINE
  5
EC
100
AcDbEntity
  8
0
  6
ByLayer
 62
  256
370
   -1
100
AcDbLine
 10
123.9999999999983
 20
104.0000000000011
 11
123.9999999999983
 21
115.9999999999988
  0
LINE
  5
ED
100
AcDbEntity
  8
0
  6
ByLayer
 62
  256
370
   -1
100
AcDbLine
 10
130
 20
105.0000000000019
 11
130
 21
115.000000000001
  0
LINE
  5
EE
100
AcDbEntity
  8
0
  6
ByLayer
 62
  256
370
   -1
100
AcDbLine
 10
120.0000050330123
 20
113.999999999998
 11
110
 21
113.999999999998
  0
LINE
  5
EF
100
AcDbEntity
  8
0
  6
ByLayer
 62
  256
370
   -1
100
AcDbLine
 10
120.0000010066024
 20
105.9999999999966
 11
110
 21
105.9999999999966
  0
LINE
  5
F0
100
AcDbEntity
  8
0
  6
ByLayer
 62
  256
370
   -1
100
AcDbLine
 10
110
 20
105.9999999999966
 11
110
 21
113.999999999998
  0
LINE
  5
F1
100
AcDbEntity
  8
0
  6
ByLayer
 62
  256
370
   -1
100
AcDbLine
 10
120.0000045745915
 20
113.0891720373231
 11
108.9659844580106
 21
113.0891720373231
  0
LINE
  5
F2
100
AcDbEntity
  8
0
  6
ByLayer
 62
  256
370
   -1
100
AcDbLine
 10
108.9659844580106
 20
113.0891720373231
 11
108.9659844580106
 21
106.9251561174586
  0
LINE
  5
F3
100
AcDbEntity
  8
0
  6
ByLayer
 62
  256
370
   -1
100
AcDbLine
 10
108.9659844580106
 20
106.9251561174586
 11
120.0000014470122
 21
106.9251561174586
  0
LINE
  5
F4
100
AcDbEntity
  8
0
  6
ByLayer
 62
  256
370
   -1
100
AcDbLine
 10
110
 20
113.999999999998
 11
108.9659844580106
 21
113.0891720373231
  0
LINE
  5
F5
100
AcDbEntity
  8
0
  6
ByLayer
 62
  256
370
   -1
100
AcDbLine
 10
110
 20
105.9999999999966
 11
108.9659844580106
 21
106.9251561174586
  0
DIMENSION
  5
F6
100
AcDbEntity
  8
标注
  6
ByLayer
 62
  256
370
   -1
100
AcDbDimension
  2
*D1
 10
123.9999999999983
 20
94.70382693730494
 30
0
 11
121.9999999999991
 21
97.20382693730494
 31
0
 70
   33
 71
    5
  3
Standard
 53
0
210
0
220
0
230
1
100
AcDbAlignedDimension
 13
120
 23
104.0000000000011
 33
0
 14
123.9999999999983
 24
104.0000000000011
 34
0
  0
DIMENSION
  5
F7
100
AcDbEntity
  8
标注
  6
ByLayer
 62
  256
370
   -1
100
AcDbDimension
  2
*D2
 10
130
 20
99.46288795788917
 30
0
 11
126.9999999999991
 21
101.9628879578892
 31
0
 70
   32
 71
    5
  3
Standard
 53
0
210
0
220
0
230
1
100
AcDbAlignedDimension
 13
123.9999999999983
 23
104.0000000000011
 33
0
 14
130
 24
105.0000000000019
 34
0
100
AcDbRotatedDimension
  0
LINE
  5
F8
100
AcDbEntity
  8
0
  6
ByLayer
 62
  256
370
   -1
100
AcDbLine
 10
130
 20
112.9999999999978
 11
250
 21
112.9999999999978
  0
LINE
  5
F9
100
AcDbEntity
  8
0
  6
ByLayer
 62
  256
370
   -1
100
AcDbLine
 10
250
 20
112.9999999999978
 11
250
 21
107.0000000000022
  0
LINE
  5
FA
100
AcDbEntity
  8
0
  6
ByLayer
 62
  256
370
   -1
100
AcDbLine
 10
250
 20
107.0000000000022
 11
130
 21
107.0000000000022
  0
LINE
  5
FB
100
AcDbEntity
  8
0
  6
ByLayer
 62
  256
370
   -1
100
AcDbLine
 10
212.7341034260816
 20
112.9999999999978
 11
212.7341034260816
 21
107.0000000000022
  0
LINE
  5
FC
100
AcDbEntity
  8
0
  6
ByLayer
 62
  256
370
   -1
100
AcDbLine
 10
212.7341034260816
 20
112.0606418468148
 11
251.0154331935531
 21
112.0606418468148
  0
LINE
  5
FD
100
AcDbEntity
  8
0
  6
ByLayer
 62
  256
370
   -1
100
AcDbLine
 10
251.0154331935531
 20
112.0606418468148
 11
251.0154331935531
 21
107.8706455538577
  0
LINE
  5
FE
100
AcDbEntity
  8
0
  6
ByLayer
 62
  256
370
   -1
100
AcDbLine
 10
251.0154331935531
 20
107.8706455538577
 11
212.7341034260816
 21
107.8706455538577
  0
LINE
  5
FF
100
AcDbEntity
  8
0
  6
ByLayer
 62
  256
370
   -1
100
AcDbLine
 10
250
 20
112.9999999999978
 11
251.0154331935531
 21
112.0606418468148
  0
LINE
  5
100
100
AcDbEntity
  8
0
  6
ByLayer
 62
  256
370
   -1
100
AcDbLine
 10
250
 20
107.0000000000022
 11
251.0154331935531
 21
107.8706455538577
  0
DIMENSION
  5
101
100
AcDbEntity
  8
标注
  6
ByLayer
 62
  256
370
   -1
100
AcDbDimension
  2
*D3
 10
257.5241319605358
 20
107.0000000000022
 30
0
 11
255.0241319605358
 21
110
 31
0
 70
   32
  1
M6
 71
    5
  3
Standard
 53
0
210
0
220
0
230
1
100
AcDbAlignedDimension
 13
250
 23
112.9999999999978
 33
0
 14
250
 24
107.0000000000022
 34
0
 50
90
100
AcDbRotatedDimension
  0
DIMENSION
  5
102
100
AcDbEntity
  8
标注
  6
ByLayer
 62
  256
370
   -1
100
AcDbDimension
  2
*D4
 10
104.6748628582993
 20
105.9999999999966
 30
0
 11
102.1748628582993
 21
109.9999999999973
 31
0
 70
   32
  1
M6
 71
    5
  3
Standard
 53
0
210
0
220
0
230
1
100
AcDbAlignedDimension
 13
110
 23
113.999999999998
 33
0
 14
110
 24
105.9999999999966
 34
0
 50
90
100
AcDbRotatedDimension
  0
DIMENSION
  5
103
100
AcDbEntity
  8
标注
  6
ByLayer
 62
  256
370
   -1
100
AcDbDimension
  2
*D5
 10
146.9732425591058
 20
105.0000000000019
 30
0
 11
144.4732425591058
 21
110.0000000000015
 31
0
 70
   32
  1
%%C10%%P0.005
 71
    5
  3
Standard
 53
0
210
0
220
0
230
1
100
AcDbAlignedDimension
 13
130
 23
115.000000000001
 33
0
 14
130
 24
105.0000000000019
 34
0
 50
90
100
AcDbRotatedDimension
  0
DIMENSION
  5
104
100
AcDbEntity
  8
标注
  6
ByLayer
 62
  256
370
   -1
100
AcDbDimension
  2
*D6
 10
116.0984142709164
 20
104.0000000000011
 30
0
 11
113.5984142709164
 21
110
 31
0
 70
   32
  1
%%C12
 71
    5
  3
Standard
 53
0
210
0
220
0
230
1
100
AcDbAlignedDimension
 13
120.0000060396148
 23
115.9999999999988
 33
0
 14
120
 24
104.0000000000011
 34
0
 50
90
100
AcDbRotatedDimension
  0
DIMENSION
  5
105
100
AcDbEntity
  8
标注
  6
ByLayer
 62
  256
370
   -1
100
AcDbDimension
  2
*D7
 10
108.9659844580105
 20
119.0590215720596
 30
0
 11
114.4829952488126
 21
121.5590215720596
 31
0
 70
   32
  1
     20  
 71
    5
  3
Standard
 53
0
210
0
220
0
230
1
100
AcDbAlignedDimension
 13
120.0000060396148
 23
115.9999999999988
 33
0
 14
108.9659844580105
 24
113.0891720373231
 34
0
100
AcDbRotatedDimension
  0
LINE
  5
106
100
AcDbEntity
  8
0
  6
ByLayer
 62
  256
370
   -1
100
AcDbLine
 10
113.9999999999983
 20
55.00000000000102
 11
120
 21
55.00000000000102
  0
LINE
  5
107
100
AcDbEntity
  8
0
  6
ByLayer
 62
  256
370
   -1
100
AcDbLine
 10
113.9999999999983
 20
45.00000000000188
 11
120
 21
45.00000000000188
  0
LINE
  5
108
100
AcDbEntity
  8
0
  6
ByLayer
 62
  256
370
   -1
100
AcDbLine
 10
113.9999999999983
 20
44.00000000000114
 11
113.9999999999983
 21
55.99999999999881
  0
LINE
  5
109
100
AcDbEntity
  8
0
  6
ByLayer
 62
  256
370
   -1
100
AcDbLine
 10
120
 20
45.00000000000188
 11
120
 21
55.00000000000102
  0
LINE
  5
10A
100
AcDbEntity
  8
中心线
  6
ByLayer
 62
  256
370
   -1
100
AcDbLine
 10
100
 20
50
 11
150
 21
50
  0
LINE
  5
10B
100
AcDbEntity
  8
中心线
  6
ByLayer
 62
  256
370
   -1
100
AcDbLine
 10
140
 20
30
 11
140
 21
70
  0
ARC
  5
10C
100
AcDbEntity
  8
0
  6
ByLayer
 62
  256
370
   -1
100
AcDbCircle
 10
140
 20
50
 40
8
100
AcDbArc
 50
305.6590876961949
 51
54.34091230384481
  0
ARC
  5
10D
100
AcDbEntity
  8
0
  6
ByLayer
 62
  256
370
   -1
100
AcDbCircle
 10
140
 20
50
 40
8
100
AcDbArc
 50
125.6590876961559
 51
234.3409123038049
  0
LINE
  5
10E
100
AcDbEntity
  8
0
  6
ByLayer
 62
  256
370
   -1
100
AcDbLine
 10
135.3363104734551
 20
56.49999999999653
 11
144.663689526554
 21
56.49999999999653
  0
LINE
  5
10F
100
AcDbEntity
  8
0
  6
ByLayer
 62
  256
370
   -1
100
AcDbLine
 10
135.3363104734484
 20
43.50000000000352
 11
144.6636895265484
 21
43.5000000000035
  0
LINE
  5
110
100
AcDbEntity
  8
0
  6
ByLayer
 62
  256
370
   -1
100
AcDbLine
 10
107.9999999999982
 20
43.50000000000352
 11
107.9999999999982
 21
56.49999999999653
  0
LINE
  5
111
100
AcDbEntity
  8
0
  6
ByLayer
 62
  256
370
   -1
100
AcDbLine
 10
112.9999999999978
 20
56.49999999999653
 11
107.9999999999982
 21
56.49999999999653
  0
LINE
  5
112
100
AcDbEntity
  8
0
  6
ByLayer
 62
  256
370
   -1
100
AcDbLine
 10
112.9999999999978
 20
43.50000000000352
 11
107.9999999999982
 21
43.50000000000352
  0
LINE
  5
113
100
AcDbEntity
  8
0
  6
ByLayer
 62
  256
370
   -1
100
AcDbLine
 10
112.9999999999978
 20
43.50000000000352
 11
112.9999999999978
 21
56.49999999999653
  0
LINE
  5
114
100
AcDbEntity
  8
0
  6
ByLayer
 62
  256
370
   -1
100
AcDbLine
 10
112.9999999999978
 20
55.99999999999881
 11
113.9999999999983
 21
55.99999999999881
  0
LINE
  5
115
100
AcDbEntity
  8
0
  6
ByLayer
 62
  256
370
   -1
100
AcDbLine
 10
112.9999999999978
 20
44.00000000000114
 11
113.9999999999983
 21
44.00000000000114
  0
CIRCLE
  5
116
100
AcDbEntity
  8
0
  6
ByLayer
 62
  256
370
   -1
100
AcDbCircle
 10
140
 20
50
 40
3
  0
LINE
  5
117
100
AcDbEntity
  8
虚线
  6
ByLayer
 62
  256
370
   -1
100
AcDbLine
 10
120
 20
53.00000000000239
 11
107.9999999999982
 21
53.00000000000239
  0
LINE
  5
118
100
AcDbEntity
  8
虚线
  6
ByLayer
 62
  256
370
   -1
100
AcDbLine
 10
120
 20
46.99999999999767
 11
107.9999999999982
 21
46.99999999999767
  0
DIMENSION
  5
119
100
AcDbEntity
  8
标注
  6
ByLayer
 62
  256
370
   -1
100
AcDbDimension
  2
*D8
 10
165.1949092057421
 20
43.50000000000352
 30
0
 11
162.6949092057421
 21
50
 31
0
 70
   32
 71
    5
  3
Standard
 53
0
210
0
220
0
230
1
100
AcDbAlignedDimension
 13
144.6636895265524
 23
56.49999999999653
 33
0
 14
144.6636895265484
 24
43.50000000000352
 34
0
 50
90
100
AcDbRotatedDimension
  0
DIMENSION
  5
11A
100
AcDbEntity
  8
标注
  6
ByLayer
 62
  256
370
   -1
100
AcDbDimension
  2
*D9
 10
120
 20
28.19360072699209
 30
0
 11
113.9999999999991
 21
30.69360072699209
 31
0
 70
   32
 71
    5
  3
Standard
 53
0
210
0
220
0
230
1
100
AcDbAlignedDimension
 13
107.9999999999982
 23
43.50000000000352
 33
0
 14
120
 24
45.00000000000188
 34
0
100
AcDbRotatedDimension
  0
DIMENSION
  5
11B
100
AcDbEntity
  8
标注
  6
ByLayer
 62
  256
370
   -1
100
AcDbDimension
  2
*D10
 10
120
 20
35.98263197439371
 30
0
 11
116.9999999999991
 21
38.48263197439371
 31
0
 70
   32
 71
    5
  3
Standard
 53
0
210
0
220
0
230
1
100
AcDbAlignedDimension
 13
113.9999999999983
 23
45.00000000000188
 33
0
 14
120
 24
45.00000000000188
 34
0
100
AcDbRotatedDimension
  0
DIMENSION
  5
11C
100
AcDbEntity
  8
标注
  6
ByLayer
 62
  256
370
   -1
100
AcDbDimension
  2
*D11
 10
113.9999999999983
 20
40.58904830350221
 30
0
 11
113.499999999998
 21
43.08904830350221
 31
0
 70
   32
 71
    5
  3
Standard
 53
0
210
0
220
0
230
1
100
AcDbAlignedDimension
 13
112.9999999999978
 23
44.00000000000114
 33
0
 14
113.9999999999983
 24
44.00000000000114
 34
0
100
AcDbRotatedDimension
  0
DIMENSION
  5
11D
100
AcDbEntity
  8
标注
  6
ByLayer
 62
  256
370
   -1
100
AcDbDimension
  2
*D12
 10
125.8309878479059
 20
45.00000000000188
 30
0
 11
123.3309878479059
 21
50.00000000000148
 31
0
 70
   32
  1
%%C10%%P0.005
 71
    5
  3
Standard
 53
0
210
0
220
0
230
1
100
AcDbAlignedDimension
 13
120
 23
55.00000000000102
 33
0
 14
120
 24
45.00000000000188
 34
0
 50
90
100
AcDbRotatedDimension
  0
DIMENSION
  5
11E
100
AcDbEntity
  8
标注
  6
ByLayer
 62
  256
370
   -1
100
AcDbDimension
  2
*D13
 10
140
 20
50
 30
0
 11
154.7859680591095
 21
48.34583565928176
 31
0
 70
   36
  1
R8
 71
    5
  3
Standard
 53
0
210
0
220
0
230
1
100
AcDbRadialDimension
 15
147.6879069841086
 25
47.78728985095336
 35
0
 40
0
  0
DIMENSION
  5
11F
100
AcDbEntity
  8
标注
  6
ByLayer
 62
  256
370
   -1
100
AcDbDimension
  2
*D14
 10
137.5378448698701
 20
48.28600113326314
 30
0
 11
138.5716676110526
 21
52.05179594177491
 31
0
 70
   35
  1
       M6
 71
    5
  3
Standard
 53
0
210
0
220
0
230
1
100
AcDbDiametricDimension
 15
142.4621551301299
 25
51.71399886673686
 35
0
 40
0
  0
CIRCLE
  5
120
100
AcDbEntity
  8
虚线
  6
ByLayer
 62
  256
370
   -1
100
AcDbCircle
 10
140
 20
50
 40
6
  0
DIMENSION
  5
121
100
AcDbEntity
  8
标注
  6
ByLayer
 62
  256
370
   -1
100
AcDbDimension
  2
*D15
 10
97.02694410376805
 20
44.00000000000114
 30
0
 11
94.52694410376805
 21
50
 31
0
 70
   32
  1
%%C12
 71
    5
  3
Standard
 53
0
210
0
220
0
230
1
100
AcDbAlignedDimension
 13
112.9999999999978
 23
55.99999999999881
 33
0
 14
112.9999999999978
 24
44.00000000000114
 34
0
 50
90
100
AcDbRotatedDimension
  0
DIMENSION
  5
122
100
AcDbEntity
  8
标注
  6
ByLayer
 62
  256
370
   -1
100
AcDbDimension
  2
*D16
 10
251.0154331935531
 20
131.096646506479
 30
0
 11
179.9907088257818
 21
133.596646506479
 31
0
 70
   32
  1
160
 71
    5
  3
Standard
 53
0
210
0
220
0
230
1
100
AcDbAlignedDimension
 13
108.9659844580106
 23
113.0891720373231
 33
0
 14
251.0154331935531
 24
112.0606418468148
 34
0
100
AcDbRotatedDimension
  0
DIMENSION
  5
123
100
AcDbEntity
  8
标注
  6
ByLayer
 62
  256
370
   -1
100
AcDbDimension
  2
*D17
 10
251.0154331935531
 20
117.0124556475823
 30
0
 11
231.8747683098173
 21
119.5124556475823
 31
0
 70
   32
  1
70
 71
    5
  3
Standard
 53
0
210
0
220
0
230
1
100
AcDbAlignedDimension
 13
212.7341034260816
 23
112.9999999999978
 33
0
 14
251.0154331935531
 24
112.0606418468148
 34
0
100
AcDbRotatedDimension
  0
ENDSEC
  0
SECTION
  2
OBJECTS
  0
DICTIONARY
  5
C
330
0
100
AcDbDictionary
281
    1
  3
ACAD_GROUP
350
D
  0
DICTIONARY
  5
D
330
C
100
AcDbDictionary
281
    1
  0
ENDSEC
  0
EOF
