999
dxfrw 0.6.3
  0
SECTION
  2
HEADER
  9
$ACADVER
  1
AC1021
  9
$DWGCODEPAGE
  3
ANSI_1252
  9
$INSBASE
 10
0
 20
0
 30
0
  9
$EXTMIN
 10
15
 20
15
 30
0
  9
$EXTMAX
 10
195
 20
282
 30
0
  9
$LIMMIN
 10
0
 20
0
  9
$LIMMAX
 10
420
 20
297
  9
$ORTHOMODE
 70
    0
  9
$REGENMODE
 70
    1
  9
$FILLMODE
 70
    1
  9
$QTEXTMODE
 70
    0
  9
$MIRRTEXT
 70
    0
  9
$LTSCALE
 40
1
  9
$ATTMODE
 70
    0
  9
$TEXTSIZE
 40
2.5
  9
$TRACEWID
 40
15.68
  9
$TEXTSTYLE
  7
STANDARD
  9
$CLAYER
  8
dimension
  9
$CELTYPE
  6
BYLAYER
  9
$CECOLOR
 62
  256
  9
$CELTSCALE
 40
1
  9
$DISPSILH
 70
    0
  9
$DIMSCALE
 40
2.5
  9
$DIMASZ
 40
2
  9
$DIMEXO
 40
0.625
  9
$DIMDLI
 40
3.75
  9
$DIMRND
 40
0
  9
$DIMDLE
 40
0
  9
$DIMEXE
 40
1.25
  9
$DIMTP
 40
0
  9
$DIMTM
 40
0
  9
$DIMTXT
 40
1
  9
$DIMCEN
 40
2.5
  9
$DIMTSZ
 40
0
  9
$DIMTOL
 70
    0
  9
$DIMLIM
 70
    0
  9
$DIMTIH
 70
    0
  9
$DIMTOH
 70
    0
  9
$DIMSE1
 70
    0
  9
$DIMSE2
 70
    0
  9
$DIMTAD
 70
    1
  9
$DIMZIN
 70
    8
  9
$DIMBLK
  1

  9
$DIMASO
 70
    1
  9
$DIMSHO
 70
    1
  9
$DIMPOST
  1

  9
$DIMAPOST
  1

  9
$DIMALT
 70
    0
  9
$DIMALTD
 70
    3
  9
$DIMALTF
 40
0.03937
  9
$DIMLFAC
 40
1
  9
$DIMTOFL
 70
    1
  9
$DIMTVP
 40
0
  9
$DIMTIX
 70
    0
  9
$DIMSOXD
 70
    0
  9
$DIMSAH
 70
    0
  9
$DIMBLK1
  1

  9
$DIMBLK2
  1

  9
$DIMSTYLE
  2
STANDARD
  9
$DIMCLRD
 70
    0
  9
$DIMCLRE
 70
    0
  9
$DIMCLRT
 70
    0
  9
$DIMTFAC
 40
1
  9
$DIMGAP
 40
0.625
  9
$DIMJUST
 70
    0
  9
$DIMSD1
 70
    0
  9
$DIMSD2
 70
    0
  9
$DIMTOLJ
 70
    0
  9
$DIMTZIN
 70
    8
  9
$DIMALTZ
 70
    0
  9
$DIMALTTZ
 70
    0
  9
$DIMUPT
 70
    0
  9
$DIMDEC
 70
    1
  9
$DIMTDEC
 70
    2
  9
$DIMALTU
 70
    2
  9
$DIMALTTD
 70
    3
  9
$DIMTXSTY
  7
standard
  9
$DIMAUNIT
 70
    0
  9
$DIMADEC
 70
    1
  9
$DIMALTRND
 40
0
  9
$DIMAZIN
 70
    0
  9
$DIMDSEP
 70
    0
  9
$DIMATFIT
 70
    3
  9
$DIMFRAC
 70
    0
  9
$DIMLDRBLK
  1
STANDARD
  9
$DIMLUNIT
 70
    2
  9
$DIMLWD
 70
   -2
  9
$DIMLWE
 70
   -2
  9
$DIMTMOVE
 70
    0
  9
$DIMFXL
 40
1
  9
$DIMFXLON
 70
    0
  9
$DIMJOGANG
 40
0.7854
  9
$DIMTFILL
 70
    0
  9
$DIMTFILLCLR
 70
    0
  9
$DIMARCSYM
 70
    0
  9
$DIMLTYPE
  6

  9
$DIMLTEX1
  6

  9
$DIMLTEX2
  6

  9
$LUNITS
 70
    2
  9
$LUPREC
 70
    1
  9
$SKETCHINC
 40
1
  9
$FILLETRAD
 40
0
  9
$AUNITS
 70
    0
  9
$AUPREC
 70
    1
  9
$MENU
  1
.
  9
$ELEVATION
 40
0
  9
$PELEVATION
 40
0
  9
$THICKNESS
 40
0
  9
$LIMCHECK
 70
    0
  9
$CHAMFERA
 40
0
  9
$CHAMFERB
 40
0
  9
$CHAMFERC
 40
0
  9
$CHAMFERD
 40
0
  9
$SKPOLY
 70
    0
  9
$USRTIMER
 70
    1
  9
$ANGBASE
 50
0
  9
$ANGDIR
 70
    0
  9
$PDMODE
 70
   34
  9
$PDSIZE
 40
0
  9
$PLINEWID
 40
0
  9
$SPLFRAME
 70
    0
  9
$SPLINETYPE
 70
    2
  9
$SPLINESEGS
 70
    8
  9
$HANDSEED
  5
20000
  9
$SURFTAB1
 70
    6
  9
$SURFTAB2
 70
    6
  9
$SURFTYPE
 70
    6
  9
$SURFU
 70
    6
  9
$SURFV
 70
    6
  9
$UCSBASE
  2

  9
$UCSNAME
  2

  9
$UCSORG
 10
0
 20
0
 30
0
  9
$UCSXDIR
 10
1
 20
0
 30
0
  9
$UCSYDIR
 10
0
 20
1
 30
0
  9
$UCSORTHOREF
  2

  9
$UCSORTHOVIEW
 70
    0
  9
$UCSORGTOP
 10
0
 20
0
 30
0
  9
$UCSORGBOTTOM
 10
0
 20
0
 30
0
  9
$UCSORGLEFT
 10
0
 20
0
 30
0
  9
$UCSORGRIGHT
 10
0
 20
0
 30
0
  9
$UCSORGFRONT
 10
0
 20
0
 30
0
  9
$UCSORGBACK
 10
0
 20
0
 30
0
  9
$PUCSBASE
  2

  9
$PUCSNAME
  2

  9
$PUCSORG
 10
0
 20
0
 30
0
  9
$PUCSXDIR
 10
1
 20
0
 30
0
  9
$PUCSYDIR
 10
0
 20
1
 30
0
  9
$PUCSORTHOREF
  2

  9
$PUCSORTHOVIEW
 70
    0
  9
$PUCSORGTOP
 10
0
 20
0
 30
0
  9
$PUCSORGBOTTOM
 10
0
 20
0
 30
0
  9
$PUCSORGLEFT
 10
0
 20
0
 30
0
  9
$PUCSORGRIGHT
 10
0
 20
0
 30
0
  9
$PUCSORGFRONT
 10
0
 20
0
 30
0
  9
$PUCSORGBACK
 10
0
 20
0
 30
0
  9
$USERI1
 70
    0
  9
$USERI2
 70
    0
  9
$USERI3
 70
    0
  9
$USERI4
 70
    0
  9
$USERI5
 70
    0
  9
$USERR1
 40
0
  9
$USERR2
 40
0
  9
$USERR3
 40
0
  9
$USERR4
 40
0
  9
$USERR5
 40
0
  9
$WORLDVIEW
 70
    1
  9
$SHADEDGE
 70
    3
  9
$SHADEDIF
 70
   70
  9
$TILEMODE
 70
    1
  9
$MAXACTVP
 70
   64
  9
$PINSBASE
 10
0
 20
0
 30
0
  9
$PLIMCHECK
 70
    0
  9
$PEXTMIN
 10
0
 20
0
 30
0
  9
$PEXTMAX
 10
0
 20
0
 30
0
  9
$GRIDMODE
 70
    1
  9
$SNAPSTYLE
 70
    0
  9
$GRIDUNIT
 10
0
 20
0
  9
$PLIMMIN
 10
0
 20
0
  9
$PLIMMAX
 10
210
 20
297
  9
$UNITMODE
 70
    0
  9
$VISRETAIN
 70
    1
  9
$PLINEGEN
 70
    0
  9
$PSLTSCALE
 70
    1
  9
$TREEDEPTH
 70
 3020
  9
$CMLSTYLE
  2
Standard
  9
$CMLJUST
 70
    0
  9
$CMLSCALE
 40
20
  9
$PROXYGRAPHICS
 70
    1
  9
$MEASUREMENT
 70
    1
  9
$CELWEIGHT
370
   -1
  9
$ENDCAPS
280
    0
  9
$JOINSTYLE
280
    0
  9
$LWDISPLAY
290
    0
  9
$INSUNITS
 70
    4
  9
$HYPERLINKBASE
  1

  9
$STYLESHEET
  1

  9
$XEDIT
290
    1
  9
$CEPSNTYPE
380
    0
  9
$PSTYLEMODE
290
    1
  9
$EXTNAMES
290
    1
  9
$PSVPSCALE
 40
1
  9
$OLESTARTUP
290
    0
  9
$SORTENTS
280
  127
  9
$INDEXCTL
280
    0
  9
$HIDETEXT
280
    1
  9
$XCLIPFRAME
290
    0
  9
$HALOGAP
280
    0
  9
$OBSCOLOR
 70
  257
  9
$OBSLTYPE
280
    0
  9
$INTERSECTIONDISPLAY
280
    0
  9
$INTERSECTIONCOLOR
 70
  257
  9
$DIMASSOC
280
    1
  9
$PROJECTNAME
  1

  9
$CAMERADISPLAY
290
    0
  9
$LENSLENGTH
 40
50
  9
$CAMERAHEIGHT
 40
0
  9
$STEPSPERSEC
 40
2
  9
$STEPSIZE
 40
50
  9
$3DDWFPREC
 40
2
  9
$PSOLWIDTH
 40
5
  9
$PSOLHEIGHT
 40
80
  9
$LOFTANG1
 40
1.570796326794897
  9
$LOFTANG2
 40
1.570796326794897
  9
$LOFTMAG1
 40
0
  9
$LOFTMAG2
 40
0
  9
$LOFTPARAM
 70
    7
  9
$LOFTNORMALS
280
    1
  9
$LATITUDE
 40
1
  9
$LONGITUDE
 40
1
  9
$NORTHDIRECTION
 40
0
  9
$TIMEZONE
 70
-8000
  9
$LIGHTGLYPHDISPLAY
280
    1
  9
$TILEMODELIGHTSYNCH
280
    1
  9
$SOLIDHIST
280
    1
  9
$SHOWHIST
280
    1
  9
$DWFFRAME
280
    2
  9
$DGNFRAME
280
    0
  9
$REALWORLDSCALE
290
    1
  9
$INTERFERECOLOR
 62
    1
  9
$CSHADOW
280
    0
  9
$SHADOWPLANELOCATION
 40
0
  0
ENDSEC
  0
SECTION
  2
CLASSES
  0
ENDSEC
  0
SECTION
  2
TABLES
  0
TABLE
  2
VPORT
  5
8
330
0
100
AcDbSymbolTable
 70
    1
  0
VPORT
  5
31
330
2
100
AcDbSymbolTableRecord
100
AcDbViewportTableRecord
  2
*ACTIVE
 70
    0
 10
0
 20
0
 11
1
 21
1
 12
202.043336246187
 22
135.5329188673357
 13
0
 23
0
 14
10
 24
10
 15
10
 25
10
 16
0
 26
0
 36
1
 17
0
 27
0
 37
0
 40
190.6791462264193
 41
2.328732747804266
 42
50
 43
0
 44
0
 50
0
 51
0
 71
    0
 72
  100
 73
    1
 74
    3
 75
    0
 76
    1
 77
    0
 78
    0
281
    0
 65
    1
110
0
120
0
130
0
111
1
121
0
131
0
112
0
122
1
132
0
 79
    0
146
0
348
10020
 60
    7
 61
    5
292
1
282
    1
141
0
142
0
 63
  250
421
3358443
  0
ENDTAB
  0
TABLE
  2
LTYPE
  5
5
330
0
100
AcDbSymbolTable
 70
    4
  0
LTYPE
  5
14
330
5
100
AcDbSymbolTableRecord
100
AcDbLinetypeTableRecord
  2
ByBlock
 70
    0
  3

 72
   65
 73
    0
 40
0
  0
LTYPE
  5
15
330
5
100
AcDbSymbolTableRecord
100
AcDbLinetypeTableRecord
  2
ByLayer
 70
    0
  3

 72
   65
 73
    0
 40
0
  0
LTYPE
  5
16
330
5
100
AcDbSymbolTableRecord
100
AcDbLinetypeTableRecord
  2
Continuous
 70
    0
  3
Solid line
 72
   65
 73
    0
 40
0
  0
LTYPE
  5
32
330
5
100
AcDbSymbolTableRecord
100
AcDbLinetypeTableRecord
  2
DOT
 70
    0
  3
Dot . . . . . . . . . . . . . . . . . . . . . .
 72
   65
 73
    2
 40
6.35
 49
0
 74
    0
 49
-6.35
 74
    0
  0
LTYPE
  5
33
330
5
100
AcDbSymbolTableRecord
100
AcDbLinetypeTableRecord
  2
DOTTINY
 70
    0
  3
Dot (.15x) .....................................
 72
   65
 73
    2
 40
0.9525
 49
0
 74
    0
 49
-0.9525
 74
    0
  0
LTYPE
  5
34
330
5
100
AcDbSymbolTableRecord
100
AcDbLinetypeTableRecord
  2
DOT2
 70
    0
  3
Dot (.5x) .....................................
 72
   65
 73
    2
 40
3.175
 49
0
 74
    0
 49
-3.175
 74
    0
  0
LTYPE
  5
35
330
5
100
AcDbSymbolTableRecord
100
AcDbLinetypeTableRecord
  2
DOTX2
 70
    0
  3
Dot (2x) .  .  .  .  .  .  .  .  .  .  .  .  .
 72
   65
 73
    2
 40
12.7
 49
0
 74
    0
 49
-12.7
 74
    0
  0
LTYPE
  5
36
330
5
100
AcDbSymbolTableRecord
100
AcDbLinetypeTableRecord
  2
DASHED
 70
    0
  3
Dashed _ _ _ _ _ _ _ _ _ _ _ _ _ _ _ _ _
 72
   65
 73
    2
 40
19.05
 49
12.7
 74
    0
 49
-6.35
 74
    0
  0
LTYPE
  5
37
330
5
100
AcDbSymbolTableRecord
100
AcDbLinetypeTableRecord
  2
DASHEDTINY
 70
    0
  3
Dashed (.15x) _ _ _ _ _ _ _ _ _ _ _ _ _ _ _ _ _
 72
   65
 73
    2
 40
2.8575
 49
1.905
 74
    0
 49
-0.9525
 74
    0
  0
LTYPE
  5
38
330
5
100
AcDbSymbolTableRecord
100
AcDbLinetypeTableRecord
  2
DASHED2
 70
    0
  3
Dashed (.5x) _ _ _ _ _ _ _ _ _ _ _ _ _ _ _ _ _
 72
   65
 73
    2
 40
9.524999999999999
 49
6.35
 74
    0
 49
-3.175
 74
    0
  0
LTYPE
  5
39
330
5
100
AcDbSymbolTableRecord
100
AcDbLinetypeTableRecord
  2
DASHEDX2
 70
    0
  3
Dashed (2x) ____  ____  ____  ____  ____  ___
 72
   65
 73
    2
 40
38.09999999999999
 49
25.4
 74
    0
 49
-12.7
 74
    0
  0
LTYPE
  5
3A
330
5
100
AcDbSymbolTableRecord
100
AcDbLinetypeTableRecord
  2
DASHDOT
 70
    0
  3
Dash dot __ . __ . __ . __ . __ . __ . __ . __
 72
   65
 73
    4
 40
25.4
 49
12.7
 74
    0
 49
-6.35
 74
    0
 49
0
 74
    0
 49
-6.35
 74
    0
  0
LTYPE
  5
3B
330
5
100
AcDbSymbolTableRecord
100
AcDbLinetypeTableRecord
  2
DASHDOTTINY
 70
    0
  3
Dash dot (.15x) _._._._._._._._._._._._._._._.
 72
   65
 73
    4
 40
3.81
 49
1.905
 74
    0
 49
-0.9525
 74
    0
 49
0
 74
    0
 49
-0.9525
 74
    0
  0
LTYPE
  5
3C
330
5
100
AcDbSymbolTableRecord
100
AcDbLinetypeTableRecord
  2
DASHDOT2
 70
    0
  3
Dash dot (.5x) _._._._._._._._._._._._._._._.
 72
   65
 73
    4
 40
12.7
 49
6.35
 74
    0
 49
-3.175
 74
    0
 49
0
 74
    0
 49
-3.175
 74
    0
  0
LTYPE
  5
3D
330
5
100
AcDbSymbolTableRecord
100
AcDbLinetypeTableRecord
  2
DASHDOTX2
 70
    0
  3
Dash dot (2x) ____  .  ____  .  ____  .  ___
 72
   65
 73
    4
 40
50.8
 49
25.4
 74
    0
 49
-12.7
 74
    0
 49
0
 74
    0
 49
-12.7
 74
    0
  0
LTYPE
  5
3E
330
5
100
AcDbSymbolTableRecord
100
AcDbLinetypeTableRecord
  2
DIVIDE
 70
    0
  3
Divide ____ . . ____ . . ____ . . ____ . . ____
 72
   65
 73
    6
 40
31.75
 49
12.7
 74
    0
 49
-6.35
 74
    0
 49
0
 74
    0
 49
-6.35
 74
    0
 49
0
 74
    0
 49
-6.35
 74
    0
  0
LTYPE
  5
3F
330
5
100
AcDbSymbolTableRecord
100
AcDbLinetypeTableRecord
  2
DIVIDETINY
 70
    0
  3
Divide (.15x) __..__..__..__..__..__..__..__.._
 72
   65
 73
    6
 40
4.7625
 49
1.905
 74
    0
 49
-0.9525
 74
    0
 49
0
 74
    0
 49
-0.9525
 74
    0
 49
0
 74
    0
 49
-0.9525
 74
    0
  0
LTYPE
  5
40
330
5
100
AcDbSymbolTableRecord
100
AcDbLinetypeTableRecord
  2
DIVIDE2
 70
    0
  3
Divide (.5x) __..__..__..__..__..__..__..__.._
 72
   65
 73
    6
 40
15.875
 49
6.35
 74
    0
 49
-3.175
 74
    0
 49
0
 74
    0
 49
-3.175
 74
    0
 49
0
 74
    0
 49
-3.175
 74
    0
  0
LTYPE
  5
41
330
5
100
AcDbSymbolTableRecord
100
AcDbLinetypeTableRecord
  2
DIVIDEX2
 70
    0
  3
Divide (2x) ________  .  .  ________  .  .  _
 72
   65
 73
    6
 40
63.5
 49
25.4
 74
    0
 49
-12.7
 74
    0
 49
0
 74
    0
 49
-12.7
 74
    0
 49
0
 74
    0
 49
-12.7
 74
    0
  0
LTYPE
  5
42
330
5
100
AcDbSymbolTableRecord
100
AcDbLinetypeTableRecord
  2
BORDER
 70
    0
  3
Border __ __ . __ __ . __ __ . __ __ . __ __ .
 72
   65
 73
    6
 40
44.45
 49
12.7
 74
    0
 49
-6.35
 74
    0
 49
12.7
 74
    0
 49
-6.35
 74
    0
 49
0
 74
    0
 49
-6.35
 74
    0
  0
LTYPE
  5
43
330
5
100
AcDbSymbolTableRecord
100
AcDbLinetypeTableRecord
  2
BORDERTINY
 70
    0
  3
Border (.15x) __.__.__.__.__.__.__.__.__.__.__.
 72
   65
 73
    6
 40
6.6675
 49
1.905
 74
    0
 49
-0.9525
 74
    0
 49
1.905
 74
    0
 49
-0.9525
 74
    0
 49
0
 74
    0
 49
-0.9525
 74
    0
  0
LTYPE
  5
44
330
5
100
AcDbSymbolTableRecord
100
AcDbLinetypeTableRecord
  2
BORDER2
 70
    0
  3
Border (.5x) __.__.__.__.__.__.__.__.__.__.__.
 72
   65
 73
    6
 40
22.225
 49
6.35
 74
    0
 49
-3.175
 74
    0
 49
6.35
 74
    0
 49
-3.175
 74
    0
 49
0
 74
    0
 49
-3.175
 74
    0
  0
LTYPE
  5
45
330
5
100
AcDbSymbolTableRecord
100
AcDbLinetypeTableRecord
  2
BORDERX2
 70
    0
  3
Border (2x) ____  ____  .  ____  ____  .  ___
 72
   65
 73
    6
 40
88.89999999999999
 49
25.4
 74
    0
 49
-12.7
 74
    0
 49
25.4
 74
    0
 49
-12.7
 74
    0
 49
0
 74
    0
 49
-12.7
 74
    0
  0
LTYPE
  5
46
330
5
100
AcDbSymbolTableRecord
100
AcDbLinetypeTableRecord
  2
CENTER
 70
    0
  3
Center ____ _ ____ _ ____ _ ____ _ ____ _ ____
 72
   65
 73
    4
 40
50.8
 49
31.75
 74
    0
 49
-6.35
 74
    0
 49
6.35
 74
    0
 49
-6.35
 74
    0
  0
LTYPE
  5
47
330
5
100
AcDbSymbolTableRecord
100
AcDbLinetypeTableRecord
  2
CENTERTINY
 70
    0
  3
Center (.15x) ___ _ ___ _ ___ _ ___ _ ___ _ ___
 72
   65
 73
    4
 40
7.62
 49
4.7625
 74
    0
 49
-0.9525
 74
    0
 49
0.9525
 74
    0
 49
-0.9525
 74
    0
  0
LTYPE
  5
48
330
5
100
AcDbSymbolTableRecord
100
AcDbLinetypeTableRecord
  2
CENTER2
 70
    0
  3
Center (.5x) ___ _ ___ _ ___ _ ___ _ ___ _ ___
 72
   65
 73
    4
 40
28.575
 49
19.05
 74
    0
 49
-3.175
 74
    0
 49
3.175
 74
    0
 49
-3.175
 74
    0
  0
LTYPE
  5
49
330
5
100
AcDbSymbolTableRecord
100
AcDbLinetypeTableRecord
  2
CENTERX2
 70
    0
  3
Center (2x) ________  __  ________  __  _____
 72
   65
 73
    4
 40
101.6
 49
63.5
 74
    0
 49
-12.7
 74
    0
 49
12.7
 74
    0
 49
-12.7
 74
    0
  0
ENDTAB
  0
TABLE
  2
LAYER
  5
2
330
0
100
AcDbSymbolTable
 70
    1
  0
LAYER
  5
10
330
2
100
AcDbSymbolTableRecord
100
AcDbLayerTableRecord
  2
0
 70
    0
 62
    7
  6
CONTINUOUS
370
    0
390
F
  0
LAYER
  5
4A
330
2
100
AcDbSymbolTableRecord
100
AcDbLayerTableRecord
  2
center
 70
    0
 62
    1
  6
CENTERTINY
370
    0
390
F
  0
LAYER
  5
4B
330
2
100
AcDbSymbolTableRecord
100
AcDbLayerTableRecord
  2
dash
 70
    0
 62
    7
  6
DASHEDTINY
370
    0
390
F
  0
LAYER
  5
4C
330
2
100
AcDbSymbolTableRecord
100
AcDbLayerTableRecord
  2
dimension
 70
    0
 62
   96
420
32768
  6
CONTINUOUS
370
    0
390
F
  0
LAYER
  5
4D
330
2
100
AcDbSymbolTableRecord
100
AcDbLayerTableRecord
  2
refer
 70
    0
 62
    2
  6
DOTTINY
370
    0
390
F
  0
ENDTAB
  0
TABLE
  2
STYLE
  5
3
330
0
100
AcDbSymbolTable
 70
    3
  0
STYLE
  5
4E
330
2
100
AcDbSymbolTableRecord
100
AcDbTextStyleTableRecord
  2
wqy-unicode
 70
    0
 40
0
 41
1
 50
0
 71
    0
 42
1
  3
wqy-unicode
  4

  0
STYLE
  5
4F
330
2
100
AcDbSymbolTableRecord
100
AcDbTextStyleTableRecord
  2
Standard
 70
    0
 40
0
 41
1
 50
0
 71
    0
 42
1
  3
txt
  4

  0
ENDTAB
  0
TABLE
  2
VIEW
  5
6
330
0
100
AcDbSymbolTable
 70
    0
  0
ENDTAB
  0
TABLE
  2
UCS
  5
7
330
0
100
AcDbSymbolTable
 70
    0
  0
ENDTAB
  0
TABLE
  2
APPID
  5
9
330
0
100
AcDbSymbolTable
 70
    1
  0
APPID
  5
12
330
9
100
AcDbSymbolTableRecord
100
AcDbRegAppTableRecord
  2
ACAD
 70
    0
  0
APPID
  5
50
330
9
100
AcDbSymbolTableRecord
100
AcDbRegAppTableRecord
  2
LibreCad
 70
    0
  0
ENDTAB
  0
TABLE
  2
DIMSTYLE
  5
A
330
0
100
AcDbSymbolTable
 70
    1
100
AcDbDimStyleTable
 71
    1
  0
DIMSTYLE
105
51
330
A
100
AcDbSymbolTableRecord
100
AcDbDimStyleTableRecord
  2
Standard
 70
    0
 40
2.5
 41
2
 42
0.625
 43
0.38
 44
1.25
 45
0
 46
0
 47
0
 48
0
 49
1
140
1
141
0.09
142
0
143
25.4
144
1
145
0
146
1
147
0.625
148
0
 71
    0
 72
    0
 73
    0
 74
    1
 75
    0
 76
    0
 77
    0
 78
    8
 79
    0
170
    0
171
    2
172
    0
173
    0
174
    0
175
    0
176
    0
177
    0
178
    0
179
    1
271
    1
272
    4
273
    2
274
    2
275
    0
276
    0
277
    2
278
    0
279
    0
280
    0
281
    0
282
    0
283
    1
284
    0
285
    0
286
    0
288
    0
289
    3
340
standard
341

371
   -2
372
   -2
  0
ENDTAB
  0
TABLE
  2
BLOCK_RECORD
  5
1
330
0
100
AcDbSymbolTable
 70
    2
  0
BLOCK_RECORD
  5
1F
330
1
100
AcDbSymbolTableRecord
100
AcDbBlockTableRecord
  2
*Model_Space
 70
    0
280
    1
281
    0
  0
BLOCK_RECORD
  5
1E
330
1
100
AcDbSymbolTableRecord
100
AcDbBlockTableRecord
  2
*Paper_Space
 70
    0
280
    1
281
    0
  0
BLOCK_RECORD
  5
52
330
1
100
AcDbSymbolTableRecord
100
AcDbBlockTableRecord
  2
*D12
 70
    0
280
    1
281
    0
  0
BLOCK_RECORD
  5
55
330
1
100
AcDbSymbolTableRecord
100
AcDbBlockTableRecord
  2
*D6
 70
    0
280
    1
281
    0
  0
BLOCK_RECORD
  5
58
330
1
100
AcDbSymbolTableRecord
100
AcDbBlockTableRecord
  2
*D14
 70
    0
280
    1
281
    0
  0
BLOCK_RECORD
  5
5B
330
1
100
AcDbSymbolTableRecord
100
AcDbBlockTableRecord
  2
*D15
 70
    0
280
    1
281
    0
  0
BLOCK_RECORD
  5
5E
330
1
100
AcDbSymbolTableRecord
100
AcDbBlockTableRecord
  2
*D2
 70
    0
280
    1
281
    0
  0
BLOCK_RECORD
  5
61
330
1
100
AcDbSymbolTableRecord
100
AcDbBlockTableRecord
  2
*D13
 70
    0
280
    1
281
    0
  0
BLOCK_RECORD
  5
64
330
1
100
AcDbSymbolTableRecord
100
AcDbBlockTableRecord
  2
*D3
 70
    0
280
    1
281
    0
  0
BLOCK_RECORD
  5
67
330
1
100
AcDbSymbolTableRecord
100
AcDbBlockTableRecord
  2
*D10
 70
    0
280
    1
281
    0
  0
BLOCK_RECORD
  5
6A
330
1
100
AcDbSymbolTableRecord
100
AcDbBlockTableRecord
  2
*D8
 70
    0
280
    1
281
    0
  0
BLOCK_RECORD
  5
6D
330
1
100
AcDbSymbolTableRecord
100
AcDbBlockTableRecord
  2
*D5
 70
    0
280
    1
281
    0
  0
BLOCK_RECORD
  5
70
330
1
100
AcDbSymbolTableRecord
100
AcDbBlockTableRecord
  2
*D4
 70
    0
280
    1
281
    0
  0
BLOCK_RECORD
  5
73
330
1
100
AcDbSymbolTableRecord
100
AcDbBlockTableRecord
  2
*D7
 70
    0
280
    1
281
    0
  0
BLOCK_RECORD
  5
76
330
1
100
AcDbSymbolTableRecord
100
AcDbBlockTableRecord
  2
*D1
 70
    0
280
    1
281
    0
  0
BLOCK_RECORD
  5
79
330
1
100
AcDbSymbolTableRecord
100
AcDbBlockTableRecord
  2
*D11
 70
    0
280
    1
281
    0
  0
BLOCK_RECORD
  5
7C
330
1
100
AcDbSymbolTableRecord
100
AcDbBlockTableRecord
  2
*D9
 70
    0
280
    1
281
    0
  0
ENDTAB
  0
ENDSEC
  0
SECTION
  2
BLOCKS
  0
BLOCK
  5
20
330
1F
100
AcDbEntity
  8
0
100
AcDbBlockBegin
  2
*Model_Space
 70
    0
 10
0
 20
0
 30
0
  3
*Model_Space
  1

  0
ENDBLK
  5
21
330
1F
100
AcDbEntity
  8
0
100
AcDbBlockEnd
  0
BLOCK
  5
1C
330
1B
100
AcDbEntity
  8
0
100
AcDbBlockBegin
  2
*Paper_Space
 70
    0
 10
0
 20
0
 30
0
  3
*Paper_Space
  1

  0
ENDBLK
  5
1D
330
1F
100
AcDbEntity
  8
0
100
AcDbBlockEnd
  0
BLOCK
  5
53
330
52
100
AcDbEntity
  8
0
100
AcDbBlockBegin
  2
*D12
 70
    1
 10
0
 20
0
  3
*D12
  1

  0
LINE
  5
7F
100
AcDbEntity
  8
dimension
  6
ByBlock
 62
    0
370
   -2
100
AcDbLine
 10
52.68218531070673
 20
229.341243297639
 11
66.10461125370537
 21
209.4455532667626
  0
SOLID
  5
80
100
AcDbEntity
  8
dimension
  6
ByBlock
 62
    0
370
   -2
100
AcDbTrace
 10
58.27486278695617
 20
221.0513724514405
 30
0
 11
54.78833483919329
 21
224.7306787086929
 31
0
 12
56.16871325846962
 22
225.6619370403866
 32
0
 13
56.16871325846962
 23
225.6619370403866
 33
0
  0
SOLID
  5
81
100
AcDbEntity
  8
dimension
  6
ByBlock
 62
    0
370
   -2
100
AcDbTrace
 10
60.51193377745593
 20
217.7354241129611
 30
0
 11
63.99846172521881
 21
214.0561178557087
 31
0
 12
62.61808330594249
 22
213.124859524015
 32
0
 13
62.61808330594249
 23
213.124859524015
 33
0
  0
MTEXT
  5
82
100
AcDbEntity
  8
dimension
  6
CONTINUOUS
 62
    0
370
   -2
100
AcDbMText
 10
66.12527416644286
 20
214.443822385769
 30
0
 40
2.5
 41
8.611111111111111
 71
    5
 72
    1
  1
%%C4X4
  7
standard
210
0
220
0
230
1
 50
304.0051727266362
 73
    2
 44
1
  0
ENDBLK
  5
54
330
52
100
AcDbEntity
  8
0
100
AcDbBlockEnd
  0
BLOCK
  5
56
330
55
100
AcDbEntity
  8
0
100
AcDbBlockBegin
  2
*D6
 70
    1
 10
0
 20
0
  3
*D6
  1

  0
LINE
  5
83
100
AcDbEntity
  8
dimension
  6
ByBlock
 62
    0
370
   -2
100
AcDbLine
 10
35.6459907875346
 20
160
 11
35.6459907875346
 21
121
  0
SOLID
  5
84
100
AcDbEntity
  8
dimension
  6
ByBlock
 62
    0
370
   -2
100
AcDbTrace
 10
35.6459907875346
 20
160
 30
0
 11
36.47856010308028
 21
155
 31
0
 12
34.81342147198892
 22
155
 32
0
 13
34.81342147198892
 23
155
 33
0
  0
SOLID
  5
85
100
AcDbEntity
  8
dimension
  6
ByBlock
 62
    0
370
   -2
100
AcDbTrace
 10
35.6459907875346
 20
121
 30
0
 11
34.81342147198892
 21
126
 31
0
 12
36.47856010308028
 22
126
 32
0
 13
36.47856010308028
 23
126
 33
0
  0
MTEXT
  5
86
100
AcDbEntity
  8
dimension
  6
CONTINUOUS
 62
    0
370
   -2
100
AcDbMText
 10
32.8334907875346
 20
140.5
 30
0
 40
2.5
 41
3.333333333333333
 71
    5
 72
    1
  1
40
  7
standard
210
0
220
0
230
1
 50
90
 73
    2
 44
1
  0
LINE
  5
87
100
AcDbEntity
  8
dimension
  6
ByBlock
 62
    0
370
   -2
100
AcDbLine
 10
39.43749999999989
 20
160
 11
32.5209907875346
 21
160
  0
LINE
  5
88
100
AcDbEntity
  8
dimension
  6
ByBlock
 62
    0
370
   -2
100
AcDbLine
 10
39.43749999999989
 20
121
 11
32.5209907875346
 21
121
  0
ENDBLK
  5
57
330
55
100
AcDbEntity
  8
0
100
AcDbBlockEnd
  0
BLOCK
  5
59
330
58
100
AcDbEntity
  8
0
100
AcDbBlockBegin
  2
*D14
 70
    1
 10
0
 20
0
  3
*D14
  1

  0
LINE
  5
89
100
AcDbEntity
  8
dimension
  6
ByBlock
 62
    0
370
   -2
100
AcDbLine
 10
60.00000000000459
 20
254.7055666200978
 11
90
 21
254.7055666200978
  0
SOLID
  5
8A
100
AcDbEntity
  8
dimension
  6
ByBlock
 62
    0
370
   -2
100
AcDbTrace
 10
70.00000000000459
 20
254.7055666200978
 30
0
 11
65.00000000000459
 21
253.8729973045521
 31
0
 12
65.00000000000459
 22
255.5381359356435
 32
0
 13
65.00000000000459
 23
255.5381359356435
 33
0
  0
SOLID
  5
8B
100
AcDbEntity
  8
dimension
  6
ByBlock
 62
    0
370
   -2
100
AcDbTrace
 10
80
 20
254.7055666200978
 30
0
 11
85
 21
255.5381359356435
 31
0
 12
85
 22
253.8729973045521
 32
0
 13
85
 23
253.8729973045521
 33
0
  0
MTEXT
  5
8C
100
AcDbEntity
  8
dimension
  6
CONTINUOUS
 62
    0
370
   -2
100
AcDbMText
 10
75.0000000000023
 20
257.5180666200978
 30
0
 40
2.5
 41
2.5
 71
    5
 72
    1
  1
10
  7
standard
210
0
220
0
230
1
 50
0
 73
    2
 44
1
  0
LINE
  5
8D
100
AcDbEntity
  8
dimension
  6
ByBlock
 62
    0
370
   -2
100
AcDbLine
 10
70.00000000000459
 20
251.5625
 11
70.00000000000459
 21
257.8305666200978
  0
LINE
  5
8E
100
AcDbEntity
  8
dimension
  6
ByBlock
 62
    0
370
   -2
100
AcDbLine
 10
80
 20
251.5625
 11
80
 21
257.8305666200978
  0
ENDBLK
  5
5A
330
58
100
AcDbEntity
  8
0
100
AcDbBlockEnd
  0
BLOCK
  5
5C
330
5B
100
AcDbEntity
  8
0
100
AcDbBlockBegin
  2
*D15
 70
    1
 10
0
 20
0
  3
*D15
  1

  0
LINE
  5
8F
100
AcDbEntity
  8
dimension
  6
ByBlock
 62
    0
370
   -2
100
AcDbLine
 10
80
 20
254.7055666200978
 11
95.00678829718741
 21
254.7055666200978
  0
SOLID
  5
90
100
AcDbEntity
  8
dimension
  6
ByBlock
 62
    0
370
   -2
100
AcDbTrace
 10
80
 20
254.7055666200978
 30
0
 11
85
 21
255.5381359356435
 31
0
 12
85
 22
253.8729973045521
 32
0
 13
85
 23
253.8729973045521
 33
0
  0
SOLID
  5
91
100
AcDbEntity
  8
dimension
  6
ByBlock
 62
    0
370
   -2
100
AcDbTrace
 10
95.00678829718741
 20
254.7055666200978
 30
0
 11
90.00678829718741
 21
253.8729973045521
 31
0
 12
90.00678829718741
 22
255.5381359356435
 32
0
 13
90.00678829718741
 23
255.5381359356435
 33
0
  0
MTEXT
  5
92
100
AcDbEntity
  8
dimension
  6
CONTINUOUS
 62
    0
370
   -2
100
AcDbMText
 10
87.50339414859371
 20
257.5180666200978
 30
0
 40
2.5
 41
2.500000000000155
 71
    5
 72
    1
  1
15
  7
standard
210
0
220
0
230
1
 50
0
 73
    2
 44
1
  0
LINE
  5
93
100
AcDbEntity
  8
dimension
  6
ByBlock
 62
    0
370
   -2
100
AcDbLine
 10
80
 20
251.5625
 11
80
 21
257.8305666200978
  0
LINE
  5
94
100
AcDbEntity
  8
dimension
  6
ByBlock
 62
    0
370
   -2
100
AcDbLine
 10
95.00678829718741
 20
231.5625
 11
95.00678829718741
 21
257.8305666200978
  0
ENDBLK
  5
5D
330
5B
100
AcDbEntity
  8
0
100
AcDbBlockEnd
  0
BLOCK
  5
5F
330
5E
100
AcDbEntity
  8
0
100
AcDbBlockBegin
  2
*D2
 70
    1
 10
0
 20
0
  3
*D2
  1

  0
LINE
  5
95
100
AcDbEntity
  8
dimension
  6
ByBlock
 62
    0
370
   -2
100
AcDbLine
 10
126.1594477255775
 20
210
 11
126.1594477255775
 21
160
  0
SOLID
  5
96
100
AcDbEntity
  8
dimension
  6
ByBlock
 62
    0
370
   -2
100
AcDbTrace
 10
126.1594477255775
 20
210
 30
0
 11
126.9920170411232
 21
205
 31
0
 12
125.3268784100318
 22
205
 32
0
 13
125.3268784100318
 23
205
 33
0
  0
SOLID
  5
97
100
AcDbEntity
  8
dimension
  6
ByBlock
 62
    0
370
   -2
100
AcDbTrace
 10
126.1594477255775
 20
160
 30
0
 11
125.3268784100318
 21
165
 31
0
 12
126.9920170411232
 22
165
 32
0
 13
126.9920170411232
 23
165
 33
0
  0
MTEXT
  5
98
100
AcDbEntity
  8
dimension
  6
CONTINUOUS
 62
    0
370
   -2
100
AcDbMText
 10
123.3469477255775
 20
185
 30
0
 40
2.5
 41
3.055555555555711
 71
    5
 72
    1
  1
50
  7
standard
210
0
220
0
230
1
 50
90
 73
    2
 44
1
  0
LINE
  5
99
100
AcDbEntity
  8
dimension
  6
ByBlock
 62
    0
370
   -2
100
AcDbLine
 10
120.5625000000001
 20
210
 11
129.2844477255775
 21
210
  0
LINE
  5
9A
100
AcDbEntity
  8
dimension
  6
ByBlock
 62
    0
370
   -2
100
AcDbLine
 10
120.5625000000001
 20
160
 11
129.2844477255775
 21
160
  0
ENDBLK
  5
60
330
5E
100
AcDbEntity
  8
0
100
AcDbBlockEnd
  0
BLOCK
  5
62
330
61
100
AcDbEntity
  8
0
100
AcDbBlockBegin
  2
*D13
 70
    1
 10
0
 20
0
  3
*D13
  1

  0
LINE
  5
9B
100
AcDbEntity
  8
dimension
  6
ByBlock
 62
    0
370
   -2
100
AcDbLine
 10
95.00678829718741
 20
237.4977172605989
 11
110.0067882971869
 21
237.4977172605989
  0
SOLID
  5
9C
100
AcDbEntity
  8
dimension
  6
ByBlock
 62
    0
370
   -2
100
AcDbTrace
 10
95.00678829718741
 20
237.4977172605989
 30
0
 11
100.0067882971874
 21
238.3302865761446
 31
0
 12
100.0067882971874
 22
236.6651479450532
 32
0
 13
100.0067882971874
 23
236.6651479450532
 33
0
  0
SOLID
  5
9D
100
AcDbEntity
  8
dimension
  6
ByBlock
 62
    0
370
   -2
100
AcDbTrace
 10
110.0067882971869
 20
237.4977172605989
 30
0
 11
105.0067882971869
 21
236.6651479450532
 31
0
 12
105.0067882971869
 22
238.3302865761446
 32
0
 13
105.0067882971869
 23
238.3302865761446
 33
0
  0
MTEXT
  5
9E
100
AcDbEntity
  8
dimension
  6
CONTINUOUS
 62
    0
370
   -2
100
AcDbMText
 10
102.5067882971871
 20
240.3102172605989
 30
0
 40
2.5
 41
2.500000000000155
 71
    5
 72
    1
  1
15
  7
standard
210
0
220
0
230
1
 50
0
 73
    2
 44
1
  0
LINE
  5
9F
100
AcDbEntity
  8
dimension
  6
ByBlock
 62
    0
370
   -2
100
AcDbLine
 10
95.00678829718741
 20
231.5625
 11
95.00678829718741
 21
240.6227172605989
  0
LINE
  5
A0
100
AcDbEntity
  8
dimension
  6
ByBlock
 62
    0
370
   -2
100
AcDbLine
 10
110.0067882971869
 20
226.5624965439278
 11
110.0067882971869
 21
240.6227172605989
  0
ENDBLK
  5
63
330
61
100
AcDbEntity
  8
0
100
AcDbBlockEnd
  0
BLOCK
  5
65
330
64
100
AcDbEntity
  8
0
100
AcDbBlockBegin
  2
*D3
 70
    1
 10
0
 20
0
  3
*D3
  1

  0
LINE
  5
A1
100
AcDbEntity
  8
dimension
  6
ByBlock
 62
    0
370
   -2
100
AcDbLine
 10
126.1363998453486
 20
224.9999965439278
 11
126.1363998453486
 21
210
  0
SOLID
  5
A2
100
AcDbEntity
  8
dimension
  6
ByBlock
 62
    0
370
   -2
100
AcDbTrace
 10
126.1363998453486
 20
224.9999965439278
 30
0
 11
126.9689691608943
 21
219.9999965439278
 31
0
 12
125.3038305298029
 22
219.9999965439278
 32
0
 13
125.3038305298029
 23
219.9999965439278
 33
0
  0
SOLID
  5
A3
100
AcDbEntity
  8
dimension
  6
ByBlock
 62
    0
370
   -2
100
AcDbTrace
 10
126.1363998453486
 20
210
 30
0
 11
125.3038305298029
 21
215
 31
0
 12
126.9689691608943
 22
215
 32
0
 13
126.9689691608943
 23
215
 33
0
  0
MTEXT
  5
A4
100
AcDbEntity
  8
dimension
  6
CONTINUOUS
 62
    0
370
   -2
100
AcDbMText
 10
123.3238998453486
 20
217.4999982719639
 30
0
 40
2.5
 41
2.500000000000155
 71
    5
 72
    1
  1
15
  7
standard
210
0
220
0
230
1
 50
90
 73
    2
 44
1
  0
LINE
  5
A5
100
AcDbEntity
  8
dimension
  6
ByBlock
 62
    0
370
   -2
100
AcDbLine
 10
106.5692882971829
 20
224.9999965439278
 11
129.2613998453486
 21
224.9999965439278
  0
LINE
  5
A6
100
AcDbEntity
  8
dimension
  6
ByBlock
 62
    0
370
   -2
100
AcDbLine
 10
120.5625000000001
 20
210
 11
129.2613998453486
 21
210
  0
ENDBLK
  5
66
330
64
100
AcDbEntity
  8
0
100
AcDbBlockEnd
  0
BLOCK
  5
68
330
67
100
AcDbEntity
  8
0
100
AcDbBlockBegin
  2
*D10
 70
    1
 10
0
 20
0
  3
*D10
  1

  0
LINE
  5
A7
100
AcDbEntity
  8
dimension
  6
ByBlock
 62
    0
370
   -2
100
AcDbLine
 10
60.22528913963897
 20
224.9547024273835
 11
79.77471086037022
 21
235.0452975726165
  0
SOLID
  5
A8
100
AcDbEntity
  8
dimension
  6
ByBlock
 62
    0
370
   -2
100
AcDbTrace
 10
60.22528913963897
 20
224.9547024273835
 30
0
 11
64.28647044464539
 21
227.9878489904521
 31
0
 12
65.05020861678314
 22
226.508190021239
 32
0
 13
65.05020861678314
 23
226.508190021239
 33
0
  0
SOLID
  5
A9
100
AcDbEntity
  8
dimension
  6
ByBlock
 62
    0
370
   -2
100
AcDbTrace
 10
79.77471086037022
 20
235.0452975726165
 30
0
 11
75.71352955536381
 21
232.0121510095479
 31
0
 12
74.94979138322606
 22
233.491809978761
 32
0
 13
74.94979138322606
 23
233.491809978761
 33
0
  0
MTEXT
  5
AA
100
AcDbEntity
  8
dimension
  6
CONTINUOUS
 62
    0
370
   -2
100
AcDbMText
 10
68.71000914336967
 20
232.4992158449799
 30
0
 40
2.5
 41
8.981481481481481
 71
    5
 72
    1
  1
%%C22\S+0.2^ 0;
  7
standard
210
0
220
0
230
1
 50
27.30089373904838
 73
    2
 44
1
  0
ENDBLK
  5
69
330
67
100
AcDbEntity
  8
0
100
AcDbBlockEnd
  0
BLOCK
  5
6B
330
6A
100
AcDbEntity
  8
0
100
AcDbBlockBegin
  2
*D8
 70
    1
 10
0
 20
0
  3
*D8
  1

  0
LINE
  5
AB
100
AcDbEntity
  8
dimension
  6
ByBlock
 62
    0
370
   -2
100
AcDbLine
 10
54.54415587728431
 20
185.4558441227157
 11
105.4558441227157
 21
134.5441558772843
  0
SOLID
  5
AC
100
AcDbEntity
  8
dimension
  6
ByBlock
 62
    0
370
   -2
100
AcDbTrace
 10
54.54415587728431
 20
185.4558441227157
 30
0
 11
58.66840519204725
 21
182.5090256256131
 31
0
 12
57.49097437438686
 22
181.3315948079528
 32
0
 13
57.49097437438686
 23
181.3315948079528
 33
0
  0
SOLID
  5
AD
100
AcDbEntity
  8
dimension
  6
ByBlock
 62
    0
370
   -2
100
AcDbTrace
 10
105.4558441227157
 20
134.5441558772843
 30
0
 11
101.3315948079528
 21
137.4909743743869
 31
0
 12
102.5090256256132
 22
138.6684051920472
 32
0
 13
102.5090256256132
 23
138.6684051920472
 33
0
  0
MTEXT
  5
AE
100
AcDbEntity
  8
dimension
  6
CONTINUOUS
 62
    0
370
   -2
100
AcDbMText
 10
81.98873782208716
 20
161.9887378220872
 30
0
 40
2.5
 41
11.66666666666667
 71
    5
 72
    1
  1
      %%C72%%P0.1
  7
standard
210
0
220
0
230
1
 50
315
 73
    2
 44
1
  0
ENDBLK
  5
6C
330
6A
100
AcDbEntity
  8
0
100
AcDbBlockEnd
  0
BLOCK
  5
6E
330
6D
100
AcDbEntity
  8
0
100
AcDbBlockBegin
  2
*D5
 70
    1
 10
0
 20
0
  3
*D5
  1

  0
LINE
  5
AF
100
AcDbEntity
  8
dimension
  6
ByBlock
 62
    0
370
   -2
100
AcDbLine
 10
40.9999999999999
 20
110
 11
119.0000000000001
 21
110
  0
SOLID
  5
B0
100
AcDbEntity
  8
dimension
  6
ByBlock
 62
    0
370
   -2
100
AcDbTrace
 10
40.9999999999999
 20
110
 30
0
 11
45.9999999999999
 21
110.8325693155457
 31
0
 12
45.9999999999999
 22
109.1674306844543
 32
0
 13
45.9999999999999
 23
109.1674306844543
 33
0
  0
SOLID
  5
B1
100
AcDbEntity
  8
dimension
  6
ByBlock
 62
    0
370
   -2
100
AcDbTrace
 10
119.0000000000001
 20
110
 30
0
 11
114.0000000000001
 21
109.1674306844543
 31
0
 12
114.0000000000001
 22
110.8325693155457
 32
0
 13
114.0000000000001
 23
110.8325693155457
 33
0
  0
MTEXT
  5
B2
100
AcDbEntity
  8
dimension
  6
CONTINUOUS
 62
    0
370
   -2
100
AcDbMText
 10
80
 20
112.8125
 30
0
 40
2.5
 41
3.055555555555556
 71
    5
 72
    1
  1
80
  7
standard
210
0
220
0
230
1
 50
0
 73
    2
 44
1
  0
LINE
  5
B3
100
AcDbEntity
  8
dimension
  6
ByBlock
 62
    0
370
   -2
100
AcDbLine
 10
40.99999999999989
 20
119.4375
 11
40.9999999999999
 21
106.875
  0
LINE
  5
B4
100
AcDbEntity
  8
dimension
  6
ByBlock
 62
    0
370
   -2
100
AcDbLine
 10
119.0000000000001
 20
119.4375
 11
119.0000000000001
 21
106.875
  0
ENDBLK
  5
6F
330
6D
100
AcDbEntity
  8
0
100
AcDbBlockEnd
  0
BLOCK
  5
71
330
70
100
AcDbEntity
  8
0
100
AcDbBlockBegin
  2
*D4
 70
    1
 10
0
 20
0
  3
*D4
  1

  0
LINE
  5
B5
100
AcDbEntity
  8
refer
  6
CONTINUOUS
 62
    7
370
    0
100
AcDbLine
 10
110
 20
130
 11
120
 21
40
  0
SOLID
  5
B6
100
AcDbEntity
  8
refer
  6
CONTINUOUS
 62
    7
370
    0
100
AcDbTrace
 10
110
 20
130
 30
0
 11
111.3796347310834
 21
125.1225232267107
 31
0
 12
109.724680529665
 22
124.9386394265531
 32
0
 13
109.724680529665
 23
124.9386394265531
 33
0
  0
ENDBLK
  5
72
330
70
100
AcDbEntity
  8
0
100
AcDbBlockEnd
  0
BLOCK
  5
74
330
73
100
AcDbEntity
  8
0
100
AcDbBlockBegin
  2
*D7
 70
    1
 10
0
 20
0
  3
*D7
  1

  0
LINE
  5
B7
100
AcDbEntity
  8
dimension
  6
ByBlock
 62
    0
370
   -2
100
AcDbLine
 10
27.41763073671365
 20
121
 11
27.41763073671366
 21
250
  0
SOLID
  5
B8
100
AcDbEntity
  8
dimension
  6
ByBlock
 62
    0
370
   -2
100
AcDbTrace
 10
27.41763073671365
 20
121
 30
0
 11
26.58506142116797
 21
126
 31
0
 12
28.25020005225933
 22
126
 32
0
 13
28.25020005225933
 23
126
 33
0
  0
SOLID
  5
B9
100
AcDbEntity
  8
dimension
  6
ByBlock
 62
    0
370
   -2
100
AcDbTrace
 10
27.41763073671366
 20
250
 30
0
 11
28.25020005225934
 21
245
 31
0
 12
26.58506142116798
 22
245
 32
0
 13
26.58506142116798
 23
245
 33
0
  0
MTEXT
  5
BA
100
AcDbEntity
  8
dimension
  6
CONTINUOUS
 62
    0
370
   -2
100
AcDbMText
 10
24.60513073671365
 20
185.5
 30
0
 40
2.5
 41
4.444444444444599
 71
    5
 72
    1
  1
130
  7
standard
210
0
220
0
230
1
 50
90
 73
    2
 44
1
  0
LINE
  5
BB
100
AcDbEntity
  8
dimension
  6
ByBlock
 62
    0
370
   -2
100
AcDbLine
 10
39.43749999999989
 20
121
 11
24.29263073671365
 21
121
  0
LINE
  5
BC
100
AcDbEntity
  8
dimension
  6
ByBlock
 62
    0
370
   -2
100
AcDbLine
 10
39.43749999999989
 20
250
 11
24.29263073671366
 21
250
  0
ENDBLK
  5
75
330
73
100
AcDbEntity
  8
0
100
AcDbBlockEnd
  0
BLOCK
  5
77
330
76
100
AcDbEntity
  8
0
100
AcDbBlockBegin
  2
*D1
 70
    1
 10
0
 20
0
  3
*D1
  1

  0
LINE
  5
BD
100
AcDbEntity
  8
dimension
  6
ByBlock
 62
    0
370
   -2
100
AcDbLine
 10
35.66209312607512
 20
230
 11
35.66209312607511
 21
160
  0
SOLID
  5
BE
100
AcDbEntity
  8
dimension
  6
ByBlock
 62
    0
370
   -2
100
AcDbTrace
 10
35.66209312607512
 20
230
 30
0
 11
36.4946624416208
 21
225
 31
0
 12
34.82952381052944
 22
225
 32
0
 13
34.82952381052944
 23
225
 33
0
  0
SOLID
  5
BF
100
AcDbEntity
  8
dimension
  6
ByBlock
 62
    0
370
   -2
100
AcDbTrace
 10
35.66209312607511
 20
160
 30
0
 11
34.82952381052943
 21
165
 31
0
 12
36.4946624416208
 22
165
 32
0
 13
36.4946624416208
 23
165
 33
0
  0
MTEXT
  5
C0
100
AcDbEntity
  8
dimension
  6
CONTINUOUS
 62
    0
370
   -2
100
AcDbMText
 10
32.84959312607512
 20
195
 30
0
 40
2.5
 41
3.055555555555556
 71
    5
 72
    1
  1
70
  7
standard
210
0
220
0
230
1
 50
90
 73
    2
 44
1
  0
LINE
  5
C1
100
AcDbEntity
  8
dimension
  6
ByBlock
 62
    0
370
   -2
100
AcDbLine
 10
39.43749999999989
 20
230
 11
32.53709312607512
 21
230
  0
LINE
  5
C2
100
AcDbEntity
  8
dimension
  6
ByBlock
 62
    0
370
   -2
100
AcDbLine
 10
39.43749999999989
 20
160
 11
32.53709312607511
 21
160
  0
ENDBLK
  5
78
330
76
100
AcDbEntity
  8
0
100
AcDbBlockEnd
  0
BLOCK
  5
7A
330
79
100
AcDbEntity
  8
0
100
AcDbBlockBegin
  2
*D11
 70
    1
 10
0
 20
0
  3
*D11
  1

  0
SOLID
  5
C3
100
AcDbEntity
  8
dimension
  6
ByBlock
 62
    0
370
   -2
100
AcDbTrace
 10
82.46226847735454
 20
221.6518346687161
 30
0
 11
77.84481723184261
 21
223.7428429567218
 31
0
 12
78.77154073796652
 22
225.1262699348997
 32
0
 13
78.77154073796652
 23
225.1262699348997
 33
0
  0
LINE
  5
C4
100
AcDbEntity
  8
dimension
  6
ByBlock
 62
    0
370
   -2
100
AcDbLine
 10
70.00000000000459
 20
230
 11
82.46226847735454
 21
221.6518346687161
  0
MTEXT
  5
C5
100
AcDbEntity
  8
dimension
  6
CONTINUOUS
 62
    0
370
   -2
100
AcDbMText
 10
77.79641523829528
 20
228.1625926738612
 30
0
 40
2.5
 41
4.722222222222378
 71
    5
 72
    1
  1
R15
  7
standard
210
0
220
0
230
1
 50
326.182847843157
 73
    2
 44
1
  0
ENDBLK
  5
7B
330
79
100
AcDbEntity
  8
0
100
AcDbBlockEnd
  0
BLOCK
  5
7D
330
7C
100
AcDbEntity
  8
0
100
AcDbBlockBegin
  2
*D9
 70
    1
 10
0
 20
0
  3
*D9
  1

  0
SOLID
  5
C6
100
AcDbEntity
  8
dimension
  6
ByBlock
 62
    0
370
   -2
100
AcDbTrace
 10
97.28398618396943
 20
205.5417471309352
 30
0
 11
100.28996838433
 21
201.4604185878865
 31
0
 12
98.80524656843924
 22
200.7065699358542
 32
0
 13
98.80524656843924
 23
200.7065699358542
 33
0
  0
LINE
  5
C7
100
AcDbEntity
  8
dimension
  6
ByBlock
 62
    0
370
   -2
100
AcDbLine
 10
95.02036489155425
 20
210
 11
103.32030963041
 21
193.6530728134289
  0
MTEXT
  5
C8
100
AcDbEntity
  8
dimension
  6
CONTINUOUS
 62
    0
370
   -2
100
AcDbMText
 10
102.8099151460387
 20
200.8706969491656
 30
0
 40
2.5
 41
3.333333333333488
 71
    5
 72
    1
  1
R5
  7
standard
210
0
220
0
230
1
 50
296.9186043488418
 73
    2
 44
1
  0
ENDBLK
  5
7E
330
7C
100
AcDbEntity
  8
0
100
AcDbBlockEnd
  0
ENDSEC
  0
SECTION
  2
ENTITIES
  0
LINE
  5
C9
100
AcDbEntity
  8
0
  6
ByLayer
 62
  256
370
   -1
100
AcDbLine
 10
15
 20
15
 11
15
 21
282
  0
LINE
  5
CA
100
AcDbEntity
  8
0
  6
ByLayer
 62
  256
370
   -1
100
AcDbLine
 10
15
 20
282
 11
195
 21
282
  0
LINE
  5
CB
100
AcDbEntity
  8
0
  6
ByLayer
 62
  256
370
   -1
100
AcDbLine
 10
195
 20
282
 11
195
 21
15
  0
LINE
  5
CC
100
AcDbEntity
  8
0
  6
ByLayer
 62
  256
370
   -1
100
AcDbLine
 10
195
 20
15
 11
15
 21
15
  0
LINE
  5
CD
100
AcDbEntity
  8
center
  6
ByLayer
 62
  256
370
   -1
100
AcDbLine
 10
80
 20
160
 11
80
 21
172
  0
CIRCLE
  5
CE
100
AcDbEntity
  8
0
  6
ByLayer
 62
  256
370
   -1
100
AcDbCircle
 10
80
 20
160
 40
36
  0
LINE
  5
CF
100
AcDbEntity
  8
0
  6
ByLayer
 62
  256
370
   -1
100
AcDbLine
 10
119.0000000000001
 20
121
 11
40.99999999999989
 21
121
  0
LINE
  5
D0
100
AcDbEntity
  8
dimension
  6
CENTERTINY
 62
    1
370
   -1
100
AcDbLine
 10
80
 20
270
 11
80
 21
87.7500000000001
  0
LINE
  5
D1
100
AcDbEntity
  8
center
  6
ByLayer
 62
  256
370
   -1
100
AcDbLine
 10
30
 20
160
 11
195
 21
160
  0
MTEXT
  5
D2
100
AcDbEntity
  8
0
  6
ByLayer
 62
  256
370
   -1
100
AcDbMText
 10
110
 20
30
 30
0
 40
3
 41
72.38666666666667
 71
    1
 72
    1
  1
爪子外基座前板：铝合金（6061），1件
  7
wqy-unicode
210
0
220
0
230
1
 50
0
 73
    2
 44
1
  0
LINE
  5
D3
100
AcDbEntity
  8
center
  6
ByLayer
 62
  256
370
   -1
100
AcDbLine
 10
40
 20
210
 11
150
 21
210
  0
LINE
  5
D4
100
AcDbEntity
  8
0
  6
ByLayer
 62
  256
370
   -1
100
AcDbLine
 10
40.99999999999989
 20
250
 11
40.99999999999989
 21
121
  0
LINE
  5
D5
100
AcDbEntity
  8
0
  6
ByLayer
 62
  256
370
   -1
100
AcDbLine
 10
119.0000000000001
 20
250
 11
119.0000000000001
 21
121
  0
LINE
  5
D6
100
AcDbEntity
  8
0
  6
ByLayer
 62
  256
370
   -1
100
AcDbLine
 10
40.99999999999989
 20
250
 11
119.0000000000001
 21
250
  0
LINE
  5
D7
100
AcDbEntity
  8
center
  6
ByLayer
 62
  256
370
   -1
100
AcDbLine
 10
140
 20
230
 11
30
 21
230
  0
DIMENSION
  5
D8
100
AcDbEntity
  8
dimension
  6
ByLayer
 62
  256
370
   -1
100
AcDbDimension
  2
*D1
 10
35.66209312607511
 20
160
 30
0
 11
32.84959312607512
 21
195
 31
0
 70
   32
 71
    5
 72
    0
  3
Standard
 53
0
210
0
220
0
230
1
100
AcDbAlignedDimension
 13
40.99999999999989
 23
230
 33
0
 14
40.99999999999989
 24
160
 34
0
 50
90
100
AcDbRotatedDimension
  0
DIMENSION
  5
D9
100
AcDbEntity
  8
dimension
  6
ByLayer
 62
  256
370
   -1
100
AcDbDimension
  2
*D2
 10
126.1594477255775
 20
160
 30
0
 11
123.3469477255775
 21
185
 31
0
 70
   32
 71
    5
 72
    0
  3
Standard
 53
0
210
0
220
0
230
1
100
AcDbAlignedDimension
 13
119.0000000000001
 23
210
 33
0
 14
119.0000000000001
 24
160
 34
0
 50
90
100
AcDbRotatedDimension
  0
LINE
  5
DA
100
AcDbEntity
  8
center
  6
ByLayer
 62
  256
370
   -1
100
AcDbLine
 10
120
 20
230
 11
100
 21
230
  0
DIMENSION
  5
DB
100
AcDbEntity
  8
dimension
  6
ByLayer
 62
  256
370
   -1
100
AcDbDimension
  2
*D3
 10
126.1363998453486
 20
210
 30
0
 11
123.3238998453486
 21
217.4999982719639
 31
0
 70
   32
 71
    5
 72
    0
  3
Standard
 53
0
210
0
220
0
230
1
100
AcDbAlignedDimension
 13
105.0067882971829
 23
224.9999965439278
 33
0
 14
119.0000000000001
 24
210
 34
0
 50
90
100
AcDbRotatedDimension
  0
MTEXT
  5
DC
100
AcDbEntity
  8
0
  6
ByLayer
 62
  256
370
   -1
100
AcDbMText
 10
110
 20
40
 30
0
 40
3
 41
12.91
 71
    1
 72
    1
  1
5mm厚
  7
wqy-unicode
210
0
220
0
230
1
 50
0
 73
    2
 44
1
  0
LEADER
  5
DD
100
AcDbEntity
  8
refer
  6
ByLayer
 62
  256
370
   -1
100
AcDbLeader
  3
Standard
 71
    1
 72
    0
 73
    3
 74
    0
 75
    0
 40
1
 41
10
 76
2
 76
2
 10
110
 20
130
 30
0
 10
120
 20
40
 30
0
  0
DIMENSION
  5
DE
100
AcDbEntity
  8
dimension
  6
ByLayer
 62
  256
370
   -1
100
AcDbDimension
  2
*D5
 10
119.0000000000001
 20
110
 30
0
 11
80
 21
112.8125
 31
0
 70
   32
  1
80
 71
    5
  3
Standard
 53
0
210
0
220
0
230
1
100
AcDbAlignedDimension
 13
40.99999999999989
 23
121
 33
0
 14
119.0000000000001
 24
121
 34
0
100
AcDbRotatedDimension
  0
DIMENSION
  5
DF
100
AcDbEntity
  8
dimension
  6
ByLayer
 62
  256
370
   -1
100
AcDbDimension
  2
*D6
 10
35.6459907875346
 20
121
 30
0
 11
32.8334907875346
 21
140.5
 31
0
 70
   32
  1
40
 71
    5
 72
    0
  3
Standard
 53
0
210
0
220
0
230
1
100
AcDbAlignedDimension
 13
40.99999999999989
 23
160
 33
0
 14
40.99999999999989
 24
121
 34
0
 50
90
100
AcDbRotatedDimension
  0
DIMENSION
  5
E0
100
AcDbEntity
  8
dimension
  6
ByLayer
 62
  256
370
   -1
100
AcDbDimension
  2
*D7
 10
27.41763073671366
 20
250
 30
0
 11
24.60513073671365
 21
185.5
 31
0
 70
   32
  1
130
 71
    5
 72
    0
  3
Standard
 53
0
210
0
220
0
230
1
100
AcDbAlignedDimension
 13
40.99999999999989
 23
121
 33
0
 14
40.99999999999989
 24
250
 34
0
 50
90
100
AcDbRotatedDimension
  0
DIMENSION
  5
E1
100
AcDbEntity
  8
dimension
  6
ByLayer
 62
  256
370
   -1
100
AcDbDimension
  2
*D8
 10
54.54415587728431
 20
185.4558441227157
 30
0
 11
81.98873782208716
 21
161.9887378220872
 31
0
 70
   35
  1
      %%C72%%P0.1
 71
    5
  3
Standard
 53
0
210
0
220
0
230
1
100
AcDbDiametricDimension
 15
105.4558441227157
 25
134.5441558772843
 35
0
 40
0
  0
LINE
  5
E2
100
AcDbEntity
  8
dash
  6
ByLayer
 62
  256
370
   -1
100
AcDbLine
 10
85.00000000000401
 20
196
 11
85.00000000000401
 21
194.9999999999997
  0
CIRCLE
  5
E3
100
AcDbEntity
  8
center
  6
ByLayer
 62
  256
370
   -1
100
AcDbCircle
 10
85.00000000000401
 20
250
 40
0
  0
CIRCLE
  5
E4
100
AcDbEntity
  8
0
  6
ByLayer
 62
  256
370
   -1
100
AcDbCircle
 10
70.00000000000459
 20
230
 40
11
  0
LINE
  5
E5
100
AcDbEntity
  8
center
  6
ByLayer
 62
  256
370
   -1
100
AcDbLine
 10
70.00000000000459
 20
255
 11
70.00000000000459
 21
210
  0
CIRCLE
  5
E6
100
AcDbEntity
  8
center
  6
ByLayer
 62
  256
370
   -1
100
AcDbCircle
 10
70.00000000000459
 20
230
 40
15
  0
ARC
  5
E7
100
AcDbEntity
  8
0
  6
ByLayer
 62
  256
370
   -1
100
AcDbCircle
 10
95.02036489155425
 20
210
 40
5
100
AcDbArc
 50
135.1650138253756
 51
314.8349861746244
  0
DIMENSION
  5
E8
100
AcDbEntity
  8
dimension
  6
ByLayer
 62
  256
370
   -1
100
AcDbDimension
  2
*D9
 10
95.02036489155425
 20
210
 30
0
 11
102.8099151460387
 21
200.8706969491656
 31
0
 70
   36
  1
R5
 71
    5
 72
    0
  3
Standard
 53
0
210
0
220
0
230
1
100
AcDbRadialDimension
 15
97.28398618396943
 25
205.5417471309352
 35
0
 40
0
  0
DIMENSION
  5
E9
100
AcDbEntity
  8
dimension
  6
ByLayer
 62
  256
370
   -1
100
AcDbDimension
  2
*D10
 10
60.22528913963897
 20
224.9547024273835
 30
0
 11
68.71000914336967
 21
232.4992158449799
 31
0
 70
   35
  1
%%C22\S+0.2^ 0;
 71
    5
 72
    0
  3
Standard
 53
0
210
0
220
0
230
1
100
AcDbDiametricDimension
 15
79.77471086037022
 25
235.0452975726165
 35
0
 40
0
  0
LINE
  5
EA
100
AcDbEntity
  8
center
  6
ByLayer
 62
  256
370
   -1
100
AcDbLine
 10
55.00000000000459
 20
245
 11
82.72792206136326
 21
217.2720779386427
  0
LINE
  5
EB
100
AcDbEntity
  8
center
  6
ByLayer
 62
  256
370
   -1
100
AcDbLine
 10
57.27207793864747
 20
217.2720779386422
 11
85.00000000000401
 21
244.9999999999997
  0
CIRCLE
  5
EC
100
AcDbEntity
  8
0
  6
ByLayer
 62
  256
370
   -1
100
AcDbCircle
 10
59.39339828220649
 20
240.6066017177983
 40
2
  0
CIRCLE
  5
ED
100
AcDbEntity
  8
0
  6
ByLayer
 62
  256
370
   -1
100
AcDbCircle
 10
80.60660171780343
 20
240.606601717799
 40
2
  0
CIRCLE
  5
EE
100
AcDbEntity
  8
0
  6
ByLayer
 62
  256
370
   -1
100
AcDbCircle
 10
59.39339828220605
 20
219.3933982822008
 40
2
  0
CIRCLE
  5
EF
100
AcDbEntity
  8
0
  6
ByLayer
 62
  256
370
   -1
100
AcDbCircle
 10
80.60660171780343
 20
219.3933982822024
 40
2
  0
DIMENSION
  5
F0
100
AcDbEntity
  8
dimension
  6
ByLayer
 62
  256
370
   -1
100
AcDbDimension
  2
*D11
 10
70.00000000000459
 20
230
 30
0
 11
77.79641523829528
 21
228.1625926738612
 31
0
 70
   36
  1
R15
 71
    5
  3
Standard
 53
0
210
0
220
0
230
1
100
AcDbRadialDimension
 15
82.46226847735454
 25
221.6518346687161
 35
0
 40
0
  0
DIMENSION
  5
F1
100
AcDbEntity
  8
dimension
  6
ByLayer
 62
  256
370
   -1
100
AcDbDimension
  2
*D12
 10
58.27486278695617
 20
221.0513724514405
 30
0
 11
61.72492445769939
 21
220.966338822396
 31
0
 70
   35
  1
%%C4X4
 71
    5
  3
Standard
 53
0
210
0
220
0
230
1
100
AcDbDiametricDimension
 15
60.51193377745593
 25
217.7354241129611
 35
0
 40
0
  0
LINE
  5
F2
100
AcDbEntity
  8
center
  6
ByLayer
 62
  256
370
   -1
100
AcDbLine
 10
95.00000000000401
 20
240
 11
95.02803795230797
 21
198.6966340064104
  0
LINE
  5
F3
100
AcDbEntity
  8
0
  6
ByLayer
 62
  256
370
   -1
100
AcDbLine
 10
98.54570168880264
 20
206.4542983112014
 11
113.7819517146264
 21
221.7215607627011
  0
LINE
  5
F4
100
AcDbEntity
  8
0
  6
ByLayer
 62
  256
370
   -1
100
AcDbLine
 10
106.2134564359859
 20
228.2942102053494
 11
91.47466320275566
 21
213.5253367972483
  0
ARC
  5
F5
100
AcDbEntity
  8
0
  6
ByLayer
 62
  256
370
   -1
100
AcDbCircle
 10
110.0067882971869
 20
224.9999965439278
 40
5
100
AcDbArc
 50
319.028225663276
 51
139.0282256632761
  0
DIMENSION
  5
F6
100
AcDbEntity
  8
dimension
  6
ByLayer
 62
  256
370
   -1
100
AcDbDimension
  2
*D13
 10
110.0067882971869
 20
237.4977172605989
 30
0
 11
102.5067882971871
 21
240.3102172605989
 31
0
 70
   32
 71
    5
 72
    0
  3
Standard
 53
0
210
0
220
0
230
1
100
AcDbAlignedDimension
 13
95.00678829718741
 23
230
 33
0
 14
110.0067882971869
 24
224.9999965439278
 34
0
100
AcDbRotatedDimension
  0
LINE
  5
F7
100
AcDbEntity
  8
center
  6
ByLayer
 62
  256
370
   -1
100
AcDbLine
 10
102.926000000004
 20
225
 11
114.933000000004
 21
225
  0
LINE
  5
F8
100
AcDbEntity
  8
center
  6
ByLayer
 62
  256
370
   -1
100
AcDbLine
 10
110.007000000004
 20
230
 11
110.007000000004
 21
219.866
  0
DIMENSION
  5
F9
100
AcDbEntity
  8
dimension
  6
ByLayer
 62
  256
370
   -1
100
AcDbDimension
  2
*D14
 10
80
 20
254.7055666200978
 30
0
 11
75.0000000000023
 21
257.5180666200978
 31
0
 70
   32
 71
    5
  3
Standard
 53
0
210
0
220
0
230
1
100
AcDbAlignedDimension
 13
70.00000000000459
 23
250
 33
0
 14
80
 24
250
 34
0
100
AcDbRotatedDimension
  0
DIMENSION
  5
FA
100
AcDbEntity
  8
dimension
  6
ByLayer
 62
  256
370
   -1
100
AcDbDimension
  2
*D15
 10
95.00678829718741
 20
254.7055666200978
 30
0
 11
87.50339414859371
 21
257.5180666200978
 31
0
 70
   32
 71
    5
  3
Standard
 53
0
210
0
220
0
230
1
100
AcDbAlignedDimension
 13
80
 23
250
 33
0
 14
95.00678829718741
 24
230
 34
0
100
AcDbRotatedDimension
  0
ENDSEC
  0
SECTION
  2
OBJECTS
  0
DICTIONARY
  5
C
330
0
100
AcDbDictionary
281
    1
  3
ACAD_GROUP
350
D
  0
DICTIONARY
  5
D
330
C
100
AcDbDictionary
281
    1
  0
ENDSEC
  0
EOF
