999
dxfrw 0.6.3
  0
SECTION
  2
HEADER
  9
$ACADVER
  1
AC1021
  9
$DWGCODEPAGE
  3
ANSI_1252
  9
$INSBASE
 10
0
 20
0
 30
0
  9
$EXTMIN
 10
15
 20
15
 30
0
  9
$EXTMAX
 10
195
 20
282
 30
0
  9
$LIMMIN
 10
0
 20
0
  9
$LIMMAX
 10
420
 20
297
  9
$ORTHOMODE
 70
    0
  9
$REGENMODE
 70
    1
  9
$FILLMODE
 70
    1
  9
$QTEXTMODE
 70
    0
  9
$MIRRTEXT
 70
    0
  9
$LTSCALE
 40
1
  9
$ATTMODE
 70
    0
  9
$TEXTSIZE
 40
2.5
  9
$TRACEWID
 40
15.68
  9
$TEXTSTYLE
  7
STANDARD
  9
$CLAYER
  8
0
  9
$CELTYPE
  6
BYLAYER
  9
$CECOLOR
 62
  256
  9
$CELTSCALE
 40
1
  9
$DISPSILH
 70
    0
  9
$DIMSCALE
 40
2.5
  9
$DIMASZ
 40
2
  9
$DIMEXO
 40
0.625
  9
$DIMDLI
 40
3.75
  9
$DIMRND
 40
0
  9
$DIMDLE
 40
0
  9
$DIMEXE
 40
1.25
  9
$DIMTP
 40
0
  9
$DIMTM
 40
0
  9
$DIMTXT
 40
1
  9
$DIMCEN
 40
2.5
  9
$DIMTSZ
 40
0
  9
$DIMTOL
 70
    0
  9
$DIMLIM
 70
    0
  9
$DIMTIH
 70
    0
  9
$DIMTOH
 70
    0
  9
$DIMSE1
 70
    0
  9
$DIMSE2
 70
    0
  9
$DIMTAD
 70
    1
  9
$DIMZIN
 70
    1
  9
$DIMBLK
  1

  9
$DIMASO
 70
    1
  9
$DIMSHO
 70
    1
  9
$DIMPOST
  1

  9
$DIMAPOST
  1

  9
$DIMALT
 70
    0
  9
$DIMALTD
 70
    3
  9
$DIMALTF
 40
0.03937
  9
$DIMLFAC
 40
1
  9
$DIMTOFL
 70
    1
  9
$DIMTVP
 40
0
  9
$DIMTIX
 70
    0
  9
$DIMSOXD
 70
    0
  9
$DIMSAH
 70
    0
  9
$DIMBLK1
  1

  9
$DIMBLK2
  1

  9
$DIMSTYLE
  2
STANDARD
  9
$DIMCLRD
 70
    0
  9
$DIMCLRE
 70
    0
  9
$DIMCLRT
 70
    0
  9
$DIMTFAC
 40
1
  9
$DIMGAP
 40
0.5
  9
$DIMJUST
 70
    0
  9
$DIMSD1
 70
    0
  9
$DIMSD2
 70
    0
  9
$DIMTOLJ
 70
    0
  9
$DIMTZIN
 70
    8
  9
$DIMALTZ
 70
    0
  9
$DIMALTTZ
 70
    0
  9
$DIMUPT
 70
    0
  9
$DIMDEC
 70
    1
  9
$DIMTDEC
 70
    2
  9
$DIMALTU
 70
    2
  9
$DIMALTTD
 70
    3
  9
$DIMTXSTY
  7
standard
  9
$DIMAUNIT
 70
    0
  9
$DIMADEC
 70
    1
  9
$DIMALTRND
 40
0
  9
$DIMAZIN
 70
    0
  9
$DIMDSEP
 70
    0
  9
$DIMATFIT
 70
    3
  9
$DIMFRAC
 70
    0
  9
$DIMLDRBLK
  1
STANDARD
  9
$DIMLUNIT
 70
    2
  9
$DIMLWD
 70
   -2
  9
$DIMLWE
 70
   -2
  9
$DIMTMOVE
 70
    0
  9
$DIMFXL
 40
1
  9
$DIMFXLON
 70
    0
  9
$DIMJOGANG
 40
0.7854
  9
$DIMTFILL
 70
    0
  9
$DIMTFILLCLR
 70
    0
  9
$DIMARCSYM
 70
    0
  9
$DIMLTYPE
  6

  9
$DIMLTEX1
  6

  9
$DIMLTEX2
  6

  9
$LUNITS
 70
    2
  9
$LUPREC
 70
    1
  9
$SKETCHINC
 40
1
  9
$FILLETRAD
 40
0
  9
$AUNITS
 70
    0
  9
$AUPREC
 70
    1
  9
$MENU
  1
.
  9
$ELEVATION
 40
0
  9
$PELEVATION
 40
0
  9
$THICKNESS
 40
0
  9
$LIMCHECK
 70
    0
  9
$CHAMFERA
 40
0
  9
$CHAMFERB
 40
0
  9
$CHAMFERC
 40
0
  9
$CHAMFERD
 40
0
  9
$SKPOLY
 70
    0
  9
$USRTIMER
 70
    1
  9
$ANGBASE
 50
0
  9
$ANGDIR
 70
    0
  9
$PDMODE
 70
   34
  9
$PDSIZE
 40
0
  9
$PLINEWID
 40
0
  9
$SPLFRAME
 70
    0
  9
$SPLINETYPE
 70
    2
  9
$SPLINESEGS
 70
    8
  9
$HANDSEED
  5
20000
  9
$SURFTAB1
 70
    6
  9
$SURFTAB2
 70
    6
  9
$SURFTYPE
 70
    6
  9
$SURFU
 70
    6
  9
$SURFV
 70
    6
  9
$UCSBASE
  2

  9
$UCSNAME
  2

  9
$UCSORG
 10
0
 20
0
 30
0
  9
$UCSXDIR
 10
1
 20
0
 30
0
  9
$UCSYDIR
 10
0
 20
1
 30
0
  9
$UCSORTHOREF
  2

  9
$UCSORTHOVIEW
 70
    0
  9
$UCSORGTOP
 10
0
 20
0
 30
0
  9
$UCSORGBOTTOM
 10
0
 20
0
 30
0
  9
$UCSORGLEFT
 10
0
 20
0
 30
0
  9
$UCSORGRIGHT
 10
0
 20
0
 30
0
  9
$UCSORGFRONT
 10
0
 20
0
 30
0
  9
$UCSORGBACK
 10
0
 20
0
 30
0
  9
$PUCSBASE
  2

  9
$PUCSNAME
  2

  9
$PUCSORG
 10
0
 20
0
 30
0
  9
$PUCSXDIR
 10
1
 20
0
 30
0
  9
$PUCSYDIR
 10
0
 20
1
 30
0
  9
$PUCSORTHOREF
  2

  9
$PUCSORTHOVIEW
 70
    0
  9
$PUCSORGTOP
 10
0
 20
0
 30
0
  9
$PUCSORGBOTTOM
 10
0
 20
0
 30
0
  9
$PUCSORGLEFT
 10
0
 20
0
 30
0
  9
$PUCSORGRIGHT
 10
0
 20
0
 30
0
  9
$PUCSORGFRONT
 10
0
 20
0
 30
0
  9
$PUCSORGBACK
 10
0
 20
0
 30
0
  9
$USERI1
 70
    0
  9
$USERI2
 70
    0
  9
$USERI3
 70
    0
  9
$USERI4
 70
    0
  9
$USERI5
 70
    0
  9
$USERR1
 40
0
  9
$USERR2
 40
0
  9
$USERR3
 40
0
  9
$USERR4
 40
0
  9
$USERR5
 40
0
  9
$WORLDVIEW
 70
    1
  9
$SHADEDGE
 70
    3
  9
$SHADEDIF
 70
   70
  9
$TILEMODE
 70
    1
  9
$MAXACTVP
 70
   64
  9
$PINSBASE
 10
-18.25
 20
28.125
 30
0
  9
$PLIMCHECK
 70
    0
  9
$PEXTMIN
 10
0
 20
0
 30
0
  9
$PEXTMAX
 10
0
 20
0
 30
0
  9
$GRIDMODE
 70
    1
  9
$SNAPSTYLE
 70
    0
  9
$GRIDUNIT
 10
10
 20
10
  9
$PLIMMIN
 10
0
 20
0
  9
$PLIMMAX
 10
148
 20
210
  9
$UNITMODE
 70
    0
  9
$VISRETAIN
 70
    1
  9
$PLINEGEN
 70
    0
  9
$PSLTSCALE
 70
    1
  9
$TREEDEPTH
 70
 3020
  9
$CMLSTYLE
  2
Standard
  9
$CMLJUST
 70
    0
  9
$CMLSCALE
 40
20
  9
$PROXYGRAPHICS
 70
    1
  9
$MEASUREMENT
 70
    1
  9
$CELWEIGHT
370
   -1
  9
$ENDCAPS
280
    0
  9
$JOINSTYLE
280
    0
  9
$LWDISPLAY
290
    0
  9
$INSUNITS
 70
    4
  9
$HYPERLINKBASE
  1

  9
$STYLESHEET
  1

  9
$XEDIT
290
    1
  9
$CEPSNTYPE
380
    0
  9
$PSTYLEMODE
290
    1
  9
$EXTNAMES
290
    1
  9
$PSVPSCALE
 40
0.3075002383126847
  9
$OLESTARTUP
290
    0
  9
$SORTENTS
280
  127
  9
$INDEXCTL
280
    0
  9
$HIDETEXT
280
    1
  9
$XCLIPFRAME
290
    0
  9
$HALOGAP
280
    0
  9
$OBSCOLOR
 70
  257
  9
$OBSLTYPE
280
    0
  9
$INTERSECTIONDISPLAY
280
    0
  9
$INTERSECTIONCOLOR
 70
  257
  9
$DIMASSOC
280
    1
  9
$PROJECTNAME
  1

  9
$CAMERADISPLAY
290
    0
  9
$LENSLENGTH
 40
50
  9
$CAMERAHEIGHT
 40
0
  9
$STEPSPERSEC
 40
2
  9
$STEPSIZE
 40
50
  9
$3DDWFPREC
 40
2
  9
$PSOLWIDTH
 40
5
  9
$PSOLHEIGHT
 40
80
  9
$LOFTANG1
 40
1.570796326794897
  9
$LOFTANG2
 40
1.570796326794897
  9
$LOFTMAG1
 40
0
  9
$LOFTMAG2
 40
0
  9
$LOFTPARAM
 70
    7
  9
$LOFTNORMALS
280
    1
  9
$LATITUDE
 40
1
  9
$LONGITUDE
 40
1
  9
$NORTHDIRECTION
 40
0
  9
$TIMEZONE
 70
-8000
  9
$LIGHTGLYPHDISPLAY
280
    1
  9
$TILEMODELIGHTSYNCH
280
    1
  9
$SOLIDHIST
280
    1
  9
$SHOWHIST
280
    1
  9
$DWFFRAME
280
    2
  9
$DGNFRAME
280
    0
  9
$REALWORLDSCALE
290
    1
  9
$INTERFERECOLOR
 62
    1
  9
$CSHADOW
280
    0
  9
$SHADOWPLANELOCATION
 40
0
  0
ENDSEC
  0
SECTION
  2
CLASSES
  0
ENDSEC
  0
SECTION
  2
TABLES
  0
TABLE
  2
VPORT
  5
8
330
0
100
AcDbSymbolTable
 70
    1
  0
VPORT
  5
31
330
2
100
AcDbSymbolTableRecord
100
AcDbViewportTableRecord
  2
*ACTIVE
 70
    0
 10
0
 20
0
 11
1
 21
1
 12
81.17253694199464
 22
98.82978676192774
 13
0
 23
0
 14
10
 24
10
 15
10
 25
10
 16
0
 26
0
 36
1
 17
0
 27
0
 37
0
 40
101.1163370983219
 41
1.253768844221105
 42
50
 43
0
 44
0
 50
0
 51
0
 71
    0
 72
  100
 73
    1
 74
    3
 75
    0
 76
    1
 77
    0
 78
    0
281
    0
 65
    1
110
0
120
0
130
0
111
1
121
0
131
0
112
0
122
1
132
0
 79
    0
146
0
348
10020
 60
    3
 61
    5
292
1
282
    1
141
0
142
0
 63
  250
421
3358443
  0
ENDTAB
  0
TABLE
  2
LTYPE
  5
5
330
0
100
AcDbSymbolTable
 70
    4
  0
LTYPE
  5
14
330
5
100
AcDbSymbolTableRecord
100
AcDbLinetypeTableRecord
  2
ByBlock
 70
    0
  3

 72
   65
 73
    0
 40
0
  0
LTYPE
  5
15
330
5
100
AcDbSymbolTableRecord
100
AcDbLinetypeTableRecord
  2
ByLayer
 70
    0
  3

 72
   65
 73
    0
 40
0
  0
LTYPE
  5
16
330
5
100
AcDbSymbolTableRecord
100
AcDbLinetypeTableRecord
  2
Continuous
 70
    0
  3
Solid line
 72
   65
 73
    0
 40
0
  0
LTYPE
  5
32
330
5
100
AcDbSymbolTableRecord
100
AcDbLinetypeTableRecord
  2
DOT
 70
    0
  3
Dot . . . . . . . . . . . . . . . . . . . . . .
 72
   65
 73
    2
 40
6.35
 49
0
 74
    0
 49
-6.35
 74
    0
  0
LTYPE
  5
33
330
5
100
AcDbSymbolTableRecord
100
AcDbLinetypeTableRecord
  2
DOTTINY
 70
    0
  3
Dot (.15x) .....................................
 72
   65
 73
    2
 40
0.9525
 49
0
 74
    0
 49
-0.9525
 74
    0
  0
LTYPE
  5
34
330
5
100
AcDbSymbolTableRecord
100
AcDbLinetypeTableRecord
  2
DOT2
 70
    0
  3
Dot (.5x) .....................................
 72
   65
 73
    2
 40
3.175
 49
0
 74
    0
 49
-3.175
 74
    0
  0
LTYPE
  5
35
330
5
100
AcDbSymbolTableRecord
100
AcDbLinetypeTableRecord
  2
DOTX2
 70
    0
  3
Dot (2x) .  .  .  .  .  .  .  .  .  .  .  .  .
 72
   65
 73
    2
 40
12.7
 49
0
 74
    0
 49
-12.7
 74
    0
  0
LTYPE
  5
36
330
5
100
AcDbSymbolTableRecord
100
AcDbLinetypeTableRecord
  2
DASHED
 70
    0
  3
Dashed _ _ _ _ _ _ _ _ _ _ _ _ _ _ _ _ _
 72
   65
 73
    2
 40
19.05
 49
12.7
 74
    0
 49
-6.35
 74
    0
  0
LTYPE
  5
37
330
5
100
AcDbSymbolTableRecord
100
AcDbLinetypeTableRecord
  2
DASHEDTINY
 70
    0
  3
Dashed (.15x) _ _ _ _ _ _ _ _ _ _ _ _ _ _ _ _ _
 72
   65
 73
    2
 40
2.8575
 49
1.905
 74
    0
 49
-0.9525
 74
    0
  0
LTYPE
  5
38
330
5
100
AcDbSymbolTableRecord
100
AcDbLinetypeTableRecord
  2
DASHED2
 70
    0
  3
Dashed (.5x) _ _ _ _ _ _ _ _ _ _ _ _ _ _ _ _ _
 72
   65
 73
    2
 40
9.524999999999999
 49
6.35
 74
    0
 49
-3.175
 74
    0
  0
LTYPE
  5
39
330
5
100
AcDbSymbolTableRecord
100
AcDbLinetypeTableRecord
  2
DASHEDX2
 70
    0
  3
Dashed (2x) ____  ____  ____  ____  ____  ___
 72
   65
 73
    2
 40
38.09999999999999
 49
25.4
 74
    0
 49
-12.7
 74
    0
  0
LTYPE
  5
3A
330
5
100
AcDbSymbolTableRecord
100
AcDbLinetypeTableRecord
  2
DASHDOT
 70
    0
  3
Dash dot __ . __ . __ . __ . __ . __ . __ . __
 72
   65
 73
    4
 40
25.4
 49
12.7
 74
    0
 49
-6.35
 74
    0
 49
0
 74
    0
 49
-6.35
 74
    0
  0
LTYPE
  5
3B
330
5
100
AcDbSymbolTableRecord
100
AcDbLinetypeTableRecord
  2
DASHDOTTINY
 70
    0
  3
Dash dot (.15x) _._._._._._._._._._._._._._._.
 72
   65
 73
    4
 40
3.81
 49
1.905
 74
    0
 49
-0.9525
 74
    0
 49
0
 74
    0
 49
-0.9525
 74
    0
  0
LTYPE
  5
3C
330
5
100
AcDbSymbolTableRecord
100
AcDbLinetypeTableRecord
  2
DASHDOT2
 70
    0
  3
Dash dot (.5x) _._._._._._._._._._._._._._._.
 72
   65
 73
    4
 40
12.7
 49
6.35
 74
    0
 49
-3.175
 74
    0
 49
0
 74
    0
 49
-3.175
 74
    0
  0
LTYPE
  5
3D
330
5
100
AcDbSymbolTableRecord
100
AcDbLinetypeTableRecord
  2
DASHDOTX2
 70
    0
  3
Dash dot (2x) ____  .  ____  .  ____  .  ___
 72
   65
 73
    4
 40
50.8
 49
25.4
 74
    0
 49
-12.7
 74
    0
 49
0
 74
    0
 49
-12.7
 74
    0
  0
LTYPE
  5
3E
330
5
100
AcDbSymbolTableRecord
100
AcDbLinetypeTableRecord
  2
DIVIDE
 70
    0
  3
Divide ____ . . ____ . . ____ . . ____ . . ____
 72
   65
 73
    6
 40
31.75
 49
12.7
 74
    0
 49
-6.35
 74
    0
 49
0
 74
    0
 49
-6.35
 74
    0
 49
0
 74
    0
 49
-6.35
 74
    0
  0
LTYPE
  5
3F
330
5
100
AcDbSymbolTableRecord
100
AcDbLinetypeTableRecord
  2
DIVIDETINY
 70
    0
  3
Divide (.15x) __..__..__..__..__..__..__..__.._
 72
   65
 73
    6
 40
4.7625
 49
1.905
 74
    0
 49
-0.9525
 74
    0
 49
0
 74
    0
 49
-0.9525
 74
    0
 49
0
 74
    0
 49
-0.9525
 74
    0
  0
LTYPE
  5
40
330
5
100
AcDbSymbolTableRecord
100
AcDbLinetypeTableRecord
  2
DIVIDE2
 70
    0
  3
Divide (.5x) __..__..__..__..__..__..__..__.._
 72
   65
 73
    6
 40
15.875
 49
6.35
 74
    0
 49
-3.175
 74
    0
 49
0
 74
    0
 49
-3.175
 74
    0
 49
0
 74
    0
 49
-3.175
 74
    0
  0
LTYPE
  5
41
330
5
100
AcDbSymbolTableRecord
100
AcDbLinetypeTableRecord
  2
DIVIDEX2
 70
    0
  3
Divide (2x) ________  .  .  ________  .  .  _
 72
   65
 73
    6
 40
63.5
 49
25.4
 74
    0
 49
-12.7
 74
    0
 49
0
 74
    0
 49
-12.7
 74
    0
 49
0
 74
    0
 49
-12.7
 74
    0
  0
LTYPE
  5
42
330
5
100
AcDbSymbolTableRecord
100
AcDbLinetypeTableRecord
  2
BORDER
 70
    0
  3
Border __ __ . __ __ . __ __ . __ __ . __ __ .
 72
   65
 73
    6
 40
44.45
 49
12.7
 74
    0
 49
-6.35
 74
    0
 49
12.7
 74
    0
 49
-6.35
 74
    0
 49
0
 74
    0
 49
-6.35
 74
    0
  0
LTYPE
  5
43
330
5
100
AcDbSymbolTableRecord
100
AcDbLinetypeTableRecord
  2
BORDERTINY
 70
    0
  3
Border (.15x) __.__.__.__.__.__.__.__.__.__.__.
 72
   65
 73
    6
 40
6.6675
 49
1.905
 74
    0
 49
-0.9525
 74
    0
 49
1.905
 74
    0
 49
-0.9525
 74
    0
 49
0
 74
    0
 49
-0.9525
 74
    0
  0
LTYPE
  5
44
330
5
100
AcDbSymbolTableRecord
100
AcDbLinetypeTableRecord
  2
BORDER2
 70
    0
  3
Border (.5x) __.__.__.__.__.__.__.__.__.__.__.
 72
   65
 73
    6
 40
22.225
 49
6.35
 74
    0
 49
-3.175
 74
    0
 49
6.35
 74
    0
 49
-3.175
 74
    0
 49
0
 74
    0
 49
-3.175
 74
    0
  0
LTYPE
  5
45
330
5
100
AcDbSymbolTableRecord
100
AcDbLinetypeTableRecord
  2
BORDERX2
 70
    0
  3
Border (2x) ____  ____  .  ____  ____  .  ___
 72
   65
 73
    6
 40
88.89999999999999
 49
25.4
 74
    0
 49
-12.7
 74
    0
 49
25.4
 74
    0
 49
-12.7
 74
    0
 49
0
 74
    0
 49
-12.7
 74
    0
  0
LTYPE
  5
46
330
5
100
AcDbSymbolTableRecord
100
AcDbLinetypeTableRecord
  2
CENTER
 70
    0
  3
Center ____ _ ____ _ ____ _ ____ _ ____ _ ____
 72
   65
 73
    4
 40
50.8
 49
31.75
 74
    0
 49
-6.35
 74
    0
 49
6.35
 74
    0
 49
-6.35
 74
    0
  0
LTYPE
  5
47
330
5
100
AcDbSymbolTableRecord
100
AcDbLinetypeTableRecord
  2
CENTERTINY
 70
    0
  3
Center (.15x) ___ _ ___ _ ___ _ ___ _ ___ _ ___
 72
   65
 73
    4
 40
7.62
 49
4.7625
 74
    0
 49
-0.9525
 74
    0
 49
0.9525
 74
    0
 49
-0.9525
 74
    0
  0
LTYPE
  5
48
330
5
100
AcDbSymbolTableRecord
100
AcDbLinetypeTableRecord
  2
CENTER2
 70
    0
  3
Center (.5x) ___ _ ___ _ ___ _ ___ _ ___ _ ___
 72
   65
 73
    4
 40
28.575
 49
19.05
 74
    0
 49
-3.175
 74
    0
 49
3.175
 74
    0
 49
-3.175
 74
    0
  0
LTYPE
  5
49
330
5
100
AcDbSymbolTableRecord
100
AcDbLinetypeTableRecord
  2
CENTERX2
 70
    0
  3
Center (2x) ________  __  ________  __  _____
 72
   65
 73
    4
 40
101.6
 49
63.5
 74
    0
 49
-12.7
 74
    0
 49
12.7
 74
    0
 49
-12.7
 74
    0
  0
ENDTAB
  0
TABLE
  2
LAYER
  5
2
330
0
100
AcDbSymbolTable
 70
    1
  0
LAYER
  5
10
330
2
100
AcDbSymbolTableRecord
100
AcDbLayerTableRecord
  2
0
 70
    0
 62
    7
  6
CONTINUOUS
370
    0
390
F
  0
LAYER
  5
4A
330
2
100
AcDbSymbolTableRecord
100
AcDbLayerTableRecord
  2
中心线
 70
    0
 62
    1
  6
CENTERTINY
370
   13
390
F
  0
LAYER
  5
4B
330
2
100
AcDbSymbolTableRecord
100
AcDbLayerTableRecord
  2
剖面线
 70
    0
 62
    7
  6
CONTINUOUS
370
   30
390
F
  0
LAYER
  5
4C
330
2
100
AcDbSymbolTableRecord
100
AcDbLayerTableRecord
  2
标注
 70
    0
 62
   96
420
32768
  6
CONTINUOUS
370
    0
390
F
  0
LAYER
  5
4D
330
2
100
AcDbSymbolTableRecord
100
AcDbLayerTableRecord
  2
虚线
 70
    0
 62
    7
  6
DASHEDTINY
370
    0
390
F
  0
ENDTAB
  0
TABLE
  2
STYLE
  5
3
330
0
100
AcDbSymbolTable
 70
    3
  0
STYLE
  5
4E
330
2
100
AcDbSymbolTableRecord
100
AcDbTextStyleTableRecord
  2
wqy-unicode
 70
    0
 40
0
 41
1
 50
0
 71
    0
 42
1
  3
wqy-unicode
  4

  0
STYLE
  5
4F
330
2
100
AcDbSymbolTableRecord
100
AcDbTextStyleTableRecord
  2
Standard
 70
    0
 40
0
 41
1
 50
0
 71
    0
 42
1
  3
txt
  4

  0
ENDTAB
  0
TABLE
  2
VIEW
  5
6
330
0
100
AcDbSymbolTable
 70
    0
  0
ENDTAB
  0
TABLE
  2
UCS
  5
7
330
0
100
AcDbSymbolTable
 70
    0
  0
ENDTAB
  0
TABLE
  2
APPID
  5
9
330
0
100
AcDbSymbolTable
 70
    1
  0
APPID
  5
12
330
9
100
AcDbSymbolTableRecord
100
AcDbRegAppTableRecord
  2
ACAD
 70
    0
  0
APPID
  5
50
330
9
100
AcDbSymbolTableRecord
100
AcDbRegAppTableRecord
  2
LibreCad
 70
    0
  0
ENDTAB
  0
TABLE
  2
DIMSTYLE
  5
A
330
0
100
AcDbSymbolTable
 70
    1
100
AcDbDimStyleTable
 71
    1
  0
DIMSTYLE
105
51
330
A
100
AcDbSymbolTableRecord
100
AcDbDimStyleTableRecord
  2
Standard
 70
    0
 40
2.5
 41
2
 42
0.625
 43
0.38
 44
1.25
 45
0
 46
0
 47
0
 48
0
 49
1
140
1
141
0.09
142
0
143
25.4
144
1
145
0
146
1
147
0.5
148
0
 71
    0
 72
    0
 73
    0
 74
    1
 75
    0
 76
    0
 77
    0
 78
    1
 79
    0
170
    0
171
    2
172
    0
173
    0
174
    0
175
    0
176
    0
177
    0
178
    0
179
    1
271
    1
272
    4
273
    2
274
    2
275
    0
276
    0
277
    2
278
    0
279
    0
280
    0
281
    0
282
    0
283
    1
284
    0
285
    0
286
    0
288
    0
289
    3
340
standard
341

371
   -2
372
   -2
  0
ENDTAB
  0
TABLE
  2
BLOCK_RECORD
  5
1
330
0
100
AcDbSymbolTable
 70
    2
  0
BLOCK_RECORD
  5
1F
330
1
100
AcDbSymbolTableRecord
100
AcDbBlockTableRecord
  2
*Model_Space
 70
    0
280
    1
281
    0
  0
BLOCK_RECORD
  5
1E
330
1
100
AcDbSymbolTableRecord
100
AcDbBlockTableRecord
  2
*Paper_Space
 70
    0
280
    1
281
    0
  0
BLOCK_RECORD
  5
52
330
1
100
AcDbSymbolTableRecord
100
AcDbBlockTableRecord
  2
*D8
 70
    0
280
    1
281
    0
  0
BLOCK_RECORD
  5
55
330
1
100
AcDbSymbolTableRecord
100
AcDbBlockTableRecord
  2
*D1
 70
    0
280
    1
281
    0
  0
BLOCK_RECORD
  5
58
330
1
100
AcDbSymbolTableRecord
100
AcDbBlockTableRecord
  2
*D2
 70
    0
280
    1
281
    0
  0
BLOCK_RECORD
  5
5B
330
1
100
AcDbSymbolTableRecord
100
AcDbBlockTableRecord
  2
*D3
 70
    0
280
    1
281
    0
  0
BLOCK_RECORD
  5
5E
330
1
100
AcDbSymbolTableRecord
100
AcDbBlockTableRecord
  2
*D5
 70
    0
280
    1
281
    0
  0
BLOCK_RECORD
  5
61
330
1
100
AcDbSymbolTableRecord
100
AcDbBlockTableRecord
  2
*D6
 70
    0
280
    1
281
    0
  0
BLOCK_RECORD
  5
64
330
1
100
AcDbSymbolTableRecord
100
AcDbBlockTableRecord
  2
*D7
 70
    0
280
    1
281
    0
  0
BLOCK_RECORD
  5
67
330
1
100
AcDbSymbolTableRecord
100
AcDbBlockTableRecord
  2
*D4
 70
    0
280
    1
281
    0
  0
BLOCK_RECORD
  5
6A
330
1
100
AcDbSymbolTableRecord
100
AcDbBlockTableRecord
  2
*D9
 70
    0
280
    1
281
    0
  0
ENDTAB
  0
ENDSEC
  0
SECTION
  2
BLOCKS
  0
BLOCK
  5
20
330
1F
100
AcDbEntity
  8
0
100
AcDbBlockBegin
  2
*Model_Space
 70
    0
 10
0
 20
0
 30
0
  3
*Model_Space
  1

  0
ENDBLK
  5
21
330
1F
100
AcDbEntity
  8
0
100
AcDbBlockEnd
  0
BLOCK
  5
1C
330
1B
100
AcDbEntity
  8
0
100
AcDbBlockBegin
  2
*Paper_Space
 70
    0
 10
0
 20
0
 30
0
  3
*Paper_Space
  1

  0
ENDBLK
  5
1D
330
1F
100
AcDbEntity
  8
0
100
AcDbBlockEnd
  0
BLOCK
  5
53
330
52
100
AcDbEntity
  8
0
100
AcDbBlockBegin
  2
*D8
 70
    1
 10
0
 20
0
  3
*D8
  1

  0
LINE
  5
6D
100
AcDbEntity
  8
标注
  6
ByBlock
 62
    0
370
   -2
100
AcDbLine
 10
59.65587849257099
 20
127.3987438931871
 11
74.65587849257099
 21
127.3987438931871
  0
SOLID
  5
6E
100
AcDbEntity
  8
标注
  6
ByBlock
 62
    0
370
   -2
100
AcDbTrace
 10
59.65587849257099
 20
127.3987438931871
 30
0
 11
64.65587849257099
 21
128.2313132087328
 31
0
 12
64.65587849257099
 22
126.5661745776414
 32
0
 13
64.65587849257099
 23
126.5661745776414
 33
0
  0
SOLID
  5
6F
100
AcDbEntity
  8
标注
  6
ByBlock
 62
    0
370
   -2
100
AcDbTrace
 10
74.65587849257099
 20
127.3987438931871
 30
0
 11
69.65587849257099
 21
126.5661745776414
 31
0
 12
69.65587849257099
 22
128.2313132087328
 32
0
 13
69.65587849257099
 23
128.2313132087328
 33
0
  0
MTEXT
  5
70
100
AcDbEntity
  8
标注
  6
CONTINUOUS
 62
    0
370
   -2
100
AcDbMText
 10
67.15587849257099
 20
129.8987438931871
 30
0
 40
2.5
 41
5.277777777777933
 71
    5
 72
    1
  1
15.0
  7
standard
210
0
220
0
230
1
 50
0
 73
    2
 44
1
  0
LINE
  5
71
100
AcDbEntity
  8
标注
  6
ByBlock
 62
    0
370
   -2
100
AcDbLine
 10
59.65587849257099
 20
133.4375
 11
59.65587849257099
 21
124.2737438931871
  0
LINE
  5
72
100
AcDbEntity
  8
标注
  6
ByBlock
 62
    0
370
   -2
100
AcDbLine
 10
74.65587849257099
 20
133.4375
 11
74.65587849257099
 21
124.2737438931871
  0
ENDBLK
  5
54
330
52
100
AcDbEntity
  8
0
100
AcDbBlockEnd
  0
BLOCK
  5
56
330
55
100
AcDbEntity
  8
0
100
AcDbBlockBegin
  2
*D1
 70
    1
 10
0
 20
0
  3
*D1
  1

  0
LINE
  5
73
100
AcDbEntity
  8
标注
  6
ByBlock
 62
    0
370
   -2
100
AcDbLine
 10
101.8433323652421
 20
175
 11
101.8433323652421
 21
205
  0
SOLID
  5
74
100
AcDbEntity
  8
标注
  6
ByBlock
 62
    0
370
   -2
100
AcDbTrace
 10
101.8433323652421
 20
185
 30
0
 11
102.6759016807878
 21
180
 31
0
 12
101.0107630496964
 22
180
 32
0
 13
101.0107630496964
 23
180
 33
0
  0
SOLID
  5
75
100
AcDbEntity
  8
标注
  6
ByBlock
 62
    0
370
   -2
100
AcDbTrace
 10
101.8433323652421
 20
195
 30
0
 11
101.0107630496964
 21
200
 31
0
 12
102.6759016807878
 22
200
 32
0
 13
102.6759016807878
 23
200
 33
0
  0
MTEXT
  5
76
100
AcDbEntity
  8
标注
  6
CONTINUOUS
 62
    0
370
   -2
100
AcDbMText
 10
99.34333236524208
 20
190
 30
0
 40
2.5
 41
5.277777777777778
 71
    5
 72
    1
  1
10.0
  7
standard
210
0
220
0
230
1
 50
90
 73
    2
 44
1
  0
LINE
  5
77
100
AcDbEntity
  8
标注
  6
ByBlock
 62
    0
370
   -2
100
AcDbLine
 10
96.21837849257099
 20
185
 11
104.9683323652421
 21
185
  0
LINE
  5
78
100
AcDbEntity
  8
标注
  6
ByBlock
 62
    0
370
   -2
100
AcDbLine
 10
96.21837849257099
 20
195
 11
104.9683323652421
 21
195
  0
ENDBLK
  5
57
330
55
100
AcDbEntity
  8
0
100
AcDbBlockEnd
  0
BLOCK
  5
59
330
58
100
AcDbEntity
  8
0
100
AcDbBlockBegin
  2
*D2
 70
    1
 10
0
 20
0
  3
*D2
  1

  0
LINE
  5
79
100
AcDbEntity
  8
标注
  6
ByBlock
 62
    0
370
   -2
100
AcDbLine
 10
111.2371189901685
 20
159
 11
111.2371189901685
 21
135
  0
SOLID
  5
7A
100
AcDbEntity
  8
标注
  6
ByBlock
 62
    0
370
   -2
100
AcDbTrace
 10
111.2371189901685
 20
159
 30
0
 11
112.0696883057142
 21
154
 31
0
 12
110.4045496746228
 22
154
 32
0
 13
110.4045496746228
 23
154
 33
0
  0
SOLID
  5
7B
100
AcDbEntity
  8
标注
  6
ByBlock
 62
    0
370
   -2
100
AcDbTrace
 10
111.2371189901685
 20
135
 30
0
 11
110.4045496746228
 21
140
 31
0
 12
112.0696883057142
 22
140
 32
0
 13
112.0696883057142
 23
140
 33
0
  0
MTEXT
  5
7C
100
AcDbEntity
  8
标注
  6
CONTINUOUS
 62
    0
370
   -2
100
AcDbMText
 10
108.7371189901685
 20
147
 30
0
 40
2.5
 41
6.111111111111112
 71
    5
 72
    1
  1
24.0
  7
standard
210
0
220
0
230
1
 50
90
 73
    2
 44
1
  0
LINE
  5
7D
100
AcDbEntity
  8
标注
  6
ByBlock
 62
    0
370
   -2
100
AcDbLine
 10
96.21837849257099
 20
159
 11
114.3621189901685
 21
159
  0
LINE
  5
7E
100
AcDbEntity
  8
标注
  6
ByBlock
 62
    0
370
   -2
100
AcDbLine
 10
96.21837849257099
 20
135
 11
114.3621189901685
 21
135
  0
ENDBLK
  5
5A
330
58
100
AcDbEntity
  8
0
100
AcDbBlockEnd
  0
BLOCK
  5
5C
330
5B
100
AcDbEntity
  8
0
100
AcDbBlockBegin
  2
*D3
 70
    1
 10
0
 20
0
  3
*D3
  1

  0
LINE
  5
7F
100
AcDbEntity
  8
标注
  6
ByBlock
 62
    0
370
   -2
100
AcDbLine
 10
54.65587849257099
 20
114.0786033589103
 11
94.65587849257099
 21
114.0786033589103
  0
SOLID
  5
80
100
AcDbEntity
  8
标注
  6
ByBlock
 62
    0
370
   -2
100
AcDbTrace
 10
54.65587849257099
 20
114.0786033589103
 30
0
 11
59.65587849257099
 21
114.911172674456
 31
0
 12
59.65587849257099
 22
113.2460340433646
 32
0
 13
59.65587849257099
 23
113.2460340433646
 33
0
  0
SOLID
  5
81
100
AcDbEntity
  8
标注
  6
ByBlock
 62
    0
370
   -2
100
AcDbTrace
 10
94.65587849257099
 20
114.0786033589103
 30
0
 11
89.65587849257099
 21
113.2460340433646
 31
0
 12
89.65587849257099
 22
114.911172674456
 32
0
 13
89.65587849257099
 23
114.911172674456
 33
0
  0
MTEXT
  5
82
100
AcDbEntity
  8
标注
  6
CONTINUOUS
 62
    0
370
   -2
100
AcDbMText
 10
74.65587849257099
 20
116.5786033589103
 30
0
 40
2.5
 41
6.111111111111112
 71
    5
 72
    1
  1
40.0
  7
standard
210
0
220
0
230
1
 50
0
 73
    2
 44
1
  0
LINE
  5
83
100
AcDbEntity
  8
标注
  6
ByBlock
 62
    0
370
   -2
100
AcDbLine
 10
54.65587849257099
 20
133.4375
 11
54.65587849257099
 21
110.9536033589103
  0
LINE
  5
84
100
AcDbEntity
  8
标注
  6
ByBlock
 62
    0
370
   -2
100
AcDbLine
 10
94.65587849257099
 20
133.4375
 11
94.65587849257099
 21
110.9536033589103
  0
ENDBLK
  5
5D
330
5B
100
AcDbEntity
  8
0
100
AcDbBlockEnd
  0
BLOCK
  5
5F
330
5E
100
AcDbEntity
  8
0
100
AcDbBlockBegin
  2
*D5
 70
    1
 10
0
 20
0
  3
*D5
  1

  0
LINE
  5
85
100
AcDbEntity
  8
标注
  6
ByBlock
 62
    0
370
   -2
100
AcDbLine
 10
101.8173953079195
 20
161
 11
101.8173953079195
 21
133
  0
SOLID
  5
86
100
AcDbEntity
  8
标注
  6
ByBlock
 62
    0
370
   -2
100
AcDbTrace
 10
101.8173953079195
 20
151
 30
0
 11
100.9848259923738
 21
156
 31
0
 12
102.6499646234652
 22
156
 32
0
 13
102.6499646234652
 23
156
 33
0
  0
SOLID
  5
87
100
AcDbEntity
  8
标注
  6
ByBlock
 62
    0
370
   -2
100
AcDbTrace
 10
101.8173953079195
 20
143
 30
0
 11
102.6499646234652
 21
138
 31
0
 12
100.9848259923738
 22
138
 32
0
 13
100.9848259923738
 23
138
 33
0
  0
MTEXT
  5
88
100
AcDbEntity
  8
标注
  6
CONTINUOUS
 62
    0
370
   -2
100
AcDbMText
 10
99.31739530791947
 20
147
 30
0
 40
2.5
 41
5.154320987654321
 71
    5
 72
    1
  1
8\S+0.01^ 0;
  7
standard
210
0
220
0
230
1
 50
90
 73
    2
 44
1
  0
LINE
  5
89
100
AcDbEntity
  8
标注
  6
ByBlock
 62
    0
370
   -2
100
AcDbLine
 10
96.21837849257099
 20
151
 11
104.9423953079195
 21
151
  0
LINE
  5
8A
100
AcDbEntity
  8
标注
  6
ByBlock
 62
    0
370
   -2
100
AcDbLine
 10
96.21837849257099
 20
143
 11
104.9423953079195
 21
143
  0
ENDBLK
  5
60
330
5E
100
AcDbEntity
  8
0
100
AcDbBlockEnd
  0
BLOCK
  5
62
330
61
100
AcDbEntity
  8
0
100
AcDbBlockBegin
  2
*D6
 70
    1
 10
0
 20
0
  3
*D6
  1

  0
LINE
  5
8B
100
AcDbEntity
  8
标注
  6
ByBlock
 62
    0
370
   -2
100
AcDbLine
 10
68.86494260845927
 20
197.693707695868
 11
50.44681437668272
 21
182.306292304132
  0
SOLID
  5
8C
100
AcDbEntity
  8
标注
  6
ByBlock
 62
    0
370
   -2
100
AcDbTrace
 10
61.1907225118857
 20
191.282284615978
 30
0
 11
64.4940371476427
 21
195.1269281732381
 31
0
 12
65.56162797270227
 22
193.8490641386079
 32
0
 13
65.56162797270227
 23
193.8490641386079
 33
0
  0
SOLID
  5
8D
100
AcDbEntity
  8
标注
  6
ByBlock
 62
    0
370
   -2
100
AcDbTrace
 10
58.12103447325629
 20
188.717715384022
 30
0
 11
54.81771983749929
 21
184.8730718267619
 31
0
 12
53.75012901243972
 22
186.1509358613921
 32
0
 13
53.75012901243972
 23
186.1509358613921
 33
0
  0
MTEXT
  5
8E
100
AcDbEntity
  8
标注
  6
CONTINUOUS
 62
    0
370
   -2
100
AcDbMText
 10
66.08963654595473
 20
198.6327397494727
 30
0
 40
2.5
 41
14.4444444444446
 71
    5
 72
    1
  1
  %%C4%%P0.005
  7
standard
210
0
220
0
230
1
 50
39.87705136039914
 73
    2
 44
1
  0
ENDBLK
  5
63
330
61
100
AcDbEntity
  8
0
100
AcDbBlockEnd
  0
BLOCK
  5
65
330
64
100
AcDbEntity
  8
0
100
AcDbBlockBegin
  2
*D7
 70
    1
 10
0
 20
0
  3
*D7
  1

  0
LINE
  5
8F
100
AcDbEntity
  8
标注
  6
ByBlock
 62
    0
370
   -2
100
AcDbLine
 10
66.65587849257318
 20
138.0803521673463
 11
82.53466682896277
 21
138.0803521673463
  0
SOLID
  5
90
100
AcDbEntity
  8
标注
  6
ByBlock
 62
    0
370
   -2
100
AcDbTrace
 10
66.65587849257318
 20
138.0803521673463
 30
0
 11
71.65587849257318
 21
138.912921482892
 31
0
 12
71.65587849257318
 22
137.2477828518006
 32
0
 13
71.65587849257318
 23
137.2477828518006
 33
0
  0
SOLID
  5
91
100
AcDbEntity
  8
标注
  6
ByBlock
 62
    0
370
   -2
100
AcDbTrace
 10
82.53466682896277
 20
138.0803521673463
 30
0
 11
77.53466682896277
 21
137.2477828518006
 31
0
 12
77.53466682896277
 22
138.912921482892
 32
0
 13
77.53466682896277
 23
138.912921482892
 33
0
  0
MTEXT
  5
92
100
AcDbEntity
  8
标注
  6
CONTINUOUS
 62
    0
370
   -2
100
AcDbMText
 10
74.59527266076799
 20
140.5803521673463
 30
0
 40
2.5
 41
2.500000000000155
 71
    5
 72
    1
  1
16
  7
standard
210
0
220
0
230
1
 50
0
 73
    2
 44
1
  0
LINE
  5
93
100
AcDbEntity
  8
标注
  6
ByBlock
 62
    0
370
   -2
100
AcDbLine
 10
66.65587849257318
 20
141.4375
 11
66.65587849257318
 21
134.9553521673463
  0
LINE
  5
94
100
AcDbEntity
  8
标注
  6
ByBlock
 62
    0
370
   -2
100
AcDbLine
 10
82.53466682896277
 20
141.4375
 11
82.53466682896277
 21
134.9553521673463
  0
ENDBLK
  5
66
330
64
100
AcDbEntity
  8
0
100
AcDbBlockEnd
  0
BLOCK
  5
68
330
67
100
AcDbEntity
  8
0
100
AcDbBlockBegin
  2
*D4
 70
    1
 10
0
 20
0
  3
*D4
  1

  0
LINE
  5
95
100
AcDbEntity
  8
标注
  6
ByBlock
 62
    0
370
   -2
100
AcDbLine
 10
74.65587849257099
 20
127.4878570712883
 11
89.65587849257099
 21
127.4878570712883
  0
SOLID
  5
96
100
AcDbEntity
  8
标注
  6
ByBlock
 62
    0
370
   -2
100
AcDbTrace
 10
74.65587849257099
 20
127.4878570712883
 30
0
 11
79.65587849257099
 21
128.320426386834
 31
0
 12
79.65587849257099
 22
126.6552877557426
 32
0
 13
79.65587849257099
 23
126.6552877557426
 33
0
  0
SOLID
  5
97
100
AcDbEntity
  8
标注
  6
ByBlock
 62
    0
370
   -2
100
AcDbTrace
 10
89.65587849257099
 20
127.4878570712883
 30
0
 11
84.65587849257099
 21
126.6552877557426
 31
0
 12
84.65587849257099
 22
128.320426386834
 32
0
 13
84.65587849257099
 23
128.320426386834
 33
0
  0
MTEXT
  5
98
100
AcDbEntity
  8
标注
  6
CONTINUOUS
 62
    0
370
   -2
100
AcDbMText
 10
82.15587849257099
 20
129.9878570712883
 30
0
 40
2.5
 41
5.277777777777933
 71
    5
 72
    1
  1
15.0
  7
standard
210
0
220
0
230
1
 50
0
 73
    2
 44
1
  0
LINE
  5
99
100
AcDbEntity
  8
标注
  6
ByBlock
 62
    0
370
   -2
100
AcDbLine
 10
74.65587849257099
 20
133.4375
 11
74.65587849257099
 21
124.3628570712883
  0
LINE
  5
9A
100
AcDbEntity
  8
标注
  6
ByBlock
 62
    0
370
   -2
100
AcDbLine
 10
89.65587849257099
 20
133.4375
 11
89.65587849257099
 21
124.3628570712883
  0
ENDBLK
  5
69
330
67
100
AcDbEntity
  8
0
100
AcDbBlockEnd
  0
BLOCK
  5
6B
330
6A
100
AcDbEntity
  8
0
100
AcDbBlockBegin
  2
*D9
 70
    1
 10
0
 20
0
  3
*D9
  1

  0
LINE
  5
9B
100
AcDbEntity
  8
标注
  6
ByBlock
 62
    0
370
   -2
100
AcDbLine
 10
64.72821653510533
 20
137.1287524568427
 11
84.58354045003665
 21
156.8712475431573
  0
SOLID
  5
9C
100
AcDbEntity
  8
标注
  6
ByBlock
 62
    0
370
   -2
100
AcDbTrace
 10
71.8194036475808
 20
144.1796435590979
 30
0
 11
68.86084564924224
 21
140.0638075279063
 31
0
 12
67.68677453344388
 22
141.2445884880343
 32
0
 13
67.68677453344388
 23
141.2445884880343
 33
0
  0
SOLID
  5
9D
100
AcDbEntity
  8
标注
  6
ByBlock
 62
    0
370
   -2
100
AcDbTrace
 10
77.49235333756118
 20
149.8203564409021
 30
0
 11
80.45091133589975
 21
153.9361924720937
 31
0
 12
81.6249824516981
 22
152.7554115119657
 32
0
 13
81.6249824516981
 23
152.7554115119657
 33
0
  0
MTEXT
  5
9E
100
AcDbEntity
  8
标注
  6
CONTINUOUS
 62
    0
370
   -2
100
AcDbMText
 10
72.8931557170072
 20
148.7727967781188
 30
0
 40
2.5
 41
6.388888888888888
 71
    5
 72
    1
  1
     %%C8.0
  7
standard
210
0
220
0
230
1
 50
44.83674357944264
 73
    2
 44
1
  0
ENDBLK
  5
6C
330
6A
100
AcDbEntity
  8
0
100
AcDbBlockEnd
  0
ENDSEC
  0
SECTION
  2
ENTITIES
  0
LINE
  5
9F
100
AcDbEntity
  8
0
  6
ByLayer
 62
  256
370
   -1
100
AcDbLine
 10
15
 20
282
 11
195
 21
282
  0
LINE
  5
A0
100
AcDbEntity
  8
0
  6
ByLayer
 62
  256
370
   -1
100
AcDbLine
 10
195
 20
282
 11
195
 21
15
  0
LINE
  5
A1
100
AcDbEntity
  8
0
  6
ByLayer
 62
  256
370
   -1
100
AcDbLine
 10
195
 20
15
 11
15
 21
15
  0
LINE
  5
A2
100
AcDbEntity
  8
0
  6
ByLayer
 62
  256
370
   -1
100
AcDbLine
 10
15
 20
282
 11
15
 21
15
  0
LINE
  5
A3
100
AcDbEntity
  8
0
  6
ByLayer
 62
  256
370
   -1
100
AcDbLine
 10
94.65587849257099
 20
185
 11
94.65587849257099
 21
195
  0
DIMENSION
  5
A4
100
AcDbEntity
  8
标注
  6
ByLayer
 62
  256
370
   -1
100
AcDbDimension
  2
*D1
 10
101.8433323652421
 20
195
 30
0
 11
99.34333236524208
 21
190
 31
0
 70
   32
 71
    5
  3
Standard
 53
0
210
0
220
0
230
1
100
AcDbAlignedDimension
 13
94.65587849257099
 23
185
 33
0
 14
94.65587849257099
 24
195
 34
0
 50
90
100
AcDbRotatedDimension
  0
LINE
  5
A5
100
AcDbEntity
  8
0
  6
ByLayer
 62
  256
370
   -1
100
AcDbLine
 10
54.65587849257099
 20
195
 11
54.65587849257099
 21
185
  0
LINE
  5
A6
100
AcDbEntity
  8
虚线
  6
ByLayer
 62
  256
370
   -1
100
AcDbLine
 10
78.6558784925688
 20
195
 11
78.6558784925688
 21
185
  0
LINE
  5
A7
100
AcDbEntity
  8
虚线
  6
ByLayer
 62
  256
370
   -1
100
AcDbLine
 10
70.65587849257318
 20
195
 11
70.65587849257318
 21
185
  0
LINE
  5
A8
100
AcDbEntity
  8
0
  6
ByLayer
 62
  256
370
   -1
100
AcDbLine
 10
54.65587849257099
 20
185
 11
94.65587849257099
 21
185
  0
LINE
  5
A9
100
AcDbEntity
  8
0
  6
ByLayer
 62
  256
370
   -1
100
AcDbLine
 10
94.65587849257099
 20
195
 11
54.65587849257099
 21
195
  0
LINE
  5
AA
100
AcDbEntity
  8
虚线
  6
ByLayer
 62
  256
370
   -1
100
AcDbLine
 10
66.65587849257318
 20
195
 11
66.65587849257318
 21
185
  0
LINE
  5
AB
100
AcDbEntity
  8
虚线
  6
ByLayer
 62
  256
370
   -1
100
AcDbLine
 10
82.65587849257099
 20
185
 11
82.65587849257099
 21
195
  0
LINE
  5
AC
100
AcDbEntity
  8
0
  6
ByLayer
 62
  256
370
   -1
100
AcDbLine
 10
54.65587849257099
 20
135
 11
94.65587849257099
 21
135
  0
LINE
  5
AD
100
AcDbEntity
  8
0
  6
ByLayer
 62
  256
370
   -1
100
AcDbLine
 10
54.65587849257099
 20
159
 11
94.65587849257099
 21
159
  0
LINE
  5
AE
100
AcDbEntity
  8
0
  6
ByLayer
 62
  256
370
   -1
100
AcDbLine
 10
94.65587849257099
 20
159
 11
94.65587849257099
 21
151
  0
LINE
  5
AF
100
AcDbEntity
  8
0
  6
ByLayer
 62
  256
370
   -1
100
AcDbLine
 10
94.65587849257099
 20
143
 11
94.65587849257099
 21
135
  0
LINE
  5
B0
100
AcDbEntity
  8
0
  6
ByLayer
 62
  256
370
   -1
100
AcDbLine
 10
54.65587849257099
 20
143
 11
54.65587849257099
 21
135
  0
LINE
  5
B1
100
AcDbEntity
  8
0
  6
ByLayer
 62
  256
370
   -1
100
AcDbLine
 10
54.65587849257099
 20
151
 11
54.65587849257099
 21
159
  0
LINE
  5
B2
100
AcDbEntity
  8
0
  6
ByLayer
 62
  256
370
   -1
100
AcDbLine
 10
66.65587849257318
 20
151
 11
66.65587849257318
 21
143
  0
LINE
  5
B3
100
AcDbEntity
  8
0
  6
ByLayer
 62
  256
370
   -1
100
AcDbLine
 10
82.53466682896277
 20
151
 11
82.53466682896277
 21
143
  0
LINE
  5
B4
100
AcDbEntity
  8
0
  6
ByLayer
 62
  256
370
   -1
100
AcDbLine
 10
54.65587849257099
 20
151
 11
66.65587849257318
 21
151
  0
LINE
  5
B5
100
AcDbEntity
  8
0
  6
ByLayer
 62
  256
370
   -1
100
AcDbLine
 10
82.53466682896277
 20
143
 11
94.65587849257099
 21
143
  0
LINE
  5
B6
100
AcDbEntity
  8
0
  6
ByLayer
 62
  256
370
   -1
100
AcDbLine
 10
82.53466682896277
 20
151
 11
94.65587849257099
 21
151
  0
LINE
  5
B7
100
AcDbEntity
  8
0
  6
ByLayer
 62
  256
370
   -1
100
AcDbLine
 10
54.65587849257099
 20
143
 11
66.65587849257318
 21
143
  0
DIMENSION
  5
B8
100
AcDbEntity
  8
标注
  6
ByLayer
 62
  256
370
   -1
100
AcDbDimension
  2
*D2
 10
111.2371189901685
 20
135
 30
0
 11
108.7371189901685
 21
147
 31
0
 70
   32
 71
    5
  3
Standard
 53
0
210
0
220
0
230
1
100
AcDbAlignedDimension
 13
94.65587849257099
 23
159
 33
0
 14
94.65587849257099
 24
135
 34
0
 50
90
100
AcDbRotatedDimension
  0
LINE
  5
B9
100
AcDbEntity
  8
中心线
  6
ByLayer
 62
  256
370
   -1
100
AcDbLine
 10
44.65587849257099
 20
147
 11
121.6542251799497
 21
147
  0
CIRCLE
  5
BA
100
AcDbEntity
  8
0
  6
ByLayer
 62
  256
370
   -1
100
AcDbCircle
 10
74.65587849257099
 20
147
 40
4
  0
LINE
  5
BB
100
AcDbEntity
  8
中心线
  6
ByLayer
 62
  256
370
   -1
100
AcDbLine
 10
74.65587849257099
 20
210.1727508904475
 11
74.65587849257099
 21
127.1553962354442
  0
DIMENSION
  5
BC
100
AcDbEntity
  8
标注
  6
ByLayer
 62
  256
370
   -1
100
AcDbDimension
  2
*D3
 10
94.65587849257099
 20
114.0786033589103
 30
0
 11
74.65587849257099
 21
116.5786033589103
 31
0
 70
   32
 71
    5
  3
Standard
 53
0
210
0
220
0
230
1
100
AcDbAlignedDimension
 13
54.65587849257099
 23
135
 33
0
 14
94.65587849257099
 24
135
 34
0
100
AcDbRotatedDimension
  0
DIMENSION
  5
BD
100
AcDbEntity
  8
标注
  6
ByLayer
 62
  256
370
   -1
100
AcDbDimension
  2
*D4
 10
89.65587849257099
 20
127.4878570712883
 30
0
 11
82.15587849257099
 21
129.9878570712883
 31
0
 70
   32
 71
    5
  3
Standard
 53
0
210
0
220
0
230
1
100
AcDbAlignedDimension
 13
74.65587849257099
 23
135
 33
0
 14
89.65587849257099
 24
135
 34
0
100
AcDbRotatedDimension
  0
LINE
  5
BE
100
AcDbEntity
  8
中心线
  6
ByLayer
 62
  256
370
   -1
100
AcDbLine
 10
59.65587849257099
 20
127.1553962354442
 11
59.65587849257099
 21
209.8777049578489
  0
LINE
  5
BF
100
AcDbEntity
  8
中心线
  6
ByLayer
 62
  256
370
   -1
100
AcDbLine
 10
89.65587849257099
 20
209.6068245966751
 11
89.65587849257099
 21
127.1553962354442
  0
LINE
  5
C0
100
AcDbEntity
  8
中心线
  6
ByLayer
 62
  256
370
   -1
100
AcDbLine
 10
23.1827132458944
 20
190
 11
130
 21
190
  0
DIMENSION
  5
C1
100
AcDbEntity
  8
标注
  6
ByLayer
 62
  256
370
   -1
100
AcDbDimension
  2
*D5
 10
101.8173953079195
 20
143
 30
0
 11
99.31739530791947
 21
147
 31
0
 70
   32
  1
8\S+0.01^ 0;
 71
    5
  3
Standard
 53
0
210
0
220
0
230
1
100
AcDbAlignedDimension
 13
94.65587849257099
 23
151
 33
0
 14
94.65587849257099
 24
143
 34
0
 50
90
100
AcDbRotatedDimension
  0
CIRCLE
  5
C2
100
AcDbEntity
  8
0
  6
ByLayer
 62
  256
370
   -1
100
AcDbCircle
 10
59.65587849257099
 20
190
 40
2
  0
CIRCLE
  5
C3
100
AcDbEntity
  8
0
  6
ByLayer
 62
  256
370
   -1
100
AcDbCircle
 10
89.65587849257099
 20
190
 40
2
  0
LINE
  5
C4
100
AcDbEntity
  8
虚线
  6
ByLayer
 62
  256
370
   -1
100
AcDbLine
 10
57.65587849257639
 20
159
 11
57.65587849257639
 21
151
  0
LINE
  5
C5
100
AcDbEntity
  8
虚线
  6
ByLayer
 62
  256
370
   -1
100
AcDbLine
 10
57.65587849257639
 20
143
 11
57.65587849257639
 21
135.0000000000001
  0
LINE
  5
C6
100
AcDbEntity
  8
虚线
  6
ByLayer
 62
  256
370
   -1
100
AcDbLine
 10
61.65587849256548
 20
159
 11
61.65587849256548
 21
151
  0
LINE
  5
C7
100
AcDbEntity
  8
虚线
  6
ByLayer
 62
  256
370
   -1
100
AcDbLine
 10
61.65587849256548
 20
143
 11
61.65587849256548
 21
135
  0
LINE
  5
C8
100
AcDbEntity
  8
虚线
  6
ByLayer
 62
  256
370
   -1
100
AcDbLine
 10
87.65587849259907
 20
159
 11
87.65587849259907
 21
151
  0
LINE
  5
C9
100
AcDbEntity
  8
虚线
  6
ByLayer
 62
  256
370
   -1
100
AcDbLine
 10
87.65587849259907
 20
143
 11
87.65587849259907
 21
135
  0
LINE
  5
CA
100
AcDbEntity
  8
虚线
  6
ByLayer
 62
  256
370
   -1
100
AcDbLine
 10
91.65587849254268
 20
159
 11
91.65587849254268
 21
151
  0
LINE
  5
CB
100
AcDbEntity
  8
虚线
  6
ByLayer
 62
  256
370
   -1
100
AcDbLine
 10
91.65587849254268
 20
143
 11
91.65587849254268
 21
135
  0
DIMENSION
  5
CC
100
AcDbEntity
  8
标注
  6
ByLayer
 62
  256
370
   -1
100
AcDbDimension
  2
*D6
 10
61.1907225118857
 20
191.282284615978
 30
0
 11
58.05302272259848
 21
191.9185550241434
 31
0
 70
   35
  1
  %%C4%%P0.005
 71
    5
  3
Standard
 53
0
210
0
220
0
230
1
100
AcDbDiametricDimension
 15
58.12103447325629
 25
188.717715384022
 35
0
 40
0
  0
DIMENSION
  5
CD
100
AcDbEntity
  8
标注
  6
ByLayer
 62
  256
370
   -1
100
AcDbDimension
  2
*D7
 10
82.53466682896277
 20
138.0803521673463
 30
0
 11
74.59527266076799
 21
140.5803521673463
 31
0
 70
   32
  1
16
 71
    5
  3
Standard
 53
0
210
0
220
0
230
1
100
AcDbAlignedDimension
 13
66.65587849257318
 23
143
 33
0
 14
82.53466682896277
 24
143
 34
0
100
AcDbRotatedDimension
  0
DIMENSION
  5
CE
100
AcDbEntity
  8
标注
  6
ByLayer
 62
  256
370
   -1
100
AcDbDimension
  2
*D8
 10
74.65587849257099
 20
127.3987438931871
 30
0
 11
67.15587849257099
 21
129.8987438931871
 31
0
 70
   32
 71
    5
  3
Standard
 53
0
210
0
220
0
230
1
100
AcDbAlignedDimension
 13
59.65587849257099
 23
135
 33
0
 14
74.65587849257099
 24
135
 34
0
100
AcDbRotatedDimension
  0
DIMENSION
  5
CF
100
AcDbEntity
  8
标注
  6
ByLayer
 62
  256
370
   -1
100
AcDbDimension
  2
*D9
 10
71.8194036475808
 20
144.1796435590979
 30
0
 11
72.8931557170072
 21
148.7727967781188
 31
0
 70
   35
  1
     %%C<>
 71
    5
  3
Standard
 53
0
210
0
220
0
230
1
100
AcDbDiametricDimension
 15
77.49235333756118
 25
149.8203564409021
 35
0
 40
0
  0
MTEXT
  5
D0
100
AcDbEntity
  8
0
  6
ByLayer
 62
  256
370
   -1
100
AcDbMText
 10
140
 20
30
 30
0
 40
3
 41
47.07666666666667
 71
    1
 72
    1
  1
爪子连杆座：45#钢，1件
  7
wqy-unicode
210
0
220
0
230
1
 50
0
 73
    2
 44
1
  0
ENDSEC
  0
SECTION
  2
OBJECTS
  0
DICTIONARY
  5
C
330
0
100
AcDbDictionary
281
    1
  3
ACAD_GROUP
350
D
  0
DICTIONARY
  5
D
330
C
100
AcDbDictionary
281
    1
  0
ENDSEC
  0
EOF
