999
dxfrw 0.6.3
  0
SECTION
  2
HEADER
  9
$ACADVER
  1
AC1021
  9
$DWGCODEPAGE
  3
ANSI_1252
  9
$INSBASE
 10
0
 20
0
 30
0
  9
$EXTMIN
 10
-180
 20
10
 30
0
  9
$EXTMAX
 10
610
 20
470
 30
0
  9
$LIMMIN
 10
0
 20
0
  9
$LIMMAX
 10
420
 20
297
  9
$ORTHOMODE
 70
    0
  9
$REGENMODE
 70
    1
  9
$FILLMODE
 70
    1
  9
$QTEXTMODE
 70
    0
  9
$MIRRTEXT
 70
    0
  9
$LTSCALE
 40
1
  9
$ATTMODE
 70
    0
  9
$TEXTSIZE
 40
2.5
  9
$TRACEWID
 40
15.68
  9
$TEXTSTYLE
  7
STANDARD
  9
$CLAYER
  8
0
  9
$CELTYPE
  6
BYLAYER
  9
$CECOLOR
 62
  256
  9
$CELTSCALE
 40
1
  9
$DISPSILH
 70
    0
  9
$DIMSCALE
 40
2.5
  9
$DIMASZ
 40
2
  9
$DIMEXO
 40
0.625
  9
$DIMDLI
 40
3.75
  9
$DIMRND
 40
0
  9
$DIMDLE
 40
0
  9
$DIMEXE
 40
1.25
  9
$DIMTP
 40
0
  9
$DIMTM
 40
0
  9
$DIMTXT
 40
1
  9
$DIMCEN
 40
2.5
  9
$DIMTSZ
 40
0
  9
$DIMTOL
 70
    0
  9
$DIMLIM
 70
    0
  9
$DIMTIH
 70
    0
  9
$DIMTOH
 70
    0
  9
$DIMSE1
 70
    0
  9
$DIMSE2
 70
    0
  9
$DIMTAD
 70
    1
  9
$DIMZIN
 70
    1
  9
$DIMBLK
  1

  9
$DIMASO
 70
    1
  9
$DIMSHO
 70
    1
  9
$DIMPOST
  1

  9
$DIMAPOST
  1

  9
$DIMALT
 70
    0
  9
$DIMALTD
 70
    3
  9
$DIMALTF
 40
0.03937
  9
$DIMLFAC
 40
1
  9
$DIMTOFL
 70
    1
  9
$DIMTVP
 40
0
  9
$DIMTIX
 70
    0
  9
$DIMSOXD
 70
    0
  9
$DIMSAH
 70
    0
  9
$DIMBLK1
  1

  9
$DIMBLK2
  1

  9
$DIMSTYLE
  2
STANDARD
  9
$DIMCLRD
 70
    0
  9
$DIMCLRE
 70
    0
  9
$DIMCLRT
 70
    0
  9
$DIMTFAC
 40
1
  9
$DIMGAP
 40
0.5
  9
$DIMJUST
 70
    0
  9
$DIMSD1
 70
    0
  9
$DIMSD2
 70
    0
  9
$DIMTOLJ
 70
    0
  9
$DIMTZIN
 70
    8
  9
$DIMALTZ
 70
    0
  9
$DIMALTTZ
 70
    0
  9
$DIMUPT
 70
    0
  9
$DIMDEC
 70
    1
  9
$DIMTDEC
 70
    2
  9
$DIMALTU
 70
    2
  9
$DIMALTTD
 70
    3
  9
$DIMTXSTY
  7
standard
  9
$DIMAUNIT
 70
    0
  9
$DIMADEC
 70
    1
  9
$DIMALTRND
 40
0
  9
$DIMAZIN
 70
    0
  9
$DIMDSEP
 70
    0
  9
$DIMATFIT
 70
    3
  9
$DIMFRAC
 70
    0
  9
$DIMLDRBLK
  1
STANDARD
  9
$DIMLUNIT
 70
    2
  9
$DIMLWD
 70
   -2
  9
$DIMLWE
 70
   -2
  9
$DIMTMOVE
 70
    0
  9
$DIMFXL
 40
1
  9
$DIMFXLON
 70
    0
  9
$DIMJOGANG
 40
0.7854
  9
$DIMTFILL
 70
    0
  9
$DIMTFILLCLR
 70
    0
  9
$DIMARCSYM
 70
    0
  9
$DIMLTYPE
  6

  9
$DIMLTEX1
  6

  9
$DIMLTEX2
  6

  9
$LUNITS
 70
    2
  9
$LUPREC
 70
    1
  9
$SKETCHINC
 40
1
  9
$FILLETRAD
 40
0
  9
$AUNITS
 70
    0
  9
$AUPREC
 70
    1
  9
$MENU
  1
.
  9
$ELEVATION
 40
0
  9
$PELEVATION
 40
0
  9
$THICKNESS
 40
0
  9
$LIMCHECK
 70
    0
  9
$CHAMFERA
 40
0
  9
$CHAMFERB
 40
0
  9
$CHAMFERC
 40
0
  9
$CHAMFERD
 40
0
  9
$SKPOLY
 70
    0
  9
$USRTIMER
 70
    1
  9
$ANGBASE
 50
0
  9
$ANGDIR
 70
    0
  9
$PDMODE
 70
   34
  9
$PDSIZE
 40
0
  9
$PLINEWID
 40
0
  9
$SPLFRAME
 70
    0
  9
$SPLINETYPE
 70
    2
  9
$SPLINESEGS
 70
    8
  9
$HANDSEED
  5
20000
  9
$SURFTAB1
 70
    6
  9
$SURFTAB2
 70
    6
  9
$SURFTYPE
 70
    6
  9
$SURFU
 70
    6
  9
$SURFV
 70
    6
  9
$UCSBASE
  2

  9
$UCSNAME
  2

  9
$UCSORG
 10
0
 20
0
 30
0
  9
$UCSXDIR
 10
1
 20
0
 30
0
  9
$UCSYDIR
 10
0
 20
1
 30
0
  9
$UCSORTHOREF
  2

  9
$UCSORTHOVIEW
 70
    0
  9
$UCSORGTOP
 10
0
 20
0
 30
0
  9
$UCSORGBOTTOM
 10
0
 20
0
 30
0
  9
$UCSORGLEFT
 10
0
 20
0
 30
0
  9
$UCSORGRIGHT
 10
0
 20
0
 30
0
  9
$UCSORGFRONT
 10
0
 20
0
 30
0
  9
$UCSORGBACK
 10
0
 20
0
 30
0
  9
$PUCSBASE
  2

  9
$PUCSNAME
  2

  9
$PUCSORG
 10
0
 20
0
 30
0
  9
$PUCSXDIR
 10
1
 20
0
 30
0
  9
$PUCSYDIR
 10
0
 20
1
 30
0
  9
$PUCSORTHOREF
  2

  9
$PUCSORTHOVIEW
 70
    0
  9
$PUCSORGTOP
 10
0
 20
0
 30
0
  9
$PUCSORGBOTTOM
 10
0
 20
0
 30
0
  9
$PUCSORGLEFT
 10
0
 20
0
 30
0
  9
$PUCSORGRIGHT
 10
0
 20
0
 30
0
  9
$PUCSORGFRONT
 10
0
 20
0
 30
0
  9
$PUCSORGBACK
 10
0
 20
0
 30
0
  9
$USERI1
 70
    0
  9
$USERI2
 70
    0
  9
$USERI3
 70
    0
  9
$USERI4
 70
    0
  9
$USERI5
 70
    0
  9
$USERR1
 40
0
  9
$USERR2
 40
0
  9
$USERR3
 40
0
  9
$USERR4
 40
0
  9
$USERR5
 40
0
  9
$WORLDVIEW
 70
    1
  9
$SHADEDGE
 70
    3
  9
$SHADEDIF
 70
   70
  9
$TILEMODE
 70
    1
  9
$MAXACTVP
 70
   64
  9
$PINSBASE
 10
-18.25
 20
28.125
 30
0
  9
$PLIMCHECK
 70
    0
  9
$PEXTMIN
 10
0
 20
0
 30
0
  9
$PEXTMAX
 10
0
 20
0
 30
0
  9
$GRIDMODE
 70
    1
  9
$SNAPSTYLE
 70
    0
  9
$GRIDUNIT
 10
10
 20
10
  9
$PLIMMIN
 10
0
 20
0
  9
$PLIMMAX
 10
148
 20
210
  9
$UNITMODE
 70
    0
  9
$VISRETAIN
 70
    1
  9
$PLINEGEN
 70
    0
  9
$PSLTSCALE
 70
    1
  9
$TREEDEPTH
 70
 3020
  9
$CMLSTYLE
  2
Standard
  9
$CMLJUST
 70
    0
  9
$CMLSCALE
 40
20
  9
$PROXYGRAPHICS
 70
    1
  9
$MEASUREMENT
 70
    1
  9
$CELWEIGHT
370
   -1
  9
$ENDCAPS
280
    0
  9
$JOINSTYLE
280
    0
  9
$LWDISPLAY
290
    0
  9
$INSUNITS
 70
    4
  9
$HYPERLINKBASE
  1

  9
$STYLESHEET
  1

  9
$XEDIT
290
    1
  9
$CEPSNTYPE
380
    0
  9
$PSTYLEMODE
290
    1
  9
$EXTNAMES
290
    1
  9
$PSVPSCALE
 40
0.3075002383126847
  9
$OLESTARTUP
290
    0
  9
$SORTENTS
280
  127
  9
$INDEXCTL
280
    0
  9
$HIDETEXT
280
    1
  9
$XCLIPFRAME
290
    0
  9
$HALOGAP
280
    0
  9
$OBSCOLOR
 70
  257
  9
$OBSLTYPE
280
    0
  9
$INTERSECTIONDISPLAY
280
    0
  9
$INTERSECTIONCOLOR
 70
  257
  9
$DIMASSOC
280
    1
  9
$PROJECTNAME
  1

  9
$CAMERADISPLAY
290
    0
  9
$LENSLENGTH
 40
50
  9
$CAMERAHEIGHT
 40
0
  9
$STEPSPERSEC
 40
2
  9
$STEPSIZE
 40
50
  9
$3DDWFPREC
 40
2
  9
$PSOLWIDTH
 40
5
  9
$PSOLHEIGHT
 40
80
  9
$LOFTANG1
 40
1.570796326794897
  9
$LOFTANG2
 40
1.570796326794897
  9
$LOFTMAG1
 40
0
  9
$LOFTMAG2
 40
0
  9
$LOFTPARAM
 70
    7
  9
$LOFTNORMALS
280
    1
  9
$LATITUDE
 40
1
  9
$LONGITUDE
 40
1
  9
$NORTHDIRECTION
 40
0
  9
$TIMEZONE
 70
-8000
  9
$LIGHTGLYPHDISPLAY
280
    1
  9
$TILEMODELIGHTSYNCH
280
    1
  9
$SOLIDHIST
280
    1
  9
$SHOWHIST
280
    1
  9
$DWFFRAME
280
    2
  9
$DGNFRAME
280
    0
  9
$REALWORLDSCALE
290
    1
  9
$INTERFERECOLOR
 62
    1
  9
$CSHADOW
280
    0
  9
$SHADOWPLANELOCATION
 40
0
  0
ENDSEC
  0
SECTION
  2
CLASSES
  0
ENDSEC
  0
SECTION
  2
TABLES
  0
TABLE
  2
VPORT
  5
8
330
0
100
AcDbSymbolTable
 70
    1
  0
VPORT
  5
31
330
2
100
AcDbSymbolTableRecord
100
AcDbViewportTableRecord
  2
*ACTIVE
 70
    0
 10
0
 20
0
 11
1
 21
1
 12
46.94503869170133
 22
103.6268261490889
 13
0
 23
0
 14
10
 24
10
 15
10
 25
10
 16
0
 26
0
 36
1
 17
0
 27
0
 37
0
 40
22.25542575013989
 41
1.984375
 42
50
 43
0
 44
0
 50
0
 51
0
 71
    0
 72
  100
 73
    1
 74
    3
 75
    0
 76
    1
 77
    0
 78
    0
281
    0
 65
    1
110
0
120
0
130
0
111
1
121
0
131
0
112
0
122
1
132
0
 79
    0
146
0
348
10020
 60
    3
 61
    5
292
1
282
    1
141
0
142
0
 63
  250
421
3358443
  0
ENDTAB
  0
TABLE
  2
LTYPE
  5
5
330
0
100
AcDbSymbolTable
 70
    4
  0
LTYPE
  5
14
330
5
100
AcDbSymbolTableRecord
100
AcDbLinetypeTableRecord
  2
ByBlock
 70
    0
  3

 72
   65
 73
    0
 40
0
  0
LTYPE
  5
15
330
5
100
AcDbSymbolTableRecord
100
AcDbLinetypeTableRecord
  2
ByLayer
 70
    0
  3

 72
   65
 73
    0
 40
0
  0
LTYPE
  5
16
330
5
100
AcDbSymbolTableRecord
100
AcDbLinetypeTableRecord
  2
Continuous
 70
    0
  3
Solid line
 72
   65
 73
    0
 40
0
  0
LTYPE
  5
32
330
5
100
AcDbSymbolTableRecord
100
AcDbLinetypeTableRecord
  2
DOT
 70
    0
  3
Dot . . . . . . . . . . . . . . . . . . . . . .
 72
   65
 73
    2
 40
6.35
 49
0
 74
    0
 49
-6.35
 74
    0
  0
LTYPE
  5
33
330
5
100
AcDbSymbolTableRecord
100
AcDbLinetypeTableRecord
  2
DOTTINY
 70
    0
  3
Dot (.15x) .....................................
 72
   65
 73
    2
 40
0.9525
 49
0
 74
    0
 49
-0.9525
 74
    0
  0
LTYPE
  5
34
330
5
100
AcDbSymbolTableRecord
100
AcDbLinetypeTableRecord
  2
DOT2
 70
    0
  3
Dot (.5x) .....................................
 72
   65
 73
    2
 40
3.175
 49
0
 74
    0
 49
-3.175
 74
    0
  0
LTYPE
  5
35
330
5
100
AcDbSymbolTableRecord
100
AcDbLinetypeTableRecord
  2
DOTX2
 70
    0
  3
Dot (2x) .  .  .  .  .  .  .  .  .  .  .  .  .
 72
   65
 73
    2
 40
12.7
 49
0
 74
    0
 49
-12.7
 74
    0
  0
LTYPE
  5
36
330
5
100
AcDbSymbolTableRecord
100
AcDbLinetypeTableRecord
  2
DASHED
 70
    0
  3
Dashed _ _ _ _ _ _ _ _ _ _ _ _ _ _ _ _ _
 72
   65
 73
    2
 40
19.05
 49
12.7
 74
    0
 49
-6.35
 74
    0
  0
LTYPE
  5
37
330
5
100
AcDbSymbolTableRecord
100
AcDbLinetypeTableRecord
  2
DASHEDTINY
 70
    0
  3
Dashed (.15x) _ _ _ _ _ _ _ _ _ _ _ _ _ _ _ _ _
 72
   65
 73
    2
 40
2.8575
 49
1.905
 74
    0
 49
-0.9525
 74
    0
  0
LTYPE
  5
38
330
5
100
AcDbSymbolTableRecord
100
AcDbLinetypeTableRecord
  2
DASHED2
 70
    0
  3
Dashed (.5x) _ _ _ _ _ _ _ _ _ _ _ _ _ _ _ _ _
 72
   65
 73
    2
 40
9.524999999999999
 49
6.35
 74
    0
 49
-3.175
 74
    0
  0
LTYPE
  5
39
330
5
100
AcDbSymbolTableRecord
100
AcDbLinetypeTableRecord
  2
DASHEDX2
 70
    0
  3
Dashed (2x) ____  ____  ____  ____  ____  ___
 72
   65
 73
    2
 40
38.09999999999999
 49
25.4
 74
    0
 49
-12.7
 74
    0
  0
LTYPE
  5
3A
330
5
100
AcDbSymbolTableRecord
100
AcDbLinetypeTableRecord
  2
DASHDOT
 70
    0
  3
Dash dot __ . __ . __ . __ . __ . __ . __ . __
 72
   65
 73
    4
 40
25.4
 49
12.7
 74
    0
 49
-6.35
 74
    0
 49
0
 74
    0
 49
-6.35
 74
    0
  0
LTYPE
  5
3B
330
5
100
AcDbSymbolTableRecord
100
AcDbLinetypeTableRecord
  2
DASHDOTTINY
 70
    0
  3
Dash dot (.15x) _._._._._._._._._._._._._._._.
 72
   65
 73
    4
 40
3.81
 49
1.905
 74
    0
 49
-0.9525
 74
    0
 49
0
 74
    0
 49
-0.9525
 74
    0
  0
LTYPE
  5
3C
330
5
100
AcDbSymbolTableRecord
100
AcDbLinetypeTableRecord
  2
DASHDOT2
 70
    0
  3
Dash dot (.5x) _._._._._._._._._._._._._._._.
 72
   65
 73
    4
 40
12.7
 49
6.35
 74
    0
 49
-3.175
 74
    0
 49
0
 74
    0
 49
-3.175
 74
    0
  0
LTYPE
  5
3D
330
5
100
AcDbSymbolTableRecord
100
AcDbLinetypeTableRecord
  2
DASHDOTX2
 70
    0
  3
Dash dot (2x) ____  .  ____  .  ____  .  ___
 72
   65
 73
    4
 40
50.8
 49
25.4
 74
    0
 49
-12.7
 74
    0
 49
0
 74
    0
 49
-12.7
 74
    0
  0
LTYPE
  5
3E
330
5
100
AcDbSymbolTableRecord
100
AcDbLinetypeTableRecord
  2
DIVIDE
 70
    0
  3
Divide ____ . . ____ . . ____ . . ____ . . ____
 72
   65
 73
    6
 40
31.75
 49
12.7
 74
    0
 49
-6.35
 74
    0
 49
0
 74
    0
 49
-6.35
 74
    0
 49
0
 74
    0
 49
-6.35
 74
    0
  0
LTYPE
  5
3F
330
5
100
AcDbSymbolTableRecord
100
AcDbLinetypeTableRecord
  2
DIVIDETINY
 70
    0
  3
Divide (.15x) __..__..__..__..__..__..__..__.._
 72
   65
 73
    6
 40
4.7625
 49
1.905
 74
    0
 49
-0.9525
 74
    0
 49
0
 74
    0
 49
-0.9525
 74
    0
 49
0
 74
    0
 49
-0.9525
 74
    0
  0
LTYPE
  5
40
330
5
100
AcDbSymbolTableRecord
100
AcDbLinetypeTableRecord
  2
DIVIDE2
 70
    0
  3
Divide (.5x) __..__..__..__..__..__..__..__.._
 72
   65
 73
    6
 40
15.875
 49
6.35
 74
    0
 49
-3.175
 74
    0
 49
0
 74
    0
 49
-3.175
 74
    0
 49
0
 74
    0
 49
-3.175
 74
    0
  0
LTYPE
  5
41
330
5
100
AcDbSymbolTableRecord
100
AcDbLinetypeTableRecord
  2
DIVIDEX2
 70
    0
  3
Divide (2x) ________  .  .  ________  .  .  _
 72
   65
 73
    6
 40
63.5
 49
25.4
 74
    0
 49
-12.7
 74
    0
 49
0
 74
    0
 49
-12.7
 74
    0
 49
0
 74
    0
 49
-12.7
 74
    0
  0
LTYPE
  5
42
330
5
100
AcDbSymbolTableRecord
100
AcDbLinetypeTableRecord
  2
BORDER
 70
    0
  3
Border __ __ . __ __ . __ __ . __ __ . __ __ .
 72
   65
 73
    6
 40
44.45
 49
12.7
 74
    0
 49
-6.35
 74
    0
 49
12.7
 74
    0
 49
-6.35
 74
    0
 49
0
 74
    0
 49
-6.35
 74
    0
  0
LTYPE
  5
43
330
5
100
AcDbSymbolTableRecord
100
AcDbLinetypeTableRecord
  2
BORDERTINY
 70
    0
  3
Border (.15x) __.__.__.__.__.__.__.__.__.__.__.
 72
   65
 73
    6
 40
6.6675
 49
1.905
 74
    0
 49
-0.9525
 74
    0
 49
1.905
 74
    0
 49
-0.9525
 74
    0
 49
0
 74
    0
 49
-0.9525
 74
    0
  0
LTYPE
  5
44
330
5
100
AcDbSymbolTableRecord
100
AcDbLinetypeTableRecord
  2
BORDER2
 70
    0
  3
Border (.5x) __.__.__.__.__.__.__.__.__.__.__.
 72
   65
 73
    6
 40
22.225
 49
6.35
 74
    0
 49
-3.175
 74
    0
 49
6.35
 74
    0
 49
-3.175
 74
    0
 49
0
 74
    0
 49
-3.175
 74
    0
  0
LTYPE
  5
45
330
5
100
AcDbSymbolTableRecord
100
AcDbLinetypeTableRecord
  2
BORDERX2
 70
    0
  3
Border (2x) ____  ____  .  ____  ____  .  ___
 72
   65
 73
    6
 40
88.89999999999999
 49
25.4
 74
    0
 49
-12.7
 74
    0
 49
25.4
 74
    0
 49
-12.7
 74
    0
 49
0
 74
    0
 49
-12.7
 74
    0
  0
LTYPE
  5
46
330
5
100
AcDbSymbolTableRecord
100
AcDbLinetypeTableRecord
  2
CENTER
 70
    0
  3
Center ____ _ ____ _ ____ _ ____ _ ____ _ ____
 72
   65
 73
    4
 40
50.8
 49
31.75
 74
    0
 49
-6.35
 74
    0
 49
6.35
 74
    0
 49
-6.35
 74
    0
  0
LTYPE
  5
47
330
5
100
AcDbSymbolTableRecord
100
AcDbLinetypeTableRecord
  2
CENTERTINY
 70
    0
  3
Center (.15x) ___ _ ___ _ ___ _ ___ _ ___ _ ___
 72
   65
 73
    4
 40
7.62
 49
4.7625
 74
    0
 49
-0.9525
 74
    0
 49
0.9525
 74
    0
 49
-0.9525
 74
    0
  0
LTYPE
  5
48
330
5
100
AcDbSymbolTableRecord
100
AcDbLinetypeTableRecord
  2
CENTER2
 70
    0
  3
Center (.5x) ___ _ ___ _ ___ _ ___ _ ___ _ ___
 72
   65
 73
    4
 40
28.575
 49
19.05
 74
    0
 49
-3.175
 74
    0
 49
3.175
 74
    0
 49
-3.175
 74
    0
  0
LTYPE
  5
49
330
5
100
AcDbSymbolTableRecord
100
AcDbLinetypeTableRecord
  2
CENTERX2
 70
    0
  3
Center (2x) ________  __  ________  __  _____
 72
   65
 73
    4
 40
101.6
 49
63.5
 74
    0
 49
-12.7
 74
    0
 49
12.7
 74
    0
 49
-12.7
 74
    0
  0
ENDTAB
  0
TABLE
  2
LAYER
  5
2
330
0
100
AcDbSymbolTable
 70
    1
  0
LAYER
  5
10
330
2
100
AcDbSymbolTableRecord
100
AcDbLayerTableRecord
  2
0
 70
    0
 62
    7
  6
CONTINUOUS
370
    0
390
F
  0
LAYER
  5
4A
330
2
100
AcDbSymbolTableRecord
100
AcDbLayerTableRecord
  2
中心线
 70
    0
 62
    1
  6
CENTERTINY
370
   13
390
F
  0
LAYER
  5
4B
330
2
100
AcDbSymbolTableRecord
100
AcDbLayerTableRecord
  2
剖面线
 70
    0
 62
    7
  6
CONTINUOUS
370
   30
390
F
  0
LAYER
  5
4C
330
2
100
AcDbSymbolTableRecord
100
AcDbLayerTableRecord
  2
标注
 70
    0
 62
   96
420
32768
  6
CONTINUOUS
370
    0
390
F
  0
LAYER
  5
4D
330
2
100
AcDbSymbolTableRecord
100
AcDbLayerTableRecord
  2
标注2
 70
    0
 62
    2
  6
CONTINUOUS
370
    0
390
F
  0
LAYER
  5
4E
330
2
100
AcDbSymbolTableRecord
100
AcDbLayerTableRecord
  2
虚线
 70
    0
 62
    7
  6
DASHEDTINY
370
    0
390
F
  0
ENDTAB
  0
TABLE
  2
STYLE
  5
3
330
0
100
AcDbSymbolTable
 70
    3
  0
STYLE
  5
4F
330
2
100
AcDbSymbolTableRecord
100
AcDbTextStyleTableRecord
  2
wqy-unicode
 70
    0
 40
0
 41
1
 50
0
 71
    0
 42
1
  3
wqy-unicode
  4

  0
STYLE
  5
50
330
2
100
AcDbSymbolTableRecord
100
AcDbTextStyleTableRecord
  2
Standard
 70
    0
 40
0
 41
1
 50
0
 71
    0
 42
1
  3
txt
  4

  0
ENDTAB
  0
TABLE
  2
VIEW
  5
6
330
0
100
AcDbSymbolTable
 70
    0
  0
ENDTAB
  0
TABLE
  2
UCS
  5
7
330
0
100
AcDbSymbolTable
 70
    0
  0
ENDTAB
  0
TABLE
  2
APPID
  5
9
330
0
100
AcDbSymbolTable
 70
    1
  0
APPID
  5
12
330
9
100
AcDbSymbolTableRecord
100
AcDbRegAppTableRecord
  2
ACAD
 70
    0
  0
APPID
  5
51
330
9
100
AcDbSymbolTableRecord
100
AcDbRegAppTableRecord
  2
LibreCad
 70
    0
  0
ENDTAB
  0
TABLE
  2
DIMSTYLE
  5
A
330
0
100
AcDbSymbolTable
 70
    1
100
AcDbDimStyleTable
 71
    1
  0
DIMSTYLE
105
52
330
A
100
AcDbSymbolTableRecord
100
AcDbDimStyleTableRecord
  2
Standard
 70
    0
 40
2.5
 41
2
 42
0.625
 43
0.38
 44
1.25
 45
0
 46
0
 47
0
 48
0
 49
1
140
1
141
0.09
142
0
143
25.4
144
1
145
0
146
1
147
0.5
148
0
 71
    0
 72
    0
 73
    0
 74
    1
 75
    0
 76
    0
 77
    0
 78
    1
 79
    0
170
    0
171
    2
172
    0
173
    0
174
    0
175
    0
176
    0
177
    0
178
    0
179
    1
271
    1
272
    4
273
    2
274
    2
275
    0
276
    0
277
    2
278
    0
279
    0
280
    0
281
    0
282
    0
283
    1
284
    0
285
    0
286
    0
288
    0
289
    3
340
standard
341

371
   -2
372
   -2
  0
ENDTAB
  0
TABLE
  2
BLOCK_RECORD
  5
1
330
0
100
AcDbSymbolTable
 70
    2
  0
BLOCK_RECORD
  5
1F
330
1
100
AcDbSymbolTableRecord
100
AcDbBlockTableRecord
  2
*Model_Space
 70
    0
280
    1
281
    0
  0
BLOCK_RECORD
  5
1E
330
1
100
AcDbSymbolTableRecord
100
AcDbBlockTableRecord
  2
*Paper_Space
 70
    0
280
    1
281
    0
  0
BLOCK_RECORD
  5
53
330
1
100
AcDbSymbolTableRecord
100
AcDbBlockTableRecord
  2
*D9
 70
    0
280
    1
281
    0
  0
BLOCK_RECORD
  5
56
330
1
100
AcDbSymbolTableRecord
100
AcDbBlockTableRecord
  2
*D5
 70
    0
280
    1
281
    0
  0
BLOCK_RECORD
  5
59
330
1
100
AcDbSymbolTableRecord
100
AcDbBlockTableRecord
  2
*D7
 70
    0
280
    1
281
    0
  0
BLOCK_RECORD
  5
5C
330
1
100
AcDbSymbolTableRecord
100
AcDbBlockTableRecord
  2
*D8
 70
    0
280
    1
281
    0
  0
BLOCK_RECORD
  5
5F
330
1
100
AcDbSymbolTableRecord
100
AcDbBlockTableRecord
  2
*D6
 70
    0
280
    1
281
    0
  0
BLOCK_RECORD
  5
62
330
1
100
AcDbSymbolTableRecord
100
AcDbBlockTableRecord
  2
*D3
 70
    0
280
    1
281
    0
  0
BLOCK_RECORD
  5
65
330
1
100
AcDbSymbolTableRecord
100
AcDbBlockTableRecord
  2
*D10
 70
    0
280
    1
281
    0
  0
BLOCK_RECORD
  5
68
330
1
100
AcDbSymbolTableRecord
100
AcDbBlockTableRecord
  2
*D12
 70
    0
280
    1
281
    0
  0
BLOCK_RECORD
  5
6B
330
1
100
AcDbSymbolTableRecord
100
AcDbBlockTableRecord
  2
*D11
 70
    0
280
    1
281
    0
  0
BLOCK_RECORD
  5
6E
330
1
100
AcDbSymbolTableRecord
100
AcDbBlockTableRecord
  2
*D1
 70
    0
280
    1
281
    0
  0
BLOCK_RECORD
  5
71
330
1
100
AcDbSymbolTableRecord
100
AcDbBlockTableRecord
  2
*D4
 70
    0
280
    1
281
    0
  0
BLOCK_RECORD
  5
74
330
1
100
AcDbSymbolTableRecord
100
AcDbBlockTableRecord
  2
*D2
 70
    0
280
    1
281
    0
  0
BLOCK_RECORD
  5
77
330
1
100
AcDbSymbolTableRecord
100
AcDbBlockTableRecord
  2
*D13
 70
    0
280
    1
281
    0
  0
ENDTAB
  0
ENDSEC
  0
SECTION
  2
BLOCKS
  0
BLOCK
  5
20
330
1F
100
AcDbEntity
  8
0
100
AcDbBlockBegin
  2
*Model_Space
 70
    0
 10
0
 20
0
 30
0
  3
*Model_Space
  1

  0
ENDBLK
  5
21
330
1F
100
AcDbEntity
  8
0
100
AcDbBlockEnd
  0
BLOCK
  5
1C
330
1B
100
AcDbEntity
  8
0
100
AcDbBlockBegin
  2
*Paper_Space
 70
    0
 10
0
 20
0
 30
0
  3
*Paper_Space
  1

  0
ENDBLK
  5
1D
330
1F
100
AcDbEntity
  8
0
100
AcDbBlockEnd
  0
BLOCK
  5
54
330
53
100
AcDbEntity
  8
0
100
AcDbBlockBegin
  2
*D9
 70
    1
 10
0
 20
0
  3
*D9
  1

  0
LINE
  5
7A
100
AcDbEntity
  8
标注
  6
ByBlock
 62
    0
370
   -2
100
AcDbLine
 10
336.7408523495988
 20
305.5061148674163
 11
363.2591476504014
 21
314.4938851325837
  0
SOLID
  5
7B
100
AcDbEntity
  8
标注
  6
ByBlock
 62
    0
370
   -2
100
AcDbTrace
 10
346.2116720998854
 20
308.7160328192618
 30
0
 11
341.7435101439547
 21
306.3225624516238
 31
0
 12
341.2090143055295
 22
307.8995852350543
 32
0
 13
341.2090143055295
 23
307.8995852350543
 33
0
  0
SOLID
  5
7C
100
AcDbEntity
  8
标注
  6
ByBlock
 62
    0
370
   -2
100
AcDbTrace
 10
353.7883279001148
 20
311.2839671807382
 30
0
 11
358.2564898560455
 21
313.6774375483762
 31
0
 12
358.7909856944707
 22
312.1004147649457
 32
0
 13
358.7909856944707
 23
312.1004147649457
 33
0
  0
MTEXT
  5
7D
100
AcDbEntity
  8
标注
  6
CONTINUOUS
 62
    0
370
   -2
100
AcDbMText
 10
359.9574240616699
 20
316.0145283884185
 30
0
 40
2.5
 41
12.22222222222222
 71
    5
 72
    1
  1
%%C8%%P0.02
  7
standard
210
0
220
0
230
1
 50
18.72291505384623
 73
    2
 44
1
  0
ENDBLK
  5
55
330
53
100
AcDbEntity
  8
0
100
AcDbBlockEnd
  0
BLOCK
  5
57
330
56
100
AcDbEntity
  8
0
100
AcDbBlockBegin
  2
*D5
 70
    1
 10
0
 20
0
  3
*D5
  1

  0
LINE
  5
7E
100
AcDbEntity
  8
标注
  6
ByBlock
 62
    0
370
   -2
100
AcDbLine
 10
43.03828787304573
 20
378.5201065923814
 11
43.03828787304573
 21
417.6308539481262
  0
SOLID
  5
7F
100
AcDbEntity
  8
标注
  6
ByBlock
 62
    0
370
   -2
100
AcDbTrace
 10
43.03828787304573
 20
378.5201065923814
 30
0
 11
42.20571855750005
 21
383.5201065923814
 31
0
 12
43.87085718859142
 22
383.5201065923814
 32
0
 13
43.87085718859142
 23
383.5201065923814
 33
0
  0
SOLID
  5
80
100
AcDbEntity
  8
标注
  6
ByBlock
 62
    0
370
   -2
100
AcDbTrace
 10
43.03828787304573
 20
417.6308539481262
 30
0
 11
43.87085718859142
 21
412.6308539481262
 31
0
 12
42.20571855750005
 22
412.6308539481262
 32
0
 13
42.20571855750005
 23
412.6308539481262
 33
0
  0
MTEXT
  5
81
100
AcDbEntity
  8
标注
  6
CONTINUOUS
 62
    0
370
   -2
100
AcDbMText
 10
40.53828787304573
 20
398.0754802702538
 30
0
 40
2.5
 41
3.333333333333333
 71
    5
 72
    1
  1
24
  7
standard
210
0
220
0
230
1
 50
90
 73
    2
 44
1
  0
LINE
  5
82
100
AcDbEntity
  8
标注
  6
ByBlock
 62
    0
370
   -2
100
AcDbLine
 10
58.22749308406877
 20
378.5201065923814
 11
39.91328787304573
 21
378.5201065923814
  0
LINE
  5
83
100
AcDbEntity
  8
标注
  6
ByBlock
 62
    0
370
   -2
100
AcDbLine
 10
74.4374999999992
 20
417.6308539481262
 11
39.91328787304573
 21
417.6308539481262
  0
ENDBLK
  5
58
330
56
100
AcDbEntity
  8
0
100
AcDbBlockEnd
  0
BLOCK
  5
5A
330
59
100
AcDbEntity
  8
0
100
AcDbBlockBegin
  2
*D7
 70
    1
 10
0
 20
0
  3
*D7
  1

  0
SOLID
  5
84
100
AcDbEntity
  8
标注
  6
ByBlock
 62
    0
370
   -2
100
AcDbTrace
 10
82.08366434027744
 20
294.0311266356028
 30
0
 11
85.26226785409331
 21
297.9794998914064
 31
0
 12
86.37020068467929
 22
296.7364506149646
 32
0
 13
86.37020068467929
 23
296.7364506149646
 33
0
  0
LINE
  5
85
100
AcDbEntity
  8
标注
  6
ByBlock
 62
    0
370
   -2
100
AcDbLine
 10
100
 20
310
 11
82.08366434027744
 21
294.0311266356028
  0
MTEXT
  5
86
100
AcDbEntity
  8
标注
  6
CONTINUOUS
 62
    0
370
   -2
100
AcDbMText
 10
89.37840786134734
 20
303.8818482823559
 30
0
 40
2.5
 41
6.111111111111112
 71
    5
 72
    1
  1
24.0
  7
standard
210
0
220
0
230
1
 50
41.71069582557808
 73
    2
 44
1
  0
ENDBLK
  5
5B
330
59
100
AcDbEntity
  8
0
100
AcDbBlockEnd
  0
BLOCK
  5
5D
330
5C
100
AcDbEntity
  8
0
100
AcDbBlockBegin
  2
*D8
 70
    1
 10
0
 20
0
  3
*D8
  1

  0
LINE
  5
87
100
AcDbEntity
  8
标注
  6
ByBlock
 62
    0
370
   -2
100
AcDbLine
 10
94.26689228360972
 20
315.5795587560547
 11
105.7331077163903
 21
304.4204412439453
  0
SOLID
  5
88
100
AcDbEntity
  8
标注
  6
ByBlock
 62
    0
370
   -2
100
AcDbTrace
 10
94.26689228360972
 20
315.5795587560547
 30
0
 11
98.43075578317554
 21
312.6889857294436
 31
0
 12
97.26941342953171
 22
311.4956833375975
 32
0
 13
97.26941342953171
 23
311.4956833375975
 33
0
  0
SOLID
  5
89
100
AcDbEntity
  8
标注
  6
ByBlock
 62
    0
370
   -2
100
AcDbTrace
 10
105.7331077163903
 20
304.4204412439453
 30
0
 11
101.5692442168245
 21
307.3110142705564
 31
0
 12
102.7305865704683
 22
308.5043166624026
 32
0
 13
102.7305865704683
 23
308.5043166624026
 33
0
  0
MTEXT
  5
8A
100
AcDbEntity
  8
标注
  6
CONTINUOUS
 62
    0
370
   -2
100
AcDbMText
 10
101.7436121112671
 20
311.791596161372
 30
0
 40
2.5
 41
13.05555555555571
 71
    5
 72
    1
  1
       %%C16%%P0.01
  7
standard
210
0
220
0
230
1
 50
315.7776386924779
 73
    2
 44
1
  0
ENDBLK
  5
5E
330
5C
100
AcDbEntity
  8
0
100
AcDbBlockEnd
  0
BLOCK
  5
60
330
5F
100
AcDbEntity
  8
0
100
AcDbBlockBegin
  2
*D6
 70
    1
 10
0
 20
0
  3
*D6
  1

  0
LINE
  5
8B
100
AcDbEntity
  8
标注
  6
ByBlock
 62
    0
370
   -2
100
AcDbLine
 10
87.51960814586931
 20
314.6821746314302
 11
112.4803918541228
 21
314.6821746314302
  0
SOLID
  5
8C
100
AcDbEntity
  8
标注
  6
ByBlock
 62
    0
370
   -2
100
AcDbTrace
 10
97.51960814586931
 20
314.6821746314302
 30
0
 11
92.51960814586931
 21
313.8496053158845
 31
0
 12
92.51960814586931
 22
315.5147439469759
 32
0
 13
92.51960814586931
 23
315.5147439469759
 33
0
  0
SOLID
  5
8D
100
AcDbEntity
  8
标注
  6
ByBlock
 62
    0
370
   -2
100
AcDbTrace
 10
102.4803918541228
 20
314.6821746314302
 30
0
 11
107.4803918541228
 21
315.5147439469759
 31
0
 12
107.4803918541228
 22
313.8496053158845
 32
0
 13
107.4803918541228
 23
313.8496053158845
 33
0
  0
MTEXT
  5
8E
100
AcDbEntity
  8
标注
  6
CONTINUOUS
 62
    0
370
   -2
100
AcDbMText
 10
108.3137251874562
 20
317.1821746314302
 30
0
 40
2.5
 41
9.166666666666821
 71
    5
 72
    1
  1
  5%%P0.01
  7
standard
210
0
220
0
230
1
 50
0
 73
    2
 44
1
  0
LINE
  5
8F
100
AcDbEntity
  8
标注
  6
ByBlock
 62
    0
370
   -2
100
AcDbLine
 10
97.51960814586931
 20
316.043264672274
 11
97.51960814586931
 21
311.5571746314302
  0
LINE
  5
90
100
AcDbEntity
  8
标注
  6
ByBlock
 62
    0
370
   -2
100
AcDbLine
 10
102.4803918541228
 20
316.0432646722729
 11
102.4803918541228
 21
311.5571746314302
  0
ENDBLK
  5
61
330
5F
100
AcDbEntity
  8
0
100
AcDbBlockEnd
  0
BLOCK
  5
63
330
62
100
AcDbEntity
  8
0
100
AcDbBlockBegin
  2
*D3
 70
    1
 10
0
 20
0
  3
*D3
  1

  0
LINE
  5
91
100
AcDbEntity
  8
标注
  6
ByBlock
 62
    0
370
   -2
100
AcDbLine
 10
89.38544842829428
 20
391.5025497703964
 11
110.6145515717058
 21
404.7057758809497
  0
SOLID
  5
92
100
AcDbEntity
  8
标注
  6
ByBlock
 62
    0
370
   -2
100
AcDbTrace
 10
97.87708968565889
 20
396.7838402146177
 30
0
 11
94.07097309401091
 21
393.4362069975567
 31
0
 12
93.19156501994226
 22
394.8501829874574
 32
0
 13
93.19156501994226
 23
394.8501829874574
 33
0
  0
SOLID
  5
93
100
AcDbEntity
  8
标注
  6
ByBlock
 62
    0
370
   -2
100
AcDbTrace
 10
102.1229103143412
 20
399.4244854367284
 30
0
 11
105.9290269059892
 21
402.7721186537894
 31
0
 12
106.8084349800578
 22
401.3581426638887
 32
0
 13
106.8084349800578
 23
401.3581426638887
 33
0
  0
MTEXT
  5
94
100
AcDbEntity
  8
标注
  6
CONTINUOUS
 62
    0
370
   -2
100
AcDbMText
 10
98.67967738894467
 20
400.2270731400142
 30
0
 40
2.5
 41
3.611111111111265
 71
    5
 72
    1
  1
       M5
  7
standard
210
0
220
0
230
1
 50
31.87912884409923
 73
    2
 44
1
  0
ENDBLK
  5
64
330
62
100
AcDbEntity
  8
0
100
AcDbBlockEnd
  0
BLOCK
  5
66
330
65
100
AcDbEntity
  8
0
100
AcDbBlockBegin
  2
*D10
 70
    1
 10
0
 20
0
  3
*D10
  1

  0
LINE
  5
95
100
AcDbEntity
  8
标注
  6
ByBlock
 62
    0
370
   -2
100
AcDbLine
 10
205
 20
250
 11
349.6838709677419
 21
250
  0
SOLID
  5
96
100
AcDbEntity
  8
标注
  6
ByBlock
 62
    0
370
   -2
100
AcDbTrace
 10
205
 20
250
 30
0
 11
210
 21
250.8325693155457
 31
0
 12
210
 22
249.1674306844543
 32
0
 13
210
 23
249.1674306844543
 33
0
  0
SOLID
  5
97
100
AcDbEntity
  8
标注
  6
ByBlock
 62
    0
370
   -2
100
AcDbTrace
 10
349.6838709677419
 20
250
 30
0
 11
344.6838709677419
 21
249.1674306844543
 31
0
 12
344.6838709677419
 22
250.8325693155457
 32
0
 13
344.6838709677419
 23
250.8325693155457
 33
0
  0
MTEXT
  5
98
100
AcDbEntity
  8
标注
  6
CONTINUOUS
 62
    0
370
   -2
100
AcDbMText
 10
277.3419354838709
 20
252.5
 30
0
 40
2.5
 41
4.444444444444599
 71
    5
 72
    1
  1
150
  7
standard
210
0
220
0
230
1
 50
0
 73
    2
 44
1
  0
LINE
  5
99
100
AcDbEntity
  8
标注
  6
ByBlock
 62
    0
370
   -2
100
AcDbLine
 10
205
 20
278.4375
 11
205
 21
246.875
  0
LINE
  5
9A
100
AcDbEntity
  8
标注
  6
ByBlock
 62
    0
370
   -2
100
AcDbLine
 10
349.6838709677419
 20
286.6040388357737
 11
349.6838709677419
 21
246.875
  0
ENDBLK
  5
67
330
65
100
AcDbEntity
  8
0
100
AcDbBlockEnd
  0
BLOCK
  5
69
330
68
100
AcDbEntity
  8
0
100
AcDbBlockBegin
  2
*D12
 70
    1
 10
0
 20
0
  3
*D12
  1

  0
LINE
  5
9B
100
AcDbEntity
  8
标注
  6
ByBlock
 62
    0
370
   -2
100
AcDbLine
 10
60
 20
230
 11
364.0000000000056
 21
230
  0
SOLID
  5
9C
100
AcDbEntity
  8
标注
  6
ByBlock
 62
    0
370
   -2
100
AcDbTrace
 10
60
 20
230
 30
0
 11
65
 21
230.8325693155457
 31
0
 12
65
 22
229.1674306844543
 32
0
 13
65
 23
229.1674306844543
 33
0
  0
SOLID
  5
9D
100
AcDbEntity
  8
标注
  6
ByBlock
 62
    0
370
   -2
100
AcDbTrace
 10
364.0000000000056
 20
230
 30
0
 11
359.0000000000056
 21
229.1674306844543
 31
0
 12
359.0000000000056
 22
230.8325693155457
 32
0
 13
359.0000000000056
 23
230.8325693155457
 33
0
  0
MTEXT
  5
9E
100
AcDbEntity
  8
标注
  6
CONTINUOUS
 62
    0
370
   -2
100
AcDbMText
 10
212.0000000000028
 20
232.5
 30
0
 40
2.5
 41
8.05555555555571
 71
    5
 72
    1
  1
304.0
  7
standard
210
0
220
0
230
1
 50
0
 73
    2
 44
1
  0
LINE
  5
9F
100
AcDbEntity
  8
标注
  6
ByBlock
 62
    0
370
   -2
100
AcDbLine
 10
60
 20
268.4375
 11
60
 21
226.875
  0
LINE
  5
A0
100
AcDbEntity
  8
标注
  6
ByBlock
 62
    0
370
   -2
100
AcDbLine
 10
364.0000000000056
 20
268.4375000000006
 11
364.0000000000056
 21
226.875
  0
ENDBLK
  5
6A
330
68
100
AcDbEntity
  8
0
100
AcDbBlockEnd
  0
BLOCK
  5
6C
330
6B
100
AcDbEntity
  8
0
100
AcDbBlockBegin
  2
*D11
 70
    1
 10
0
 20
0
  3
*D11
  1

  0
LINE
  5
A1
100
AcDbEntity
  8
标注
  6
ByBlock
 62
    0
370
   -2
100
AcDbLine
 10
100
 20
240
 11
59.78999308406877
 21
240
  0
SOLID
  5
A2
100
AcDbEntity
  8
标注
  6
ByBlock
 62
    0
370
   -2
100
AcDbTrace
 10
100
 20
240
 30
0
 11
95
 21
239.1674306844543
 31
0
 12
95
 22
240.8325693155457
 32
0
 13
95
 23
240.8325693155457
 33
0
  0
SOLID
  5
A3
100
AcDbEntity
  8
标注
  6
ByBlock
 62
    0
370
   -2
100
AcDbTrace
 10
59.78999308406877
 20
240
 30
0
 11
64.78999308406877
 21
240.8325693155457
 31
0
 12
64.78999308406877
 22
239.1674306844543
 32
0
 13
64.78999308406877
 23
239.1674306844543
 33
0
  0
MTEXT
  5
A4
100
AcDbEntity
  8
标注
  6
CONTINUOUS
 62
    0
370
   -2
100
AcDbMText
 10
79.89499654203439
 20
242.5
 30
0
 40
2.5
 41
3.333333333333333
 71
    5
 72
    1
  1
40
  7
standard
210
0
220
0
230
1
 50
360
 73
    2
 44
1
  0
LINE
  5
A5
100
AcDbEntity
  8
标注
  6
ByBlock
 62
    0
370
   -2
100
AcDbLine
 10
100
 20
248.4375
 11
100
 21
236.875
  0
LINE
  5
A6
100
AcDbEntity
  8
标注
  6
ByBlock
 62
    0
370
   -2
100
AcDbLine
 10
59.78999308406877
 20
268.4375000000006
 11
59.78999308406877
 21
236.875
  0
ENDBLK
  5
6D
330
6B
100
AcDbEntity
  8
0
100
AcDbBlockEnd
  0
BLOCK
  5
6F
330
6E
100
AcDbEntity
  8
0
100
AcDbBlockBegin
  2
*D1
 70
    1
 10
0
 20
0
  3
*D1
  1

  0
LINE
  5
A7
100
AcDbEntity
  8
标注
  6
ByBlock
 62
    0
370
   -2
100
AcDbLine
 10
49.89991904008748
 20
349.9999999999993
 11
49.89991904008747
 21
270.0000000000006
  0
SOLID
  5
A8
100
AcDbEntity
  8
标注
  6
ByBlock
 62
    0
370
   -2
100
AcDbTrace
 10
49.89991904008748
 20
349.9999999999993
 30
0
 11
50.73248835563316
 21
344.9999999999993
 31
0
 12
49.06734972454179
 22
344.9999999999993
 32
0
 13
49.06734972454179
 23
344.9999999999993
 33
0
  0
SOLID
  5
A9
100
AcDbEntity
  8
标注
  6
ByBlock
 62
    0
370
   -2
100
AcDbTrace
 10
49.89991904008747
 20
270.0000000000006
 30
0
 11
49.06734972454178
 21
275.0000000000006
 31
0
 12
50.73248835563315
 22
275.0000000000006
 32
0
 13
50.73248835563315
 23
275.0000000000006
 33
0
  0
MTEXT
  5
AA
100
AcDbEntity
  8
标注
  6
CONTINUOUS
 62
    0
370
   -2
100
AcDbMText
 10
47.39991904008747
 20
309.9999999999999
 30
0
 40
2.5
 41
5.833333333333334
 71
    5
 72
    1
  1
80.0
  7
standard
210
0
220
0
230
1
 50
90
 73
    2
 44
1
  0
LINE
  5
AB
100
AcDbEntity
  8
标注
  6
ByBlock
 62
    0
370
   -2
100
AcDbLine
 10
58.22749308406877
 20
349.9999999999993
 11
46.77491904008748
 21
349.9999999999993
  0
LINE
  5
AC
100
AcDbEntity
  8
标注
  6
ByBlock
 62
    0
370
   -2
100
AcDbLine
 10
58.22749308406877
 20
270.0000000000006
 11
46.77491904008747
 21
270.0000000000006
  0
ENDBLK
  5
70
330
6E
100
AcDbEntity
  8
0
100
AcDbBlockEnd
  0
BLOCK
  5
72
330
71
100
AcDbEntity
  8
0
100
AcDbBlockBegin
  2
*D4
 70
    1
 10
0
 20
0
  3
*D4
  1

  0
LINE
  5
AD
100
AcDbEntity
  8
标注
  6
ByBlock
 62
    0
370
   -2
100
AcDbLine
 10
87.05782159169121
 20
378.5201065923814
 11
87.05782159169121
 21
398.1041628256731
  0
SOLID
  5
AE
100
AcDbEntity
  8
标注
  6
ByBlock
 62
    0
370
   -2
100
AcDbTrace
 10
87.05782159169121
 20
378.5201065923814
 30
0
 11
86.22525227614553
 21
383.5201065923814
 31
0
 12
87.89039090723689
 22
383.5201065923814
 32
0
 13
87.89039090723689
 23
383.5201065923814
 33
0
  0
SOLID
  5
AF
100
AcDbEntity
  8
标注
  6
ByBlock
 62
    0
370
   -2
100
AcDbTrace
 10
87.05782159169121
 20
398.1041628256731
 30
0
 11
87.89039090723689
 21
393.1041628256731
 31
0
 12
86.22525227614553
 22
393.1041628256731
 32
0
 13
86.22525227614553
 23
393.1041628256731
 33
0
  0
MTEXT
  5
B0
100
AcDbEntity
  8
标注
  6
CONTINUOUS
 62
    0
370
   -2
100
AcDbMText
 10
84.55782159169121
 20
388.3121347090272
 30
0
 40
2.5
 41
2.5
 71
    5
 72
    1
  1
12
  7
standard
210
0
220
0
230
1
 50
90
 73
    2
 44
1
  0
LINE
  5
B1
100
AcDbEntity
  8
标注
  6
ByBlock
 62
    0
370
   -2
100
AcDbLine
 10
90.83173532772521
 20
378.5201065923814
 11
83.93282159169121
 21
378.5201065923814
  0
LINE
  5
B2
100
AcDbEntity
  8
标注
  6
ByBlock
 62
    0
370
   -2
100
AcDbLine
 10
90.83173532772521
 20
398.1041628256731
 11
83.93282159169121
 21
398.1041628256731
  0
ENDBLK
  5
73
330
71
100
AcDbEntity
  8
0
100
AcDbBlockEnd
  0
BLOCK
  5
75
330
74
100
AcDbEntity
  8
0
100
AcDbBlockBegin
  2
*D2
 70
    1
 10
0
 20
0
  3
*D2
  1

  0
LINE
  5
B3
100
AcDbEntity
  8
标注
  6
ByBlock
 62
    0
370
   -2
100
AcDbLine
 10
50.03200965241567
 20
398.8597294565438
 11
50.03200965241567
 21
368.5201065923814
  0
SOLID
  5
B4
100
AcDbEntity
  8
标注
  6
ByBlock
 62
    0
370
   -2
100
AcDbTrace
 10
50.03200965241567
 20
388.8597294565438
 30
0
 11
49.19944033686998
 21
393.8597294565438
 31
0
 12
50.86457896796135
 22
393.8597294565438
 32
0
 13
50.86457896796135
 23
393.8597294565438
 33
0
  0
SOLID
  5
B5
100
AcDbEntity
  8
标注
  6
ByBlock
 62
    0
370
   -2
100
AcDbTrace
 10
50.03200965241567
 20
378.5201065923814
 30
0
 11
50.86457896796135
 21
373.5201065923814
 31
0
 12
49.19944033686998
 22
373.5201065923814
 32
0
 13
49.19944033686998
 23
373.5201065923814
 33
0
  0
MTEXT
  5
B6
100
AcDbEntity
  8
标注
  6
CONTINUOUS
 62
    0
370
   -2
100
AcDbMText
 10
47.53200965241567
 20
383.6899180244626
 30
0
 40
2.5
 41
1.111111111111111
 71
    5
 72
    1
  1
8
  7
standard
210
0
220
0
230
1
 50
90
 73
    2
 44
1
  0
LINE
  5
B7
100
AcDbEntity
  8
标注
  6
ByBlock
 62
    0
370
   -2
100
AcDbLine
 10
58.22749308406877
 20
388.8597294565438
 11
46.90700965241567
 21
388.8597294565438
  0
LINE
  5
B8
100
AcDbEntity
  8
标注
  6
ByBlock
 62
    0
370
   -2
100
AcDbLine
 10
58.22749308406877
 20
378.5201065923814
 11
46.90700965241567
 21
378.5201065923814
  0
ENDBLK
  5
76
330
74
100
AcDbEntity
  8
0
100
AcDbBlockEnd
  0
BLOCK
  5
78
330
77
100
AcDbEntity
  8
0
100
AcDbBlockBegin
  2
*D13
 70
    1
 10
0
 20
0
  3
*D13
  1

  0
LINE
  5
B9
100
AcDbEntity
  8
标注
  6
ByBlock
 62
    0
370
   -2
100
AcDbLine
 10
99.99999999999997
 20
240
 11
349.6838709677419
 21
240
  0
SOLID
  5
BA
100
AcDbEntity
  8
标注
  6
ByBlock
 62
    0
370
   -2
100
AcDbTrace
 10
99.99999999999997
 20
240
 30
0
 11
105
 21
240.8325693155457
 31
0
 12
105
 22
239.1674306844543
 32
0
 13
105
 23
239.1674306844543
 33
0
  0
SOLID
  5
BB
100
AcDbEntity
  8
标注
  6
ByBlock
 62
    0
370
   -2
100
AcDbTrace
 10
349.6838709677419
 20
240
 30
0
 11
344.6838709677419
 21
239.1674306844543
 31
0
 12
344.6838709677419
 22
240.8325693155457
 32
0
 13
344.6838709677419
 23
240.8325693155457
 33
0
  0
MTEXT
  5
BC
100
AcDbEntity
  8
标注
  6
CONTINUOUS
 62
    0
370
   -2
100
AcDbMText
 10
224.8419354838709
 20
242.5
 30
0
 40
2.5
 41
11.11111111111127
 71
    5
 72
    1
  1
250%%P0.1
  7
standard
210
0
220
0
230
1
 50
0
 73
    2
 44
1
  0
LINE
  5
BD
100
AcDbEntity
  8
标注
  6
ByBlock
 62
    0
370
   -2
100
AcDbLine
 10
100
 20
248.4375
 11
99.99999999999996
 21
236.875
  0
LINE
  5
BE
100
AcDbEntity
  8
标注
  6
ByBlock
 62
    0
370
   -2
100
AcDbLine
 10
349.6838709677419
 20
286.6040388357737
 11
349.6838709677419
 21
236.875
  0
ENDBLK
  5
79
330
77
100
AcDbEntity
  8
0
100
AcDbBlockEnd
  0
ENDSEC
  0
SECTION
  2
ENTITIES
  0
MTEXT
  5
BF
100
AcDbEntity
  8
0
  6
ByLayer
 62
  256
370
   -1
100
AcDbMText
 10
352.9087188385972
 20
68.94255026491722
 30
0
 40
3
 41
43.25
 71
    1
 72
    1
  1
6061铝， 厚8mm, 1件
  7
wqy-unicode
210
0
220
0
230
1
 50
0
 73
    2
 44
1
  0
LINE
  5
C0
100
AcDbEntity
  8
中心线
  6
ByLayer
 62
  256
370
   -1
100
AcDbLine
 10
-180
 20
310
 11
610
 21
310
  0
CIRCLE
  5
C1
100
AcDbEntity
  8
0
  6
ByLayer
 62
  256
370
   -1
100
AcDbCircle
 10
205
 20
310
 40
15
  0
CIRCLE
  5
C2
100
AcDbEntity
  8
中心线
  6
ByLayer
 62
  256
370
   -1
100
AcDbCircle
 10
205.0050226957052
 20
310
 40
22.5
  0
LINE
  5
C3
100
AcDbEntity
  8
中心线
  6
ByLayer
 62
  256
370
   -1
100
AcDbLine
 10
227.0722513753362
 20
287.9401579786168
 11
182.9277486246638
 21
332.0698840502567
  0
LINE
  5
C4
100
AcDbEntity
  8
中心线
  6
ByLayer
 62
  256
370
   -1
100
AcDbLine
 10
227.0722513463554
 20
332.0698840792472
 11
183.7832460224193
 21
288.7953687152342
  0
CIRCLE
  5
C5
100
AcDbEntity
  8
0
  6
ByLayer
 62
  256
370
   -1
100
AcDbCircle
 10
220.9125664796271
 20
325.9122610198112
 40
3
  0
CIRCLE
  5
C6
100
AcDbEntity
  8
0
  6
ByLayer
 62
  256
370
   -1
100
AcDbCircle
 10
220.9175882902135
 20
294.092760886927
 40
3
  0
CIRCLE
  5
C7
100
AcDbEntity
  8
0
  6
ByLayer
 62
  256
370
   -1
100
AcDbCircle
 10
189.087437006366
 20
294.0977842480195
 40
3
  0
CIRCLE
  5
C8
100
AcDbEntity
  8
0
  6
ByLayer
 62
  256
370
   -1
100
AcDbCircle
 10
189.0924571011969
 20
325.9072391130729
 40
3
  0
LINE
  5
C9
100
AcDbEntity
  8
中心线
  6
ByLayer
 62
  256
370
   -1
100
AcDbLine
 10
205
 20
280
 11
205
 21
373.5541014724996
  0
LINE
  5
CA
100
AcDbEntity
  8
0
  6
ByLayer
 62
  256
370
   -1
100
AcDbLine
 10
59.78999308406877
 20
349.9999999999993
 11
59.78999308406877
 21
270.0000000000006
  0
DIMENSION
  5
CB
100
AcDbEntity
  8
标注
  6
ByLayer
 62
  256
370
   -1
100
AcDbDimension
  2
*D1
 10
49.89991904008747
 20
270.0000000000006
 30
0
 11
47.39991904008747
 21
309.9999999999999
 31
0
 70
   32
 71
    5
  3
Standard
 53
0
210
0
220
0
230
1
100
AcDbAlignedDimension
 13
59.78999308406877
 23
349.9999999999993
 33
0
 14
59.78999308406877
 24
270.0000000000006
 34
0
 50
90
100
AcDbRotatedDimension
  0
CIRCLE
  5
CC
100
AcDbEntity
  8
0
  6
ByLayer
 62
  256
370
   -1
100
AcDbCircle
 10
100
 20
310
 40
24
  0
LINE
  5
CD
100
AcDbEntity
  8
0
  6
ByLayer
 62
  256
370
   -1
100
AcDbLine
 10
75.9999999999992
 20
417.6308539481262
 11
124.0000000000009
 21
417.6308539481262
  0
LINE
  5
CE
100
AcDbEntity
  8
0
  6
ByLayer
 62
  256
370
   -1
100
AcDbLine
 10
59.78999308406876
 20
378.5201065923814
 11
59.78999308406876
 21
388.8597294565438
  0
LINE
  5
CF
100
AcDbEntity
  8
0
  6
ByLayer
 62
  256
370
   -1
100
AcDbLine
 10
124.0000000000009
 20
388.8597294565438
 11
124.0000000000009
 21
417.6308539481262
  0
LINE
  5
D0
100
AcDbEntity
  8
0
  6
ByLayer
 62
  256
370
   -1
100
AcDbLine
 10
75.9999999999992
 20
388.8597294565438
 11
75.9999999999992
 21
417.6308539481262
  0
LINE
  5
D1
100
AcDbEntity
  8
虚线
  6
ByLayer
 62
  256
370
   -1
100
AcDbLine
 10
108.0000000000026
 20
378.5201065923814
 11
108.0000000000026
 21
417.6308539481262
  0
LINE
  5
D2
100
AcDbEntity
  8
虚线
  6
ByLayer
 62
  256
370
   -1
100
AcDbLine
 10
92.39423532772521
 20
378.5201065923814
 11
92.39423532772523
 21
417.6308539481262
  0
LINE
  5
D3
100
AcDbEntity
  8
中心线
  6
ByLayer
 62
  256
370
   -1
100
AcDbLine
 10
59.17764582543789
 20
398.1041628256731
 11
101.408965800864
 21
398.1041628256731
  0
LINE
  5
D4
100
AcDbEntity
  8
中心线
  6
ByLayer
 62
  256
370
   -1
100
AcDbLine
 10
100
 20
470
 11
100
 21
10
  0
DIMENSION
  5
D5
100
AcDbEntity
  8
标注
  6
ByLayer
 62
  256
370
   -1
100
AcDbDimension
  2
*D2
 10
50.03200965241567
 20
378.5201065923814
 30
0
 11
47.53200965241567
 21
383.6899180244626
 31
0
 70
   32
  1
8
 71
    5
  3
Standard
 53
0
210
0
220
0
230
1
100
AcDbAlignedDimension
 13
59.78999308406877
 23
388.8597294565438
 33
0
 14
59.78999308406877
 24
378.5201065923814
 34
0
 50
90
100
AcDbRotatedDimension
  0
CIRCLE
  5
D6
100
AcDbEntity
  8
虚线
  6
ByLayer
 62
  256
370
   -1
100
AcDbCircle
 10
100
 20
398.1041628256731
 40
2.5
  0
LINE
  5
D7
100
AcDbEntity
  8
0
  6
ByLayer
 62
  256
370
   -1
100
AcDbLine
 10
102.4803918541228
 20
317.6057646722748
 11
102.4803918541228
 21
319.6875000000001
  0
LINE
  5
D8
100
AcDbEntity
  8
0
  6
ByLayer
 62
  256
370
   -1
100
AcDbLine
 10
102.4803918541228
 20
319.6875000000001
 11
97.51960814587723
 21
319.6874999999996
  0
LINE
  5
D9
100
AcDbEntity
  8
0
  6
ByLayer
 62
  256
370
   -1
100
AcDbLine
 10
97.51960814587723
 20
319.6874999999996
 11
97.51960814587723
 21
317.6057646722728
  0
LINE
  5
DA
100
AcDbEntity
  8
0
  6
ByLayer
 62
  256
370
   -1
100
AcDbLine
 10
97.51960814586933
 20
317.6057646722728
 11
97.51960814587723
 21
319.6874999999996
  0
ARC
  5
DB
100
AcDbEntity
  8
0
  6
ByLayer
 62
  256
370
   -1
100
AcDbCircle
 10
100
 20
310
 40
8
100
AcDbArc
 50
108.0621823832237
 51
71.93781761679301
  0
LINE
  5
DC
100
AcDbEntity
  8
虚线
  6
ByLayer
 62
  256
370
   -1
100
AcDbLine
 10
102.4803918541228
 20
319.6875000000001
 11
102.4803918541228
 21
334.0000000000008
  0
LINE
  5
DD
100
AcDbEntity
  8
虚线
  6
ByLayer
 62
  256
370
   -1
100
AcDbLine
 10
97.51960814587723
 20
319.6874999999996
 11
97.51960814587723
 21
334.0000000000008
  0
LINE
  5
DE
100
AcDbEntity
  8
虚线
  6
ByLayer
 62
  256
370
   -1
100
AcDbLine
 10
97.51960814587723
 20
378.5201065923814
 11
97.51960814587723
 21
417.6308539481262
  0
LINE
  5
DF
100
AcDbEntity
  8
虚线
  6
ByLayer
 62
  256
370
   -1
100
AcDbLine
 10
102.4803918541228
 20
378.5201065923814
 11
102.4803918541228
 21
417.6308539481262
  0
DIMENSION
  5
E0
100
AcDbEntity
  8
标注
  6
ByLayer
 62
  256
370
   -1
100
AcDbDimension
  2
*D3
 10
97.87708968565889
 20
396.7838402146177
 30
0
 11
98.67967738894467
 21
400.2270731400142
 31
0
 70
   35
  1
       M5
 71
    5
  3
Standard
 53
0
210
0
220
0
230
1
100
AcDbDiametricDimension
 15
102.1229103143412
 25
399.4244854367284
 35
0
 40
0
  0
DIMENSION
  5
E1
100
AcDbEntity
  8
标注
  6
ByLayer
 62
  256
370
   -1
100
AcDbDimension
  2
*D4
 10
87.05782159169121
 20
398.1041628256731
 30
0
 11
84.55782159169121
 21
388.3121347090272
 31
0
 70
   32
  1
12
 71
    5
  3
Standard
 53
0
210
0
220
0
230
1
100
AcDbAlignedDimension
 13
92.39423532772521
 23
378.5201065923814
 33
0
 14
92.39423532772521
 24
398.1041628256731
 34
0
 50
90
100
AcDbRotatedDimension
  0
DIMENSION
  5
E2
100
AcDbEntity
  8
标注
  6
ByLayer
 62
  256
370
   -1
100
AcDbDimension
  2
*D5
 10
43.03828787304573
 20
417.6308539481262
 30
0
 11
40.53828787304573
 21
398.0754802702538
 31
0
 70
   32
  1
24
 71
    5
  3
Standard
 53
0
210
0
220
0
230
1
100
AcDbAlignedDimension
 13
59.78999308406877
 23
378.5201065923814
 33
0
 14
75.9999999999992
 24
417.6308539481262
 34
0
 50
90
100
AcDbRotatedDimension
  0
DIMENSION
  5
E3
100
AcDbEntity
  8
标注
  6
ByLayer
 62
  256
370
   -1
100
AcDbDimension
  2
*D6
 10
102.4803918541228
 20
314.6821746314302
 30
0
 11
99.99999999999605
 21
317.1821746314302
 31
0
 70
   32
  1
  5%%P0.01
 71
    5
  3
Standard
 53
0
210
0
220
0
230
1
100
AcDbAlignedDimension
 13
97.51960814586931
 23
317.605764672274
 33
0
 14
102.4803918541228
 24
317.6057646722729
 34
0
100
AcDbRotatedDimension
  0
DIMENSION
  5
E4
100
AcDbEntity
  8
标注
  6
ByLayer
 62
  256
370
   -1
100
AcDbDimension
  2
*D7
 10
100
 20
310
 30
0
 11
89.37840786134734
 21
303.8818482823559
 31
0
 70
   36
 71
    5
  3
Standard
 53
0
210
0
220
0
230
1
100
AcDbRadialDimension
 15
82.08366434027744
 25
294.0311266356028
 35
0
 40
0
  0
DIMENSION
  5
E5
100
AcDbEntity
  8
标注
  6
ByLayer
 62
  256
370
   -1
100
AcDbDimension
  2
*D8
 10
94.26689228360972
 20
315.5795587560547
 30
0
 11
101.7436121112671
 21
311.791596161372
 31
0
 70
   35
  1
       %%C16%%P0.01
 71
    5
  3
Standard
 53
0
210
0
220
0
230
1
100
AcDbDiametricDimension
 15
105.7331077163903
 25
304.4204412439453
 35
0
 40
0
  0
CIRCLE
  5
E6
100
AcDbEntity
  8
0
  6
ByLayer
 62
  256
370
   -1
100
AcDbCircle
 10
350.0000000000001
 20
310
 40
4
  0
LINE
  5
E7
100
AcDbEntity
  8
中心线
  6
ByLayer
 62
  256
370
   -1
100
AcDbLine
 10
349.6838709677419
 20
342
 11
349.6838709677419
 21
288.1665388357737
  0
DIMENSION
  5
E8
100
AcDbEntity
  8
标注
  6
ByLayer
 62
  256
370
   -1
100
AcDbDimension
  2
*D9
 10
346.2116720998854
 20
308.7160328192618
 30
0
 11
349.1975205120387
 21
312.3677049375717
 31
0
 70
   35
  1
%%C8%%P0.02
 71
    5
  3
Standard
 53
0
210
0
220
0
230
1
100
AcDbDiametricDimension
 15
353.7883279001148
 25
311.2839671807382
 35
0
 40
0
  0
DIMENSION
  5
E9
100
AcDbEntity
  8
标注
  6
ByLayer
 62
  256
370
   -1
100
AcDbDimension
  2
*D10
 10
349.6838709677419
 20
250
 30
0
 11
277.3419354838709
 21
252.5
 31
0
 70
   32
  1
150
 71
    5
 72
    0
  3
Standard
 53
0
210
0
220
0
230
1
100
AcDbAlignedDimension
 13
205
 23
280
 33
0
 14
349.6838709677419
 24
288.1665388357737
 34
0
100
AcDbRotatedDimension
  0
DIMENSION
  5
EA
100
AcDbEntity
  8
标注
  6
ByLayer
 62
  256
370
   -1
100
AcDbDimension
  2
*D11
 10
59.78999308406877
 20
240
 30
0
 11
79.89499654203439
 21
242.5
 31
0
 70
   32
  1
40
 71
    5
 72
    0
  3
Standard
 53
0
210
0
220
0
230
1
100
AcDbAlignedDimension
 13
100
 23
250
 33
0
 14
59.78999308406877
 24
270.0000000000006
 34
0
100
AcDbRotatedDimension
  0
DIMENSION
  5
EB
100
AcDbEntity
  8
标注
  6
ByLayer
 62
  256
370
   -1
100
AcDbDimension
  2
*D12
 10
364.0000000000056
 20
230
 30
0
 11
212.0000000000028
 21
232.5
 31
0
 70
   32
 71
    5
 72
    0
  3
Standard
 53
0
210
0
220
0
230
1
100
AcDbAlignedDimension
 13
60
 23
270
 33
0
 14
364.0000000000056
 24
270.0000000000006
 34
0
100
AcDbRotatedDimension
  0
LINE
  5
EC
100
AcDbEntity
  8
0
  6
ByLayer
 62
  256
370
   -1
100
AcDbLine
 10
364.0000000000055
 20
388.8597294565438
 11
59.78999308406876
 21
388.8597294565438
  0
LINE
  5
ED
100
AcDbEntity
  8
0
  6
ByLayer
 62
  256
370
   -1
100
AcDbLine
 10
59.78999308406876
 20
378.5201065923814
 11
364.0000000000055
 21
378.5201065923814
  0
LINE
  5
EE
100
AcDbEntity
  8
0
  6
ByLayer
 62
  256
370
   -1
100
AcDbLine
 10
364.0000000000055
 20
378.5201065923814
 11
364.0000000000055
 21
388.8597294565438
  0
LINE
  5
EF
100
AcDbEntity
  8
0
  6
ByLayer
 62
  256
370
   -1
100
AcDbLine
 10
364.0000000000055
 20
349.9999999999993
 11
59.78999308406877
 21
349.9999999999993
  0
LINE
  5
F0
100
AcDbEntity
  8
0
  6
ByLayer
 62
  256
370
   -1
100
AcDbLine
 10
59.78999308406877
 20
270.0000000000006
 11
364.0000000000056
 21
270.0000000000006
  0
LINE
  5
F1
100
AcDbEntity
  8
0
  6
ByLayer
 62
  256
370
   -1
100
AcDbLine
 10
364.0000000000055
 20
349.9999999999993
 11
364.0000000000056
 21
270.0000000000006
  0
DIMENSION
  5
F2
100
AcDbEntity
  8
标注
  6
ByLayer
 62
  256
370
   -1
100
AcDbDimension
  2
*D13
 10
349.6838709677419
 20
240
 30
0
 11
224.8419354838709
 21
242.5
 31
0
 70
   32
  1
250%%P0.1
 71
    5
 72
    0
  3
Standard
 53
0
210
0
220
0
230
1
100
AcDbAlignedDimension
 13
100
 23
250
 33
0
 14
349.6838709677419
 24
288.1665388357737
 34
0
100
AcDbRotatedDimension
  0
ENDSEC
  0
SECTION
  2
OBJECTS
  0
DICTIONARY
  5
C
330
0
100
AcDbDictionary
281
    1
  3
ACAD_GROUP
350
D
  0
DICTIONARY
  5
D
330
C
100
AcDbDictionary
281
    1
  0
ENDSEC
  0
EOF
