999
dxfrw 0.6.3
  0
SECTION
  2
HEADER
  9
$ACADVER
  1
AC1021
  9
$DWGCODEPAGE
  3
ANSI_1252
  9
$INSBASE
 10
0
 20
0
 30
0
  9
$EXTMIN
 10
10
 20
8.32466161451941
 30
0
  9
$EXTMAX
 10
271.1814331676741
 20
150
 30
0
  9
$LIMMIN
 10
0
 20
0
  9
$LIMMAX
 10
420
 20
297
  9
$ORTHOMODE
 70
    0
  9
$REGENMODE
 70
    1
  9
$FILLMODE
 70
    1
  9
$QTEXTMODE
 70
    0
  9
$MIRRTEXT
 70
    0
  9
$LTSCALE
 40
1
  9
$ATTMODE
 70
    0
  9
$TEXTSIZE
 40
2.5
  9
$TRACEWID
 40
15.68
  9
$TEXTSTYLE
  7
STANDARD
  9
$CLAYER
  8
标注
  9
$CELTYPE
  6
BYLAYER
  9
$CECOLOR
 62
  256
  9
$CELTSCALE
 40
1
  9
$DISPSILH
 70
    0
  9
$DIMSCALE
 40
2.5
  9
$DIMASZ
 40
2
  9
$DIMEXO
 40
0.625
  9
$DIMDLI
 40
3.75
  9
$DIMRND
 40
0
  9
$DIMDLE
 40
0
  9
$DIMEXE
 40
1.25
  9
$DIMTP
 40
0
  9
$DIMTM
 40
0
  9
$DIMTXT
 40
1
  9
$DIMCEN
 40
2.5
  9
$DIMTSZ
 40
0
  9
$DIMTOL
 70
    0
  9
$DIMLIM
 70
    0
  9
$DIMTIH
 70
    0
  9
$DIMTOH
 70
    0
  9
$DIMSE1
 70
    0
  9
$DIMSE2
 70
    0
  9
$DIMTAD
 70
    1
  9
$DIMZIN
 70
    1
  9
$DIMBLK
  1

  9
$DIMASO
 70
    1
  9
$DIMSHO
 70
    1
  9
$DIMPOST
  1

  9
$DIMAPOST
  1

  9
$DIMALT
 70
    0
  9
$DIMALTD
 70
    3
  9
$DIMALTF
 40
0.03937
  9
$DIMLFAC
 40
1
  9
$DIMTOFL
 70
    1
  9
$DIMTVP
 40
0
  9
$DIMTIX
 70
    0
  9
$DIMSOXD
 70
    0
  9
$DIMSAH
 70
    0
  9
$DIMBLK1
  1

  9
$DIMBLK2
  1

  9
$DIMSTYLE
  2
STANDARD
  9
$DIMCLRD
 70
    0
  9
$DIMCLRE
 70
    0
  9
$DIMCLRT
 70
    0
  9
$DIMTFAC
 40
1
  9
$DIMGAP
 40
0.5
  9
$DIMJUST
 70
    0
  9
$DIMSD1
 70
    0
  9
$DIMSD2
 70
    0
  9
$DIMTOLJ
 70
    0
  9
$DIMTZIN
 70
    8
  9
$DIMALTZ
 70
    0
  9
$DIMALTTZ
 70
    0
  9
$DIMUPT
 70
    0
  9
$DIMDEC
 70
    1
  9
$DIMTDEC
 70
    2
  9
$DIMALTU
 70
    2
  9
$DIMALTTD
 70
    3
  9
$DIMTXSTY
  7
standard
  9
$DIMAUNIT
 70
    0
  9
$DIMADEC
 70
    1
  9
$DIMALTRND
 40
0
  9
$DIMAZIN
 70
    0
  9
$DIMDSEP
 70
    0
  9
$DIMATFIT
 70
    3
  9
$DIMFRAC
 70
    0
  9
$DIMLDRBLK
  1
STANDARD
  9
$DIMLUNIT
 70
    2
  9
$DIMLWD
 70
   -2
  9
$DIMLWE
 70
   -2
  9
$DIMTMOVE
 70
    0
  9
$DIMFXL
 40
1
  9
$DIMFXLON
 70
    0
  9
$DIMJOGANG
 40
0.7854
  9
$DIMTFILL
 70
    0
  9
$DIMTFILLCLR
 70
    0
  9
$DIMARCSYM
 70
    0
  9
$DIMLTYPE
  6

  9
$DIMLTEX1
  6

  9
$DIMLTEX2
  6

  9
$LUNITS
 70
    2
  9
$LUPREC
 70
    1
  9
$SKETCHINC
 40
1
  9
$FILLETRAD
 40
0
  9
$AUNITS
 70
    0
  9
$AUPREC
 70
    1
  9
$MENU
  1
.
  9
$ELEVATION
 40
0
  9
$PELEVATION
 40
0
  9
$THICKNESS
 40
0
  9
$LIMCHECK
 70
    0
  9
$CHAMFERA
 40
0
  9
$CHAMFERB
 40
0
  9
$CHAMFERC
 40
0
  9
$CHAMFERD
 40
0
  9
$SKPOLY
 70
    0
  9
$USRTIMER
 70
    1
  9
$ANGBASE
 50
0
  9
$ANGDIR
 70
    0
  9
$PDMODE
 70
   34
  9
$PDSIZE
 40
0
  9
$PLINEWID
 40
0
  9
$SPLFRAME
 70
    0
  9
$SPLINETYPE
 70
    2
  9
$SPLINESEGS
 70
    8
  9
$HANDSEED
  5
20000
  9
$SURFTAB1
 70
    6
  9
$SURFTAB2
 70
    6
  9
$SURFTYPE
 70
    6
  9
$SURFU
 70
    6
  9
$SURFV
 70
    6
  9
$UCSBASE
  2

  9
$UCSNAME
  2

  9
$UCSORG
 10
0
 20
0
 30
0
  9
$UCSXDIR
 10
1
 20
0
 30
0
  9
$UCSYDIR
 10
0
 20
1
 30
0
  9
$UCSORTHOREF
  2

  9
$UCSORTHOVIEW
 70
    0
  9
$UCSORGTOP
 10
0
 20
0
 30
0
  9
$UCSORGBOTTOM
 10
0
 20
0
 30
0
  9
$UCSORGLEFT
 10
0
 20
0
 30
0
  9
$UCSORGRIGHT
 10
0
 20
0
 30
0
  9
$UCSORGFRONT
 10
0
 20
0
 30
0
  9
$UCSORGBACK
 10
0
 20
0
 30
0
  9
$PUCSBASE
  2

  9
$PUCSNAME
  2

  9
$PUCSORG
 10
0
 20
0
 30
0
  9
$PUCSXDIR
 10
1
 20
0
 30
0
  9
$PUCSYDIR
 10
0
 20
1
 30
0
  9
$PUCSORTHOREF
  2

  9
$PUCSORTHOVIEW
 70
    0
  9
$PUCSORGTOP
 10
0
 20
0
 30
0
  9
$PUCSORGBOTTOM
 10
0
 20
0
 30
0
  9
$PUCSORGLEFT
 10
0
 20
0
 30
0
  9
$PUCSORGRIGHT
 10
0
 20
0
 30
0
  9
$PUCSORGFRONT
 10
0
 20
0
 30
0
  9
$PUCSORGBACK
 10
0
 20
0
 30
0
  9
$USERI1
 70
    0
  9
$USERI2
 70
    0
  9
$USERI3
 70
    0
  9
$USERI4
 70
    0
  9
$USERI5
 70
    0
  9
$USERR1
 40
0
  9
$USERR2
 40
0
  9
$USERR3
 40
0
  9
$USERR4
 40
0
  9
$USERR5
 40
0
  9
$WORLDVIEW
 70
    1
  9
$SHADEDGE
 70
    3
  9
$SHADEDIF
 70
   70
  9
$TILEMODE
 70
    1
  9
$MAXACTVP
 70
   64
  9
$PINSBASE
 10
-18.25
 20
28.125
 30
0
  9
$PLIMCHECK
 70
    0
  9
$PEXTMIN
 10
0
 20
0
 30
0
  9
$PEXTMAX
 10
0
 20
0
 30
0
  9
$GRIDMODE
 70
    1
  9
$SNAPSTYLE
 70
    0
  9
$GRIDUNIT
 10
10
 20
10
  9
$PLIMMIN
 10
0
 20
0
  9
$PLIMMAX
 10
148
 20
210
  9
$UNITMODE
 70
    0
  9
$VISRETAIN
 70
    1
  9
$PLINEGEN
 70
    0
  9
$PSLTSCALE
 70
    1
  9
$TREEDEPTH
 70
 3020
  9
$CMLSTYLE
  2
Standard
  9
$CMLJUST
 70
    0
  9
$CMLSCALE
 40
20
  9
$PROXYGRAPHICS
 70
    1
  9
$MEASUREMENT
 70
    1
  9
$CELWEIGHT
370
   -1
  9
$ENDCAPS
280
    0
  9
$JOINSTYLE
280
    0
  9
$LWDISPLAY
290
    0
  9
$INSUNITS
 70
    4
  9
$HYPERLINKBASE
  1

  9
$STYLESHEET
  1

  9
$XEDIT
290
    1
  9
$CEPSNTYPE
380
    0
  9
$PSTYLEMODE
290
    1
  9
$EXTNAMES
290
    1
  9
$PSVPSCALE
 40
0.3075002383126847
  9
$OLESTARTUP
290
    0
  9
$SORTENTS
280
  127
  9
$INDEXCTL
280
    0
  9
$HIDETEXT
280
    1
  9
$XCLIPFRAME
290
    0
  9
$HALOGAP
280
    0
  9
$OBSCOLOR
 70
  257
  9
$OBSLTYPE
280
    0
  9
$INTERSECTIONDISPLAY
280
    0
  9
$INTERSECTIONCOLOR
 70
  257
  9
$DIMASSOC
280
    1
  9
$PROJECTNAME
  1

  9
$CAMERADISPLAY
290
    0
  9
$LENSLENGTH
 40
50
  9
$CAMERAHEIGHT
 40
0
  9
$STEPSPERSEC
 40
2
  9
$STEPSIZE
 40
50
  9
$3DDWFPREC
 40
2
  9
$PSOLWIDTH
 40
5
  9
$PSOLHEIGHT
 40
80
  9
$LOFTANG1
 40
1.570796326794897
  9
$LOFTANG2
 40
1.570796326794897
  9
$LOFTMAG1
 40
0
  9
$LOFTMAG2
 40
0
  9
$LOFTPARAM
 70
    7
  9
$LOFTNORMALS
280
    1
  9
$LATITUDE
 40
1
  9
$LONGITUDE
 40
1
  9
$NORTHDIRECTION
 40
0
  9
$TIMEZONE
 70
-8000
  9
$LIGHTGLYPHDISPLAY
280
    1
  9
$TILEMODELIGHTSYNCH
280
    1
  9
$SOLIDHIST
280
    1
  9
$SHOWHIST
280
    1
  9
$DWFFRAME
280
    2
  9
$DGNFRAME
280
    0
  9
$REALWORLDSCALE
290
    1
  9
$INTERFERECOLOR
 62
    1
  9
$CSHADOW
280
    0
  9
$SHADOWPLANELOCATION
 40
0
  0
ENDSEC
  0
SECTION
  2
CLASSES
  0
ENDSEC
  0
SECTION
  2
TABLES
  0
TABLE
  2
VPORT
  5
8
330
0
100
AcDbSymbolTable
 70
    1
  0
VPORT
  5
31
330
2
100
AcDbSymbolTableRecord
100
AcDbViewportTableRecord
  2
*ACTIVE
 70
    0
 10
0
 20
0
 11
1
 21
1
 12
103.5464766278723
 22
87.21656633530463
 13
0
 23
0
 14
10
 24
10
 15
10
 25
10
 16
0
 26
0
 36
1
 17
0
 27
0
 37
0
 40
206.3506846060825
 41
1.305755395683453
 42
50
 43
0
 44
0
 50
0
 51
0
 71
    0
 72
  100
 73
    1
 74
    3
 75
    0
 76
    1
 77
    0
 78
    0
281
    0
 65
    1
110
0
120
0
130
0
111
1
121
0
131
0
112
0
122
1
132
0
 79
    0
146
0
348
10020
 60
    3
 61
    5
292
1
282
    1
141
0
142
0
 63
  250
421
3358443
  0
ENDTAB
  0
TABLE
  2
LTYPE
  5
5
330
0
100
AcDbSymbolTable
 70
    4
  0
LTYPE
  5
14
330
5
100
AcDbSymbolTableRecord
100
AcDbLinetypeTableRecord
  2
ByBlock
 70
    0
  3

 72
   65
 73
    0
 40
0
  0
LTYPE
  5
15
330
5
100
AcDbSymbolTableRecord
100
AcDbLinetypeTableRecord
  2
ByLayer
 70
    0
  3

 72
   65
 73
    0
 40
0
  0
LTYPE
  5
16
330
5
100
AcDbSymbolTableRecord
100
AcDbLinetypeTableRecord
  2
Continuous
 70
    0
  3
Solid line
 72
   65
 73
    0
 40
0
  0
LTYPE
  5
32
330
5
100
AcDbSymbolTableRecord
100
AcDbLinetypeTableRecord
  2
DOT
 70
    0
  3
Dot . . . . . . . . . . . . . . . . . . . . . .
 72
   65
 73
    2
 40
6.35
 49
0
 74
    0
 49
-6.35
 74
    0
  0
LTYPE
  5
33
330
5
100
AcDbSymbolTableRecord
100
AcDbLinetypeTableRecord
  2
DOTTINY
 70
    0
  3
Dot (.15x) .....................................
 72
   65
 73
    2
 40
0.9525
 49
0
 74
    0
 49
-0.9525
 74
    0
  0
LTYPE
  5
34
330
5
100
AcDbSymbolTableRecord
100
AcDbLinetypeTableRecord
  2
DOT2
 70
    0
  3
Dot (.5x) .....................................
 72
   65
 73
    2
 40
3.175
 49
0
 74
    0
 49
-3.175
 74
    0
  0
LTYPE
  5
35
330
5
100
AcDbSymbolTableRecord
100
AcDbLinetypeTableRecord
  2
DOTX2
 70
    0
  3
Dot (2x) .  .  .  .  .  .  .  .  .  .  .  .  .
 72
   65
 73
    2
 40
12.7
 49
0
 74
    0
 49
-12.7
 74
    0
  0
LTYPE
  5
36
330
5
100
AcDbSymbolTableRecord
100
AcDbLinetypeTableRecord
  2
DASHED
 70
    0
  3
Dashed _ _ _ _ _ _ _ _ _ _ _ _ _ _ _ _ _
 72
   65
 73
    2
 40
19.05
 49
12.7
 74
    0
 49
-6.35
 74
    0
  0
LTYPE
  5
37
330
5
100
AcDbSymbolTableRecord
100
AcDbLinetypeTableRecord
  2
DASHEDTINY
 70
    0
  3
Dashed (.15x) _ _ _ _ _ _ _ _ _ _ _ _ _ _ _ _ _
 72
   65
 73
    2
 40
2.8575
 49
1.905
 74
    0
 49
-0.9525
 74
    0
  0
LTYPE
  5
38
330
5
100
AcDbSymbolTableRecord
100
AcDbLinetypeTableRecord
  2
DASHED2
 70
    0
  3
Dashed (.5x) _ _ _ _ _ _ _ _ _ _ _ _ _ _ _ _ _
 72
   65
 73
    2
 40
9.524999999999999
 49
6.35
 74
    0
 49
-3.175
 74
    0
  0
LTYPE
  5
39
330
5
100
AcDbSymbolTableRecord
100
AcDbLinetypeTableRecord
  2
DASHEDX2
 70
    0
  3
Dashed (2x) ____  ____  ____  ____  ____  ___
 72
   65
 73
    2
 40
38.09999999999999
 49
25.4
 74
    0
 49
-12.7
 74
    0
  0
LTYPE
  5
3A
330
5
100
AcDbSymbolTableRecord
100
AcDbLinetypeTableRecord
  2
DASHDOT
 70
    0
  3
Dash dot __ . __ . __ . __ . __ . __ . __ . __
 72
   65
 73
    4
 40
25.4
 49
12.7
 74
    0
 49
-6.35
 74
    0
 49
0
 74
    0
 49
-6.35
 74
    0
  0
LTYPE
  5
3B
330
5
100
AcDbSymbolTableRecord
100
AcDbLinetypeTableRecord
  2
DASHDOTTINY
 70
    0
  3
Dash dot (.15x) _._._._._._._._._._._._._._._.
 72
   65
 73
    4
 40
3.81
 49
1.905
 74
    0
 49
-0.9525
 74
    0
 49
0
 74
    0
 49
-0.9525
 74
    0
  0
LTYPE
  5
3C
330
5
100
AcDbSymbolTableRecord
100
AcDbLinetypeTableRecord
  2
DASHDOT2
 70
    0
  3
Dash dot (.5x) _._._._._._._._._._._._._._._.
 72
   65
 73
    4
 40
12.7
 49
6.35
 74
    0
 49
-3.175
 74
    0
 49
0
 74
    0
 49
-3.175
 74
    0
  0
LTYPE
  5
3D
330
5
100
AcDbSymbolTableRecord
100
AcDbLinetypeTableRecord
  2
DASHDOTX2
 70
    0
  3
Dash dot (2x) ____  .  ____  .  ____  .  ___
 72
   65
 73
    4
 40
50.8
 49
25.4
 74
    0
 49
-12.7
 74
    0
 49
0
 74
    0
 49
-12.7
 74
    0
  0
LTYPE
  5
3E
330
5
100
AcDbSymbolTableRecord
100
AcDbLinetypeTableRecord
  2
DIVIDE
 70
    0
  3
Divide ____ . . ____ . . ____ . . ____ . . ____
 72
   65
 73
    6
 40
31.75
 49
12.7
 74
    0
 49
-6.35
 74
    0
 49
0
 74
    0
 49
-6.35
 74
    0
 49
0
 74
    0
 49
-6.35
 74
    0
  0
LTYPE
  5
3F
330
5
100
AcDbSymbolTableRecord
100
AcDbLinetypeTableRecord
  2
DIVIDETINY
 70
    0
  3
Divide (.15x) __..__..__..__..__..__..__..__.._
 72
   65
 73
    6
 40
4.7625
 49
1.905
 74
    0
 49
-0.9525
 74
    0
 49
0
 74
    0
 49
-0.9525
 74
    0
 49
0
 74
    0
 49
-0.9525
 74
    0
  0
LTYPE
  5
40
330
5
100
AcDbSymbolTableRecord
100
AcDbLinetypeTableRecord
  2
DIVIDE2
 70
    0
  3
Divide (.5x) __..__..__..__..__..__..__..__.._
 72
   65
 73
    6
 40
15.875
 49
6.35
 74
    0
 49
-3.175
 74
    0
 49
0
 74
    0
 49
-3.175
 74
    0
 49
0
 74
    0
 49
-3.175
 74
    0
  0
LTYPE
  5
41
330
5
100
AcDbSymbolTableRecord
100
AcDbLinetypeTableRecord
  2
DIVIDEX2
 70
    0
  3
Divide (2x) ________  .  .  ________  .  .  _
 72
   65
 73
    6
 40
63.5
 49
25.4
 74
    0
 49
-12.7
 74
    0
 49
0
 74
    0
 49
-12.7
 74
    0
 49
0
 74
    0
 49
-12.7
 74
    0
  0
LTYPE
  5
42
330
5
100
AcDbSymbolTableRecord
100
AcDbLinetypeTableRecord
  2
BORDER
 70
    0
  3
Border __ __ . __ __ . __ __ . __ __ . __ __ .
 72
   65
 73
    6
 40
44.45
 49
12.7
 74
    0
 49
-6.35
 74
    0
 49
12.7
 74
    0
 49
-6.35
 74
    0
 49
0
 74
    0
 49
-6.35
 74
    0
  0
LTYPE
  5
43
330
5
100
AcDbSymbolTableRecord
100
AcDbLinetypeTableRecord
  2
BORDERTINY
 70
    0
  3
Border (.15x) __.__.__.__.__.__.__.__.__.__.__.
 72
   65
 73
    6
 40
6.6675
 49
1.905
 74
    0
 49
-0.9525
 74
    0
 49
1.905
 74
    0
 49
-0.9525
 74
    0
 49
0
 74
    0
 49
-0.9525
 74
    0
  0
LTYPE
  5
44
330
5
100
AcDbSymbolTableRecord
100
AcDbLinetypeTableRecord
  2
BORDER2
 70
    0
  3
Border (.5x) __.__.__.__.__.__.__.__.__.__.__.
 72
   65
 73
    6
 40
22.225
 49
6.35
 74
    0
 49
-3.175
 74
    0
 49
6.35
 74
    0
 49
-3.175
 74
    0
 49
0
 74
    0
 49
-3.175
 74
    0
  0
LTYPE
  5
45
330
5
100
AcDbSymbolTableRecord
100
AcDbLinetypeTableRecord
  2
BORDERX2
 70
    0
  3
Border (2x) ____  ____  .  ____  ____  .  ___
 72
   65
 73
    6
 40
88.89999999999999
 49
25.4
 74
    0
 49
-12.7
 74
    0
 49
25.4
 74
    0
 49
-12.7
 74
    0
 49
0
 74
    0
 49
-12.7
 74
    0
  0
LTYPE
  5
46
330
5
100
AcDbSymbolTableRecord
100
AcDbLinetypeTableRecord
  2
CENTER
 70
    0
  3
Center ____ _ ____ _ ____ _ ____ _ ____ _ ____
 72
   65
 73
    4
 40
50.8
 49
31.75
 74
    0
 49
-6.35
 74
    0
 49
6.35
 74
    0
 49
-6.35
 74
    0
  0
LTYPE
  5
47
330
5
100
AcDbSymbolTableRecord
100
AcDbLinetypeTableRecord
  2
CENTERTINY
 70
    0
  3
Center (.15x) ___ _ ___ _ ___ _ ___ _ ___ _ ___
 72
   65
 73
    4
 40
7.62
 49
4.7625
 74
    0
 49
-0.9525
 74
    0
 49
0.9525
 74
    0
 49
-0.9525
 74
    0
  0
LTYPE
  5
48
330
5
100
AcDbSymbolTableRecord
100
AcDbLinetypeTableRecord
  2
CENTER2
 70
    0
  3
Center (.5x) ___ _ ___ _ ___ _ ___ _ ___ _ ___
 72
   65
 73
    4
 40
28.575
 49
19.05
 74
    0
 49
-3.175
 74
    0
 49
3.175
 74
    0
 49
-3.175
 74
    0
  0
LTYPE
  5
49
330
5
100
AcDbSymbolTableRecord
100
AcDbLinetypeTableRecord
  2
CENTERX2
 70
    0
  3
Center (2x) ________  __  ________  __  _____
 72
   65
 73
    4
 40
101.6
 49
63.5
 74
    0
 49
-12.7
 74
    0
 49
12.7
 74
    0
 49
-12.7
 74
    0
  0
ENDTAB
  0
TABLE
  2
LAYER
  5
2
330
0
100
AcDbSymbolTable
 70
    1
  0
LAYER
  5
10
330
2
100
AcDbSymbolTableRecord
100
AcDbLayerTableRecord
  2
0
 70
    0
 62
    7
  6
CONTINUOUS
370
    0
390
F
  0
LAYER
  5
4A
330
2
100
AcDbSymbolTableRecord
100
AcDbLayerTableRecord
  2
中心线
 70
    0
 62
    1
  6
CENTERTINY
370
   13
390
F
  0
LAYER
  5
4B
330
2
100
AcDbSymbolTableRecord
100
AcDbLayerTableRecord
  2
剖面线
 70
    0
 62
    7
  6
CONTINUOUS
370
   30
390
F
  0
LAYER
  5
4C
330
2
100
AcDbSymbolTableRecord
100
AcDbLayerTableRecord
  2
标注
 70
    0
 62
   96
420
32768
  6
CONTINUOUS
370
    0
390
F
  0
LAYER
  5
4D
330
2
100
AcDbSymbolTableRecord
100
AcDbLayerTableRecord
  2
虚线
 70
    0
 62
    7
  6
DASHEDTINY
370
    0
390
F
  0
ENDTAB
  0
TABLE
  2
STYLE
  5
3
330
0
100
AcDbSymbolTable
 70
    3
  0
STYLE
  5
4E
330
2
100
AcDbSymbolTableRecord
100
AcDbTextStyleTableRecord
  2
wqy-unicode
 70
    0
 40
0
 41
1
 50
0
 71
    0
 42
1
  3
wqy-unicode
  4

  0
STYLE
  5
4F
330
2
100
AcDbSymbolTableRecord
100
AcDbTextStyleTableRecord
  2
Standard
 70
    0
 40
0
 41
1
 50
0
 71
    0
 42
1
  3
txt
  4

  0
ENDTAB
  0
TABLE
  2
VIEW
  5
6
330
0
100
AcDbSymbolTable
 70
    0
  0
ENDTAB
  0
TABLE
  2
UCS
  5
7
330
0
100
AcDbSymbolTable
 70
    0
  0
ENDTAB
  0
TABLE
  2
APPID
  5
9
330
0
100
AcDbSymbolTable
 70
    1
  0
APPID
  5
12
330
9
100
AcDbSymbolTableRecord
100
AcDbRegAppTableRecord
  2
ACAD
 70
    0
  0
APPID
  5
50
330
9
100
AcDbSymbolTableRecord
100
AcDbRegAppTableRecord
  2
LibreCad
 70
    0
  0
ENDTAB
  0
TABLE
  2
DIMSTYLE
  5
A
330
0
100
AcDbSymbolTable
 70
    1
100
AcDbDimStyleTable
 71
    1
  0
DIMSTYLE
105
51
330
A
100
AcDbSymbolTableRecord
100
AcDbDimStyleTableRecord
  2
Standard
 70
    0
 40
2.5
 41
2
 42
0.625
 43
0.38
 44
1.25
 45
0
 46
0
 47
0
 48
0
 49
1
140
1
141
0.09
142
0
143
25.4
144
1
145
0
146
1
147
0.5
148
0
 71
    0
 72
    0
 73
    0
 74
    1
 75
    0
 76
    0
 77
    0
 78
    1
 79
    0
170
    0
171
    2
172
    0
173
    0
174
    0
175
    0
176
    0
177
    0
178
    0
179
    1
271
    1
272
    4
273
    2
274
    2
275
    0
276
    0
277
    2
278
    0
279
    0
280
    0
281
    0
282
    0
283
    1
284
    0
285
    0
286
    0
288
    0
289
    3
340
standard
341

371
   -2
372
   -2
  0
ENDTAB
  0
TABLE
  2
BLOCK_RECORD
  5
1
330
0
100
AcDbSymbolTable
 70
    2
  0
BLOCK_RECORD
  5
1F
330
1
100
AcDbSymbolTableRecord
100
AcDbBlockTableRecord
  2
*Model_Space
 70
    0
280
    1
281
    0
  0
BLOCK_RECORD
  5
1E
330
1
100
AcDbSymbolTableRecord
100
AcDbBlockTableRecord
  2
*Paper_Space
 70
    0
280
    1
281
    0
  0
BLOCK_RECORD
  5
52
330
1
100
AcDbSymbolTableRecord
100
AcDbBlockTableRecord
  2
*D11
 70
    0
280
    1
281
    0
  0
BLOCK_RECORD
  5
55
330
1
100
AcDbSymbolTableRecord
100
AcDbBlockTableRecord
  2
*D10
 70
    0
280
    1
281
    0
  0
BLOCK_RECORD
  5
58
330
1
100
AcDbSymbolTableRecord
100
AcDbBlockTableRecord
  2
*D4
 70
    0
280
    1
281
    0
  0
BLOCK_RECORD
  5
5B
330
1
100
AcDbSymbolTableRecord
100
AcDbBlockTableRecord
  2
*D14
 70
    0
280
    1
281
    0
  0
BLOCK_RECORD
  5
5E
330
1
100
AcDbSymbolTableRecord
100
AcDbBlockTableRecord
  2
*D8
 70
    0
280
    1
281
    0
  0
BLOCK_RECORD
  5
61
330
1
100
AcDbSymbolTableRecord
100
AcDbBlockTableRecord
  2
*D9
 70
    0
280
    1
281
    0
  0
BLOCK_RECORD
  5
64
330
1
100
AcDbSymbolTableRecord
100
AcDbBlockTableRecord
  2
*D18
 70
    0
280
    1
281
    0
  0
BLOCK_RECORD
  5
67
330
1
100
AcDbSymbolTableRecord
100
AcDbBlockTableRecord
  2
*D17
 70
    0
280
    1
281
    0
  0
BLOCK_RECORD
  5
6A
330
1
100
AcDbSymbolTableRecord
100
AcDbBlockTableRecord
  2
*D7
 70
    0
280
    1
281
    0
  0
BLOCK_RECORD
  5
6D
330
1
100
AcDbSymbolTableRecord
100
AcDbBlockTableRecord
  2
*D2
 70
    0
280
    1
281
    0
  0
BLOCK_RECORD
  5
70
330
1
100
AcDbSymbolTableRecord
100
AcDbBlockTableRecord
  2
*D12
 70
    0
280
    1
281
    0
  0
BLOCK_RECORD
  5
73
330
1
100
AcDbSymbolTableRecord
100
AcDbBlockTableRecord
  2
*D3
 70
    0
280
    1
281
    0
  0
BLOCK_RECORD
  5
76
330
1
100
AcDbSymbolTableRecord
100
AcDbBlockTableRecord
  2
*D16
 70
    0
280
    1
281
    0
  0
BLOCK_RECORD
  5
79
330
1
100
AcDbSymbolTableRecord
100
AcDbBlockTableRecord
  2
*D15
 70
    0
280
    1
281
    0
  0
BLOCK_RECORD
  5
7C
330
1
100
AcDbSymbolTableRecord
100
AcDbBlockTableRecord
  2
*D13
 70
    0
280
    1
281
    0
  0
BLOCK_RECORD
  5
7F
330
1
100
AcDbSymbolTableRecord
100
AcDbBlockTableRecord
  2
*D5
 70
    0
280
    1
281
    0
  0
BLOCK_RECORD
  5
82
330
1
100
AcDbSymbolTableRecord
100
AcDbBlockTableRecord
  2
*D1
 70
    0
280
    1
281
    0
  0
BLOCK_RECORD
  5
85
330
1
100
AcDbSymbolTableRecord
100
AcDbBlockTableRecord
  2
*D6
 70
    0
280
    1
281
    0
  0
ENDTAB
  0
ENDSEC
  0
SECTION
  2
BLOCKS
  0
BLOCK
  5
20
330
1F
100
AcDbEntity
  8
0
100
AcDbBlockBegin
  2
*Model_Space
 70
    0
 10
0
 20
0
 30
0
  3
*Model_Space
  1

  0
ENDBLK
  5
21
330
1F
100
AcDbEntity
  8
0
100
AcDbBlockEnd
  0
BLOCK
  5
1C
330
1B
100
AcDbEntity
  8
0
100
AcDbBlockBegin
  2
*Paper_Space
 70
    0
 10
0
 20
0
 30
0
  3
*Paper_Space
  1

  0
ENDBLK
  5
1D
330
1F
100
AcDbEntity
  8
0
100
AcDbBlockEnd
  0
BLOCK
  5
53
330
52
100
AcDbEntity
  8
0
100
AcDbBlockBegin
  2
*D11
 70
    1
 10
0
 20
0
  3
*D11
  1

  0
LINE
  5
88
100
AcDbEntity
  8
标注
  6
ByBlock
 62
    0
370
   -2
100
AcDbLine
 10
83.18143402415386
 20
61.7353706107312
 11
105.1814331676724
 21
61.7353706107312
  0
SOLID
  5
89
100
AcDbEntity
  8
标注
  6
ByBlock
 62
    0
370
   -2
100
AcDbTrace
 10
93.18143402415386
 20
61.7353706107312
 30
0
 11
88.18143402415386
 21
60.90280129518552
 31
0
 12
88.18143402415386
 22
62.56793992627689
 32
0
 13
88.18143402415386
 23
62.56793992627689
 33
0
  0
SOLID
  5
8A
100
AcDbEntity
  8
标注
  6
ByBlock
 62
    0
370
   -2
100
AcDbTrace
 10
95.18143316767242
 20
61.7353706107312
 30
0
 11
100.1814331676724
 21
62.56793992627689
 31
0
 12
100.1814331676724
 22
60.90280129518552
 32
0
 13
100.1814331676724
 23
60.90280129518552
 33
0
  0
MTEXT
  5
8B
100
AcDbEntity
  8
标注
  6
CONTINUOUS
 62
    0
370
   -2
100
AcDbMText
 10
98.37587761211688
 20
64.2353706107312
 30
0
 40
2.5
 41
3.888888888888889
 71
    5
 72
    1
  1
2.0
  7
standard
210
0
220
0
230
1
 50
0
 73
    2
 44
1
  0
LINE
  5
8C
100
AcDbEntity
  8
标注
  6
ByBlock
 62
    0
370
   -2
100
AcDbLine
 10
93.18143402415386
 20
59.5625
 11
93.18143402415386
 21
64.8603706107312
  0
LINE
  5
8D
100
AcDbEntity
  8
标注
  6
ByBlock
 62
    0
370
   -2
100
AcDbLine
 10
95.18143316767242
 20
59.5625
 11
95.18143316767242
 21
64.8603706107312
  0
ENDBLK
  5
54
330
52
100
AcDbEntity
  8
0
100
AcDbBlockEnd
  0
BLOCK
  5
56
330
55
100
AcDbEntity
  8
0
100
AcDbBlockBegin
  2
*D10
 70
    1
 10
0
 20
0
  3
*D10
  1

  0
LINE
  5
8E
100
AcDbEntity
  8
标注
  6
ByBlock
 62
    0
370
   -2
100
AcDbLine
 10
83.18143316767238
 20
67.9533216074955
 11
107.1814331676741
 21
67.9533216074955
  0
SOLID
  5
8F
100
AcDbEntity
  8
标注
  6
ByBlock
 62
    0
370
   -2
100
AcDbTrace
 10
83.18143316767238
 20
67.9533216074955
 30
0
 11
88.18143316767238
 21
68.78589092304118
 31
0
 12
88.18143316767238
 22
67.12075229194981
 32
0
 13
88.18143316767238
 23
67.12075229194981
 33
0
  0
SOLID
  5
90
100
AcDbEntity
  8
标注
  6
ByBlock
 62
    0
370
   -2
100
AcDbTrace
 10
107.1814331676741
 20
67.9533216074955
 30
0
 11
102.1814331676741
 21
67.12075229194981
 31
0
 12
102.1814331676741
 22
68.78589092304118
 32
0
 13
102.1814331676741
 23
68.78589092304118
 33
0
  0
MTEXT
  5
91
100
AcDbEntity
  8
标注
  6
CONTINUOUS
 62
    0
370
   -2
100
AcDbMText
 10
95.18143316767325
 20
70.4533216074955
 30
0
 40
2.5
 41
6.111111111111112
 71
    5
 72
    1
  1
24.0
  7
standard
210
0
220
0
230
1
 50
0
 73
    2
 44
1
  0
LINE
  5
92
100
AcDbEntity
  8
标注
  6
ByBlock
 62
    0
370
   -2
100
AcDbLine
 10
83.18143316767238
 20
59.5625
 11
83.18143316767238
 21
71.0783216074955
  0
LINE
  5
93
100
AcDbEntity
  8
标注
  6
ByBlock
 62
    0
370
   -2
100
AcDbLine
 10
107.1814331676741
 20
57.5625000000032
 11
107.1814331676741
 21
71.0783216074955
  0
ENDBLK
  5
57
330
55
100
AcDbEntity
  8
0
100
AcDbBlockEnd
  0
BLOCK
  5
59
330
58
100
AcDbEntity
  8
0
100
AcDbBlockBegin
  2
*D4
 70
    1
 10
0
 20
0
  3
*D4
  1

  0
LINE
  5
94
100
AcDbEntity
  8
标注
  6
ByBlock
 62
    0
370
   -2
100
AcDbLine
 10
43.99999999999829
 20
123.0266018645507
 11
76
 21
123.0266018645507
  0
SOLID
  5
95
100
AcDbEntity
  8
标注
  6
ByBlock
 62
    0
370
   -2
100
AcDbTrace
 10
53.99999999999829
 20
123.0266018645507
 30
0
 11
48.99999999999829
 21
122.194032549005
 31
0
 12
48.99999999999829
 22
123.8591711800964
 32
0
 13
48.99999999999829
 23
123.8591711800964
 33
0
  0
SOLID
  5
96
100
AcDbEntity
  8
标注
  6
ByBlock
 62
    0
370
   -2
100
AcDbTrace
 10
66
 20
123.0266018645507
 30
0
 11
71
 21
123.8591711800964
 31
0
 12
71
 22
122.194032549005
 32
0
 13
71
 23
122.194032549005
 33
0
  0
MTEXT
  5
97
100
AcDbEntity
  8
标注
  6
CONTINUOUS
 62
    0
370
   -2
100
AcDbMText
 10
59.99999999999915
 20
125.5266018645507
 30
0
 40
2.5
 41
5.277777777777778
 71
    5
 72
    1
  1
12.0
  7
standard
210
0
220
0
230
1
 50
0
 73
    2
 44
1
  0
LINE
  5
98
100
AcDbEntity
  8
标注
  6
ByBlock
 62
    0
370
   -2
100
AcDbLine
 10
53.99999999999829
 20
119.5625
 11
53.99999999999829
 21
126.1516018645507
  0
LINE
  5
99
100
AcDbEntity
  8
标注
  6
ByBlock
 62
    0
370
   -2
100
AcDbLine
 10
66
 20
117.5625000000032
 11
66
 21
126.1516018645507
  0
ENDBLK
  5
5A
330
58
100
AcDbEntity
  8
0
100
AcDbBlockEnd
  0
BLOCK
  5
5C
330
5B
100
AcDbEntity
  8
0
100
AcDbBlockBegin
  2
*D14
 70
    1
 10
0
 20
0
  3
*D14
  1

  0
LINE
  5
9A
100
AcDbEntity
  8
标注
  6
ByBlock
 62
    0
370
   -2
100
AcDbLine
 10
113.4035824647964
 20
63.00000000000015
 11
113.4035824647964
 21
36.99999999999986
  0
SOLID
  5
9B
100
AcDbEntity
  8
标注
  6
ByBlock
 62
    0
370
   -2
100
AcDbTrace
 10
113.4035824647964
 20
53.00000000000015
 30
0
 11
112.5710131492507
 21
58.00000000000015
 31
0
 12
114.2361517803421
 22
58.00000000000015
 32
0
 13
114.2361517803421
 23
58.00000000000015
 33
0
  0
SOLID
  5
9C
100
AcDbEntity
  8
标注
  6
ByBlock
 62
    0
370
   -2
100
AcDbTrace
 10
113.4035824647964
 20
46.99999999999986
 30
0
 11
114.2361517803421
 21
41.99999999999986
 31
0
 12
112.5710131492507
 22
41.99999999999986
 32
0
 13
112.5710131492507
 23
41.99999999999986
 33
0
  0
MTEXT
  5
9D
100
AcDbEntity
  8
标注
  6
CONTINUOUS
 62
    0
370
   -2
100
AcDbMText
 10
110.9035824647964
 20
50
 30
0
 40
2.5
 41
3.611111111111266
 71
    5
 72
    1
  1
M6
  7
standard
210
0
220
0
230
1
 50
90
 73
    2
 44
1
  0
LINE
  5
9E
100
AcDbEntity
  8
标注
  6
ByBlock
 62
    0
370
   -2
100
AcDbLine
 10
108.7439331676741
 20
53.00000000000015
 11
116.5285824647964
 21
53.00000000000015
  0
LINE
  5
9F
100
AcDbEntity
  8
标注
  6
ByBlock
 62
    0
370
   -2
100
AcDbLine
 10
108.7439331676741
 20
46.99999999999986
 11
116.5285824647964
 21
46.99999999999986
  0
ENDBLK
  5
5D
330
5B
100
AcDbEntity
  8
0
100
AcDbBlockEnd
  0
BLOCK
  5
5F
330
5E
100
AcDbEntity
  8
0
100
AcDbBlockBegin
  2
*D8
 70
    1
 10
0
 20
0
  3
*D8
  1

  0
LINE
  5
A0
100
AcDbEntity
  8
标注
  6
ByBlock
 62
    0
370
   -2
100
AcDbLine
 10
42.04519245431094
 20
118
 11
42.04519245431094
 21
102
  0
SOLID
  5
A1
100
AcDbEntity
  8
标注
  6
ByBlock
 62
    0
370
   -2
100
AcDbTrace
 10
42.04519245431094
 20
118
 30
0
 11
42.87776176985662
 21
113
 31
0
 12
41.21262313876525
 22
113
 32
0
 13
41.21262313876525
 23
113
 33
0
  0
SOLID
  5
A2
100
AcDbEntity
  8
标注
  6
ByBlock
 62
    0
370
   -2
100
AcDbTrace
 10
42.04519245431094
 20
102
 30
0
 11
41.21262313876525
 21
107
 31
0
 12
42.87776176985662
 22
107
 32
0
 13
42.87776176985662
 23
107
 33
0
  0
MTEXT
  5
A3
100
AcDbEntity
  8
标注
  6
CONTINUOUS
 62
    0
370
   -2
100
AcDbMText
 10
39.54519245431094
 20
110
 30
0
 40
2.5
 41
7.777777777777933
 71
    5
 72
    1
  1
%%C16.0
  7
standard
210
0
220
0
230
1
 50
90
 73
    2
 44
1
  0
LINE
  5
A4
100
AcDbEntity
  8
标注
  6
ByBlock
 62
    0
370
   -2
100
AcDbLine
 10
38.56250704621728
 20
118
 11
45.17019245431094
 21
118
  0
LINE
  5
A5
100
AcDbEntity
  8
标注
  6
ByBlock
 62
    0
370
   -2
100
AcDbLine
 10
38.56249899339753
 20
102
 11
45.17019245431094
 21
102
  0
ENDBLK
  5
60
330
5E
100
AcDbEntity
  8
0
100
AcDbBlockEnd
  0
BLOCK
  5
62
330
61
100
AcDbEntity
  8
0
100
AcDbBlockBegin
  2
*D9
 70
    1
 10
0
 20
0
  3
*D9
  1

  0
LINE
  5
A6
100
AcDbEntity
  8
标注
  6
ByBlock
 62
    0
370
   -2
100
AcDbLine
 10
85.18143316767241
 20
38.49207759901706
 11
117.1814331676741
 21
38.49207759901706
  0
SOLID
  5
A7
100
AcDbEntity
  8
标注
  6
ByBlock
 62
    0
370
   -2
100
AcDbTrace
 10
95.18143316767241
 20
38.49207759901706
 30
0
 11
90.18143316767241
 21
37.65950828347138
 31
0
 12
90.18143316767241
 22
39.32464691456274
 32
0
 13
90.18143316767241
 23
39.32464691456274
 33
0
  0
SOLID
  5
A8
100
AcDbEntity
  8
标注
  6
ByBlock
 62
    0
370
   -2
100
AcDbTrace
 10
107.1814331676741
 20
38.49207759901706
 30
0
 11
112.1814331676741
 21
39.32464691456274
 31
0
 12
112.1814331676741
 22
37.65950828347138
 32
0
 13
112.1814331676741
 23
37.65950828347138
 33
0
  0
MTEXT
  5
A9
100
AcDbEntity
  8
标注
  6
CONTINUOUS
 62
    0
370
   -2
100
AcDbMText
 10
101.1814331676733
 20
40.99207759901706
 30
0
 40
2.5
 41
5.277777777777778
 71
    5
 72
    1
  1
12.0
  7
standard
210
0
220
0
230
1
 50
0
 73
    2
 44
1
  0
LINE
  5
AA
100
AcDbEntity
  8
标注
  6
ByBlock
 62
    0
370
   -2
100
AcDbLine
 10
95.18143316767241
 20
42.43750000000109
 11
95.18143316767241
 21
35.36707759901706
  0
LINE
  5
AB
100
AcDbEntity
  8
标注
  6
ByBlock
 62
    0
370
   -2
100
AcDbLine
 10
107.1814331676741
 20
42.4375000000027
 11
107.1814331676741
 21
35.36707759901706
  0
ENDBLK
  5
63
330
61
100
AcDbEntity
  8
0
100
AcDbBlockEnd
  0
BLOCK
  5
65
330
64
100
AcDbEntity
  8
0
100
AcDbBlockBegin
  2
*D18
 70
    1
 10
0
 20
0
  3
*D18
  1

  0
SOLID
  5
AC
100
AcDbEntity
  8
标注
  6
ByBlock
 62
    0
370
   -2
100
AcDbTrace
 10
65.84473245809029
 20
44.53748203725189
 30
0
 11
70.06618084957186
 21
41.7316764233068
 31
0
 12
68.92919963922158
 22
40.51514019776184
 32
0
 13
68.92919963922158
 23
40.51514019776184
 33
0
  0
LINE
  5
AD
100
AcDbEntity
  8
标注
  6
ByBlock
 62
    0
370
   -2
100
AcDbLine
 10
60
 20
50
 11
75.58595322157412
 21
35.43328543267171
  0
MTEXT
  5
AE
100
AcDbEntity
  8
标注
  6
CONTINUOUS
 62
    0
370
   -2
100
AcDbMText
 10
72.42237970319098
 20
41.81186262811502
 30
0
 40
2.5
 41
3.333333333333333
 71
    5
 72
    1
  1
R8
  7
standard
210
0
220
0
230
1
 50
316.9360093328905
 73
    2
 44
1
  0
ENDBLK
  5
66
330
64
100
AcDbEntity
  8
0
100
AcDbBlockEnd
  0
BLOCK
  5
68
330
67
100
AcDbEntity
  8
0
100
AcDbBlockBegin
  2
*D17
 70
    1
 10
0
 20
0
  3
*D17
  1

  0
LINE
  5
AF
100
AcDbEntity
  8
标注
  6
ByBlock
 62
    0
370
   -2
100
AcDbLine
 10
46.78267892803611
 20
57.99999999999999
 11
46.78267892803611
 21
41.99999999999999
  0
SOLID
  5
B0
100
AcDbEntity
  8
标注
  6
ByBlock
 62
    0
370
   -2
100
AcDbTrace
 10
46.78267892803611
 20
57.99999999999999
 30
0
 11
47.6152482435818
 21
52.99999999999999
 31
0
 12
45.95010961249043
 22
52.99999999999999
 32
0
 13
45.95010961249043
 23
52.99999999999999
 33
0
  0
SOLID
  5
B1
100
AcDbEntity
  8
标注
  6
ByBlock
 62
    0
370
   -2
100
AcDbTrace
 10
46.78267892803611
 20
41.99999999999999
 30
0
 11
45.95010961249043
 21
46.99999999999999
 31
0
 12
47.6152482435818
 22
46.99999999999999
 32
0
 13
47.6152482435818
 23
46.99999999999999
 33
0
  0
MTEXT
  5
B2
100
AcDbEntity
  8
标注
  6
CONTINUOUS
 62
    0
370
   -2
100
AcDbMText
 10
44.28267892803611
 20
49.99999999999999
 30
0
 40
2.5
 41
5.277777777777933
 71
    5
 72
    1
  1
16.0
  7
standard
210
0
220
0
230
1
 50
90
 73
    2
 44
1
  0
LINE
  5
B3
100
AcDbEntity
  8
标注
  6
ByBlock
 62
    0
370
   -2
100
AcDbLine
 10
52.43749999999984
 20
57.99999999999999
 11
43.65767892803611
 21
57.99999999999999
  0
LINE
  5
B4
100
AcDbEntity
  8
标注
  6
ByBlock
 62
    0
370
   -2
100
AcDbLine
 10
52.43750000000001
 20
41.99999999999999
 11
43.65767892803611
 21
41.99999999999999
  0
ENDBLK
  5
69
330
67
100
AcDbEntity
  8
0
100
AcDbBlockEnd
  0
BLOCK
  5
6B
330
6A
100
AcDbEntity
  8
0
100
AcDbBlockBegin
  2
*D7
 70
    1
 10
0
 20
0
  3
*D7
  1

  0
LINE
  5
B5
100
AcDbEntity
  8
标注
  6
ByBlock
 62
    0
370
   -2
100
AcDbLine
 10
82.90601329019059
 20
126.0000000000032
 11
82.90601329019059
 21
94.0000000000027
  0
SOLID
  5
B6
100
AcDbEntity
  8
标注
  6
ByBlock
 62
    0
370
   -2
100
AcDbTrace
 10
82.90601329019059
 20
116.0000000000032
 30
0
 11
82.0734439746449
 21
121.0000000000032
 31
0
 12
83.73858260573627
 22
121.0000000000032
 32
0
 13
83.73858260573627
 23
121.0000000000032
 33
0
  0
SOLID
  5
B7
100
AcDbEntity
  8
标注
  6
ByBlock
 62
    0
370
   -2
100
AcDbTrace
 10
82.90601329019059
 20
104.0000000000027
 30
0
 11
83.73858260573627
 21
99.0000000000027
 31
0
 12
82.0734439746449
 22
99.0000000000027
 32
0
 13
82.0734439746449
 23
99.0000000000027
 33
0
  0
MTEXT
  5
B8
100
AcDbEntity
  8
标注
  6
CONTINUOUS
 62
    0
370
   -2
100
AcDbMText
 10
80.40601329019059
 20
125.0277777777811
 30
0
 40
2.5
 41
15.55555555555571
 71
    5
 72
    1
  1
%%C12%%P0.025
  7
standard
210
0
220
0
230
1
 50
90
 73
    2
 44
1
  0
LINE
  5
B9
100
AcDbEntity
  8
标注
  6
ByBlock
 62
    0
370
   -2
100
AcDbLine
 10
67.5625
 20
116.0000000000032
 11
86.03101329019059
 21
116.0000000000032
  0
LINE
  5
BA
100
AcDbEntity
  8
标注
  6
ByBlock
 62
    0
370
   -2
100
AcDbLine
 10
67.5625
 20
104.0000000000027
 11
86.03101329019059
 21
104.0000000000027
  0
ENDBLK
  5
6C
330
6A
100
AcDbEntity
  8
0
100
AcDbBlockEnd
  0
BLOCK
  5
6E
330
6D
100
AcDbEntity
  8
0
100
AcDbBlockBegin
  2
*D2
 70
    1
 10
0
 20
0
  3
*D2
  1

  0
LINE
  5
BB
100
AcDbEntity
  8
标注
  6
ByBlock
 62
    0
370
   -2
100
AcDbLine
 10
36.99999899339753
 20
92.08489333303311
 11
17.00000301980741
 21
92.08489333303311
  0
SOLID
  5
BC
100
AcDbEntity
  8
标注
  6
ByBlock
 62
    0
370
   -2
100
AcDbTrace
 10
36.99999899339753
 20
92.08489333303311
 30
0
 11
31.99999899339753
 21
91.25232401748742
 31
0
 12
31.99999899339753
 22
92.91746264857879
 32
0
 13
31.99999899339753
 23
92.91746264857879
 33
0
  0
SOLID
  5
BD
100
AcDbEntity
  8
标注
  6
ByBlock
 62
    0
370
   -2
100
AcDbTrace
 10
17.00000301980741
 20
92.08489333303311
 30
0
 11
22.00000301980741
 21
92.91746264857879
 31
0
 12
22.00000301980741
 22
91.25232401748742
 32
0
 13
22.00000301980741
 23
91.25232401748742
 33
0
  0
MTEXT
  5
BE
100
AcDbEntity
  8
标注
  6
CONTINUOUS
 62
    0
370
   -2
100
AcDbMText
 10
27.00000100660247
 20
94.58489333303311
 30
0
 40
2.5
 41
5.833333333333334
 71
    5
 72
    1
  1
20.0
  7
standard
210
0
220
0
230
1
 50
360
 73
    2
 44
1
  0
LINE
  5
BF
100
AcDbEntity
  8
标注
  6
ByBlock
 62
    0
370
   -2
100
AcDbLine
 10
36.99999899339753
 20
100.4375
 11
36.99999899339753
 21
88.95989333303311
  0
LINE
  5
C0
100
AcDbEntity
  8
标注
  6
ByBlock
 62
    0
370
   -2
100
AcDbLine
 10
17.00000301980741
 20
105.4375
 11
17.00000301980741
 21
88.95989333303311
  0
ENDBLK
  5
6F
330
6D
100
AcDbEntity
  8
0
100
AcDbBlockEnd
  0
BLOCK
  5
71
330
70
100
AcDbEntity
  8
0
100
AcDbBlockBegin
  2
*D12
 70
    1
 10
0
 20
0
  3
*D12
  1

  0
LINE
  5
C1
100
AcDbEntity
  8
标注
  6
ByBlock
 62
    0
370
   -2
100
AcDbLine
 10
50.49082281731576
 20
46.90556155202313
 11
69.50917718268424
 21
53.09443844797687
  0
SOLID
  5
C2
100
AcDbEntity
  8
标注
  6
ByBlock
 62
    0
370
   -2
100
AcDbTrace
 10
50.49082281731576
 20
46.90556155202313
 30
0
 11
54.98777795859485
 21
49.24448568985056
 31
0
 12
55.50304485872091
 22
47.66107586217256
 32
0
 13
55.50304485872091
 23
47.66107586217256
 33
0
  0
SOLID
  5
C3
100
AcDbEntity
  8
标注
  6
ByBlock
 62
    0
370
   -2
100
AcDbTrace
 10
69.50917718268424
 20
53.09443844797687
 30
0
 11
65.01222204140515
 21
50.75551431014944
 31
0
 12
64.49695514127909
 22
52.33892413782744
 32
0
 13
64.49695514127909
 23
52.33892413782744
 33
0
  0
MTEXT
  5
C4
100
AcDbEntity
  8
标注
  6
CONTINUOUS
 62
    0
370
   -2
100
AcDbMText
 10
59.22639038800578
 20
52.37729429567106
 30
0
 40
2.5
 41
8.333333333333334
 71
    5
 72
    1
  1
%%C20.0
  7
standard
210
0
220
0
230
1
 50
18.0257172014755
 73
    2
 44
1
  0
ENDBLK
  5
72
330
70
100
AcDbEntity
  8
0
100
AcDbBlockEnd
  0
BLOCK
  5
74
330
73
100
AcDbEntity
  8
0
100
AcDbBlockBegin
  2
*D3
 70
    1
 10
0
 20
0
  3
*D3
  1

  0
LINE
  5
C5
100
AcDbEntity
  8
标注
  6
ByBlock
 62
    0
370
   -2
100
AcDbLine
 10
37.00000704621728
 20
123.0266018645507
 11
53.99999999999829
 21
123.0266018645507
  0
SOLID
  5
C6
100
AcDbEntity
  8
标注
  6
ByBlock
 62
    0
370
   -2
100
AcDbTrace
 10
37.00000704621728
 20
123.0266018645507
 30
0
 11
42.00000704621728
 21
123.8591711800964
 31
0
 12
42.00000704621728
 22
122.194032549005
 32
0
 13
42.00000704621728
 23
122.194032549005
 33
0
  0
SOLID
  5
C7
100
AcDbEntity
  8
标注
  6
ByBlock
 62
    0
370
   -2
100
AcDbTrace
 10
53.99999999999829
 20
123.0266018645507
 30
0
 11
48.99999999999829
 21
122.194032549005
 31
0
 12
48.99999999999829
 22
123.8591711800964
 32
0
 13
48.99999999999829
 23
123.8591711800964
 33
0
  0
MTEXT
  5
C8
100
AcDbEntity
  8
标注
  6
CONTINUOUS
 62
    0
370
   -2
100
AcDbMText
 10
45.50000352310778
 20
125.5266018645507
 30
0
 40
2.5
 41
5.277777777777778
 71
    5
 72
    1
  1
17.0
  7
standard
210
0
220
0
230
1
 50
0
 73
    2
 44
1
  0
LINE
  5
C9
100
AcDbEntity
  8
标注
  6
ByBlock
 62
    0
370
   -2
100
AcDbLine
 10
37.00000704621728
 20
119.5625
 11
37.00000704621728
 21
126.1516018645507
  0
LINE
  5
CA
100
AcDbEntity
  8
标注
  6
ByBlock
 62
    0
370
   -2
100
AcDbLine
 10
53.99999999999829
 20
119.5625
 11
53.99999999999829
 21
126.1516018645507
  0
ENDBLK
  5
75
330
73
100
AcDbEntity
  8
0
100
AcDbBlockEnd
  0
BLOCK
  5
77
330
76
100
AcDbEntity
  8
0
100
AcDbBlockBegin
  2
*D16
 70
    1
 10
0
 20
0
  3
*D16
  1

  0
LINE
  5
CB
100
AcDbEntity
  8
标注
  6
ByBlock
 62
    0
370
   -2
100
AcDbLine
 10
118.8185668323259
 20
119.6215334615607
 11
142.7341034260816
 21
119.6215334615607
  0
SOLID
  5
CC
100
AcDbEntity
  8
标注
  6
ByBlock
 62
    0
370
   -2
100
AcDbTrace
 10
118.8185668323259
 20
119.6215334615607
 30
0
 11
123.8185668323259
 21
120.4541027771064
 31
0
 12
123.8185668323259
 22
118.788964146015
 32
0
 13
123.8185668323259
 23
118.788964146015
 33
0
  0
SOLID
  5
CD
100
AcDbEntity
  8
标注
  6
ByBlock
 62
    0
370
   -2
100
AcDbTrace
 10
142.7341034260816
 20
119.6215334615607
 30
0
 11
137.7341034260816
 21
118.788964146015
 31
0
 12
137.7341034260816
 22
120.4541027771064
 32
0
 13
137.7341034260816
 23
120.4541027771064
 33
0
  0
MTEXT
  5
CE
100
AcDbEntity
  8
标注
  6
CONTINUOUS
 62
    0
370
   -2
100
AcDbMText
 10
130.7763351292037
 20
122.1215334615607
 30
0
 40
2.5
 41
3.055555555555711
 71
    5
 72
    1
  1
60
  7
standard
210
0
220
0
230
1
 50
0
 73
    2
 44
1
  0
LINE
  5
CF
100
AcDbEntity
  8
标注
  6
ByBlock
 62
    0
370
   -2
100
AcDbLine
 10
118.8185668323259
 20
115.5624999999985
 11
118.8185668323259
 21
122.7465334615607
  0
LINE
  5
D0
100
AcDbEntity
  8
标注
  6
ByBlock
 62
    0
370
   -2
100
AcDbLine
 10
142.7341034260816
 20
114.5624999999978
 11
142.7341034260816
 21
122.7465334615607
  0
ENDBLK
  5
78
330
76
100
AcDbEntity
  8
0
100
AcDbBlockEnd
  0
BLOCK
  5
7A
330
79
100
AcDbEntity
  8
0
100
AcDbBlockBegin
  2
*D15
 70
    1
 10
0
 20
0
  3
*D15
  1

  0
LINE
  5
D1
100
AcDbEntity
  8
标注
  6
ByBlock
 62
    0
370
   -2
100
AcDbLine
 10
17.00000301980741
 20
133.8339928827362
 11
142.7341034260816
 21
133.8339928827362
  0
SOLID
  5
D2
100
AcDbEntity
  8
标注
  6
ByBlock
 62
    0
370
   -2
100
AcDbTrace
 10
17.00000301980741
 20
133.8339928827362
 30
0
 11
22.00000301980741
 21
134.6665621982819
 31
0
 12
22.00000301980741
 22
133.0014235671906
 32
0
 13
22.00000301980741
 23
133.0014235671906
 33
0
  0
SOLID
  5
D3
100
AcDbEntity
  8
标注
  6
ByBlock
 62
    0
370
   -2
100
AcDbTrace
 10
142.7341034260816
 20
133.8339928827362
 30
0
 11
137.7341034260816
 21
133.0014235671906
 31
0
 12
137.7341034260816
 22
134.6665621982819
 32
0
 13
137.7341034260816
 23
134.6665621982819
 33
0
  0
MTEXT
  5
D4
100
AcDbEntity
  8
标注
  6
CONTINUOUS
 62
    0
370
   -2
100
AcDbMText
 10
79.86705322294449
 20
136.3339928827362
 30
0
 40
2.5
 41
4.444444444444445
 71
    5
 72
    1
  1
170
  7
standard
210
0
220
0
230
1
 50
0
 73
    2
 44
1
  0
LINE
  5
D5
100
AcDbEntity
  8
标注
  6
ByBlock
 62
    0
370
   -2
100
AcDbLine
 10
17.00000301980741
 20
114.5625
 11
17.00000301980741
 21
136.9589928827362
  0
LINE
  5
D6
100
AcDbEntity
  8
标注
  6
ByBlock
 62
    0
370
   -2
100
AcDbLine
 10
142.7341034260816
 20
114.5624999999978
 11
142.7341034260816
 21
136.9589928827362
  0
ENDBLK
  5
7B
330
79
100
AcDbEntity
  8
0
100
AcDbBlockEnd
  0
BLOCK
  5
7D
330
7C
100
AcDbEntity
  8
0
100
AcDbBlockBegin
  2
*D13
 70
    1
 10
0
 20
0
  3
*D13
  1

  0
LINE
  5
D7
100
AcDbEntity
  8
标注
  6
ByBlock
 62
    0
370
   -2
100
AcDbLine
 10
121.3980908892076
 20
66.00000000000321
 11
121.3980908892076
 21
34.0000000000027
  0
SOLID
  5
D8
100
AcDbEntity
  8
标注
  6
ByBlock
 62
    0
370
   -2
100
AcDbTrace
 10
121.3980908892076
 20
56.0000000000032
 30
0
 11
120.565521573662
 21
61.0000000000032
 31
0
 12
122.2306602047533
 22
61.0000000000032
 32
0
 13
122.2306602047533
 23
61.0000000000032
 33
0
  0
SOLID
  5
D9
100
AcDbEntity
  8
标注
  6
ByBlock
 62
    0
370
   -2
100
AcDbTrace
 10
121.3980908892076
 20
44.0000000000027
 30
0
 11
122.2306602047533
 21
39.0000000000027
 31
0
 12
120.565521573662
 22
39.0000000000027
 32
0
 13
120.565521573662
 23
39.0000000000027
 33
0
  0
MTEXT
  5
DA
100
AcDbEntity
  8
标注
  6
CONTINUOUS
 62
    0
370
   -2
100
AcDbMText
 10
118.8980908892076
 20
65.02777777778107
 30
0
 40
2.5
 41
15.55555555555571
 71
    5
 72
    1
  1
%%C12%%P0.025
  7
standard
210
0
220
0
230
1
 50
90
 73
    2
 44
1
  0
LINE
  5
DB
100
AcDbEntity
  8
标注
  6
ByBlock
 62
    0
370
   -2
100
AcDbLine
 10
108.7439331676741
 20
56.0000000000032
 11
124.5230908892076
 21
56.0000000000032
  0
LINE
  5
DC
100
AcDbEntity
  8
标注
  6
ByBlock
 62
    0
370
   -2
100
AcDbLine
 10
108.7439331676741
 20
44.0000000000027
 11
124.5230908892076
 21
44.0000000000027
  0
ENDBLK
  5
7E
330
7C
100
AcDbEntity
  8
0
100
AcDbBlockEnd
  0
BLOCK
  5
80
330
7F
100
AcDbEntity
  8
0
100
AcDbBlockBegin
  2
*D5
 70
    1
 10
0
 20
0
  3
*D5
  1

  0
LINE
  5
DD
100
AcDbEntity
  8
标注
  6
ByBlock
 62
    0
370
   -2
100
AcDbLine
 10
151.8956600638135
 20
123.9999999999985
 11
151.8956600638135
 21
96.00000000000145
  0
SOLID
  5
DE
100
AcDbEntity
  8
标注
  6
ByBlock
 62
    0
370
   -2
100
AcDbTrace
 10
151.8956600638135
 20
113.9999999999985
 30
0
 11
151.0630907482678
 21
118.9999999999985
 31
0
 12
152.7282293793591
 22
118.9999999999985
 32
0
 13
152.7282293793591
 23
118.9999999999985
 33
0
  0
SOLID
  5
DF
100
AcDbEntity
  8
标注
  6
ByBlock
 62
    0
370
   -2
100
AcDbTrace
 10
151.8956600638135
 20
106.0000000000014
 30
0
 11
152.7282293793591
 21
101.0000000000014
 31
0
 12
151.0630907482678
 22
101.0000000000014
 32
0
 13
151.0630907482678
 23
101.0000000000014
 33
0
  0
MTEXT
  5
E0
100
AcDbEntity
  8
标注
  6
CONTINUOUS
 62
    0
370
   -2
100
AcDbMText
 10
149.3956600638135
 20
110
 30
0
 40
2.5
 41
3.611111111111266
 71
    5
 72
    1
  1
M6
  7
standard
210
0
220
0
230
1
 50
90
 73
    2
 44
1
  0
LINE
  5
E1
100
AcDbEntity
  8
标注
  6
ByBlock
 62
    0
370
   -2
100
AcDbLine
 10
142.9935968523187
 20
113.9999999999985
 11
155.0206600638135
 21
113.9999999999985
  0
LINE
  5
E2
100
AcDbEntity
  8
标注
  6
ByBlock
 62
    0
370
   -2
100
AcDbLine
 10
142.9935968523187
 20
106.0000000000014
 11
155.0206600638135
 21
106.0000000000014
  0
ENDBLK
  5
81
330
7F
100
AcDbEntity
  8
0
100
AcDbBlockEnd
  0
BLOCK
  5
83
330
82
100
AcDbEntity
  8
0
100
AcDbBlockBegin
  2
*D1
 70
    1
 10
0
 20
0
  3
*D1
  1

  0
LINE
  5
E3
100
AcDbEntity
  8
标注
  6
ByBlock
 62
    0
370
   -2
100
AcDbLine
 10
46.99999899339753
 20
97.26651916367003
 11
23.00000301980741
 21
97.26651916367003
  0
SOLID
  5
E4
100
AcDbEntity
  8
标注
  6
ByBlock
 62
    0
370
   -2
100
AcDbTrace
 10
36.99999899339753
 20
97.26651916367003
 30
0
 11
41.99999899339753
 21
98.09908847921571
 31
0
 12
41.99999899339753
 22
96.43394984812434
 32
0
 13
41.99999899339753
 23
96.43394984812434
 33
0
  0
SOLID
  5
E5
100
AcDbEntity
  8
标注
  6
ByBlock
 62
    0
370
   -2
100
AcDbTrace
 10
33.00000301980741
 20
97.26651916367003
 30
0
 11
28.00000301980741
 21
96.43394984812434
 31
0
 12
28.00000301980741
 22
98.09908847921571
 32
0
 13
28.00000301980741
 23
98.09908847921571
 33
0
  0
MTEXT
  5
E6
100
AcDbEntity
  8
标注
  6
CONTINUOUS
 62
    0
370
   -2
100
AcDbMText
 10
40.33333232673087
 20
99.76651916367003
 30
0
 40
2.5
 41
4.166666666666667
 71
    5
 72
    1
  1
4.0
  7
standard
210
0
220
0
230
1
 50
360
 73
    2
 44
1
  0
LINE
  5
E7
100
AcDbEntity
  8
标注
  6
ByBlock
 62
    0
370
   -2
100
AcDbLine
 10
36.99999899339753
 20
100.4375
 11
36.99999899339753
 21
94.14151916367003
  0
LINE
  5
E8
100
AcDbEntity
  8
标注
  6
ByBlock
 62
    0
370
   -2
100
AcDbLine
 10
33.00000301980741
 20
104.4375000000014
 11
33.00000301980741
 21
94.14151916367003
  0
ENDBLK
  5
84
330
82
100
AcDbEntity
  8
0
100
AcDbBlockEnd
  0
BLOCK
  5
86
330
85
100
AcDbEntity
  8
0
100
AcDbBlockBegin
  2
*D6
 70
    1
 10
0
 20
0
  3
*D6
  1

  0
LINE
  5
E9
100
AcDbEntity
  8
标注
  6
ByBlock
 62
    0
370
   -2
100
AcDbLine
 10
14.95269168269509
 20
123.9999999999985
 11
14.95269168269509
 21
96.00000000000146
  0
SOLID
  5
EA
100
AcDbEntity
  8
标注
  6
ByBlock
 62
    0
370
   -2
100
AcDbTrace
 10
14.95269168269509
 20
113.9999999999985
 30
0
 11
14.12012236714941
 21
118.9999999999985
 31
0
 12
15.78526099824077
 22
118.9999999999985
 32
0
 13
15.78526099824077
 23
118.9999999999985
 33
0
  0
SOLID
  5
EB
100
AcDbEntity
  8
标注
  6
ByBlock
 62
    0
370
   -2
100
AcDbTrace
 10
14.95269168269509
 20
106.0000000000015
 30
0
 11
15.78526099824077
 21
101.0000000000015
 31
0
 12
14.12012236714941
 22
101.0000000000015
 32
0
 13
14.12012236714941
 23
101.0000000000015
 33
0
  0
MTEXT
  5
EC
100
AcDbEntity
  8
标注
  6
CONTINUOUS
 62
    0
370
   -2
100
AcDbMText
 10
12.45269168269509
 20
110
 30
0
 40
2.5
 41
3.611111111111111
 71
    5
 72
    1
  1
M8
  7
standard
210
0
220
0
230
1
 50
90
 73
    2
 44
1
  0
LINE
  5
ED
100
AcDbEntity
  8
标注
  6
ByBlock
 62
    0
370
   -2
100
AcDbLine
 10
16.8858338442725
 20
113.9999999999985
 11
11.82769168269509
 21
113.9999999999985
  0
LINE
  5
EE
100
AcDbEntity
  8
标注
  6
ByBlock
 62
    0
370
   -2
100
AcDbLine
 10
16.88583384427247
 20
106.0000000000015
 11
11.82769168269509
 21
106.0000000000015
  0
ENDBLK
  5
87
330
85
100
AcDbEntity
  8
0
100
AcDbBlockEnd
  0
ENDSEC
  0
SECTION
  2
ENTITIES
  0
LINE
  5
EF
100
AcDbEntity
  8
0
  6
ByLayer
 62
  256
370
   -1
100
AcDbLine
 10
142.7341034260816
 20
112.9999999999978
 11
142.7341034260816
 21
107.0000000000022
  0
LINE
  5
F0
100
AcDbEntity
  8
虚线
  6
ByLayer
 62
  256
370
   -1
100
AcDbLine
 10
10
 20
150
 11
230
 21
150
  0
LINE
  5
F1
100
AcDbEntity
  8
虚线
  6
ByLayer
 62
  256
370
   -1
100
AcDbLine
 10
230
 20
150
 11
230
 21
80
  0
LINE
  5
F2
100
AcDbEntity
  8
虚线
  6
ByLayer
 62
  256
370
   -1
100
AcDbLine
 10
230
 20
80
 11
10
 21
80
  0
LINE
  5
F3
100
AcDbEntity
  8
虚线
  6
ByLayer
 62
  256
370
   -1
100
AcDbLine
 10
10
 20
80
 11
10
 21
20
  0
LINE
  5
F4
100
AcDbEntity
  8
虚线
  6
ByLayer
 62
  256
370
   -1
100
AcDbLine
 10
10
 20
20
 11
230
 21
20
  0
LINE
  5
F5
100
AcDbEntity
  8
虚线
  6
ByLayer
 62
  256
370
   -1
100
AcDbLine
 10
230
 20
20
 11
230
 21
80
  0
LINE
  5
F6
100
AcDbEntity
  8
虚线
  6
ByLayer
 62
  256
370
   -1
100
AcDbLine
 10
10
 20
150
 11
10
 21
80
  0
MTEXT
  5
F7
100
AcDbEntity
  8
0
  6
ByLayer
 62
  256
370
   -1
100
AcDbMText
 10
221.9997556604238
 20
86.19072473478278
 30
0
 40
3
 41
3.63
 71
    1
 72
    1
  1
轴
  7
wqy-unicode
210
0
220
0
230
1
 50
0
 73
    2
 44
1
  0
MTEXT
  5
F8
100
AcDbEntity
  8
0
  6
ByLayer
 62
  256
370
   -1
100
AcDbMText
 10
219.3779845658296
 20
25.56226817229299
 30
0
 40
3
 41
8.470000000000001
 71
    1
 72
    1
  1
螺母
  7
wqy-unicode
210
0
220
0
230
1
 50
0
 73
    2
 44
1
  0
LINE
  5
F9
100
AcDbEntity
  8
中心线
  6
ByLayer
 62
  256
370
   -1
100
AcDbLine
 10
10
 20
110
 11
230
 21
110
  0
LINE
  5
FA
100
AcDbEntity
  8
0
  6
ByLayer
 62
  256
370
   -1
100
AcDbLine
 10
66
 20
116.0000000000032
 11
53.99999999999829
 21
115.9999999999988
  0
LINE
  5
FB
100
AcDbEntity
  8
0
  6
ByLayer
 62
  256
370
   -1
100
AcDbLine
 10
66
 20
104.0000000000027
 11
53.99999999999829
 21
104.0000000000011
  0
LINE
  5
FC
100
AcDbEntity
  8
0
  6
ByLayer
 62
  256
370
   -1
100
AcDbLine
 10
66
 20
116
 11
66
 21
104
  0
CIRCLE
  5
FD
100
AcDbEntity
  8
0
  6
ByLayer
 62
  256
370
   -1
100
AcDbCircle
 10
53.99999999999829
 20
110
 40
0
  0
LINE
  5
FE
100
AcDbEntity
  8
0
  6
ByLayer
 62
  256
370
   -1
100
AcDbLine
 10
53.99999999999828
 20
102
 11
53.99999999999829
 21
118
  0
LINE
  5
FF
100
AcDbEntity
  8
0
  6
ByLayer
 62
  256
370
   -1
100
AcDbLine
 10
53.99999999999829
 20
118
 11
37.00000704621728
 21
118
  0
LINE
  5
100
100
AcDbEntity
  8
0
  6
ByLayer
 62
  256
370
   -1
100
AcDbLine
 10
53.99999999999828
 20
102
 11
36.99999899339753
 21
102
  0
LINE
  5
101
100
AcDbEntity
  8
0
  6
ByLayer
 62
  256
370
   -1
100
AcDbLine
 10
36.99999899339753
 20
102
 11
37.00000704621728
 21
118
  0
LINE
  5
102
100
AcDbEntity
  8
0
  6
ByLayer
 62
  256
370
   -1
100
AcDbLine
 10
33.00000301980741
 20
106
 11
33.00000301980741
 21
113.9999999999985
  0
LINE
  5
103
100
AcDbEntity
  8
0
  6
ByLayer
 62
  256
370
   -1
100
AcDbLine
 10
17.00000301980741
 20
113
 11
33.00000301980741
 21
113
  0
LINE
  5
104
100
AcDbEntity
  8
0
  6
ByLayer
 62
  256
370
   -1
100
AcDbLine
 10
17.00000301980741
 20
107
 11
33.00000301980741
 21
107
  0
LINE
  5
105
100
AcDbEntity
  8
0
  6
ByLayer
 62
  256
370
   -1
100
AcDbLine
 10
18.44833384427249
 20
106.0000000000014
 11
17.00000301980741
 21
107
  0
LINE
  5
106
100
AcDbEntity
  8
0
  6
ByLayer
 62
  256
370
   -1
100
AcDbLine
 10
17.00000301980741
 20
107
 11
17.00000301980741
 21
113
  0
LINE
  5
107
100
AcDbEntity
  8
0
  6
ByLayer
 62
  256
370
   -1
100
AcDbLine
 10
17.00000301980741
 20
113
 11
18.44833384427249
 21
113.9999999999985
  0
LINE
  5
108
100
AcDbEntity
  8
0
  6
ByLayer
 62
  256
370
   -1
100
AcDbLine
 10
37.00000503301234
 20
113.9999999999985
 11
18.4483338442725
 21
113.9999999999985
  0
LINE
  5
109
100
AcDbEntity
  8
0
  6
ByLayer
 62
  256
370
   -1
100
AcDbLine
 10
37.00000100660247
 20
106.0000000000014
 11
18.44833384427247
 21
106.0000000000015
  0
LINE
  5
10A
100
AcDbEntity
  8
0
  6
ByLayer
 62
  256
370
   -1
100
AcDbLine
 10
17.00000301980741
 20
113
 11
17.00000301980741
 21
107
  0
LINE
  5
10B
100
AcDbEntity
  8
0
  6
ByLayer
 62
  256
370
   -1
100
AcDbLine
 10
18.4483338442725
 20
113.9999999999985
 11
18.44833384427247
 21
106.0000000000015
  0
LINE
  5
10C
100
AcDbEntity
  8
0
  6
ByLayer
 62
  256
370
   -1
100
AcDbLine
 10
141.4310968523187
 20
113.9999999999985
 11
141.4310968523187
 21
106.0000000000014
  0
LINE
  5
10D
100
AcDbEntity
  8
0
  6
ByLayer
 62
  256
370
   -1
100
AcDbLine
 10
141.4310968523187
 20
106.0000000000014
 11
142.7341034260816
 21
107.0000000000022
  0
LINE
  5
10E
100
AcDbEntity
  8
0
  6
ByLayer
 62
  256
370
   -1
100
AcDbLine
 10
141.4310968523187
 20
113.9999999999985
 11
142.7341034260816
 21
112.9999999999978
  0
LINE
  5
10F
100
AcDbEntity
  8
0
  6
ByLayer
 62
  256
370
   -1
100
AcDbLine
 10
118.8185668323259
 20
113.9999999999985
 11
118.8185668323259
 21
106.0000000000014
  0
LINE
  5
110
100
AcDbEntity
  8
0
  6
ByLayer
 62
  256
370
   -1
100
AcDbLine
 10
66
 20
113.9999999999985
 11
141.4310968523187
 21
113.9999999999985
  0
LINE
  5
111
100
AcDbEntity
  8
0
  6
ByLayer
 62
  256
370
   -1
100
AcDbLine
 10
66
 20
106.0000000000014
 11
141.4310968523187
 21
106.0000000000014
  0
LINE
  5
112
100
AcDbEntity
  8
0
  6
ByLayer
 62
  256
370
   -1
100
AcDbLine
 10
142.7341034260816
 20
112.9999999999978
 11
118.8185668323259
 21
112.9999999999978
  0
LINE
  5
113
100
AcDbEntity
  8
0
  6
ByLayer
 62
  256
370
   -1
100
AcDbLine
 10
142.7341034260816
 20
107.0000000000022
 11
118.8185668323259
 21
107.0000000000022
  0
LINE
  5
114
100
AcDbEntity
  8
中心线
  6
ByLayer
 62
  256
370
   -1
100
AcDbLine
 10
51.18143316767413
 20
50
 11
271.1814331676741
 21
50
  0
LINE
  5
115
100
AcDbEntity
  8
0
  6
ByLayer
 62
  256
370
   -1
100
AcDbLine
 10
107.1814331676741
 20
56.0000000000032
 11
95.18143316767242
 21
55.99999999999881
  0
LINE
  5
116
100
AcDbEntity
  8
0
  6
ByLayer
 62
  256
370
   -1
100
AcDbLine
 10
107.1814331676741
 20
44.0000000000027
 11
95.18143316767242
 21
44.00000000000109
  0
LINE
  5
117
100
AcDbEntity
  8
0
  6
ByLayer
 62
  256
370
   -1
100
AcDbLine
 10
107.1814331676741
 20
56
 11
107.1814331676741
 21
44
  0
CIRCLE
  5
118
100
AcDbEntity
  8
0
  6
ByLayer
 62
  256
370
   -1
100
AcDbCircle
 10
95.18143316767242
 20
50
 40
0
  0
LINE
  5
119
100
AcDbEntity
  8
0
  6
ByLayer
 62
  256
370
   -1
100
AcDbLine
 10
95.18143316767241
 20
42
 11
95.18143316767242
 21
58
  0
LINE
  5
11A
100
AcDbEntity
  8
中心线
  6
ByLayer
 62
  256
370
   -1
100
AcDbLine
 10
60
 20
70
 11
60
 21
30
  0
CIRCLE
  5
11B
100
AcDbEntity
  8
0
  6
ByLayer
 62
  256
370
   -1
100
AcDbCircle
 10
60
 20
50
 40
3
  0
CIRCLE
  5
11C
100
AcDbEntity
  8
0
  6
ByLayer
 62
  256
370
   -1
100
AcDbCircle
 10
60
 20
50
 40
6
  0
CIRCLE
  5
11D
100
AcDbEntity
  8
0
  6
ByLayer
 62
  256
370
   -1
100
AcDbCircle
 10
60
 20
50
 40
8
  0
LINE
  5
11E
100
AcDbEntity
  8
0
  6
ByLayer
 62
  256
370
   -1
100
AcDbLine
 10
93.18143402415386
 20
50.00000000000001
 11
93.18143402415386
 21
58
  0
LINE
  5
11F
100
AcDbEntity
  8
0
  6
ByLayer
 62
  256
370
   -1
100
AcDbLine
 10
93.18143402415386
 20
58
 11
93.18143402415386
 21
42
  0
ARC
  5
120
100
AcDbEntity
  8
0
  6
ByLayer
 62
  256
370
   -1
100
AcDbCircle
 10
60
 20
50
 40
10
100
AcDbArc
 50
306.869897645844
 51
53.1301023541552
  0
ARC
  5
121
100
AcDbEntity
  8
0
  6
ByLayer
 62
  256
370
   -1
100
AcDbCircle
 10
60
 20
50
 40
10
100
AcDbArc
 50
126.8698976458448
 51
233.130102354156
  0
LINE
  5
122
100
AcDbEntity
  8
0
  6
ByLayer
 62
  256
370
   -1
100
AcDbLine
 10
53.99999999999984
 20
58
 11
66.00000000000017
 21
58
  0
LINE
  5
123
100
AcDbEntity
  8
0
  6
ByLayer
 62
  256
370
   -1
100
AcDbLine
 10
54.00000000000001
 20
42
 11
65.99999999999999
 21
42
  0
DIMENSION
  5
124
100
AcDbEntity
  8
标注
  6
ByLayer
 62
  256
370
   -1
100
AcDbDimension
  2
*D1
 10
33.00000301980741
 20
97.26651916367003
 30
0
 11
35.00000100660247
 21
99.76651916367003
 31
0
 70
   32
 71
    5
  3
Standard
 53
0
210
0
220
0
230
1
100
AcDbAlignedDimension
 13
36.99999899339753
 23
102
 33
0
 14
33.00000301980741
 24
106.0000000000014
 34
0
100
AcDbRotatedDimension
  0
DIMENSION
  5
125
100
AcDbEntity
  8
标注
  6
ByLayer
 62
  256
370
   -1
100
AcDbDimension
  2
*D2
 10
17.00000301980741
 20
92.08489333303311
 30
0
 11
27.00000100660247
 21
94.58489333303311
 31
0
 70
   32
 71
    5
  3
Standard
 53
0
210
0
220
0
230
1
100
AcDbAlignedDimension
 13
36.99999899339753
 23
102
 33
0
 14
17.00000301980741
 24
107
 34
0
100
AcDbRotatedDimension
  0
DIMENSION
  5
126
100
AcDbEntity
  8
标注
  6
ByLayer
 62
  256
370
   -1
100
AcDbDimension
  2
*D3
 10
53.99999999999829
 20
123.0266018645507
 30
0
 11
45.50000352310778
 21
125.5266018645507
 31
0
 70
   32
 71
    5
  3
Standard
 53
0
210
0
220
0
230
1
100
AcDbAlignedDimension
 13
37.00000704621728
 23
118
 33
0
 14
53.99999999999829
 24
118
 34
0
100
AcDbRotatedDimension
  0
DIMENSION
  5
127
100
AcDbEntity
  8
标注
  6
ByLayer
 62
  256
370
   -1
100
AcDbDimension
  2
*D4
 10
66
 20
123.0266018645507
 30
0
 11
59.99999999999915
 21
125.5266018645507
 31
0
 70
   32
 71
    5
  3
Standard
 53
0
210
0
220
0
230
1
100
AcDbAlignedDimension
 13
53.99999999999829
 23
118
 33
0
 14
66
 24
116.0000000000032
 34
0
100
AcDbRotatedDimension
  0
DIMENSION
  5
128
100
AcDbEntity
  8
标注
  6
ByLayer
 62
  256
370
   -1
100
AcDbDimension
  2
*D5
 10
151.8956600638135
 20
106.0000000000014
 30
0
 11
149.3956600638135
 21
110
 31
0
 70
   32
  1
M6
 71
    5
  3
Standard
 53
0
210
0
220
0
230
1
100
AcDbAlignedDimension
 13
141.4310968523187
 23
113.9999999999985
 33
0
 14
141.4310968523187
 24
106.0000000000014
 34
0
 50
90
100
AcDbRotatedDimension
  0
DIMENSION
  5
129
100
AcDbEntity
  8
标注
  6
ByLayer
 62
  256
370
   -1
100
AcDbDimension
  2
*D6
 10
14.95269168269509
 20
106.0000000000015
 30
0
 11
12.45269168269509
 21
110
 31
0
 70
   32
  1
M8
 71
    5
  3
Standard
 53
0
210
0
220
0
230
1
100
AcDbAlignedDimension
 13
18.4483338442725
 23
113.9999999999985
 33
0
 14
18.44833384427247
 24
106.0000000000015
 34
0
 50
90
100
AcDbRotatedDimension
  0
DIMENSION
  5
12A
100
AcDbEntity
  8
标注
  6
ByLayer
 62
  256
370
   -1
100
AcDbDimension
  2
*D7
 10
82.90601329019059
 20
104.0000000000027
 30
0
 11
80.40601329019059
 21
110.000000000003
 31
0
 70
   32
  1
%%C12%%P0.025
 71
    5
  3
Standard
 53
0
210
0
220
0
230
1
100
AcDbAlignedDimension
 13
66
 23
116.0000000000032
 33
0
 14
66
 24
104.0000000000027
 34
0
 50
90
100
AcDbRotatedDimension
  0
DIMENSION
  5
12B
100
AcDbEntity
  8
标注
  6
ByLayer
 62
  256
370
   -1
100
AcDbDimension
  2
*D8
 10
42.04519245431094
 20
102
 30
0
 11
39.54519245431094
 21
110
 31
0
 70
   32
  1
%%C<>
 71
    5
  3
Standard
 53
0
210
0
220
0
230
1
100
AcDbAlignedDimension
 13
37.00000704621728
 23
118
 33
0
 14
36.99999899339753
 24
102
 34
0
 50
90
100
AcDbRotatedDimension
  0
DIMENSION
  5
12C
100
AcDbEntity
  8
标注
  6
ByLayer
 62
  256
370
   -1
100
AcDbDimension
  2
*D9
 10
107.1814331676741
 20
38.49207759901706
 30
0
 11
101.1814331676733
 21
40.99207759901706
 31
0
 70
   32
 71
    5
  3
Standard
 53
0
210
0
220
0
230
1
100
AcDbAlignedDimension
 13
95.18143316767241
 23
44.00000000000109
 33
0
 14
107.1814331676741
 24
44.0000000000027
 34
0
100
AcDbRotatedDimension
  0
LINE
  5
12D
100
AcDbEntity
  8
0
  6
ByLayer
 62
  256
370
   -1
100
AcDbLine
 10
83.18143316767238
 20
58
 11
83.18143316767238
 21
42
  0
LINE
  5
12E
100
AcDbEntity
  8
虚线
  6
ByLayer
 62
  256
370
   -1
100
AcDbLine
 10
83.18143316767238
 20
53.00000000000015
 11
107.1814331676741
 21
53.00000000000015
  0
LINE
  5
12F
100
AcDbEntity
  8
虚线
  6
ByLayer
 62
  256
370
   -1
100
AcDbLine
 10
83.18143316767238
 20
46.99999999999985
 11
107.1814331676741
 21
46.99999999999986
  0
LINE
  5
130
100
AcDbEntity
  8
0
  6
ByLayer
 62
  256
370
   -1
100
AcDbLine
 10
95.18143316767242
 20
58
 11
83.18143316767238
 21
58
  0
LINE
  5
131
100
AcDbEntity
  8
0
  6
ByLayer
 62
  256
370
   -1
100
AcDbLine
 10
95.18143316767241
 20
42
 11
83.18143316767238
 21
42
  0
DIMENSION
  5
132
100
AcDbEntity
  8
标注
  6
ByLayer
 62
  256
370
   -1
100
AcDbDimension
  2
*D10
 10
107.1814331676741
 20
67.9533216074955
 30
0
 11
95.18143316767325
 21
70.4533216074955
 31
0
 70
   32
 71
    5
  3
Standard
 53
0
210
0
220
0
230
1
100
AcDbAlignedDimension
 13
83.18143316767238
 23
58
 33
0
 14
107.1814331676741
 24
56.0000000000032
 34
0
100
AcDbRotatedDimension
  0
DIMENSION
  5
133
100
AcDbEntity
  8
标注
  6
ByLayer
 62
  256
370
   -1
100
AcDbDimension
  2
*D11
 10
95.18143316767242
 20
61.7353706107312
 30
0
 11
94.18143359591315
 21
64.2353706107312
 31
0
 70
   32
 71
    5
  3
Standard
 53
0
210
0
220
0
230
1
100
AcDbAlignedDimension
 13
93.18143402415386
 23
58
 33
0
 14
95.18143316767242
 24
58
 34
0
100
AcDbRotatedDimension
  0
DIMENSION
  5
134
100
AcDbEntity
  8
标注
  6
ByLayer
 62
  256
370
   -1
100
AcDbDimension
  2
*D12
 10
50.49082281731576
 20
46.90556155202313
 30
0
 11
59.22639038800578
 21
52.37729429567106
 31
0
 70
   35
  1
%%C<>
 71
    5
  3
Standard
 53
0
210
0
220
0
230
1
100
AcDbDiametricDimension
 15
69.50917718268424
 25
53.09443844797687
 35
0
 40
0
  0
DIMENSION
  5
135
100
AcDbEntity
  8
标注
  6
ByLayer
 62
  256
370
   -1
100
AcDbDimension
  2
*D13
 10
121.3980908892076
 20
44.0000000000027
 30
0
 11
118.8980908892076
 21
50.00000000000296
 31
0
 70
   32
  1
%%C12%%P0.025
 71
    5
  3
Standard
 53
0
210
0
220
0
230
1
100
AcDbAlignedDimension
 13
107.1814331676741
 23
56.0000000000032
 33
0
 14
107.1814331676741
 24
44.0000000000027
 34
0
 50
90
100
AcDbRotatedDimension
  0
DIMENSION
  5
136
100
AcDbEntity
  8
标注
  6
ByLayer
 62
  256
370
   -1
100
AcDbDimension
  2
*D14
 10
113.4035824647964
 20
46.99999999999986
 30
0
 11
110.9035824647964
 21
50
 31
0
 70
   32
  1
M6
 71
    5
  3
Standard
 53
0
210
0
220
0
230
1
100
AcDbAlignedDimension
 13
107.1814331676741
 23
53.00000000000015
 33
0
 14
107.1814331676741
 24
46.99999999999986
 34
0
 50
90
100
AcDbRotatedDimension
  0
MTEXT
  5
137
100
AcDbEntity
  8
0
  6
ByLayer
 62
  256
370
   -1
100
AcDbMText
 10
82.35556660268443
 20
11.91466161451941
 30
0
 40
3
 41
94.73666666666665
 71
    1
 72
    1
  1
4-5臂连接轴. 45#钢, 轴和螺母各1件, 共2件
  7
wqy-unicode
210
0
220
0
230
1
 50
0
 73
    2
 44
1
  0
DIMENSION
  5
138
100
AcDbEntity
  8
标注
  6
ByLayer
 62
  256
370
   -1
100
AcDbDimension
  2
*D15
 10
142.7341034260816
 20
133.8339928827362
 30
0
 11
79.86705322294449
 21
136.3339928827362
 31
0
 70
   32
  1
170
 71
    5
  3
Standard
 53
0
210
0
220
0
230
1
100
AcDbAlignedDimension
 13
17.00000301980741
 23
113
 33
0
 14
142.7341034260816
 24
112.9999999999978
 34
0
100
AcDbRotatedDimension
  0
DIMENSION
  5
139
100
AcDbEntity
  8
标注
  6
ByLayer
 62
  256
370
   -1
100
AcDbDimension
  2
*D16
 10
142.7341034260816
 20
119.6215334615607
 30
0
 11
130.7763351292037
 21
122.1215334615607
 31
0
 70
   32
  1
60
 71
    5
  3
Standard
 53
0
210
0
220
0
230
1
100
AcDbAlignedDimension
 13
118.8185668323259
 23
113.9999999999985
 33
0
 14
142.7341034260816
 24
112.9999999999978
 34
0
100
AcDbRotatedDimension
  0
DIMENSION
  5
13A
100
AcDbEntity
  8
标注
  6
ByLayer
 62
  256
370
   -1
100
AcDbDimension
  2
*D17
 10
46.78267892803611
 20
41.99999999999999
 30
0
 11
44.28267892803611
 21
49.99999999999999
 31
0
 70
   32
 71
    5
  3
Standard
 53
0
210
0
220
0
230
1
100
AcDbAlignedDimension
 13
53.99999999999984
 23
57.99999999999999
 33
0
 14
54.00000000000001
 24
41.99999999999999
 34
0
 50
90
100
AcDbRotatedDimension
  0
DIMENSION
  5
13B
100
AcDbEntity
  8
标注
  6
ByLayer
 62
  256
370
   -1
100
AcDbDimension
  2
*D18
 10
60
 20
50
 30
0
 11
72.42237970319098
 21
41.81186262811502
 31
0
 70
   36
  1
R8
 71
    5
  3
Standard
 53
0
210
0
220
0
230
1
100
AcDbRadialDimension
 15
65.84473245809029
 25
44.53748203725189
 35
0
 40
0
  0
ENDSEC
  0
SECTION
  2
OBJECTS
  0
DICTIONARY
  5
C
330
0
100
AcDbDictionary
281
    1
  3
ACAD_GROUP
350
D
  0
DICTIONARY
  5
D
330
C
100
AcDbDictionary
281
    1
  0
ENDSEC
  0
EOF
