999
dxfrw 0.6.3
  0
SECTION
  2
HEADER
  9
$ACADVER
  1
AC1021
  9
$DWGCODEPAGE
  3
ANSI_1252
  9
$INSBASE
 10
0
 20
0
 30
0
  9
$EXTMIN
 10
-3.750000000000003
 20
8.32466161451941
 30
0
  9
$EXTMAX
 10
271.1814331676741
 20
150
 30
0
  9
$LIMMIN
 10
0
 20
0
  9
$LIMMAX
 10
420
 20
297
  9
$ORTHOMODE
 70
    0
  9
$REGENMODE
 70
    1
  9
$FILLMODE
 70
    1
  9
$QTEXTMODE
 70
    0
  9
$MIRRTEXT
 70
    0
  9
$LTSCALE
 40
1
  9
$ATTMODE
 70
    0
  9
$TEXTSIZE
 40
2.5
  9
$TRACEWID
 40
15.68
  9
$TEXTSTYLE
  7
STANDARD
  9
$CLAYER
  8
标注
  9
$CELTYPE
  6
BYLAYER
  9
$CECOLOR
 62
  256
  9
$CELTSCALE
 40
1
  9
$DISPSILH
 70
    0
  9
$DIMSCALE
 40
2.5
  9
$DIMASZ
 40
2
  9
$DIMEXO
 40
0.625
  9
$DIMDLI
 40
3.75
  9
$DIMRND
 40
0
  9
$DIMDLE
 40
0
  9
$DIMEXE
 40
1.25
  9
$DIMTP
 40
0
  9
$DIMTM
 40
0
  9
$DIMTXT
 40
1
  9
$DIMCEN
 40
2.5
  9
$DIMTSZ
 40
0
  9
$DIMTOL
 70
    0
  9
$DIMLIM
 70
    0
  9
$DIMTIH
 70
    0
  9
$DIMTOH
 70
    0
  9
$DIMSE1
 70
    0
  9
$DIMSE2
 70
    0
  9
$DIMTAD
 70
    1
  9
$DIMZIN
 70
    1
  9
$DIMBLK
  1

  9
$DIMASO
 70
    1
  9
$DIMSHO
 70
    1
  9
$DIMPOST
  1

  9
$DIMAPOST
  1

  9
$DIMALT
 70
    0
  9
$DIMALTD
 70
    3
  9
$DIMALTF
 40
0.03937
  9
$DIMLFAC
 40
1
  9
$DIMTOFL
 70
    1
  9
$DIMTVP
 40
0
  9
$DIMTIX
 70
    0
  9
$DIMSOXD
 70
    0
  9
$DIMSAH
 70
    0
  9
$DIMBLK1
  1

  9
$DIMBLK2
  1

  9
$DIMSTYLE
  2
STANDARD
  9
$DIMCLRD
 70
    0
  9
$DIMCLRE
 70
    0
  9
$DIMCLRT
 70
    0
  9
$DIMTFAC
 40
1
  9
$DIMGAP
 40
0.5
  9
$DIMJUST
 70
    0
  9
$DIMSD1
 70
    0
  9
$DIMSD2
 70
    0
  9
$DIMTOLJ
 70
    0
  9
$DIMTZIN
 70
    8
  9
$DIMALTZ
 70
    0
  9
$DIMALTTZ
 70
    0
  9
$DIMUPT
 70
    0
  9
$DIMDEC
 70
    1
  9
$DIMTDEC
 70
    2
  9
$DIMALTU
 70
    2
  9
$DIMALTTD
 70
    3
  9
$DIMTXSTY
  7
standard
  9
$DIMAUNIT
 70
    0
  9
$DIMADEC
 70
    1
  9
$DIMALTRND
 40
0
  9
$DIMAZIN
 70
    0
  9
$DIMDSEP
 70
    0
  9
$DIMATFIT
 70
    3
  9
$DIMFRAC
 70
    0
  9
$DIMLDRBLK
  1
STANDARD
  9
$DIMLUNIT
 70
    2
  9
$DIMLWD
 70
   -2
  9
$DIMLWE
 70
   -2
  9
$DIMTMOVE
 70
    0
  9
$DIMFXL
 40
1
  9
$DIMFXLON
 70
    0
  9
$DIMJOGANG
 40
0.7854
  9
$DIMTFILL
 70
    0
  9
$DIMTFILLCLR
 70
    0
  9
$DIMARCSYM
 70
    0
  9
$DIMLTYPE
  6

  9
$DIMLTEX1
  6

  9
$DIMLTEX2
  6

  9
$LUNITS
 70
    2
  9
$LUPREC
 70
    1
  9
$SKETCHINC
 40
1
  9
$FILLETRAD
 40
0
  9
$AUNITS
 70
    0
  9
$AUPREC
 70
    1
  9
$MENU
  1
.
  9
$ELEVATION
 40
0
  9
$PELEVATION
 40
0
  9
$THICKNESS
 40
0
  9
$LIMCHECK
 70
    0
  9
$CHAMFERA
 40
0
  9
$CHAMFERB
 40
0
  9
$CHAMFERC
 40
0
  9
$CHAMFERD
 40
0
  9
$SKPOLY
 70
    0
  9
$USRTIMER
 70
    1
  9
$ANGBASE
 50
0
  9
$ANGDIR
 70
    0
  9
$PDMODE
 70
   34
  9
$PDSIZE
 40
0
  9
$PLINEWID
 40
0
  9
$SPLFRAME
 70
    0
  9
$SPLINETYPE
 70
    2
  9
$SPLINESEGS
 70
    8
  9
$HANDSEED
  5
20000
  9
$SURFTAB1
 70
    6
  9
$SURFTAB2
 70
    6
  9
$SURFTYPE
 70
    6
  9
$SURFU
 70
    6
  9
$SURFV
 70
    6
  9
$UCSBASE
  2

  9
$UCSNAME
  2

  9
$UCSORG
 10
0
 20
0
 30
0
  9
$UCSXDIR
 10
1
 20
0
 30
0
  9
$UCSYDIR
 10
0
 20
1
 30
0
  9
$UCSORTHOREF
  2

  9
$UCSORTHOVIEW
 70
    0
  9
$UCSORGTOP
 10
0
 20
0
 30
0
  9
$UCSORGBOTTOM
 10
0
 20
0
 30
0
  9
$UCSORGLEFT
 10
0
 20
0
 30
0
  9
$UCSORGRIGHT
 10
0
 20
0
 30
0
  9
$UCSORGFRONT
 10
0
 20
0
 30
0
  9
$UCSORGBACK
 10
0
 20
0
 30
0
  9
$PUCSBASE
  2

  9
$PUCSNAME
  2

  9
$PUCSORG
 10
0
 20
0
 30
0
  9
$PUCSXDIR
 10
1
 20
0
 30
0
  9
$PUCSYDIR
 10
0
 20
1
 30
0
  9
$PUCSORTHOREF
  2

  9
$PUCSORTHOVIEW
 70
    0
  9
$PUCSORGTOP
 10
0
 20
0
 30
0
  9
$PUCSORGBOTTOM
 10
0
 20
0
 30
0
  9
$PUCSORGLEFT
 10
0
 20
0
 30
0
  9
$PUCSORGRIGHT
 10
0
 20
0
 30
0
  9
$PUCSORGFRONT
 10
0
 20
0
 30
0
  9
$PUCSORGBACK
 10
0
 20
0
 30
0
  9
$USERI1
 70
    0
  9
$USERI2
 70
    0
  9
$USERI3
 70
    0
  9
$USERI4
 70
    0
  9
$USERI5
 70
    0
  9
$USERR1
 40
0
  9
$USERR2
 40
0
  9
$USERR3
 40
0
  9
$USERR4
 40
0
  9
$USERR5
 40
0
  9
$WORLDVIEW
 70
    1
  9
$SHADEDGE
 70
    3
  9
$SHADEDIF
 70
   70
  9
$TILEMODE
 70
    1
  9
$MAXACTVP
 70
   64
  9
$PINSBASE
 10
-18.25
 20
28.125
 30
0
  9
$PLIMCHECK
 70
    0
  9
$PEXTMIN
 10
0
 20
0
 30
0
  9
$PEXTMAX
 10
0
 20
0
 30
0
  9
$GRIDMODE
 70
    1
  9
$SNAPSTYLE
 70
    0
  9
$GRIDUNIT
 10
10
 20
10
  9
$PLIMMIN
 10
0
 20
0
  9
$PLIMMAX
 10
148
 20
210
  9
$UNITMODE
 70
    0
  9
$VISRETAIN
 70
    1
  9
$PLINEGEN
 70
    0
  9
$PSLTSCALE
 70
    1
  9
$TREEDEPTH
 70
 3020
  9
$CMLSTYLE
  2
Standard
  9
$CMLJUST
 70
    0
  9
$CMLSCALE
 40
20
  9
$PROXYGRAPHICS
 70
    1
  9
$MEASUREMENT
 70
    1
  9
$CELWEIGHT
370
   -1
  9
$ENDCAPS
280
    0
  9
$JOINSTYLE
280
    0
  9
$LWDISPLAY
290
    0
  9
$INSUNITS
 70
    4
  9
$HYPERLINKBASE
  1

  9
$STYLESHEET
  1

  9
$XEDIT
290
    1
  9
$CEPSNTYPE
380
    0
  9
$PSTYLEMODE
290
    1
  9
$EXTNAMES
290
    1
  9
$PSVPSCALE
 40
0.3075002383126847
  9
$OLESTARTUP
290
    0
  9
$SORTENTS
280
  127
  9
$INDEXCTL
280
    0
  9
$HIDETEXT
280
    1
  9
$XCLIPFRAME
290
    0
  9
$HALOGAP
280
    0
  9
$OBSCOLOR
 70
  257
  9
$OBSLTYPE
280
    0
  9
$INTERSECTIONDISPLAY
280
    0
  9
$INTERSECTIONCOLOR
 70
  257
  9
$DIMASSOC
280
    1
  9
$PROJECTNAME
  1

  9
$CAMERADISPLAY
290
    0
  9
$LENSLENGTH
 40
50
  9
$CAMERAHEIGHT
 40
0
  9
$STEPSPERSEC
 40
2
  9
$STEPSIZE
 40
50
  9
$3DDWFPREC
 40
2
  9
$PSOLWIDTH
 40
5
  9
$PSOLHEIGHT
 40
80
  9
$LOFTANG1
 40
1.570796326794897
  9
$LOFTANG2
 40
1.570796326794897
  9
$LOFTMAG1
 40
0
  9
$LOFTMAG2
 40
0
  9
$LOFTPARAM
 70
    7
  9
$LOFTNORMALS
280
    1
  9
$LATITUDE
 40
1
  9
$LONGITUDE
 40
1
  9
$NORTHDIRECTION
 40
0
  9
$TIMEZONE
 70
-8000
  9
$LIGHTGLYPHDISPLAY
280
    1
  9
$TILEMODELIGHTSYNCH
280
    1
  9
$SOLIDHIST
280
    1
  9
$SHOWHIST
280
    1
  9
$DWFFRAME
280
    2
  9
$DGNFRAME
280
    0
  9
$REALWORLDSCALE
290
    1
  9
$INTERFERECOLOR
 62
    1
  9
$CSHADOW
280
    0
  9
$SHADOWPLANELOCATION
 40
0
  0
ENDSEC
  0
SECTION
  2
CLASSES
  0
ENDSEC
  0
SECTION
  2
TABLES
  0
TABLE
  2
VPORT
  5
8
330
0
100
AcDbSymbolTable
 70
    1
  0
VPORT
  5
31
330
2
100
AcDbSymbolTableRecord
100
AcDbViewportTableRecord
  2
*ACTIVE
 70
    0
 10
0
 20
0
 11
1
 21
1
 12
130.6444924407953
 22
82.85138110064197
 13
0
 23
0
 14
10
 24
10
 15
10
 25
10
 16
0
 26
0
 36
1
 17
0
 27
0
 37
0
 40
231.0250084216816
 41
1.201037613488975
 42
50
 43
0
 44
0
 50
0
 51
0
 71
    0
 72
  100
 73
    1
 74
    3
 75
    0
 76
    1
 77
    0
 78
    0
281
    0
 65
    1
110
0
120
0
130
0
111
1
121
0
131
0
112
0
122
1
132
0
 79
    0
146
0
348
10020
 60
    3
 61
    5
292
1
282
    1
141
0
142
0
 63
  250
421
3358443
  0
ENDTAB
  0
TABLE
  2
LTYPE
  5
5
330
0
100
AcDbSymbolTable
 70
    4
  0
LTYPE
  5
14
330
5
100
AcDbSymbolTableRecord
100
AcDbLinetypeTableRecord
  2
ByBlock
 70
    0
  3

 72
   65
 73
    0
 40
0
  0
LTYPE
  5
15
330
5
100
AcDbSymbolTableRecord
100
AcDbLinetypeTableRecord
  2
ByLayer
 70
    0
  3

 72
   65
 73
    0
 40
0
  0
LTYPE
  5
16
330
5
100
AcDbSymbolTableRecord
100
AcDbLinetypeTableRecord
  2
Continuous
 70
    0
  3
Solid line
 72
   65
 73
    0
 40
0
  0
LTYPE
  5
32
330
5
100
AcDbSymbolTableRecord
100
AcDbLinetypeTableRecord
  2
DOT
 70
    0
  3
Dot . . . . . . . . . . . . . . . . . . . . . .
 72
   65
 73
    2
 40
6.35
 49
0
 74
    0
 49
-6.35
 74
    0
  0
LTYPE
  5
33
330
5
100
AcDbSymbolTableRecord
100
AcDbLinetypeTableRecord
  2
DOTTINY
 70
    0
  3
Dot (.15x) .....................................
 72
   65
 73
    2
 40
0.9525
 49
0
 74
    0
 49
-0.9525
 74
    0
  0
LTYPE
  5
34
330
5
100
AcDbSymbolTableRecord
100
AcDbLinetypeTableRecord
  2
DOT2
 70
    0
  3
Dot (.5x) .....................................
 72
   65
 73
    2
 40
3.175
 49
0
 74
    0
 49
-3.175
 74
    0
  0
LTYPE
  5
35
330
5
100
AcDbSymbolTableRecord
100
AcDbLinetypeTableRecord
  2
DOTX2
 70
    0
  3
Dot (2x) .  .  .  .  .  .  .  .  .  .  .  .  .
 72
   65
 73
    2
 40
12.7
 49
0
 74
    0
 49
-12.7
 74
    0
  0
LTYPE
  5
36
330
5
100
AcDbSymbolTableRecord
100
AcDbLinetypeTableRecord
  2
DASHED
 70
    0
  3
Dashed _ _ _ _ _ _ _ _ _ _ _ _ _ _ _ _ _
 72
   65
 73
    2
 40
19.05
 49
12.7
 74
    0
 49
-6.35
 74
    0
  0
LTYPE
  5
37
330
5
100
AcDbSymbolTableRecord
100
AcDbLinetypeTableRecord
  2
DASHEDTINY
 70
    0
  3
Dashed (.15x) _ _ _ _ _ _ _ _ _ _ _ _ _ _ _ _ _
 72
   65
 73
    2
 40
2.8575
 49
1.905
 74
    0
 49
-0.9525
 74
    0
  0
LTYPE
  5
38
330
5
100
AcDbSymbolTableRecord
100
AcDbLinetypeTableRecord
  2
DASHED2
 70
    0
  3
Dashed (.5x) _ _ _ _ _ _ _ _ _ _ _ _ _ _ _ _ _
 72
   65
 73
    2
 40
9.524999999999999
 49
6.35
 74
    0
 49
-3.175
 74
    0
  0
LTYPE
  5
39
330
5
100
AcDbSymbolTableRecord
100
AcDbLinetypeTableRecord
  2
DASHEDX2
 70
    0
  3
Dashed (2x) ____  ____  ____  ____  ____  ___
 72
   65
 73
    2
 40
38.09999999999999
 49
25.4
 74
    0
 49
-12.7
 74
    0
  0
LTYPE
  5
3A
330
5
100
AcDbSymbolTableRecord
100
AcDbLinetypeTableRecord
  2
DASHDOT
 70
    0
  3
Dash dot __ . __ . __ . __ . __ . __ . __ . __
 72
   65
 73
    4
 40
25.4
 49
12.7
 74
    0
 49
-6.35
 74
    0
 49
0
 74
    0
 49
-6.35
 74
    0
  0
LTYPE
  5
3B
330
5
100
AcDbSymbolTableRecord
100
AcDbLinetypeTableRecord
  2
DASHDOTTINY
 70
    0
  3
Dash dot (.15x) _._._._._._._._._._._._._._._.
 72
   65
 73
    4
 40
3.81
 49
1.905
 74
    0
 49
-0.9525
 74
    0
 49
0
 74
    0
 49
-0.9525
 74
    0
  0
LTYPE
  5
3C
330
5
100
AcDbSymbolTableRecord
100
AcDbLinetypeTableRecord
  2
DASHDOT2
 70
    0
  3
Dash dot (.5x) _._._._._._._._._._._._._._._.
 72
   65
 73
    4
 40
12.7
 49
6.35
 74
    0
 49
-3.175
 74
    0
 49
0
 74
    0
 49
-3.175
 74
    0
  0
LTYPE
  5
3D
330
5
100
AcDbSymbolTableRecord
100
AcDbLinetypeTableRecord
  2
DASHDOTX2
 70
    0
  3
Dash dot (2x) ____  .  ____  .  ____  .  ___
 72
   65
 73
    4
 40
50.8
 49
25.4
 74
    0
 49
-12.7
 74
    0
 49
0
 74
    0
 49
-12.7
 74
    0
  0
LTYPE
  5
3E
330
5
100
AcDbSymbolTableRecord
100
AcDbLinetypeTableRecord
  2
DIVIDE
 70
    0
  3
Divide ____ . . ____ . . ____ . . ____ . . ____
 72
   65
 73
    6
 40
31.75
 49
12.7
 74
    0
 49
-6.35
 74
    0
 49
0
 74
    0
 49
-6.35
 74
    0
 49
0
 74
    0
 49
-6.35
 74
    0
  0
LTYPE
  5
3F
330
5
100
AcDbSymbolTableRecord
100
AcDbLinetypeTableRecord
  2
DIVIDETINY
 70
    0
  3
Divide (.15x) __..__..__..__..__..__..__..__.._
 72
   65
 73
    6
 40
4.7625
 49
1.905
 74
    0
 49
-0.9525
 74
    0
 49
0
 74
    0
 49
-0.9525
 74
    0
 49
0
 74
    0
 49
-0.9525
 74
    0
  0
LTYPE
  5
40
330
5
100
AcDbSymbolTableRecord
100
AcDbLinetypeTableRecord
  2
DIVIDE2
 70
    0
  3
Divide (.5x) __..__..__..__..__..__..__..__.._
 72
   65
 73
    6
 40
15.875
 49
6.35
 74
    0
 49
-3.175
 74
    0
 49
0
 74
    0
 49
-3.175
 74
    0
 49
0
 74
    0
 49
-3.175
 74
    0
  0
LTYPE
  5
41
330
5
100
AcDbSymbolTableRecord
100
AcDbLinetypeTableRecord
  2
DIVIDEX2
 70
    0
  3
Divide (2x) ________  .  .  ________  .  .  _
 72
   65
 73
    6
 40
63.5
 49
25.4
 74
    0
 49
-12.7
 74
    0
 49
0
 74
    0
 49
-12.7
 74
    0
 49
0
 74
    0
 49
-12.7
 74
    0
  0
LTYPE
  5
42
330
5
100
AcDbSymbolTableRecord
100
AcDbLinetypeTableRecord
  2
BORDER
 70
    0
  3
Border __ __ . __ __ . __ __ . __ __ . __ __ .
 72
   65
 73
    6
 40
44.45
 49
12.7
 74
    0
 49
-6.35
 74
    0
 49
12.7
 74
    0
 49
-6.35
 74
    0
 49
0
 74
    0
 49
-6.35
 74
    0
  0
LTYPE
  5
43
330
5
100
AcDbSymbolTableRecord
100
AcDbLinetypeTableRecord
  2
BORDERTINY
 70
    0
  3
Border (.15x) __.__.__.__.__.__.__.__.__.__.__.
 72
   65
 73
    6
 40
6.6675
 49
1.905
 74
    0
 49
-0.9525
 74
    0
 49
1.905
 74
    0
 49
-0.9525
 74
    0
 49
0
 74
    0
 49
-0.9525
 74
    0
  0
LTYPE
  5
44
330
5
100
AcDbSymbolTableRecord
100
AcDbLinetypeTableRecord
  2
BORDER2
 70
    0
  3
Border (.5x) __.__.__.__.__.__.__.__.__.__.__.
 72
   65
 73
    6
 40
22.225
 49
6.35
 74
    0
 49
-3.175
 74
    0
 49
6.35
 74
    0
 49
-3.175
 74
    0
 49
0
 74
    0
 49
-3.175
 74
    0
  0
LTYPE
  5
45
330
5
100
AcDbSymbolTableRecord
100
AcDbLinetypeTableRecord
  2
BORDERX2
 70
    0
  3
Border (2x) ____  ____  .  ____  ____  .  ___
 72
   65
 73
    6
 40
88.89999999999999
 49
25.4
 74
    0
 49
-12.7
 74
    0
 49
25.4
 74
    0
 49
-12.7
 74
    0
 49
0
 74
    0
 49
-12.7
 74
    0
  0
LTYPE
  5
46
330
5
100
AcDbSymbolTableRecord
100
AcDbLinetypeTableRecord
  2
CENTER
 70
    0
  3
Center ____ _ ____ _ ____ _ ____ _ ____ _ ____
 72
   65
 73
    4
 40
50.8
 49
31.75
 74
    0
 49
-6.35
 74
    0
 49
6.35
 74
    0
 49
-6.35
 74
    0
  0
LTYPE
  5
47
330
5
100
AcDbSymbolTableRecord
100
AcDbLinetypeTableRecord
  2
CENTERTINY
 70
    0
  3
Center (.15x) ___ _ ___ _ ___ _ ___ _ ___ _ ___
 72
   65
 73
    4
 40
7.62
 49
4.7625
 74
    0
 49
-0.9525
 74
    0
 49
0.9525
 74
    0
 49
-0.9525
 74
    0
  0
LTYPE
  5
48
330
5
100
AcDbSymbolTableRecord
100
AcDbLinetypeTableRecord
  2
CENTER2
 70
    0
  3
Center (.5x) ___ _ ___ _ ___ _ ___ _ ___ _ ___
 72
   65
 73
    4
 40
28.575
 49
19.05
 74
    0
 49
-3.175
 74
    0
 49
3.175
 74
    0
 49
-3.175
 74
    0
  0
LTYPE
  5
49
330
5
100
AcDbSymbolTableRecord
100
AcDbLinetypeTableRecord
  2
CENTERX2
 70
    0
  3
Center (2x) ________  __  ________  __  _____
 72
   65
 73
    4
 40
101.6
 49
63.5
 74
    0
 49
-12.7
 74
    0
 49
12.7
 74
    0
 49
-12.7
 74
    0
  0
ENDTAB
  0
TABLE
  2
LAYER
  5
2
330
0
100
AcDbSymbolTable
 70
    1
  0
LAYER
  5
10
330
2
100
AcDbSymbolTableRecord
100
AcDbLayerTableRecord
  2
0
 70
    0
 62
    7
  6
CONTINUOUS
370
    0
390
F
  0
LAYER
  5
4A
330
2
100
AcDbSymbolTableRecord
100
AcDbLayerTableRecord
  2
中心线
 70
    0
 62
    1
  6
CENTERTINY
370
   13
390
F
  0
LAYER
  5
4B
330
2
100
AcDbSymbolTableRecord
100
AcDbLayerTableRecord
  2
剖面线
 70
    0
 62
    7
  6
CONTINUOUS
370
   30
390
F
  0
LAYER
  5
4C
330
2
100
AcDbSymbolTableRecord
100
AcDbLayerTableRecord
  2
标注
 70
    0
 62
   96
420
32768
  6
CONTINUOUS
370
    0
390
F
  0
LAYER
  5
4D
330
2
100
AcDbSymbolTableRecord
100
AcDbLayerTableRecord
  2
虚线
 70
    0
 62
    7
  6
DASHEDTINY
370
    0
390
F
  0
ENDTAB
  0
TABLE
  2
STYLE
  5
3
330
0
100
AcDbSymbolTable
 70
    3
  0
STYLE
  5
4E
330
2
100
AcDbSymbolTableRecord
100
AcDbTextStyleTableRecord
  2
wqy-unicode
 70
    0
 40
0
 41
1
 50
0
 71
    0
 42
1
  3
wqy-unicode
  4

  0
STYLE
  5
4F
330
2
100
AcDbSymbolTableRecord
100
AcDbTextStyleTableRecord
  2
Standard
 70
    0
 40
0
 41
1
 50
0
 71
    0
 42
1
  3
txt
  4

  0
ENDTAB
  0
TABLE
  2
VIEW
  5
6
330
0
100
AcDbSymbolTable
 70
    0
  0
ENDTAB
  0
TABLE
  2
UCS
  5
7
330
0
100
AcDbSymbolTable
 70
    0
  0
ENDTAB
  0
TABLE
  2
APPID
  5
9
330
0
100
AcDbSymbolTable
 70
    1
  0
APPID
  5
12
330
9
100
AcDbSymbolTableRecord
100
AcDbRegAppTableRecord
  2
ACAD
 70
    0
  0
APPID
  5
50
330
9
100
AcDbSymbolTableRecord
100
AcDbRegAppTableRecord
  2
LibreCad
 70
    0
  0
ENDTAB
  0
TABLE
  2
DIMSTYLE
  5
A
330
0
100
AcDbSymbolTable
 70
    1
100
AcDbDimStyleTable
 71
    1
  0
DIMSTYLE
105
51
330
A
100
AcDbSymbolTableRecord
100
AcDbDimStyleTableRecord
  2
Standard
 70
    0
 40
2.5
 41
2
 42
0.625
 43
0.38
 44
1.25
 45
0
 46
0
 47
0
 48
0
 49
1
140
1
141
0.09
142
0
143
25.4
144
1
145
0
146
1
147
0.5
148
0
 71
    0
 72
    0
 73
    0
 74
    1
 75
    0
 76
    0
 77
    0
 78
    1
 79
    0
170
    0
171
    2
172
    0
173
    0
174
    0
175
    0
176
    0
177
    0
178
    0
179
    1
271
    1
272
    4
273
    2
274
    2
275
    0
276
    0
277
    2
278
    0
279
    0
280
    0
281
    0
282
    0
283
    1
284
    0
285
    0
286
    0
288
    0
289
    3
340
standard
341

371
   -2
372
   -2
  0
ENDTAB
  0
TABLE
  2
BLOCK_RECORD
  5
1
330
0
100
AcDbSymbolTable
 70
    2
  0
BLOCK_RECORD
  5
1F
330
1
100
AcDbSymbolTableRecord
100
AcDbBlockTableRecord
  2
*Model_Space
 70
    0
280
    1
281
    0
  0
BLOCK_RECORD
  5
1E
330
1
100
AcDbSymbolTableRecord
100
AcDbBlockTableRecord
  2
*Paper_Space
 70
    0
280
    1
281
    0
  0
BLOCK_RECORD
  5
52
330
1
100
AcDbSymbolTableRecord
100
AcDbBlockTableRecord
  2
*D8
 70
    0
280
    1
281
    0
  0
BLOCK_RECORD
  5
55
330
1
100
AcDbSymbolTableRecord
100
AcDbBlockTableRecord
  2
*D9
 70
    0
280
    1
281
    0
  0
BLOCK_RECORD
  5
58
330
1
100
AcDbSymbolTableRecord
100
AcDbBlockTableRecord
  2
*D10
 70
    0
280
    1
281
    0
  0
BLOCK_RECORD
  5
5B
330
1
100
AcDbSymbolTableRecord
100
AcDbBlockTableRecord
  2
*D11
 70
    0
280
    1
281
    0
  0
BLOCK_RECORD
  5
5E
330
1
100
AcDbSymbolTableRecord
100
AcDbBlockTableRecord
  2
*D15
 70
    0
280
    1
281
    0
  0
BLOCK_RECORD
  5
61
330
1
100
AcDbSymbolTableRecord
100
AcDbBlockTableRecord
  2
*D13
 70
    0
280
    1
281
    0
  0
BLOCK_RECORD
  5
64
330
1
100
AcDbSymbolTableRecord
100
AcDbBlockTableRecord
  2
*D3
 70
    0
280
    1
281
    0
  0
BLOCK_RECORD
  5
67
330
1
100
AcDbSymbolTableRecord
100
AcDbBlockTableRecord
  2
*D1
 70
    0
280
    1
281
    0
  0
BLOCK_RECORD
  5
6A
330
1
100
AcDbSymbolTableRecord
100
AcDbBlockTableRecord
  2
*D4
 70
    0
280
    1
281
    0
  0
BLOCK_RECORD
  5
6D
330
1
100
AcDbSymbolTableRecord
100
AcDbBlockTableRecord
  2
*D12
 70
    0
280
    1
281
    0
  0
BLOCK_RECORD
  5
70
330
1
100
AcDbSymbolTableRecord
100
AcDbBlockTableRecord
  2
*D16
 70
    0
280
    1
281
    0
  0
BLOCK_RECORD
  5
73
330
1
100
AcDbSymbolTableRecord
100
AcDbBlockTableRecord
  2
*D14
 70
    0
280
    1
281
    0
  0
BLOCK_RECORD
  5
76
330
1
100
AcDbSymbolTableRecord
100
AcDbBlockTableRecord
  2
*D6
 70
    0
280
    1
281
    0
  0
BLOCK_RECORD
  5
79
330
1
100
AcDbSymbolTableRecord
100
AcDbBlockTableRecord
  2
*D2
 70
    0
280
    1
281
    0
  0
BLOCK_RECORD
  5
7C
330
1
100
AcDbSymbolTableRecord
100
AcDbBlockTableRecord
  2
*D7
 70
    0
280
    1
281
    0
  0
BLOCK_RECORD
  5
7F
330
1
100
AcDbSymbolTableRecord
100
AcDbBlockTableRecord
  2
*D5
 70
    0
280
    1
281
    0
  0
ENDTAB
  0
ENDSEC
  0
SECTION
  2
BLOCKS
  0
BLOCK
  5
20
330
1F
100
AcDbEntity
  8
0
100
AcDbBlockBegin
  2
*Model_Space
 70
    0
 10
0
 20
0
 30
0
  3
*Model_Space
  1

  0
ENDBLK
  5
21
330
1F
100
AcDbEntity
  8
0
100
AcDbBlockEnd
  0
BLOCK
  5
1C
330
1B
100
AcDbEntity
  8
0
100
AcDbBlockBegin
  2
*Paper_Space
 70
    0
 10
0
 20
0
 30
0
  3
*Paper_Space
  1

  0
ENDBLK
  5
1D
330
1F
100
AcDbEntity
  8
0
100
AcDbBlockEnd
  0
BLOCK
  5
53
330
52
100
AcDbEntity
  8
0
100
AcDbBlockBegin
  2
*D8
 70
    1
 10
0
 20
0
  3
*D8
  1

  0
LINE
  5
82
100
AcDbEntity
  8
标注
  6
CONTINUOUS
 62
    7
370
    0
100
AcDbLine
 10
83.42298692642291
 20
108.0189651425434
 11
80
 21
90
  0
SOLID
  5
83
100
AcDbEntity
  8
标注
  6
CONTINUOUS
 62
    7
370
    0
100
AcDbTrace
 10
83.42298692642291
 20
108.0189651425434
 30
0
 11
83.30778747763898
 21
102.9514311513216
 31
0
 12
81.67190430891274
 22
103.2621929878315
 32
0
 13
81.67190430891274
 23
103.2621929878315
 33
0
  0
ENDBLK
  5
54
330
52
100
AcDbEntity
  8
0
100
AcDbBlockEnd
  0
BLOCK
  5
56
330
55
100
AcDbEntity
  8
0
100
AcDbBlockBegin
  2
*D9
 70
    1
 10
0
 20
0
  3
*D9
  1

  0
LINE
  5
84
100
AcDbEntity
  8
标注
  6
ByBlock
 62
    0
370
   -2
100
AcDbLine
 10
72.80460333796776
 20
37.26651916367003
 11
48.80460736437765
 21
37.26651916367003
  0
SOLID
  5
85
100
AcDbEntity
  8
标注
  6
ByBlock
 62
    0
370
   -2
100
AcDbTrace
 10
62.80460333796776
 20
37.26651916367003
 30
0
 11
67.80460333796776
 21
38.09908847921571
 31
0
 12
67.80460333796776
 22
36.43394984812434
 32
0
 13
67.80460333796776
 23
36.43394984812434
 33
0
  0
SOLID
  5
86
100
AcDbEntity
  8
标注
  6
ByBlock
 62
    0
370
   -2
100
AcDbTrace
 10
58.80460736437765
 20
37.26651916367003
 30
0
 11
53.80460736437765
 21
36.43394984812434
 31
0
 12
53.80460736437765
 22
38.09908847921571
 32
0
 13
53.80460736437765
 23
38.09908847921571
 33
0
  0
MTEXT
  5
87
100
AcDbEntity
  8
标注
  6
CONTINUOUS
 62
    0
370
   -2
100
AcDbMText
 10
66.13793667130109
 20
39.76651916367003
 30
0
 40
2.5
 41
4.166666666666667
 71
    5
 72
    1
  1
4.0
  7
standard
210
0
220
0
230
1
 50
360
 73
    2
 44
1
  0
LINE
  5
88
100
AcDbEntity
  8
标注
  6
ByBlock
 62
    0
370
   -2
100
AcDbLine
 10
62.80460333796776
 20
40.4375
 11
62.80460333796776
 21
34.14151916367003
  0
LINE
  5
89
100
AcDbEntity
  8
标注
  6
ByBlock
 62
    0
370
   -2
100
AcDbLine
 10
58.80460736437765
 20
44.43750000000141
 11
58.80460736437765
 21
34.14151916367003
  0
ENDBLK
  5
57
330
55
100
AcDbEntity
  8
0
100
AcDbBlockEnd
  0
BLOCK
  5
59
330
58
100
AcDbEntity
  8
0
100
AcDbBlockBegin
  2
*D10
 70
    1
 10
0
 20
0
  3
*D10
  1

  0
LINE
  5
8A
100
AcDbEntity
  8
标注
  6
ByBlock
 62
    0
370
   -2
100
AcDbLine
 10
62.80460333796776
 20
32.08489333303311
 11
42.80460736437765
 21
32.08489333303311
  0
SOLID
  5
8B
100
AcDbEntity
  8
标注
  6
ByBlock
 62
    0
370
   -2
100
AcDbTrace
 10
62.80460333796776
 20
32.08489333303311
 30
0
 11
57.80460333796776
 21
31.25232401748743
 31
0
 12
57.80460333796776
 22
32.91746264857879
 32
0
 13
57.80460333796776
 23
32.91746264857879
 33
0
  0
SOLID
  5
8C
100
AcDbEntity
  8
标注
  6
ByBlock
 62
    0
370
   -2
100
AcDbTrace
 10
42.80460736437765
 20
32.08489333303311
 30
0
 11
47.80460736437765
 21
32.91746264857879
 31
0
 12
47.80460736437765
 22
31.25232401748742
 32
0
 13
47.80460736437765
 23
31.25232401748742
 33
0
  0
MTEXT
  5
8D
100
AcDbEntity
  8
标注
  6
CONTINUOUS
 62
    0
370
   -2
100
AcDbMText
 10
52.80460535117271
 20
34.58489333303311
 30
0
 40
2.5
 41
5.833333333333334
 71
    5
 72
    1
  1
20.0
  7
standard
210
0
220
0
230
1
 50
360
 73
    2
 44
1
  0
LINE
  5
8E
100
AcDbEntity
  8
标注
  6
ByBlock
 62
    0
370
   -2
100
AcDbLine
 10
62.80460333796776
 20
40.4375
 11
62.80460333796776
 21
28.95989333303311
  0
LINE
  5
8F
100
AcDbEntity
  8
标注
  6
ByBlock
 62
    0
370
   -2
100
AcDbLine
 10
42.80460736437765
 20
45.4375
 11
42.80460736437765
 21
28.95989333303311
  0
ENDBLK
  5
5A
330
58
100
AcDbEntity
  8
0
100
AcDbBlockEnd
  0
BLOCK
  5
5C
330
5B
100
AcDbEntity
  8
0
100
AcDbBlockBegin
  2
*D11
 70
    1
 10
0
 20
0
  3
*D11
  1

  0
LINE
  5
90
100
AcDbEntity
  8
标注
  6
ByBlock
 62
    0
370
   -2
100
AcDbLine
 10
40.75729602726533
 20
63.99999999999849
 11
40.75729602726533
 21
36.00000000000151
  0
SOLID
  5
91
100
AcDbEntity
  8
标注
  6
ByBlock
 62
    0
370
   -2
100
AcDbTrace
 10
40.75729602726533
 20
53.99999999999849
 30
0
 11
39.92472671171964
 21
58.99999999999849
 31
0
 12
41.58986534281101
 22
58.99999999999849
 32
0
 13
41.58986534281101
 23
58.99999999999849
 33
0
  0
SOLID
  5
92
100
AcDbEntity
  8
标注
  6
ByBlock
 62
    0
370
   -2
100
AcDbTrace
 10
40.75729602726533
 20
46.00000000000151
 30
0
 11
41.58986534281101
 21
41.00000000000151
 31
0
 12
39.92472671171964
 22
41.00000000000151
 32
0
 13
39.92472671171964
 23
41.00000000000151
 33
0
  0
MTEXT
  5
93
100
AcDbEntity
  8
标注
  6
CONTINUOUS
 62
    0
370
   -2
100
AcDbMText
 10
38.25729602726533
 20
50
 30
0
 40
2.5
 41
3.611111111111111
 71
    5
 72
    1
  1
M8
  7
standard
210
0
220
0
230
1
 50
90
 73
    2
 44
1
  0
LINE
  5
94
100
AcDbEntity
  8
标注
  6
ByBlock
 62
    0
370
   -2
100
AcDbLine
 10
42.69043818884273
 20
53.99999999999849
 11
37.63229602726533
 21
53.99999999999849
  0
LINE
  5
95
100
AcDbEntity
  8
标注
  6
ByBlock
 62
    0
370
   -2
100
AcDbLine
 10
42.69043818884271
 20
46.00000000000151
 11
37.63229602726533
 21
46.00000000000151
  0
ENDBLK
  5
5D
330
5B
100
AcDbEntity
  8
0
100
AcDbBlockEnd
  0
BLOCK
  5
5F
330
5E
100
AcDbEntity
  8
0
100
AcDbBlockBegin
  2
*D15
 70
    1
 10
0
 20
0
  3
*D15
  1

  0
LINE
  5
96
100
AcDbEntity
  8
标注
  6
CONTINUOUS
 62
    7
370
    0
100
AcDbLine
 10
85.50236553023691
 20
48.01896514254337
 11
82.07937860381401
 21
30
  0
SOLID
  5
97
100
AcDbEntity
  8
标注
  6
CONTINUOUS
 62
    7
370
    0
100
AcDbTrace
 10
85.50236553023691
 20
48.01896514254337
 30
0
 11
85.38716608145299
 21
42.95143115132159
 31
0
 12
83.75128291272675
 22
43.26219298783152
 32
0
 13
83.75128291272675
 23
43.26219298783152
 33
0
  0
ENDBLK
  5
60
330
5E
100
AcDbEntity
  8
0
100
AcDbBlockEnd
  0
BLOCK
  5
62
330
61
100
AcDbEntity
  8
0
100
AcDbBlockBegin
  2
*D13
 70
    1
 10
0
 20
0
  3
*D13
  1

  0
LINE
  5
98
100
AcDbEntity
  8
标注
  6
ByBlock
 62
    0
370
   -2
100
AcDbLine
 10
25.80460434457023
 20
58
 11
25.80460434457023
 21
42
  0
SOLID
  5
99
100
AcDbEntity
  8
标注
  6
ByBlock
 62
    0
370
   -2
100
AcDbTrace
 10
25.80460434457023
 20
58
 30
0
 11
26.63717366011591
 21
53
 31
0
 12
24.97203502902455
 22
53
 32
0
 13
24.97203502902455
 23
53
 33
0
  0
SOLID
  5
9A
100
AcDbEntity
  8
标注
  6
ByBlock
 62
    0
370
   -2
100
AcDbTrace
 10
25.80460434457023
 20
42
 30
0
 11
24.97203502902455
 21
47
 31
0
 12
26.63717366011592
 22
47
 32
0
 13
26.63717366011592
 23
47
 33
0
  0
MTEXT
  5
9B
100
AcDbEntity
  8
标注
  6
CONTINUOUS
 62
    0
370
   -2
100
AcDbMText
 10
23.30460434457023
 20
50
 30
0
 40
2.5
 41
7.777777777777933
 71
    5
 72
    1
  1
%%C16.0
  7
standard
210
0
220
0
230
1
 50
90
 73
    2
 44
1
  0
LINE
  5
9C
100
AcDbEntity
  8
标注
  6
ByBlock
 62
    0
370
   -2
100
AcDbLine
 10
61.24211139078751
 20
58
 11
22.67960434457023
 21
58
  0
LINE
  5
9D
100
AcDbEntity
  8
标注
  6
ByBlock
 62
    0
370
   -2
100
AcDbLine
 10
61.24210333796776
 20
42
 11
22.67960434457023
 21
42
  0
ENDBLK
  5
63
330
61
100
AcDbEntity
  8
0
100
AcDbBlockEnd
  0
BLOCK
  5
65
330
64
100
AcDbEntity
  8
0
100
AcDbBlockBegin
  2
*D3
 70
    1
 10
0
 20
0
  3
*D3
  1

  0
LINE
  5
9E
100
AcDbEntity
  8
标注
  6
ByBlock
 62
    0
370
   -2
100
AcDbLine
 10
60.72523278697351
 20
123.0266018645507
 11
77.72522574075452
 21
123.0266018645507
  0
SOLID
  5
9F
100
AcDbEntity
  8
标注
  6
ByBlock
 62
    0
370
   -2
100
AcDbTrace
 10
60.72523278697351
 20
123.0266018645507
 30
0
 11
65.72523278697351
 21
123.8591711800964
 31
0
 12
65.72523278697351
 22
122.194032549005
 32
0
 13
65.72523278697351
 23
122.194032549005
 33
0
  0
SOLID
  5
A0
100
AcDbEntity
  8
标注
  6
ByBlock
 62
    0
370
   -2
100
AcDbTrace
 10
77.72522574075452
 20
123.0266018645507
 30
0
 11
72.72522574075452
 21
122.194032549005
 31
0
 12
72.72522574075452
 22
123.8591711800964
 32
0
 13
72.72522574075452
 23
123.8591711800964
 33
0
  0
MTEXT
  5
A1
100
AcDbEntity
  8
标注
  6
CONTINUOUS
 62
    0
370
   -2
100
AcDbMText
 10
69.22522926386401
 20
125.5266018645507
 30
0
 40
2.5
 41
5.277777777777778
 71
    5
 72
    1
  1
17.0
  7
standard
210
0
220
0
230
1
 50
0
 73
    2
 44
1
  0
LINE
  5
A2
100
AcDbEntity
  8
标注
  6
ByBlock
 62
    0
370
   -2
100
AcDbLine
 10
60.72523278697351
 20
119.5625
 11
60.72523278697351
 21
126.1516018645507
  0
LINE
  5
A3
100
AcDbEntity
  8
标注
  6
ByBlock
 62
    0
370
   -2
100
AcDbLine
 10
77.72522574075452
 20
119.5625
 11
77.72522574075452
 21
126.1516018645507
  0
ENDBLK
  5
66
330
64
100
AcDbEntity
  8
0
100
AcDbBlockEnd
  0
BLOCK
  5
68
330
67
100
AcDbEntity
  8
0
100
AcDbBlockBegin
  2
*D1
 70
    1
 10
0
 20
0
  3
*D1
  1

  0
LINE
  5
A4
100
AcDbEntity
  8
标注
  6
ByBlock
 62
    0
370
   -2
100
AcDbLine
 10
70.72522473415376
 20
97.26651916367003
 11
46.72522876056364
 21
97.26651916367003
  0
SOLID
  5
A5
100
AcDbEntity
  8
标注
  6
ByBlock
 62
    0
370
   -2
100
AcDbTrace
 10
60.72522473415376
 20
97.26651916367003
 30
0
 11
65.72522473415377
 21
98.09908847921571
 31
0
 12
65.72522473415376
 22
96.43394984812434
 32
0
 13
65.72522473415376
 23
96.43394984812434
 33
0
  0
SOLID
  5
A6
100
AcDbEntity
  8
标注
  6
ByBlock
 62
    0
370
   -2
100
AcDbTrace
 10
56.72522876056364
 20
97.26651916367003
 30
0
 11
51.72522876056364
 21
96.43394984812434
 31
0
 12
51.72522876056364
 22
98.09908847921571
 32
0
 13
51.72522876056364
 23
98.09908847921571
 33
0
  0
MTEXT
  5
A7
100
AcDbEntity
  8
标注
  6
CONTINUOUS
 62
    0
370
   -2
100
AcDbMText
 10
64.0585580674871
 20
99.76651916367003
 30
0
 40
2.5
 41
4.166666666666667
 71
    5
 72
    1
  1
4.0
  7
standard
210
0
220
0
230
1
 50
360
 73
    2
 44
1
  0
LINE
  5
A8
100
AcDbEntity
  8
标注
  6
ByBlock
 62
    0
370
   -2
100
AcDbLine
 10
60.72522473415376
 20
100.4375
 11
60.72522473415376
 21
94.14151916367003
  0
LINE
  5
A9
100
AcDbEntity
  8
标注
  6
ByBlock
 62
    0
370
   -2
100
AcDbLine
 10
56.72522876056364
 20
104.4375000000014
 11
56.72522876056364
 21
94.14151916367003
  0
ENDBLK
  5
69
330
67
100
AcDbEntity
  8
0
100
AcDbBlockEnd
  0
BLOCK
  5
6B
330
6A
100
AcDbEntity
  8
0
100
AcDbBlockBegin
  2
*D4
 70
    1
 10
0
 20
0
  3
*D4
  1

  0
LINE
  5
AA
100
AcDbEntity
  8
标注
  6
ByBlock
 62
    0
370
   -2
100
AcDbLine
 10
38.67791742345132
 20
123.9999999999985
 11
38.67791742345132
 21
96.00000000000151
  0
SOLID
  5
AB
100
AcDbEntity
  8
标注
  6
ByBlock
 62
    0
370
   -2
100
AcDbTrace
 10
38.67791742345132
 20
113.9999999999985
 30
0
 11
37.84534810790564
 21
118.9999999999985
 31
0
 12
39.510486738997
 22
118.9999999999985
 32
0
 13
39.510486738997
 23
118.9999999999985
 33
0
  0
SOLID
  5
AC
100
AcDbEntity
  8
标注
  6
ByBlock
 62
    0
370
   -2
100
AcDbTrace
 10
38.67791742345132
 20
106.0000000000015
 30
0
 11
39.510486738997
 21
101.0000000000015
 31
0
 12
37.84534810790564
 22
101.0000000000015
 32
0
 13
37.84534810790564
 23
101.0000000000015
 33
0
  0
MTEXT
  5
AD
100
AcDbEntity
  8
标注
  6
CONTINUOUS
 62
    0
370
   -2
100
AcDbMText
 10
36.17791742345132
 20
110
 30
0
 40
2.5
 41
3.611111111111111
 71
    5
 72
    1
  1
M8
  7
standard
210
0
220
0
230
1
 50
90
 73
    2
 44
1
  0
LINE
  5
AE
100
AcDbEntity
  8
标注
  6
ByBlock
 62
    0
370
   -2
100
AcDbLine
 10
40.61105958502873
 20
113.9999999999985
 11
35.55291742345132
 21
113.9999999999985
  0
LINE
  5
AF
100
AcDbEntity
  8
标注
  6
ByBlock
 62
    0
370
   -2
100
AcDbLine
 10
40.6110595850287
 20
106.0000000000015
 11
35.55291742345132
 21
106.0000000000015
  0
ENDBLK
  5
6C
330
6A
100
AcDbEntity
  8
0
100
AcDbBlockEnd
  0
BLOCK
  5
6E
330
6D
100
AcDbEntity
  8
0
100
AcDbBlockBegin
  2
*D12
 70
    1
 10
0
 20
0
  3
*D12
  1

  0
LINE
  5
B0
100
AcDbEntity
  8
标注
  6
ByBlock
 62
    0
370
   -2
100
AcDbLine
 10
108.7106176347608
 20
66.0000000000032
 11
108.7106176347608
 21
34.0000000000027
  0
SOLID
  5
B1
100
AcDbEntity
  8
标注
  6
ByBlock
 62
    0
370
   -2
100
AcDbTrace
 10
108.7106176347608
 20
56.0000000000032
 30
0
 11
107.8780483192151
 21
61.0000000000032
 31
0
 12
109.5431869503065
 22
61.0000000000032
 32
0
 13
109.5431869503065
 23
61.0000000000032
 33
0
  0
SOLID
  5
B2
100
AcDbEntity
  8
标注
  6
ByBlock
 62
    0
370
   -2
100
AcDbTrace
 10
108.7106176347608
 20
44.0000000000027
 30
0
 11
109.5431869503065
 21
39.0000000000027
 31
0
 12
107.8780483192151
 22
39.0000000000027
 32
0
 13
107.8780483192151
 23
39.0000000000027
 33
0
  0
MTEXT
  5
B3
100
AcDbEntity
  8
标注
  6
CONTINUOUS
 62
    0
370
   -2
100
AcDbMText
 10
106.2106176347608
 20
65.0277777777811
 30
0
 40
2.5
 41
15.55555555555571
 71
    5
 72
    1
  1
%%C12%%P0.025
  7
standard
210
0
220
0
230
1
 50
90
 73
    2
 44
1
  0
LINE
  5
B4
100
AcDbEntity
  8
标注
  6
ByBlock
 62
    0
370
   -2
100
AcDbLine
 10
93.36710434457024
 20
56.0000000000032
 11
111.8356176347608
 21
56.0000000000032
  0
LINE
  5
B5
100
AcDbEntity
  8
标注
  6
ByBlock
 62
    0
370
   -2
100
AcDbLine
 10
93.36710434457024
 20
44.0000000000027
 11
111.8356176347608
 21
44.0000000000027
  0
ENDBLK
  5
6F
330
6D
100
AcDbEntity
  8
0
100
AcDbBlockEnd
  0
BLOCK
  5
71
330
70
100
AcDbEntity
  8
0
100
AcDbBlockBegin
  2
*D16
 70
    1
 10
0
 20
0
  3
*D16
  1

  0
LINE
  5
B6
100
AcDbEntity
  8
标注
  6
ByBlock
 62
    0
370
   -2
100
AcDbLine
 10
62.80461139078751
 20
63.0266018645507
 11
79.80460434456853
 21
63.0266018645507
  0
SOLID
  5
B7
100
AcDbEntity
  8
标注
  6
ByBlock
 62
    0
370
   -2
100
AcDbTrace
 10
62.80461139078751
 20
63.0266018645507
 30
0
 11
67.80461139078751
 21
63.85917118009638
 31
0
 12
67.80461139078751
 22
62.19403254900502
 32
0
 13
67.80461139078751
 23
62.19403254900502
 33
0
  0
SOLID
  5
B8
100
AcDbEntity
  8
标注
  6
ByBlock
 62
    0
370
   -2
100
AcDbTrace
 10
79.80460434456853
 20
63.0266018645507
 30
0
 11
74.80460434456853
 21
62.19403254900502
 31
0
 12
74.80460434456853
 22
63.85917118009638
 32
0
 13
74.80460434456853
 23
63.85917118009638
 33
0
  0
MTEXT
  5
B9
100
AcDbEntity
  8
标注
  6
CONTINUOUS
 62
    0
370
   -2
100
AcDbMText
 10
71.30460786767802
 20
65.5266018645507
 30
0
 40
2.5
 41
1.111111111111266
 71
    5
 72
    1
  1
5
  7
standard
210
0
220
0
230
1
 50
0
 73
    2
 44
1
  0
LINE
  5
BA
100
AcDbEntity
  8
标注
  6
ByBlock
 62
    0
370
   -2
100
AcDbLine
 10
62.80461139078751
 20
59.5625
 11
62.80461139078751
 21
66.1516018645507
  0
LINE
  5
BB
100
AcDbEntity
  8
标注
  6
ByBlock
 62
    0
370
   -2
100
AcDbLine
 10
79.80460434456853
 20
59.5625
 11
79.80460434456853
 21
66.1516018645507
  0
ENDBLK
  5
72
330
70
100
AcDbEntity
  8
0
100
AcDbBlockEnd
  0
BLOCK
  5
74
330
73
100
AcDbEntity
  8
0
100
AcDbBlockBegin
  2
*D14
 70
    1
 10
0
 20
0
  3
*D14
  1

  0
LINE
  5
BC
100
AcDbEntity
  8
标注
  6
ByBlock
 62
    0
370
   -2
100
AcDbLine
 10
69.80460434456853
 20
63.0266018645507
 11
101.8046043445702
 21
63.0266018645507
  0
SOLID
  5
BD
100
AcDbEntity
  8
标注
  6
ByBlock
 62
    0
370
   -2
100
AcDbTrace
 10
79.80460434456853
 20
63.0266018645507
 30
0
 11
74.80460434456853
 21
62.19403254900502
 31
0
 12
74.80460434456853
 22
63.85917118009638
 32
0
 13
74.80460434456853
 23
63.85917118009638
 33
0
  0
SOLID
  5
BE
100
AcDbEntity
  8
标注
  6
ByBlock
 62
    0
370
   -2
100
AcDbTrace
 10
91.80460434457024
 20
63.0266018645507
 30
0
 11
96.80460434457024
 21
63.85917118009638
 31
0
 12
96.80460434457024
 22
62.19403254900502
 32
0
 13
96.80460434457024
 23
62.19403254900502
 33
0
  0
MTEXT
  5
BF
100
AcDbEntity
  8
标注
  6
CONTINUOUS
 62
    0
370
   -2
100
AcDbMText
 10
85.80460434456938
 20
65.5266018645507
 30
0
 40
2.5
 41
10.55555555555587
 71
    5
 72
    1
  1
9.6%%P0.2
  7
standard
210
0
220
0
230
1
 50
0
 73
    2
 44
1
  0
LINE
  5
C0
100
AcDbEntity
  8
标注
  6
ByBlock
 62
    0
370
   -2
100
AcDbLine
 10
79.80460434456853
 20
59.5625
 11
79.80460434456853
 21
66.1516018645507
  0
LINE
  5
C1
100
AcDbEntity
  8
标注
  6
ByBlock
 62
    0
370
   -2
100
AcDbLine
 10
91.80460434457024
 20
57.5625000000032
 11
91.80460434457024
 21
66.1516018645507
  0
ENDBLK
  5
75
330
73
100
AcDbEntity
  8
0
100
AcDbBlockEnd
  0
BLOCK
  5
77
330
76
100
AcDbEntity
  8
0
100
AcDbBlockBegin
  2
*D6
 70
    1
 10
0
 20
0
  3
*D6
  1

  0
LINE
  5
C2
100
AcDbEntity
  8
标注
  6
ByBlock
 62
    0
370
   -2
100
AcDbLine
 10
23.72522574075623
 20
118
 11
23.72522574075623
 21
102
  0
SOLID
  5
C3
100
AcDbEntity
  8
标注
  6
ByBlock
 62
    0
370
   -2
100
AcDbTrace
 10
23.72522574075623
 20
118
 30
0
 11
24.55779505630191
 21
113
 31
0
 12
22.89265642521055
 22
113
 32
0
 13
22.89265642521055
 23
113
 33
0
  0
SOLID
  5
C4
100
AcDbEntity
  8
标注
  6
ByBlock
 62
    0
370
   -2
100
AcDbTrace
 10
23.72522574075623
 20
102
 30
0
 11
22.89265642521055
 21
107
 31
0
 12
24.55779505630191
 22
107
 32
0
 13
24.55779505630191
 23
107
 33
0
  0
MTEXT
  5
C5
100
AcDbEntity
  8
标注
  6
CONTINUOUS
 62
    0
370
   -2
100
AcDbMText
 10
21.22522574075623
 20
110
 30
0
 40
2.5
 41
7.777777777777933
 71
    5
 72
    1
  1
%%C16.0
  7
standard
210
0
220
0
230
1
 50
90
 73
    2
 44
1
  0
LINE
  5
C6
100
AcDbEntity
  8
标注
  6
ByBlock
 62
    0
370
   -2
100
AcDbLine
 10
59.16273278697351
 20
118
 11
20.60022574075623
 21
118
  0
LINE
  5
C7
100
AcDbEntity
  8
标注
  6
ByBlock
 62
    0
370
   -2
100
AcDbLine
 10
59.16272473415376
 20
102
 11
20.60022574075623
 21
102
  0
ENDBLK
  5
78
330
76
100
AcDbEntity
  8
0
100
AcDbBlockEnd
  0
BLOCK
  5
7A
330
79
100
AcDbEntity
  8
0
100
AcDbBlockBegin
  2
*D2
 70
    1
 10
0
 20
0
  3
*D2
  1

  0
LINE
  5
C8
100
AcDbEntity
  8
标注
  6
ByBlock
 62
    0
370
   -2
100
AcDbLine
 10
60.72522473415376
 20
92.08489333303311
 11
40.72522876056364
 21
92.08489333303311
  0
SOLID
  5
C9
100
AcDbEntity
  8
标注
  6
ByBlock
 62
    0
370
   -2
100
AcDbTrace
 10
60.72522473415376
 20
92.08489333303311
 30
0
 11
55.72522473415376
 21
91.25232401748742
 31
0
 12
55.72522473415376
 22
92.91746264857879
 32
0
 13
55.72522473415376
 23
92.91746264857879
 33
0
  0
SOLID
  5
CA
100
AcDbEntity
  8
标注
  6
ByBlock
 62
    0
370
   -2
100
AcDbTrace
 10
40.72522876056364
 20
92.08489333303311
 30
0
 11
45.72522876056364
 21
92.91746264857879
 31
0
 12
45.72522876056364
 22
91.25232401748742
 32
0
 13
45.72522876056364
 23
91.25232401748742
 33
0
  0
MTEXT
  5
CB
100
AcDbEntity
  8
标注
  6
CONTINUOUS
 62
    0
370
   -2
100
AcDbMText
 10
50.7252267473587
 20
94.58489333303311
 30
0
 40
2.5
 41
5.833333333333334
 71
    5
 72
    1
  1
20.0
  7
standard
210
0
220
0
230
1
 50
360
 73
    2
 44
1
  0
LINE
  5
CC
100
AcDbEntity
  8
标注
  6
ByBlock
 62
    0
370
   -2
100
AcDbLine
 10
60.72522473415376
 20
100.4375
 11
60.72522473415376
 21
88.95989333303311
  0
LINE
  5
CD
100
AcDbEntity
  8
标注
  6
ByBlock
 62
    0
370
   -2
100
AcDbLine
 10
40.72522876056364
 20
105.4375
 11
40.72522876056364
 21
88.95989333303311
  0
ENDBLK
  5
7B
330
79
100
AcDbEntity
  8
0
100
AcDbBlockEnd
  0
BLOCK
  5
7D
330
7C
100
AcDbEntity
  8
0
100
AcDbBlockBegin
  2
*D7
 70
    1
 10
0
 20
0
  3
*D7
  1

  0
LINE
  5
CE
100
AcDbEntity
  8
标注
  6
ByBlock
 62
    0
370
   -2
100
AcDbLine
 10
67.72522574075452
 20
123.0266018645507
 11
99.72522574075623
 21
123.0266018645507
  0
SOLID
  5
CF
100
AcDbEntity
  8
标注
  6
ByBlock
 62
    0
370
   -2
100
AcDbTrace
 10
77.72522574075452
 20
123.0266018645507
 30
0
 11
72.72522574075452
 21
122.194032549005
 31
0
 12
72.72522574075452
 22
123.8591711800964
 32
0
 13
72.72522574075452
 23
123.8591711800964
 33
0
  0
SOLID
  5
D0
100
AcDbEntity
  8
标注
  6
ByBlock
 62
    0
370
   -2
100
AcDbTrace
 10
89.72522574075623
 20
123.0266018645507
 30
0
 11
94.72522574075623
 21
123.8591711800964
 31
0
 12
94.72522574075623
 22
122.194032549005
 32
0
 13
94.72522574075623
 23
122.194032549005
 33
0
  0
MTEXT
  5
D1
100
AcDbEntity
  8
标注
  6
CONTINUOUS
 62
    0
370
   -2
100
AcDbMText
 10
83.72522574075538
 20
125.5266018645507
 30
0
 40
2.5
 41
10.55555555555587
 71
    5
 72
    1
  1
9.6%%P0.2
  7
standard
210
0
220
0
230
1
 50
0
 73
    2
 44
1
  0
LINE
  5
D2
100
AcDbEntity
  8
标注
  6
ByBlock
 62
    0
370
   -2
100
AcDbLine
 10
77.72522574075452
 20
119.5625
 11
77.72522574075452
 21
126.1516018645507
  0
LINE
  5
D3
100
AcDbEntity
  8
标注
  6
ByBlock
 62
    0
370
   -2
100
AcDbLine
 10
89.72522574075623
 20
117.5625000000032
 11
89.72522574075623
 21
126.1516018645507
  0
ENDBLK
  5
7E
330
7C
100
AcDbEntity
  8
0
100
AcDbBlockEnd
  0
BLOCK
  5
80
330
7F
100
AcDbEntity
  8
0
100
AcDbBlockBegin
  2
*D5
 70
    1
 10
0
 20
0
  3
*D5
  1

  0
LINE
  5
D4
100
AcDbEntity
  8
标注
  6
ByBlock
 62
    0
370
   -2
100
AcDbLine
 10
106.6312390309468
 20
126.0000000000032
 11
106.6312390309468
 21
94.0000000000027
  0
SOLID
  5
D5
100
AcDbEntity
  8
标注
  6
ByBlock
 62
    0
370
   -2
100
AcDbTrace
 10
106.6312390309468
 20
116.0000000000032
 30
0
 11
105.7986697154011
 21
121.0000000000032
 31
0
 12
107.4638083464925
 22
121.0000000000032
 32
0
 13
107.4638083464925
 23
121.0000000000032
 33
0
  0
SOLID
  5
D6
100
AcDbEntity
  8
标注
  6
ByBlock
 62
    0
370
   -2
100
AcDbTrace
 10
106.6312390309468
 20
104.0000000000027
 30
0
 11
107.4638083464925
 21
99.0000000000027
 31
0
 12
105.7986697154011
 22
99.0000000000027
 32
0
 13
105.7986697154011
 23
99.0000000000027
 33
0
  0
MTEXT
  5
D7
100
AcDbEntity
  8
标注
  6
CONTINUOUS
 62
    0
370
   -2
100
AcDbMText
 10
104.1312390309468
 20
125.0277777777811
 30
0
 40
2.5
 41
15.55555555555571
 71
    5
 72
    1
  1
%%C12%%P0.025
  7
standard
210
0
220
0
230
1
 50
90
 73
    2
 44
1
  0
LINE
  5
D8
100
AcDbEntity
  8
标注
  6
ByBlock
 62
    0
370
   -2
100
AcDbLine
 10
91.28772574075623
 20
116.0000000000032
 11
109.7562390309468
 21
116.0000000000032
  0
LINE
  5
D9
100
AcDbEntity
  8
标注
  6
ByBlock
 62
    0
370
   -2
100
AcDbLine
 10
91.28772574075623
 20
104.0000000000027
 11
109.7562390309468
 21
104.0000000000027
  0
ENDBLK
  5
81
330
7F
100
AcDbEntity
  8
0
100
AcDbBlockEnd
  0
ENDSEC
  0
SECTION
  2
ENTITIES
  0
LINE
  5
DA
100
AcDbEntity
  8
虚线
  6
ByLayer
 62
  256
370
   -1
100
AcDbLine
 10
10
 20
150
 11
230
 21
150
  0
LINE
  5
DB
100
AcDbEntity
  8
虚线
  6
ByLayer
 62
  256
370
   -1
100
AcDbLine
 10
230
 20
150
 11
230
 21
80
  0
LINE
  5
DC
100
AcDbEntity
  8
虚线
  6
ByLayer
 62
  256
370
   -1
100
AcDbLine
 10
230
 20
80
 11
10
 21
80
  0
LINE
  5
DD
100
AcDbEntity
  8
虚线
  6
ByLayer
 62
  256
370
   -1
100
AcDbLine
 10
10
 20
80
 11
10
 21
20
  0
LINE
  5
DE
100
AcDbEntity
  8
虚线
  6
ByLayer
 62
  256
370
   -1
100
AcDbLine
 10
10
 20
20
 11
230
 21
20
  0
LINE
  5
DF
100
AcDbEntity
  8
虚线
  6
ByLayer
 62
  256
370
   -1
100
AcDbLine
 10
230
 20
20
 11
230
 21
80
  0
LINE
  5
E0
100
AcDbEntity
  8
虚线
  6
ByLayer
 62
  256
370
   -1
100
AcDbLine
 10
10
 20
150
 11
10
 21
80
  0
LINE
  5
E1
100
AcDbEntity
  8
中心线
  6
ByLayer
 62
  256
370
   -1
100
AcDbLine
 10
10
 20
110
 11
230
 21
110
  0
LINE
  5
E2
100
AcDbEntity
  8
0
  6
ByLayer
 62
  256
370
   -1
100
AcDbLine
 10
89.72522574075623
 20
116.0000000000032
 11
77.72522574075452
 21
115.9999999999988
  0
LINE
  5
E3
100
AcDbEntity
  8
0
  6
ByLayer
 62
  256
370
   -1
100
AcDbLine
 10
89.72522574075623
 20
104.0000000000027
 11
77.72522574075452
 21
104.0000000000011
  0
LINE
  5
E4
100
AcDbEntity
  8
0
  6
ByLayer
 62
  256
370
   -1
100
AcDbLine
 10
89.72522574075623
 20
116
 11
89.72522574075623
 21
104
  0
CIRCLE
  5
E5
100
AcDbEntity
  8
0
  6
ByLayer
 62
  256
370
   -1
100
AcDbCircle
 10
77.72522574075452
 20
110
 40
0
  0
LINE
  5
E6
100
AcDbEntity
  8
0
  6
ByLayer
 62
  256
370
   -1
100
AcDbLine
 10
77.72522574075451
 20
102
 11
77.72522574075452
 21
118
  0
LINE
  5
E7
100
AcDbEntity
  8
0
  6
ByLayer
 62
  256
370
   -1
100
AcDbLine
 10
77.72522574075452
 20
118
 11
60.72523278697351
 21
118
  0
LINE
  5
E8
100
AcDbEntity
  8
0
  6
ByLayer
 62
  256
370
   -1
100
AcDbLine
 10
77.72522574075451
 20
102
 11
60.72522473415376
 21
102
  0
LINE
  5
E9
100
AcDbEntity
  8
0
  6
ByLayer
 62
  256
370
   -1
100
AcDbLine
 10
60.72522473415376
 20
102
 11
60.72523278697351
 21
118
  0
LINE
  5
EA
100
AcDbEntity
  8
0
  6
ByLayer
 62
  256
370
   -1
100
AcDbLine
 10
56.72522876056364
 20
106
 11
56.72522876056364
 21
113.9999999999985
  0
LINE
  5
EB
100
AcDbEntity
  8
0
  6
ByLayer
 62
  256
370
   -1
100
AcDbLine
 10
40.72522876056364
 20
113
 11
56.72522876056364
 21
113
  0
LINE
  5
EC
100
AcDbEntity
  8
0
  6
ByLayer
 62
  256
370
   -1
100
AcDbLine
 10
40.72522876056364
 20
107
 11
56.72522876056364
 21
107
  0
LINE
  5
ED
100
AcDbEntity
  8
0
  6
ByLayer
 62
  256
370
   -1
100
AcDbLine
 10
42.17355958502872
 20
106.0000000000014
 11
40.72522876056364
 21
107
  0
LINE
  5
EE
100
AcDbEntity
  8
0
  6
ByLayer
 62
  256
370
   -1
100
AcDbLine
 10
40.72522876056364
 20
107
 11
40.72522876056364
 21
113
  0
LINE
  5
EF
100
AcDbEntity
  8
0
  6
ByLayer
 62
  256
370
   -1
100
AcDbLine
 10
40.72522876056364
 20
113
 11
42.17355958502872
 21
113.9999999999985
  0
LINE
  5
F0
100
AcDbEntity
  8
0
  6
ByLayer
 62
  256
370
   -1
100
AcDbLine
 10
60.72523077376857
 20
113.9999999999985
 11
42.17355958502873
 21
113.9999999999985
  0
LINE
  5
F1
100
AcDbEntity
  8
0
  6
ByLayer
 62
  256
370
   -1
100
AcDbLine
 10
60.7252267473587
 20
106.0000000000014
 11
42.1735595850287
 21
106.0000000000015
  0
LINE
  5
F2
100
AcDbEntity
  8
0
  6
ByLayer
 62
  256
370
   -1
100
AcDbLine
 10
40.72522876056364
 20
113
 11
40.72522876056364
 21
107
  0
LINE
  5
F3
100
AcDbEntity
  8
0
  6
ByLayer
 62
  256
370
   -1
100
AcDbLine
 10
42.17355958502873
 20
113.9999999999985
 11
42.1735595850287
 21
106.0000000000015
  0
DIMENSION
  5
F4
100
AcDbEntity
  8
标注
  6
ByLayer
 62
  256
370
   -1
100
AcDbDimension
  2
*D1
 10
56.72522876056364
 20
97.26651916367003
 30
0
 11
58.7252267473587
 21
99.76651916367003
 31
0
 70
   32
 71
    5
  3
Standard
 53
0
210
0
220
0
230
1
100
AcDbAlignedDimension
 13
60.72522473415376
 23
102
 33
0
 14
56.72522876056364
 24
106.0000000000014
 34
0
100
AcDbRotatedDimension
  0
DIMENSION
  5
F5
100
AcDbEntity
  8
标注
  6
ByLayer
 62
  256
370
   -1
100
AcDbDimension
  2
*D2
 10
40.72522876056364
 20
92.08489333303311
 30
0
 11
50.7252267473587
 21
94.58489333303311
 31
0
 70
   32
 71
    5
  3
Standard
 53
0
210
0
220
0
230
1
100
AcDbAlignedDimension
 13
60.72522473415376
 23
102
 33
0
 14
40.72522876056364
 24
107
 34
0
100
AcDbRotatedDimension
  0
DIMENSION
  5
F6
100
AcDbEntity
  8
标注
  6
ByLayer
 62
  256
370
   -1
100
AcDbDimension
  2
*D3
 10
77.72522574075452
 20
123.0266018645507
 30
0
 11
69.22522926386401
 21
125.5266018645507
 31
0
 70
   32
 71
    5
  3
Standard
 53
0
210
0
220
0
230
1
100
AcDbAlignedDimension
 13
60.72523278697351
 23
118
 33
0
 14
77.72522574075452
 24
118
 34
0
100
AcDbRotatedDimension
  0
DIMENSION
  5
F7
100
AcDbEntity
  8
标注
  6
ByLayer
 62
  256
370
   -1
100
AcDbDimension
  2
*D4
 10
38.67791742345132
 20
106.0000000000015
 30
0
 11
36.17791742345132
 21
110
 31
0
 70
   32
  1
M8
 71
    5
  3
Standard
 53
0
210
0
220
0
230
1
100
AcDbAlignedDimension
 13
42.17355958502873
 23
113.9999999999985
 33
0
 14
42.1735595850287
 24
106.0000000000015
 34
0
 50
90
100
AcDbRotatedDimension
  0
DIMENSION
  5
F8
100
AcDbEntity
  8
标注
  6
ByLayer
 62
  256
370
   -1
100
AcDbDimension
  2
*D5
 10
106.6312390309468
 20
104.0000000000027
 30
0
 11
104.1312390309468
 21
110.000000000003
 31
0
 70
   32
  1
%%C12%%P0.025
 71
    5
  3
Standard
 53
0
210
0
220
0
230
1
100
AcDbAlignedDimension
 13
89.72522574075623
 23
116.0000000000032
 33
0
 14
89.72522574075623
 24
104.0000000000027
 34
0
 50
90
100
AcDbRotatedDimension
  0
DIMENSION
  5
F9
100
AcDbEntity
  8
标注
  6
ByLayer
 62
  256
370
   -1
100
AcDbDimension
  2
*D6
 10
23.72522574075623
 20
102
 30
0
 11
21.22522574075623
 21
110
 31
0
 70
   32
  1
%%C<>
 71
    5
  3
Standard
 53
0
210
0
220
0
230
1
100
AcDbAlignedDimension
 13
60.72523278697351
 23
118
 33
0
 14
60.72522473415376
 24
102
 34
0
 50
90
100
AcDbRotatedDimension
  0
DIMENSION
  5
FA
100
AcDbEntity
  8
标注
  6
ByLayer
 62
  256
370
   -1
100
AcDbDimension
  2
*D7
 10
89.72522574075623
 20
123.0266018645507
 30
0
 11
83.72522574075538
 21
125.5266018645507
 31
0
 70
   32
  1
9.6%%P0.2
 71
    5
  3
Standard
 53
0
210
0
220
0
230
1
100
AcDbAlignedDimension
 13
77.72522574075452
 23
118
 33
0
 14
89.72522574075623
 24
116.0000000000032
 34
0
100
AcDbRotatedDimension
  0
LINE
  5
FB
100
AcDbEntity
  8
虚线
  6
ByLayer
 62
  256
370
   -1
100
AcDbLine
 10
66.4902371740781
 20
108.0189651425434
 11
65.39544731940063
 21
110
  0
LINE
  5
FC
100
AcDbEntity
  8
虚线
  6
ByLayer
 62
  256
370
   -1
100
AcDbLine
 10
65.39544731940063
 20
110
 11
66.4902371740781
 21
111.9810348574566
  0
LINE
  5
FD
100
AcDbEntity
  8
虚线
  6
ByLayer
 62
  256
370
   -1
100
AcDbLine
 10
89.72522574075623
 20
111.9810348574566
 11
66.4902371740781
 21
111.9810348574566
  0
LINE
  5
FE
100
AcDbEntity
  8
虚线
  6
ByLayer
 62
  256
370
   -1
100
AcDbLine
 10
89.72522574075623
 20
108.0189651425434
 11
66.4902371740781
 21
108.0189651425434
  0
LINE
  5
FF
100
AcDbEntity
  8
虚线
  6
ByLayer
 62
  256
370
   -1
100
AcDbLine
 10
66.4902371740781
 20
111.9810348574566
 11
66.49023717407809
 21
108.0189651425434
  0
LEADER
  5
100
100
AcDbEntity
  8
标注
  6
ByLayer
 62
  256
370
   -1
100
AcDbLeader
  3
Standard
 71
    1
 72
    0
 73
    3
 74
    0
 75
    0
 40
1
 41
10
 76
2
 76
2
 10
83.42298692642291
 20
108.0189651425434
 30
0
 10
80
 20
90
 30
0
  0
MTEXT
  5
101
100
AcDbEntity
  8
标注
  6
ByLayer
 62
  256
370
   -1
100
AcDbMText
 10
80
 20
90
 30
0
 40
3
 41
40.75
 71
    1
 72
    1
  1
M4 螺纹深度>10mm
  7
wqy-unicode
210
0
220
0
230
1
 50
0
 73
    2
 44
1
  0
LINE
  5
102
100
AcDbEntity
  8
中心线
  6
ByLayer
 62
  256
370
   -1
100
AcDbLine
 10
12.079378603814
 20
50
 11
232.079378603814
 21
50
  0
LINE
  5
103
100
AcDbEntity
  8
0
  6
ByLayer
 62
  256
370
   -1
100
AcDbLine
 10
91.80460434457024
 20
56.0000000000032
 11
79.80460434456853
 21
55.99999999999881
  0
LINE
  5
104
100
AcDbEntity
  8
0
  6
ByLayer
 62
  256
370
   -1
100
AcDbLine
 10
91.80460434457024
 20
44.0000000000027
 11
79.80460434456853
 21
44.00000000000109
  0
LINE
  5
105
100
AcDbEntity
  8
0
  6
ByLayer
 62
  256
370
   -1
100
AcDbLine
 10
91.80460434457024
 20
56
 11
91.80460434457024
 21
44
  0
CIRCLE
  5
106
100
AcDbEntity
  8
0
  6
ByLayer
 62
  256
370
   -1
100
AcDbCircle
 10
79.80460434456853
 20
50
 40
0
  0
LINE
  5
107
100
AcDbEntity
  8
0
  6
ByLayer
 62
  256
370
   -1
100
AcDbLine
 10
79.80460434456852
 20
42
 11
79.80460434456853
 21
58
  0
LINE
  5
108
100
AcDbEntity
  8
0
  6
ByLayer
 62
  256
370
   -1
100
AcDbLine
 10
79.80460434456853
 20
58
 11
62.80461139078751
 21
58
  0
LINE
  5
109
100
AcDbEntity
  8
0
  6
ByLayer
 62
  256
370
   -1
100
AcDbLine
 10
79.80460434456852
 20
42
 11
62.80460333796776
 21
42
  0
LINE
  5
10A
100
AcDbEntity
  8
0
  6
ByLayer
 62
  256
370
   -1
100
AcDbLine
 10
62.80460333796776
 20
42
 11
62.80461139078751
 21
58
  0
LINE
  5
10B
100
AcDbEntity
  8
0
  6
ByLayer
 62
  256
370
   -1
100
AcDbLine
 10
58.80460736437765
 20
46
 11
58.80460736437765
 21
53.99999999999849
  0
LINE
  5
10C
100
AcDbEntity
  8
0
  6
ByLayer
 62
  256
370
   -1
100
AcDbLine
 10
42.80460736437765
 20
53
 11
58.80460736437765
 21
53
  0
LINE
  5
10D
100
AcDbEntity
  8
0
  6
ByLayer
 62
  256
370
   -1
100
AcDbLine
 10
42.80460736437765
 20
47
 11
58.80460736437765
 21
47
  0
LINE
  5
10E
100
AcDbEntity
  8
0
  6
ByLayer
 62
  256
370
   -1
100
AcDbLine
 10
44.25293818884272
 20
46.00000000000141
 11
42.80460736437765
 21
47
  0
LINE
  5
10F
100
AcDbEntity
  8
0
  6
ByLayer
 62
  256
370
   -1
100
AcDbLine
 10
42.80460736437765
 20
47
 11
42.80460736437765
 21
53
  0
LINE
  5
110
100
AcDbEntity
  8
0
  6
ByLayer
 62
  256
370
   -1
100
AcDbLine
 10
42.80460736437765
 20
53
 11
44.25293818884272
 21
53.99999999999849
  0
LINE
  5
111
100
AcDbEntity
  8
0
  6
ByLayer
 62
  256
370
   -1
100
AcDbLine
 10
62.80460937758258
 20
53.99999999999849
 11
44.25293818884273
 21
53.99999999999849
  0
LINE
  5
112
100
AcDbEntity
  8
0
  6
ByLayer
 62
  256
370
   -1
100
AcDbLine
 10
62.8046053511727
 20
46.00000000000141
 11
44.25293818884271
 21
46.00000000000151
  0
LINE
  5
113
100
AcDbEntity
  8
0
  6
ByLayer
 62
  256
370
   -1
100
AcDbLine
 10
42.80460736437765
 20
53
 11
42.80460736437765
 21
47
  0
LINE
  5
114
100
AcDbEntity
  8
0
  6
ByLayer
 62
  256
370
   -1
100
AcDbLine
 10
44.25293818884273
 20
53.99999999999849
 11
44.25293818884271
 21
46.00000000000151
  0
DIMENSION
  5
115
100
AcDbEntity
  8
标注
  6
ByLayer
 62
  256
370
   -1
100
AcDbDimension
  2
*D9
 10
58.80460736437765
 20
37.26651916367003
 30
0
 11
60.8046053511727
 21
39.76651916367003
 31
0
 70
   32
 71
    5
  3
Standard
 53
0
210
0
220
0
230
1
100
AcDbAlignedDimension
 13
62.80460333796776
 23
42
 33
0
 14
58.80460736437765
 24
46.00000000000141
 34
0
100
AcDbRotatedDimension
  0
DIMENSION
  5
116
100
AcDbEntity
  8
标注
  6
ByLayer
 62
  256
370
   -1
100
AcDbDimension
  2
*D10
 10
42.80460736437765
 20
32.08489333303311
 30
0
 11
52.80460535117271
 21
34.58489333303311
 31
0
 70
   32
 71
    5
  3
Standard
 53
0
210
0
220
0
230
1
100
AcDbAlignedDimension
 13
62.80460333796776
 23
42
 33
0
 14
42.80460736437765
 24
47
 34
0
100
AcDbRotatedDimension
  0
DIMENSION
  5
117
100
AcDbEntity
  8
标注
  6
ByLayer
 62
  256
370
   -1
100
AcDbDimension
  2
*D11
 10
40.75729602726533
 20
46.00000000000151
 30
0
 11
38.25729602726533
 21
50
 31
0
 70
   32
  1
M8
 71
    5
  3
Standard
 53
0
210
0
220
0
230
1
100
AcDbAlignedDimension
 13
44.25293818884273
 23
53.99999999999849
 33
0
 14
44.25293818884271
 24
46.00000000000151
 34
0
 50
90
100
AcDbRotatedDimension
  0
DIMENSION
  5
118
100
AcDbEntity
  8
标注
  6
ByLayer
 62
  256
370
   -1
100
AcDbDimension
  2
*D12
 10
108.7106176347608
 20
44.0000000000027
 30
0
 11
106.2106176347608
 21
50.000000000003
 31
0
 70
   32
  1
%%C12%%P0.025
 71
    5
  3
Standard
 53
0
210
0
220
0
230
1
100
AcDbAlignedDimension
 13
91.80460434457024
 23
56.0000000000032
 33
0
 14
91.80460434457024
 24
44.0000000000027
 34
0
 50
90
100
AcDbRotatedDimension
  0
DIMENSION
  5
119
100
AcDbEntity
  8
标注
  6
ByLayer
 62
  256
370
   -1
100
AcDbDimension
  2
*D13
 10
25.80460434457023
 20
42
 30
0
 11
23.30460434457023
 21
50
 31
0
 70
   32
  1
%%C<>
 71
    5
  3
Standard
 53
0
210
0
220
0
230
1
100
AcDbAlignedDimension
 13
62.80461139078751
 23
58
 33
0
 14
62.80460333796776
 24
42
 34
0
 50
90
100
AcDbRotatedDimension
  0
DIMENSION
  5
11A
100
AcDbEntity
  8
标注
  6
ByLayer
 62
  256
370
   -1
100
AcDbDimension
  2
*D14
 10
91.80460434457024
 20
63.0266018645507
 30
0
 11
85.80460434456938
 21
65.5266018645507
 31
0
 70
   32
  1
9.6%%P0.2
 71
    5
  3
Standard
 53
0
210
0
220
0
230
1
100
AcDbAlignedDimension
 13
79.80460434456853
 23
58
 33
0
 14
91.80460434457024
 24
56.0000000000032
 34
0
100
AcDbRotatedDimension
  0
LINE
  5
11B
100
AcDbEntity
  8
虚线
  6
ByLayer
 62
  256
370
   -1
100
AcDbLine
 10
68.56961577789211
 20
48.01896514254337
 11
67.47482592321464
 21
50
  0
LINE
  5
11C
100
AcDbEntity
  8
虚线
  6
ByLayer
 62
  256
370
   -1
100
AcDbLine
 10
67.47482592321464
 20
50
 11
68.56961577789211
 21
51.98103485745665
  0
LINE
  5
11D
100
AcDbEntity
  8
虚线
  6
ByLayer
 62
  256
370
   -1
100
AcDbLine
 10
91.80460434457024
 20
51.98103485745665
 11
68.56961577789211
 21
51.98103485745665
  0
LINE
  5
11E
100
AcDbEntity
  8
虚线
  6
ByLayer
 62
  256
370
   -1
100
AcDbLine
 10
91.80460434457024
 20
48.01896514254337
 11
68.56961577789211
 21
48.01896514254337
  0
LINE
  5
11F
100
AcDbEntity
  8
虚线
  6
ByLayer
 62
  256
370
   -1
100
AcDbLine
 10
68.56961577789211
 20
51.98103485745665
 11
68.5696157778921
 21
48.01896514254338
  0
LEADER
  5
120
100
AcDbEntity
  8
标注
  6
ByLayer
 62
  256
370
   -1
100
AcDbLeader
  3
Standard
 71
    1
 72
    0
 73
    3
 74
    0
 75
    0
 40
1
 41
10
 76
2
 76
2
 10
85.50236553023691
 20
48.01896514254337
 30
0
 10
82.07937860381401
 20
30
 30
0
  0
MTEXT
  5
121
100
AcDbEntity
  8
标注
  6
ByLayer
 62
  256
370
   -1
100
AcDbMText
 10
82.07937860381401
 20
30
 30
0
 40
3
 41
40.75
 71
    1
 72
    1
  1
M4 螺纹深度>10mm
  7
wqy-unicode
210
0
220
0
230
1
 50
0
 73
    2
 44
1
  0
DIMENSION
  5
122
100
AcDbEntity
  8
标注
  6
ByLayer
 62
  256
370
   -1
100
AcDbDimension
  2
*D16
 10
79.80460434456853
 20
63.0266018645507
 30
0
 11
71.30460786767802
 21
65.5266018645507
 31
0
 70
   32
  1
5
 71
    5
  3
Standard
 53
0
210
0
220
0
230
1
100
AcDbAlignedDimension
 13
62.80461139078751
 23
58
 33
0
 14
79.80460434456853
 24
58
 34
0
100
AcDbRotatedDimension
  0
MTEXT
  5
123
100
AcDbEntity
  8
标注
  6
ByLayer
 62
  256
370
   -1
100
AcDbMText
 10
80
 20
30
 30
0
 40
3
 41
40.75
 71
    1
 72
    1
  1
M4 螺纹深度>10mm
  7
wqy-unicode
210
0
220
0
230
1
 50
0
 73
    2
 44
1
  0
MTEXT
  5
124
100
AcDbEntity
  8
标注
  6
ByLayer
 62
  256
370
   -1
100
AcDbMText
 10
80
 20
30
 30
0
 40
3
 41
40.75
 71
    1
 72
    1
  1
M4 螺纹深度>10mm
  7
wqy-unicode
210
0
220
0
230
1
 50
0
 73
    2
 44
1
  0
MTEXT
  5
125
100
AcDbEntity
  8
标注
  6
ByLayer
 62
  256
370
   -1
100
AcDbMText
 10
80
 20
30
 30
0
 40
3
 41
40.75
 71
    1
 72
    1
  1
M4 螺纹深度>10mm
  7
wqy-unicode
210
0
220
0
230
1
 50
0
 73
    2
 44
1
  0
MTEXT
  5
126
100
AcDbEntity
  8
0
  6
ByLayer
 62
  256
370
   -1
100
AcDbMText
 10
82.35556660268443
 20
11.91466161451941
 30
0
 40
3
 41
60.40333333333334
 71
    1
 72
    1
  1
4-5臂连接轴. 45#钢, 共2件
  7
wqy-unicode
210
0
220
0
230
1
 50
0
 73
    2
 44
1
  0
ENDSEC
  0
SECTION
  2
OBJECTS
  0
DICTIONARY
  5
C
330
0
100
AcDbDictionary
281
    1
  3
ACAD_GROUP
350
D
  0
DICTIONARY
  5
D
330
C
100
AcDbDictionary
281
    1
  0
ENDSEC
  0
EOF
