999
dxfrw 0.6.3
  0
SECTION
  2
HEADER
  9
$ACADVER
  1
AC1021
  9
$DWGCODEPAGE
  3
ANSI_1252
  9
$INSBASE
 10
0
 20
0
 30
0
  9
$EXTMIN
 10
-210
 20
-370
 30
0
  9
$EXTMAX
 10
670
 20
730
 30
0
  9
$LIMMIN
 10
0
 20
0
  9
$LIMMAX
 10
420
 20
297
  9
$ORTHOMODE
 70
    0
  9
$REGENMODE
 70
    1
  9
$FILLMODE
 70
    1
  9
$QTEXTMODE
 70
    0
  9
$MIRRTEXT
 70
    0
  9
$LTSCALE
 40
1
  9
$ATTMODE
 70
    0
  9
$TEXTSIZE
 40
2.5
  9
$TRACEWID
 40
15.68
  9
$TEXTSTYLE
  7
STANDARD
  9
$CLAYER
  8
大臂同步轮
  9
$CELTYPE
  6
BYLAYER
  9
$CECOLOR
 62
  256
  9
$CELTSCALE
 40
1
  9
$DISPSILH
 70
    0
  9
$DIMSCALE
 40
2.5
  9
$DIMASZ
 40
2.5
  9
$DIMEXO
 40
0.625
  9
$DIMDLI
 40
3.75
  9
$DIMRND
 40
0
  9
$DIMDLE
 40
0
  9
$DIMEXE
 40
1.25
  9
$DIMTP
 40
0
  9
$DIMTM
 40
0
  9
$DIMTXT
 40
4
  9
$DIMCEN
 40
2.5
  9
$DIMTSZ
 40
0
  9
$DIMTOL
 70
    0
  9
$DIMLIM
 70
    0
  9
$DIMTIH
 70
    0
  9
$DIMTOH
 70
    0
  9
$DIMSE1
 70
    0
  9
$DIMSE2
 70
    0
  9
$DIMTAD
 70
    1
  9
$DIMZIN
 70
    1
  9
$DIMBLK
  1

  9
$DIMASO
 70
    1
  9
$DIMSHO
 70
    1
  9
$DIMPOST
  1

  9
$DIMAPOST
  1

  9
$DIMALT
 70
    0
  9
$DIMALTD
 70
    3
  9
$DIMALTF
 40
0.03937
  9
$DIMLFAC
 40
1
  9
$DIMTOFL
 70
    1
  9
$DIMTVP
 40
0
  9
$DIMTIX
 70
    0
  9
$DIMSOXD
 70
    0
  9
$DIMSAH
 70
    0
  9
$DIMBLK1
  1

  9
$DIMBLK2
  1

  9
$DIMSTYLE
  2
STANDARD
  9
$DIMCLRD
 70
    0
  9
$DIMCLRE
 70
    0
  9
$DIMCLRT
 70
    0
  9
$DIMTFAC
 40
1
  9
$DIMGAP
 40
0.625
  9
$DIMJUST
 70
    0
  9
$DIMSD1
 70
    0
  9
$DIMSD2
 70
    0
  9
$DIMTOLJ
 70
    0
  9
$DIMTZIN
 70
    8
  9
$DIMALTZ
 70
    0
  9
$DIMALTTZ
 70
    0
  9
$DIMUPT
 70
    0
  9
$DIMDEC
 70
    1
  9
$DIMTDEC
 70
    2
  9
$DIMALTU
 70
    2
  9
$DIMALTTD
 70
    3
  9
$DIMTXSTY
  7
STANDARD
  9
$DIMAUNIT
 70
    0
  9
$DIMADEC
 70
    2
  9
$DIMALTRND
 40
0
  9
$DIMAZIN
 70
    0
  9
$DIMDSEP
 70
    0
  9
$DIMATFIT
 70
    3
  9
$DIMFRAC
 70
    0
  9
$DIMLDRBLK
  1
STANDARD
  9
$DIMLUNIT
 70
    2
  9
$DIMLWD
 70
   -2
  9
$DIMLWE
 70
   -2
  9
$DIMTMOVE
 70
    0
  9
$DIMFXL
 40
1
  9
$DIMFXLON
 70
    0
  9
$DIMJOGANG
 40
0.7854
  9
$DIMTFILL
 70
    0
  9
$DIMTFILLCLR
 70
    0
  9
$DIMARCSYM
 70
    0
  9
$DIMLTYPE
  6

  9
$DIMLTEX1
  6

  9
$DIMLTEX2
  6

  9
$LUNITS
 70
    2
  9
$LUPREC
 70
    4
  9
$SKETCHINC
 40
1
  9
$FILLETRAD
 40
0
  9
$AUNITS
 70
    0
  9
$AUPREC
 70
    2
  9
$MENU
  1
.
  9
$ELEVATION
 40
0
  9
$PELEVATION
 40
0
  9
$THICKNESS
 40
0
  9
$LIMCHECK
 70
    0
  9
$CHAMFERA
 40
0
  9
$CHAMFERB
 40
0
  9
$CHAMFERC
 40
0
  9
$CHAMFERD
 40
0
  9
$SKPOLY
 70
    0
  9
$USRTIMER
 70
    1
  9
$ANGBASE
 50
0
  9
$ANGDIR
 70
    0
  9
$PDMODE
 70
   34
  9
$PDSIZE
 40
0
  9
$PLINEWID
 40
0
  9
$SPLFRAME
 70
    0
  9
$SPLINETYPE
 70
    2
  9
$SPLINESEGS
 70
    8
  9
$HANDSEED
  5
20000
  9
$SURFTAB1
 70
    6
  9
$SURFTAB2
 70
    6
  9
$SURFTYPE
 70
    6
  9
$SURFU
 70
    6
  9
$SURFV
 70
    6
  9
$UCSBASE
  2

  9
$UCSNAME
  2

  9
$UCSORG
 10
0
 20
0
 30
0
  9
$UCSXDIR
 10
1
 20
0
 30
0
  9
$UCSYDIR
 10
0
 20
1
 30
0
  9
$UCSORTHOREF
  2

  9
$UCSORTHOVIEW
 70
    0
  9
$UCSORGTOP
 10
0
 20
0
 30
0
  9
$UCSORGBOTTOM
 10
0
 20
0
 30
0
  9
$UCSORGLEFT
 10
0
 20
0
 30
0
  9
$UCSORGRIGHT
 10
0
 20
0
 30
0
  9
$UCSORGFRONT
 10
0
 20
0
 30
0
  9
$UCSORGBACK
 10
0
 20
0
 30
0
  9
$PUCSBASE
  2

  9
$PUCSNAME
  2

  9
$PUCSORG
 10
0
 20
0
 30
0
  9
$PUCSXDIR
 10
1
 20
0
 30
0
  9
$PUCSYDIR
 10
0
 20
1
 30
0
  9
$PUCSORTHOREF
  2

  9
$PUCSORTHOVIEW
 70
    0
  9
$PUCSORGTOP
 10
0
 20
0
 30
0
  9
$PUCSORGBOTTOM
 10
0
 20
0
 30
0
  9
$PUCSORGLEFT
 10
0
 20
0
 30
0
  9
$PUCSORGRIGHT
 10
0
 20
0
 30
0
  9
$PUCSORGFRONT
 10
0
 20
0
 30
0
  9
$PUCSORGBACK
 10
0
 20
0
 30
0
  9
$USERI1
 70
    0
  9
$USERI2
 70
    0
  9
$USERI3
 70
    0
  9
$USERI4
 70
    0
  9
$USERI5
 70
    0
  9
$USERR1
 40
0
  9
$USERR2
 40
0
  9
$USERR3
 40
0
  9
$USERR4
 40
0
  9
$USERR5
 40
0
  9
$WORLDVIEW
 70
    1
  9
$SHADEDGE
 70
    3
  9
$SHADEDIF
 70
   70
  9
$TILEMODE
 70
    1
  9
$MAXACTVP
 70
   64
  9
$PINSBASE
 10
0
 20
0
 30
0
  9
$PLIMCHECK
 70
    0
  9
$PEXTMIN
 10
0
 20
0
 30
0
  9
$PEXTMAX
 10
0
 20
0
 30
0
  9
$GRIDMODE
 70
    1
  9
$SNAPSTYLE
 70
    0
  9
$GRIDUNIT
 10
0
 20
0
  9
$PLIMMIN
 10
0
 20
0
  9
$PLIMMAX
 10
148
 20
210
  9
$UNITMODE
 70
    0
  9
$VISRETAIN
 70
    1
  9
$PLINEGEN
 70
    0
  9
$PSLTSCALE
 70
    1
  9
$TREEDEPTH
 70
 3020
  9
$CMLSTYLE
  2
Standard
  9
$CMLJUST
 70
    0
  9
$CMLSCALE
 40
20
  9
$PROXYGRAPHICS
 70
    1
  9
$MEASUREMENT
 70
    1
  9
$CELWEIGHT
370
   -1
  9
$ENDCAPS
280
    0
  9
$JOINSTYLE
280
    0
  9
$LWDISPLAY
290
    0
  9
$INSUNITS
 70
    4
  9
$HYPERLINKBASE
  1

  9
$STYLESHEET
  1

  9
$XEDIT
290
    1
  9
$CEPSNTYPE
380
    0
  9
$PSTYLEMODE
290
    1
  9
$EXTNAMES
290
    1
  9
$PSVPSCALE
 40
1
  9
$OLESTARTUP
290
    0
  9
$SORTENTS
280
  127
  9
$INDEXCTL
280
    0
  9
$HIDETEXT
280
    1
  9
$XCLIPFRAME
290
    0
  9
$HALOGAP
280
    0
  9
$OBSCOLOR
 70
  257
  9
$OBSLTYPE
280
    0
  9
$INTERSECTIONDISPLAY
280
    0
  9
$INTERSECTIONCOLOR
 70
  257
  9
$DIMASSOC
280
    1
  9
$PROJECTNAME
  1

  9
$CAMERADISPLAY
290
    0
  9
$LENSLENGTH
 40
50
  9
$CAMERAHEIGHT
 40
0
  9
$STEPSPERSEC
 40
2
  9
$STEPSIZE
 40
50
  9
$3DDWFPREC
 40
2
  9
$PSOLWIDTH
 40
5
  9
$PSOLHEIGHT
 40
80
  9
$LOFTANG1
 40
1.570796326794897
  9
$LOFTANG2
 40
1.570796326794897
  9
$LOFTMAG1
 40
0
  9
$LOFTMAG2
 40
0
  9
$LOFTPARAM
 70
    7
  9
$LOFTNORMALS
280
    1
  9
$LATITUDE
 40
1
  9
$LONGITUDE
 40
1
  9
$NORTHDIRECTION
 40
0
  9
$TIMEZONE
 70
-8000
  9
$LIGHTGLYPHDISPLAY
280
    1
  9
$TILEMODELIGHTSYNCH
280
    1
  9
$SOLIDHIST
280
    1
  9
$SHOWHIST
280
    1
  9
$DWFFRAME
280
    2
  9
$DGNFRAME
280
    0
  9
$REALWORLDSCALE
290
    1
  9
$INTERFERECOLOR
 62
    1
  9
$CSHADOW
280
    0
  9
$SHADOWPLANELOCATION
 40
0
  0
ENDSEC
  0
SECTION
  2
CLASSES
  0
ENDSEC
  0
SECTION
  2
TABLES
  0
TABLE
  2
VPORT
  5
8
330
0
100
AcDbSymbolTable
 70
    1
  0
VPORT
  5
31
330
2
100
AcDbSymbolTableRecord
100
AcDbViewportTableRecord
  2
*ACTIVE
 70
    0
 10
0
 20
0
 11
1
 21
1
 12
743.3699775125444
 22
477.8806998294929
 13
0
 23
0
 14
10
 24
10
 15
10
 25
10
 16
0
 26
0
 36
1
 17
0
 27
0
 37
0
 40
930.0877112676577
 41
1.85069008782936
 42
50
 43
0
 44
0
 50
0
 51
0
 71
    0
 72
  100
 73
    1
 74
    3
 75
    0
 76
    1
 77
    0
 78
    0
281
    0
 65
    1
110
0
120
0
130
0
111
1
121
0
131
0
112
0
122
1
132
0
 79
    0
146
0
348
10020
 60
    7
 61
    5
292
1
282
    1
141
0
142
0
 63
  250
421
3358443
  0
ENDTAB
  0
TABLE
  2
LTYPE
  5
5
330
0
100
AcDbSymbolTable
 70
    4
  0
LTYPE
  5
14
330
5
100
AcDbSymbolTableRecord
100
AcDbLinetypeTableRecord
  2
ByBlock
 70
    0
  3

 72
   65
 73
    0
 40
0
  0
LTYPE
  5
15
330
5
100
AcDbSymbolTableRecord
100
AcDbLinetypeTableRecord
  2
ByLayer
 70
    0
  3

 72
   65
 73
    0
 40
0
  0
LTYPE
  5
16
330
5
100
AcDbSymbolTableRecord
100
AcDbLinetypeTableRecord
  2
Continuous
 70
    0
  3
Solid line
 72
   65
 73
    0
 40
0
  0
LTYPE
  5
32
330
5
100
AcDbSymbolTableRecord
100
AcDbLinetypeTableRecord
  2
DOT
 70
    0
  3
Dot . . . . . . . . . . . . . . . . . . . . . .
 72
   65
 73
    2
 40
6.35
 49
0
 74
    0
 49
-6.35
 74
    0
  0
LTYPE
  5
33
330
5
100
AcDbSymbolTableRecord
100
AcDbLinetypeTableRecord
  2
DOTTINY
 70
    0
  3
Dot (.15x) .....................................
 72
   65
 73
    2
 40
0.9525
 49
0
 74
    0
 49
-0.9525
 74
    0
  0
LTYPE
  5
34
330
5
100
AcDbSymbolTableRecord
100
AcDbLinetypeTableRecord
  2
DOT2
 70
    0
  3
Dot (.5x) .....................................
 72
   65
 73
    2
 40
3.175
 49
0
 74
    0
 49
-3.175
 74
    0
  0
LTYPE
  5
35
330
5
100
AcDbSymbolTableRecord
100
AcDbLinetypeTableRecord
  2
DOTX2
 70
    0
  3
Dot (2x) .  .  .  .  .  .  .  .  .  .  .  .  .
 72
   65
 73
    2
 40
12.7
 49
0
 74
    0
 49
-12.7
 74
    0
  0
LTYPE
  5
36
330
5
100
AcDbSymbolTableRecord
100
AcDbLinetypeTableRecord
  2
DASHED
 70
    0
  3
Dashed _ _ _ _ _ _ _ _ _ _ _ _ _ _ _ _ _
 72
   65
 73
    2
 40
19.05
 49
12.7
 74
    0
 49
-6.35
 74
    0
  0
LTYPE
  5
37
330
5
100
AcDbSymbolTableRecord
100
AcDbLinetypeTableRecord
  2
DASHEDTINY
 70
    0
  3
Dashed (.15x) _ _ _ _ _ _ _ _ _ _ _ _ _ _ _ _ _
 72
   65
 73
    2
 40
2.8575
 49
1.905
 74
    0
 49
-0.9525
 74
    0
  0
LTYPE
  5
38
330
5
100
AcDbSymbolTableRecord
100
AcDbLinetypeTableRecord
  2
DASHED2
 70
    0
  3
Dashed (.5x) _ _ _ _ _ _ _ _ _ _ _ _ _ _ _ _ _
 72
   65
 73
    2
 40
9.524999999999999
 49
6.35
 74
    0
 49
-3.175
 74
    0
  0
LTYPE
  5
39
330
5
100
AcDbSymbolTableRecord
100
AcDbLinetypeTableRecord
  2
DASHEDX2
 70
    0
  3
Dashed (2x) ____  ____  ____  ____  ____  ___
 72
   65
 73
    2
 40
38.09999999999999
 49
25.4
 74
    0
 49
-12.7
 74
    0
  0
LTYPE
  5
3A
330
5
100
AcDbSymbolTableRecord
100
AcDbLinetypeTableRecord
  2
DASHDOT
 70
    0
  3
Dash dot __ . __ . __ . __ . __ . __ . __ . __
 72
   65
 73
    4
 40
25.4
 49
12.7
 74
    0
 49
-6.35
 74
    0
 49
0
 74
    0
 49
-6.35
 74
    0
  0
LTYPE
  5
3B
330
5
100
AcDbSymbolTableRecord
100
AcDbLinetypeTableRecord
  2
DASHDOTTINY
 70
    0
  3
Dash dot (.15x) _._._._._._._._._._._._._._._.
 72
   65
 73
    4
 40
3.81
 49
1.905
 74
    0
 49
-0.9525
 74
    0
 49
0
 74
    0
 49
-0.9525
 74
    0
  0
LTYPE
  5
3C
330
5
100
AcDbSymbolTableRecord
100
AcDbLinetypeTableRecord
  2
DASHDOT2
 70
    0
  3
Dash dot (.5x) _._._._._._._._._._._._._._._.
 72
   65
 73
    4
 40
12.7
 49
6.35
 74
    0
 49
-3.175
 74
    0
 49
0
 74
    0
 49
-3.175
 74
    0
  0
LTYPE
  5
3D
330
5
100
AcDbSymbolTableRecord
100
AcDbLinetypeTableRecord
  2
DASHDOTX2
 70
    0
  3
Dash dot (2x) ____  .  ____  .  ____  .  ___
 72
   65
 73
    4
 40
50.8
 49
25.4
 74
    0
 49
-12.7
 74
    0
 49
0
 74
    0
 49
-12.7
 74
    0
  0
LTYPE
  5
3E
330
5
100
AcDbSymbolTableRecord
100
AcDbLinetypeTableRecord
  2
DIVIDE
 70
    0
  3
Divide ____ . . ____ . . ____ . . ____ . . ____
 72
   65
 73
    6
 40
31.75
 49
12.7
 74
    0
 49
-6.35
 74
    0
 49
0
 74
    0
 49
-6.35
 74
    0
 49
0
 74
    0
 49
-6.35
 74
    0
  0
LTYPE
  5
3F
330
5
100
AcDbSymbolTableRecord
100
AcDbLinetypeTableRecord
  2
DIVIDETINY
 70
    0
  3
Divide (.15x) __..__..__..__..__..__..__..__.._
 72
   65
 73
    6
 40
4.7625
 49
1.905
 74
    0
 49
-0.9525
 74
    0
 49
0
 74
    0
 49
-0.9525
 74
    0
 49
0
 74
    0
 49
-0.9525
 74
    0
  0
LTYPE
  5
40
330
5
100
AcDbSymbolTableRecord
100
AcDbLinetypeTableRecord
  2
DIVIDE2
 70
    0
  3
Divide (.5x) __..__..__..__..__..__..__..__.._
 72
   65
 73
    6
 40
15.875
 49
6.35
 74
    0
 49
-3.175
 74
    0
 49
0
 74
    0
 49
-3.175
 74
    0
 49
0
 74
    0
 49
-3.175
 74
    0
  0
LTYPE
  5
41
330
5
100
AcDbSymbolTableRecord
100
AcDbLinetypeTableRecord
  2
DIVIDEX2
 70
    0
  3
Divide (2x) ________  .  .  ________  .  .  _
 72
   65
 73
    6
 40
63.5
 49
25.4
 74
    0
 49
-12.7
 74
    0
 49
0
 74
    0
 49
-12.7
 74
    0
 49
0
 74
    0
 49
-12.7
 74
    0
  0
LTYPE
  5
42
330
5
100
AcDbSymbolTableRecord
100
AcDbLinetypeTableRecord
  2
BORDER
 70
    0
  3
Border __ __ . __ __ . __ __ . __ __ . __ __ .
 72
   65
 73
    6
 40
44.45
 49
12.7
 74
    0
 49
-6.35
 74
    0
 49
12.7
 74
    0
 49
-6.35
 74
    0
 49
0
 74
    0
 49
-6.35
 74
    0
  0
LTYPE
  5
43
330
5
100
AcDbSymbolTableRecord
100
AcDbLinetypeTableRecord
  2
BORDERTINY
 70
    0
  3
Border (.15x) __.__.__.__.__.__.__.__.__.__.__.
 72
   65
 73
    6
 40
6.6675
 49
1.905
 74
    0
 49
-0.9525
 74
    0
 49
1.905
 74
    0
 49
-0.9525
 74
    0
 49
0
 74
    0
 49
-0.9525
 74
    0
  0
LTYPE
  5
44
330
5
100
AcDbSymbolTableRecord
100
AcDbLinetypeTableRecord
  2
BORDER2
 70
    0
  3
Border (.5x) __.__.__.__.__.__.__.__.__.__.__.
 72
   65
 73
    6
 40
22.225
 49
6.35
 74
    0
 49
-3.175
 74
    0
 49
6.35
 74
    0
 49
-3.175
 74
    0
 49
0
 74
    0
 49
-3.175
 74
    0
  0
LTYPE
  5
45
330
5
100
AcDbSymbolTableRecord
100
AcDbLinetypeTableRecord
  2
BORDERX2
 70
    0
  3
Border (2x) ____  ____  .  ____  ____  .  ___
 72
   65
 73
    6
 40
88.89999999999999
 49
25.4
 74
    0
 49
-12.7
 74
    0
 49
25.4
 74
    0
 49
-12.7
 74
    0
 49
0
 74
    0
 49
-12.7
 74
    0
  0
LTYPE
  5
46
330
5
100
AcDbSymbolTableRecord
100
AcDbLinetypeTableRecord
  2
CENTER
 70
    0
  3
Center ____ _ ____ _ ____ _ ____ _ ____ _ ____
 72
   65
 73
    4
 40
50.8
 49
31.75
 74
    0
 49
-6.35
 74
    0
 49
6.35
 74
    0
 49
-6.35
 74
    0
  0
LTYPE
  5
47
330
5
100
AcDbSymbolTableRecord
100
AcDbLinetypeTableRecord
  2
CENTERTINY
 70
    0
  3
Center (.15x) ___ _ ___ _ ___ _ ___ _ ___ _ ___
 72
   65
 73
    4
 40
7.62
 49
4.7625
 74
    0
 49
-0.9525
 74
    0
 49
0.9525
 74
    0
 49
-0.9525
 74
    0
  0
LTYPE
  5
48
330
5
100
AcDbSymbolTableRecord
100
AcDbLinetypeTableRecord
  2
CENTER2
 70
    0
  3
Center (.5x) ___ _ ___ _ ___ _ ___ _ ___ _ ___
 72
   65
 73
    4
 40
28.575
 49
19.05
 74
    0
 49
-3.175
 74
    0
 49
3.175
 74
    0
 49
-3.175
 74
    0
  0
LTYPE
  5
49
330
5
100
AcDbSymbolTableRecord
100
AcDbLinetypeTableRecord
  2
CENTERX2
 70
    0
  3
Center (2x) ________  __  ________  __  _____
 72
   65
 73
    4
 40
101.6
 49
63.5
 74
    0
 49
-12.7
 74
    0
 49
12.7
 74
    0
 49
-12.7
 74
    0
  0
ENDTAB
  0
TABLE
  2
LAYER
  5
2
330
0
100
AcDbSymbolTable
 70
    1
  0
LAYER
  5
10
330
2
100
AcDbSymbolTableRecord
100
AcDbLayerTableRecord
  2
0
 70
    0
 62
    7
  6
CONTINUOUS
370
    0
390
F
  0
LAYER
  5
4A
330
2
100
AcDbSymbolTableRecord
100
AcDbLayerTableRecord
  2
中心线
 70
    0
 62
    1
  6
CENTERTINY
370
    0
390
F
  0
LAYER
  5
4B
330
2
100
AcDbSymbolTableRecord
100
AcDbLayerTableRecord
  2
同步带
 70
    0
 62
    4
  6
DASHEDTINY
370
    0
390
F
  0
LAYER
  5
4C
330
2
100
AcDbSymbolTableRecord
100
AcDbLayerTableRecord
  2
基础
 70
    0
 62
    5
  6
CONTINUOUS
370
    0
390
F
  0
LAYER
  5
4D
330
2
100
AcDbSymbolTableRecord
100
AcDbLayerTableRecord
  2
大臂
 70
    0
 62
   16
420
8388608
  6
CONTINUOUS
370
    0
390
F
  0
LAYER
  5
4E
330
2
100
AcDbSymbolTableRecord
100
AcDbLayerTableRecord
  2
大臂同步轮
 70
    0
 62
   16
420
8388608
  6
DASHEDTINY
370
   50
390
F
  0
LAYER
  5
4F
330
2
100
AcDbSymbolTableRecord
100
AcDbLayerTableRecord
  2
小臂
 70
    0
 62
    5
  6
CONTINUOUS
370
   35
390
F
  0
LAYER
  5
50
330
2
100
AcDbSymbolTableRecord
100
AcDbLayerTableRecord
  2
尺寸
 70
    0
 62
    3
  6
CONTINUOUS
370
    0
390
F
  0
LAYER
  5
51
330
2
100
AcDbSymbolTableRecord
100
AcDbLayerTableRecord
  2
第一立臂
 70
    0
 62
    6
  6
CONTINUOUS
370
    0
390
F
  0
LAYER
  5
52
330
2
100
AcDbSymbolTableRecord
100
AcDbLayerTableRecord
  2
第一立臂同步轮
 70
    1
 62
    6
  6
DASHEDTINY
370
    0
390
F
  0
LAYER
  5
53
330
2
100
AcDbSymbolTableRecord
100
AcDbLayerTableRecord
  2
轨迹
 70
    0
 62
    2
  6
DOTTINY
370
    0
390
F
  0
ENDTAB
  0
TABLE
  2
STYLE
  5
3
330
0
100
AcDbSymbolTable
 70
    3
  0
STYLE
  5
54
330
2
100
AcDbSymbolTableRecord
100
AcDbTextStyleTableRecord
  2
Standard
 70
    0
 40
0
 41
1
 50
0
 71
    0
 42
1
  3
txt
  4

  0
ENDTAB
  0
TABLE
  2
VIEW
  5
6
330
0
100
AcDbSymbolTable
 70
    0
  0
ENDTAB
  0
TABLE
  2
UCS
  5
7
330
0
100
AcDbSymbolTable
 70
    0
  0
ENDTAB
  0
TABLE
  2
APPID
  5
9
330
0
100
AcDbSymbolTable
 70
    1
  0
APPID
  5
12
330
9
100
AcDbSymbolTableRecord
100
AcDbRegAppTableRecord
  2
ACAD
 70
    0
  0
APPID
  5
55
330
9
100
AcDbSymbolTableRecord
100
AcDbRegAppTableRecord
  2
LibreCad
 70
    0
  0
ENDTAB
  0
TABLE
  2
DIMSTYLE
  5
A
330
0
100
AcDbSymbolTable
 70
    1
100
AcDbDimStyleTable
 71
    1
  0
DIMSTYLE
105
56
330
A
100
AcDbSymbolTableRecord
100
AcDbDimStyleTableRecord
  2
Standard
 70
    0
 40
1
 41
2.5
 42
0.625
 43
0.38
 44
1.25
 45
0
 46
0
 47
0
 48
0
 49
1
140
4
141
0.09
142
0
143
25.4
144
1
145
0
146
1
147
0.625
148
0
 71
    0
 72
    0
 73
    0
 74
    1
 75
    0
 76
    0
 77
    0
 78
    1
 79
    0
170
    0
171
    2
172
    0
173
    0
174
    0
175
    0
176
    0
177
    0
178
    0
179
    2
271
    1
272
    4
273
    2
274
    2
275
    0
276
    0
277
    2
278
    0
279
    0
280
    0
281
    0
282
    0
283
    1
284
    0
285
    0
286
    0
288
    0
289
    3
340
standard
341

371
   -2
372
   -2
  0
ENDTAB
  0
TABLE
  2
BLOCK_RECORD
  5
1
330
0
100
AcDbSymbolTable
 70
    2
  0
BLOCK_RECORD
  5
1F
330
1
100
AcDbSymbolTableRecord
100
AcDbBlockTableRecord
  2
*Model_Space
 70
    0
280
    1
281
    0
  0
BLOCK_RECORD
  5
1E
330
1
100
AcDbSymbolTableRecord
100
AcDbBlockTableRecord
  2
*Paper_Space
 70
    0
280
    1
281
    0
  0
BLOCK_RECORD
  5
57
330
1
100
AcDbSymbolTableRecord
100
AcDbBlockTableRecord
  2
*D6
 70
    0
280
    1
281
    0
  0
BLOCK_RECORD
  5
5A
330
1
100
AcDbSymbolTableRecord
100
AcDbBlockTableRecord
  2
*D5
 70
    0
280
    1
281
    0
  0
BLOCK_RECORD
  5
5D
330
1
100
AcDbSymbolTableRecord
100
AcDbBlockTableRecord
  2
*D1
 70
    0
280
    1
281
    0
  0
BLOCK_RECORD
  5
60
330
1
100
AcDbSymbolTableRecord
100
AcDbBlockTableRecord
  2
*D2
 70
    0
280
    1
281
    0
  0
BLOCK_RECORD
  5
63
330
1
100
AcDbSymbolTableRecord
100
AcDbBlockTableRecord
  2
*D4
 70
    0
280
    1
281
    0
  0
BLOCK_RECORD
  5
66
330
1
100
AcDbSymbolTableRecord
100
AcDbBlockTableRecord
  2
*D9
 70
    0
280
    1
281
    0
  0
BLOCK_RECORD
  5
69
330
1
100
AcDbSymbolTableRecord
100
AcDbBlockTableRecord
  2
*D7
 70
    0
280
    1
281
    0
  0
BLOCK_RECORD
  5
6C
330
1
100
AcDbSymbolTableRecord
100
AcDbBlockTableRecord
  2
*D8
 70
    0
280
    1
281
    0
  0
BLOCK_RECORD
  5
6F
330
1
100
AcDbSymbolTableRecord
100
AcDbBlockTableRecord
  2
*D3
 70
    0
280
    1
281
    0
  0
ENDTAB
  0
ENDSEC
  0
SECTION
  2
BLOCKS
  0
BLOCK
  5
20
330
1F
100
AcDbEntity
  8
0
100
AcDbBlockBegin
  2
*Model_Space
 70
    0
 10
0
 20
0
 30
0
  3
*Model_Space
  1

  0
ENDBLK
  5
21
330
1F
100
AcDbEntity
  8
0
100
AcDbBlockEnd
  0
BLOCK
  5
1C
330
1B
100
AcDbEntity
  8
0
100
AcDbBlockBegin
  2
*Paper_Space
 70
    0
 10
0
 20
0
 30
0
  3
*Paper_Space
  1

  0
ENDBLK
  5
1D
330
1F
100
AcDbEntity
  8
0
100
AcDbBlockEnd
  0
BLOCK
  5
58
330
57
100
AcDbEntity
  8
0
100
AcDbBlockBegin
  2
*D6
 70
    1
 10
0
 20
0
  3
*D6
  1

  0
SOLID
  5
72
100
AcDbEntity
  8
尺寸
  6
ByBlock
 62
    0
370
   -2
100
AcDbTrace
 10
751.2277995292627
 20
831.033936445695
 30
0
 11
749.5836653624625
 21
829.1051762849032
 31
0
 12
749.0473777054776
 22
829.7420178775728
 32
0
 13
749.0473777054776
 23
829.7420178775728
 33
0
  0
LINE
  5
73
100
AcDbEntity
  8
尺寸
  6
ByBlock
 62
    0
370
   -2
100
AcDbLine
 10
560
 20
670
 11
751.2277995292627
 21
831.033936445695
  0
MTEXT
  5
74
100
AcDbEntity
  8
尺寸
  6
CONTINUOUS
 62
    0
370
   -2
100
AcDbMText
 10
653.9230434319516
 20
752.5248601179047
 30
0
 40
4
 41
12.44444444444469
 71
    5
 72
    1
  1
250.0
  7
standard
210
0
220
0
230
1
 50
40.10090754621224
 73
    2
 44
1
  0
ENDBLK
  5
59
330
57
100
AcDbEntity
  8
0
100
AcDbBlockEnd
  0
BLOCK
  5
5B
330
5A
100
AcDbEntity
  8
0
100
AcDbBlockBegin
  2
*D5
 70
    1
 10
0
 20
0
  3
*D5
  1

  0
LINE
  5
75
100
AcDbEntity
  8
尺寸
  6
ByBlock
 62
    0
370
   -2
100
AcDbLine
 10
308.9271503632789
 20
414.4291398546885
 11
281.0728496367212
 21
425.5708601453115
  0
SOLID
  5
76
100
AcDbEntity
  8
尺寸
  6
ByBlock
 62
    0
370
   -2
100
AcDbTrace
 10
308.9271503632789
 20
414.4291398546885
 30
0
 11
306.4513543954597
 21
414.9711059440585
 31
0
 12
306.7605628766719
 22
415.7441271470889
 32
0
 13
306.7605628766719
 23
415.7441271470889
 33
0
  0
SOLID
  5
77
100
AcDbEntity
  8
尺寸
  6
ByBlock
 62
    0
370
   -2
100
AcDbTrace
 10
281.0728496367212
 20
425.5708601453115
 30
0
 11
283.5486456045404
 21
425.0288940559415
 31
0
 12
283.2394371233282
 22
424.2558728529111
 32
0
 13
283.2394371233282
 23
424.2558728529111
 33
0
  0
MTEXT
  5
78
100
AcDbEntity
  8
尺寸
  6
CONTINUOUS
 62
    0
370
   -2
100
AcDbMText
 10
295.9749005254296
 20
422.4372513135738
 30
0
 40
4
 41
8.888888888889138
 71
    5
 72
    1
  1
%%C26
  7
standard
210
0
220
0
230
1
 50
338.1985905136482
 73
    2
 44
1
  0
ENDBLK
  5
5C
330
5A
100
AcDbEntity
  8
0
100
AcDbBlockEnd
  0
BLOCK
  5
5E
330
5D
100
AcDbEntity
  8
0
100
AcDbBlockBegin
  2
*D1
 70
    1
 10
0
 20
0
  3
*D1
  1

  0
LINE
  5
79
100
AcDbEntity
  8
尺寸
  6
ByBlock
 62
    0
370
   -2
100
AcDbLine
 10
377.8885438199983
 20
171.0557280900007
 11
342.1114561800017
 21
188.9442719099993
  0
SOLID
  5
7A
100
AcDbEntity
  8
尺寸
  6
ByBlock
 62
    0
370
   -2
100
AcDbTrace
 10
377.8885438199983
 20
171.0557280900007
 30
0
 11
375.4663076839444
 21
171.8014257616425
 31
0
 12
375.8386440010526
 22
172.5460983958588
 32
0
 13
375.8386440010526
 23
172.5460983958588
 33
0
  0
SOLID
  5
7B
100
AcDbEntity
  8
尺寸
  6
ByBlock
 62
    0
370
   -2
100
AcDbTrace
 10
342.1114561800017
 20
188.9442719099993
 30
0
 11
344.5336923160556
 21
188.1985742383575
 31
0
 12
344.1613559989474
 22
187.4539016041412
 32
0
 13
344.1613559989474
 23
187.4539016041412
 33
0
  0
MTEXT
  5
7C
100
AcDbEntity
  8
尺寸
  6
CONTINUOUS
 62
    0
370
   -2
100
AcDbMText
 10
361.1739356881874
 20
182.3478713763748
 30
0
 40
4
 41
9.777777777777777
 71
    5
 72
    1
  1
40.0
  7
standard
210
0
220
0
230
1
 50
333.4349488229217
 73
    2
 44
1
  0
ENDBLK
  5
5F
330
5D
100
AcDbEntity
  8
0
100
AcDbBlockEnd
  0
BLOCK
  5
61
330
60
100
AcDbEntity
  8
0
100
AcDbBlockBegin
  2
*D2
 70
    1
 10
0
 20
0
  3
*D2
  1

  0
SOLID
  5
7D
100
AcDbEntity
  8
尺寸
  6
ByBlock
 62
    0
370
   -2
100
AcDbTrace
 10
272.1431645834443
 20
199.523741203679
 30
0
 11
274.6739370552977
 21
199.3877867554033
 31
0
 12
274.4933274125106
 22
198.5750433628614
 32
0
 13
274.4933274125106
 23
198.5750433628614
 33
0
  0
LINE
  5
7E
100
AcDbEntity
  8
尺寸
  6
ByBlock
 62
    0
370
   -2
100
AcDbLine
 10
360
 20
180
 11
272.1431645834443
 21
199.5237412036791
  0
MTEXT
  5
7F
100
AcDbEntity
  8
尺寸
  6
CONTINUOUS
 62
    0
370
   -2
100
AcDbMText
 10
316.6410247434961
 20
192.3243616348224
 30
0
 40
4
 41
8.444444444444445
 71
    5
 72
    1
  1
R90
  7
standard
210
0
220
0
230
1
 50
347.4711922908485
 73
    2
 44
1
  0
ENDBLK
  5
62
330
60
100
AcDbEntity
  8
0
100
AcDbBlockEnd
  0
BLOCK
  5
64
330
63
100
AcDbEntity
  8
0
100
AcDbBlockBegin
  2
*D4
 70
    1
 10
0
 20
0
  3
*D4
  1

  0
LINE
  5
80
100
AcDbEntity
  8
尺寸
  6
ByBlock
 62
    0
370
   -2
100
AcDbLine
 10
320
 20
470
 11
320
 21
370
  0
SOLID
  5
81
100
AcDbEntity
  8
尺寸
  6
ByBlock
 62
    0
370
   -2
100
AcDbTrace
 10
320
 20
470
 30
0
 11
320.4162846577728
 21
467.5
 31
0
 12
319.5837153422272
 22
467.5
 32
0
 13
319.5837153422272
 23
467.5
 33
0
  0
SOLID
  5
82
100
AcDbEntity
  8
尺寸
  6
ByBlock
 62
    0
370
   -2
100
AcDbTrace
 10
320
 20
370
 30
0
 11
319.5837153422272
 21
372.5
 31
0
 12
320.4162846577728
 22
372.5
 32
0
 13
320.4162846577728
 23
372.5
 33
0
  0
MTEXT
  5
83
100
AcDbEntity
  8
尺寸
  6
CONTINUOUS
 62
    0
370
   -2
100
AcDbMText
 10
317.375
 20
420
 30
0
 40
4
 41
4.888888888889136
 71
    5
 72
    1
  1
90
  7
standard
210
0
220
0
230
1
 50
90
 73
    2
 44
1
  0
LINE
  5
84
100
AcDbEntity
  8
尺寸
  6
ByBlock
 62
    0
370
   -2
100
AcDbLine
 10
319.375
 20
470
 11
318.75
 21
470
  0
LINE
  5
85
100
AcDbEntity
  8
尺寸
  6
ByBlock
 62
    0
370
   -2
100
AcDbLine
 10
319.375
 20
370
 11
318.75
 21
370
  0
ENDBLK
  5
65
330
63
100
AcDbEntity
  8
0
100
AcDbBlockEnd
  0
BLOCK
  5
67
330
66
100
AcDbEntity
  8
0
100
AcDbBlockBegin
  2
*D9
 70
    1
 10
0
 20
0
  3
*D9
  1

  0
LINE
  5
86
100
AcDbEntity
  8
尺寸
  6
ByBlock
 62
    0
370
   -2
100
AcDbLine
 10
150
 20
670
 11
150
 21
320
  0
SOLID
  5
87
100
AcDbEntity
  8
尺寸
  6
ByBlock
 62
    0
370
   -2
100
AcDbTrace
 10
150
 20
670
 30
0
 11
150.4162846577728
 21
667.5
 31
0
 12
149.5837153422272
 22
667.5
 32
0
 13
149.5837153422272
 23
667.5
 33
0
  0
SOLID
  5
88
100
AcDbEntity
  8
尺寸
  6
ByBlock
 62
    0
370
   -2
100
AcDbTrace
 10
150
 20
320
 30
0
 11
149.5837153422272
 21
322.5
 31
0
 12
150.4162846577728
 22
322.5
 32
0
 13
150.4162846577728
 23
322.5
 33
0
  0
MTEXT
  5
89
100
AcDbEntity
  8
尺寸
  6
CONTINUOUS
 62
    0
370
   -2
100
AcDbMText
 10
147.375
 20
495
 30
0
 40
4
 41
12.44444444444494
 71
    5
 72
    1
  1
350.0
  7
standard
210
0
220
0
230
1
 50
90
 73
    2
 44
1
  0
LINE
  5
8A
100
AcDbEntity
  8
尺寸
  6
ByBlock
 62
    0
370
   -2
100
AcDbLine
 10
149.375
 20
670
 11
148.75
 21
670
  0
LINE
  5
8B
100
AcDbEntity
  8
尺寸
  6
ByBlock
 62
    0
370
   -2
100
AcDbLine
 10
299.375
 20
320
 11
148.75
 21
320
  0
ENDBLK
  5
68
330
66
100
AcDbEntity
  8
0
100
AcDbBlockEnd
  0
BLOCK
  5
6A
330
69
100
AcDbEntity
  8
0
100
AcDbBlockBegin
  2
*D7
 70
    1
 10
0
 20
0
  3
*D7
  1

  0
SOLID
  5
8C
100
AcDbEntity
  8
尺寸
  6
ByBlock
 62
    0
370
   -2
100
AcDbTrace
 10
506.2110536485739
 20
806.4636500720022
 30
0
 11
504.66745409731
 21
804.4535273539486
 31
0
 12
504.0993768586234
 22
805.0621815382557
 32
0
 13
504.0993768586234
 23
805.0621815382557
 33
0
  0
LINE
  5
8D
100
AcDbEntity
  8
尺寸
  6
ByBlock
 62
    0
370
   -2
100
AcDbLine
 10
360.0000000000001
 20
670
 11
506.2110536485739
 21
806.4636500720022
  0
MTEXT
  5
8E
100
AcDbEntity
  8
尺寸
  6
CONTINUOUS
 62
    0
370
   -2
100
AcDbMText
 10
431.3144414170919
 20
740.1508451151386
 30
0
 40
4
 41
12.44444444444444
 71
    5
 72
    1
  1
200.0
  7
standard
210
0
220
0
230
1
 50
43.02506598911803
 73
    2
 44
1
  0
ENDBLK
  5
6B
330
69
100
AcDbEntity
  8
0
100
AcDbBlockEnd
  0
BLOCK
  5
6D
330
6C
100
AcDbEntity
  8
0
100
AcDbBlockBegin
  2
*D8
 70
    1
 10
0
 20
0
  3
*D8
  1

  0
SOLID
  5
8F
100
AcDbEntity
  8
尺寸
  6
ByBlock
 62
    0
370
   -2
100
AcDbTrace
 10
422.2507769884745
 20
784.1264244788699
 30
0
 11
421.419101119904
 21
781.7323467512398
 31
0
 12
420.6881922036421
 22
782.1310243419281
 32
0
 13
420.6881922036421
 23
782.1310243419281
 33
0
  0
LINE
  5
90
100
AcDbEntity
  8
尺寸
  6
ByBlock
 62
    0
370
   -2
100
AcDbLine
 10
360
 20
670
 11
422.2507769884745
 21
784.1264244788699
  0
MTEXT
  5
91
100
AcDbEntity
  8
尺寸
  6
CONTINUOUS
 62
    0
370
   -2
100
AcDbMText
 10
388.820912615337
 20
728.3201990824715
 30
0
 40
4
 41
11.5555555555558
 71
    5
 72
    1
  1
130.0
  7
standard
210
0
220
0
230
1
 50
61.38954033403478
 73
    2
 44
1
  0
ENDBLK
  5
6E
330
6C
100
AcDbEntity
  8
0
100
AcDbBlockEnd
  0
BLOCK
  5
70
330
6F
100
AcDbEntity
  8
0
100
AcDbBlockBegin
  2
*D3
 70
    1
 10
0
 20
0
  3
*D3
  1

  0
LINE
  5
92
100
AcDbEntity
  8
尺寸
  6
ByBlock
 62
    0
370
   -2
100
AcDbLine
 10
340
 20
440
 11
250
 21
440
  0
SOLID
  5
93
100
AcDbEntity
  8
尺寸
  6
ByBlock
 62
    0
370
   -2
100
AcDbTrace
 10
340
 20
440
 30
0
 11
337.5
 21
439.5837153422272
 31
0
 12
337.5
 22
440.4162846577728
 32
0
 13
337.5
 23
440.4162846577728
 33
0
  0
SOLID
  5
94
100
AcDbEntity
  8
尺寸
  6
ByBlock
 62
    0
370
   -2
100
AcDbTrace
 10
250
 20
440
 30
0
 11
252.5
 21
440.4162846577728
 31
0
 12
252.5
 22
439.5837153422272
 32
0
 13
252.5
 23
439.5837153422272
 33
0
  0
MTEXT
  5
95
100
AcDbEntity
  8
尺寸
  6
CONTINUOUS
 62
    0
370
   -2
100
AcDbMText
 10
295
 20
442.625
 30
0
 40
4
 41
4.888888888889136
 71
    5
 72
    1
  1
90
  7
standard
210
0
220
0
230
1
 50
360
 73
    2
 44
1
  0
LINE
  5
96
100
AcDbEntity
  8
尺寸
  6
ByBlock
 62
    0
370
   -2
100
AcDbLine
 10
340
 20
439.375
 11
340
 21
438.75
  0
LINE
  5
97
100
AcDbEntity
  8
尺寸
  6
ByBlock
 62
    0
370
   -2
100
AcDbLine
 10
250
 20
439.375
 11
250
 21
438.75
  0
ENDBLK
  5
71
330
6F
100
AcDbEntity
  8
0
100
AcDbBlockEnd
  0
ENDSEC
  0
SECTION
  2
ENTITIES
  0
LINE
  5
98
100
AcDbEntity
  8
中心线
  6
ByLayer
 62
  256
370
   -1
100
AcDbLine
 10
480
 20
180
 11
110
 21
180
  0
LINE
  5
99
100
AcDbEntity
  8
0
  6
ByLayer
 62
  256
370
   -1
100
AcDbLine
 10
340
 20
240
 11
340
 21
120
  0
LINE
  5
9A
100
AcDbEntity
  8
0
  6
ByLayer
 62
  256
370
   -1
100
AcDbLine
 10
340
 20
240
 11
250
 21
240
  0
LINE
  5
9B
100
AcDbEntity
  8
0
  6
ByLayer
 62
  256
370
   -1
100
AcDbLine
 10
250
 20
240
 11
250
 21
120
  0
LINE
  5
9C
100
AcDbEntity
  8
0
  6
ByLayer
 62
  256
370
   -1
100
AcDbLine
 10
340
 20
120
 11
250
 21
120
  0
DIMENSION
  5
9D
100
AcDbEntity
  8
尺寸
  6
ByLayer
 62
  256
370
   -1
100
AcDbDimension
  2
*D1
 10
377.8885438199983
 20
171.0557280900007
 30
0
 11
361.1739356881874
 21
182.3478713763748
 31
0
 70
   35
 71
    5
  3
Standard
 53
0
210
0
220
0
230
1
100
AcDbDiametricDimension
 15
342.1114561800017
 25
188.9442719099993
 35
0
 40
0
  0
CIRCLE
  5
9E
100
AcDbEntity
  8
基础
  6
ByLayer
 62
  256
370
   -1
100
AcDbCircle
 10
360
 20
180
 40
18
  0
CIRCLE
  5
9F
100
AcDbEntity
  8
第一立臂
  6
ByLayer
 62
  256
370
   -1
100
AcDbCircle
 10
360
 20
180
 40
40
  0
LINE
  5
A0
100
AcDbEntity
  8
第一立臂
  6
ByLayer
 62
  256
370
   -1
100
AcDbLine
 10
300
 20
250
 11
300
 21
120
  0
LINE
  5
A1
100
AcDbEntity
  8
第一立臂
  6
ByLayer
 62
  256
370
   -1
100
AcDbLine
 10
390
 20
260
 11
390
 21
250
  0
LINE
  5
A2
100
AcDbEntity
  8
第一立臂
  6
ByLayer
 62
  256
370
   -1
100
AcDbLine
 10
390
 20
120
 11
390
 21
110
  0
CIRCLE
  5
A3
100
AcDbEntity
  8
第一立臂
  6
ByLayer
 62
  256
370
   -1
100
AcDbCircle
 10
360
 20
180
 40
90
  0
LINE
  5
A4
100
AcDbEntity
  8
第一立臂
  6
ByLayer
 62
  256
370
   -1
100
AcDbLine
 10
220
 20
110
 11
220
 21
120
  0
LINE
  5
A5
100
AcDbEntity
  8
第一立臂
  6
ByLayer
 62
  256
370
   -1
100
AcDbLine
 10
220
 20
250
 11
220
 21
260
  0
LINE
  5
A6
100
AcDbEntity
  8
第一立臂
  6
ByLayer
 62
  256
370
   -1
100
AcDbLine
 10
390
 20
250
 11
220
 21
250
  0
LINE
  5
A7
100
AcDbEntity
  8
第一立臂
  6
ByLayer
 62
  256
370
   -1
100
AcDbLine
 10
220
 20
120
 11
390
 21
120
  0
LINE
  5
A8
100
AcDbEntity
  8
第一立臂
  6
ByLayer
 62
  256
370
   -1
100
AcDbLine
 10
390
 20
110
 11
220
 21
110
  0
LINE
  5
A9
100
AcDbEntity
  8
第一立臂
  6
ByLayer
 62
  256
370
   -1
100
AcDbLine
 10
390
 20
260
 11
220
 21
260
  0
DIMENSION
  5
AA
100
AcDbEntity
  8
尺寸
  6
ByLayer
 62
  256
370
   -1
100
AcDbDimension
  2
*D2
 10
360
 20
180
 30
0
 11
316.6410247434961
 21
192.3243616348224
 31
0
 70
   36
  1
R90
 71
    5
  3
Standard
 53
0
210
0
220
0
230
1
100
AcDbRadialDimension
 15
272.1431645834443
 25
199.523741203679
 35
0
 40
0
  0
LINE
  5
AB
100
AcDbEntity
  8
0
  6
ByLayer
 62
  256
370
   -1
100
AcDbLine
 10
340
 20
470
 11
340
 21
370
  0
LINE
  5
AC
100
AcDbEntity
  8
0
  6
ByLayer
 62
  256
370
   -1
100
AcDbLine
 10
250
 20
420
 11
250
 21
470
  0
LINE
  5
AD
100
AcDbEntity
  8
0
  6
ByLayer
 62
  256
370
   -1
100
AcDbLine
 10
250
 20
470
 11
250
 21
370
  0
LINE
  5
AE
100
AcDbEntity
  8
0
  6
ByLayer
 62
  256
370
   -1
100
AcDbLine
 10
250
 20
370
 11
340
 21
370
  0
LINE
  5
AF
100
AcDbEntity
  8
0
  6
ByLayer
 62
  256
370
   -1
100
AcDbLine
 10
340
 20
370
 11
340
 21
470
  0
LINE
  5
B0
100
AcDbEntity
  8
0
  6
ByLayer
 62
  256
370
   -1
100
AcDbLine
 10
340
 20
470
 11
250
 21
470
  0
LINE
  5
B1
100
AcDbEntity
  8
基础
  6
ByLayer
 62
  256
370
   -1
100
AcDbLine
 10
420
 20
340
 11
378
 21
340
  0
LINE
  5
B2
100
AcDbEntity
  8
基础
  6
ByLayer
 62
  256
370
   -1
100
AcDbLine
 10
342
 20
340
 11
300
 21
340
  0
LINE
  5
B3
100
AcDbEntity
  8
基础
  6
ByLayer
 62
  256
370
   -1
100
AcDbLine
 10
378
 20
340
 11
378
 21
490
  0
LINE
  5
B4
100
AcDbEntity
  8
基础
  6
ByLayer
 62
  256
370
   -1
100
AcDbLine
 10
342
 20
340
 11
342
 21
490
  0
LINE
  5
B5
100
AcDbEntity
  8
基础
  6
ByLayer
 62
  256
370
   -1
100
AcDbLine
 10
378
 20
490
 11
342
 21
490
  0
LINE
  5
B6
100
AcDbEntity
  8
第一立臂
  6
ByLayer
 62
  256
370
   -1
100
AcDbLine
 10
410
 20
480
 11
410
 21
490
  0
LINE
  5
B7
100
AcDbEntity
  8
第一立臂
  6
ByLayer
 62
  256
370
   -1
100
AcDbLine
 10
410
 20
490
 11
300
 21
490
  0
LINE
  5
B8
100
AcDbEntity
  8
第一立臂
  6
ByLayer
 62
  256
370
   -1
100
AcDbLine
 10
300
 20
490
 11
300
 21
480
  0
LINE
  5
B9
100
AcDbEntity
  8
第一立臂
  6
ByLayer
 62
  256
370
   -1
100
AcDbLine
 10
300
 20
480
 11
410
 21
480
  0
LINE
  5
BA
100
AcDbEntity
  8
第一立臂
  6
ByLayer
 62
  256
370
   -1
100
AcDbLine
 10
390
 20
360
 11
450
 21
360
  0
LINE
  5
BB
100
AcDbEntity
  8
第一立臂
  6
ByLayer
 62
  256
370
   -1
100
AcDbLine
 10
450
 20
360
 11
450
 21
350
  0
LINE
  5
BC
100
AcDbEntity
  8
第一立臂
  6
ByLayer
 62
  256
370
   -1
100
AcDbLine
 10
450
 20
350
 11
390
 21
350
  0
LINE
  5
BD
100
AcDbEntity
  8
第一立臂
  6
ByLayer
 62
  256
370
   -1
100
AcDbLine
 10
450
 20
360
 11
270
 21
360
  0
LINE
  5
BE
100
AcDbEntity
  8
第一立臂
  6
ByLayer
 62
  256
370
   -1
100
AcDbLine
 10
270
 20
360
 11
270
 21
350
  0
LINE
  5
BF
100
AcDbEntity
  8
第一立臂
  6
ByLayer
 62
  256
370
   -1
100
AcDbLine
 10
270
 20
350
 11
450
 21
350
  0
LINE
  5
C0
100
AcDbEntity
  8
第一立臂
  6
ByLayer
 62
  256
370
   -1
100
AcDbLine
 10
390
 20
360
 11
220
 21
360
  0
LINE
  5
C1
100
AcDbEntity
  8
基础
  6
ByLayer
 62
  256
370
   -1
100
AcDbLine
 10
300
 20
340
 11
390
 21
340
  0
LINE
  5
C2
100
AcDbEntity
  8
基础
  6
ByLayer
 62
  256
370
   -1
100
AcDbLine
 10
420
 20
320
 11
300
 21
320
  0
LINE
  5
C3
100
AcDbEntity
  8
基础
  6
ByLayer
 62
  256
370
   -1
100
AcDbLine
 10
300
 20
320
 11
300
 21
340
  0
LINE
  5
C4
100
AcDbEntity
  8
基础
  6
ByLayer
 62
  256
370
   -1
100
AcDbLine
 10
300
 20
340
 11
430
 21
340
  0
LINE
  5
C5
100
AcDbEntity
  8
基础
  6
ByLayer
 62
  256
370
   -1
100
AcDbLine
 10
430
 20
340
 11
430
 21
320
  0
LINE
  5
C6
100
AcDbEntity
  8
基础
  6
ByLayer
 62
  256
370
   -1
100
AcDbLine
 10
430
 20
320
 11
300
 21
320
  0
LINE
  5
C7
100
AcDbEntity
  8
中心线
  6
ByLayer
 62
  256
370
   -1
100
AcDbLine
 10
359.9999999999999
 20
730
 11
360
 21
110
  0
LINE
  5
C8
100
AcDbEntity
  8
中心线
  6
ByLayer
 62
  256
370
   -1
100
AcDbLine
 10
350
 20
540
 11
430
 21
540
  0
LINE
  5
C9
100
AcDbEntity
  8
尺寸
  6
ByLayer
 62
  256
370
   -1
100
AcDbLine
 10
390
 20
250
 11
410
 21
250
  0
LINE
  5
CA
100
AcDbEntity
  8
尺寸
  6
ByLayer
 62
  256
370
   -1
100
AcDbLine
 10
410
 20
250
 11
410
 21
120
  0
LINE
  5
CB
100
AcDbEntity
  8
尺寸
  6
ByLayer
 62
  256
370
   -1
100
AcDbLine
 10
410
 20
120
 11
390
 21
120
  0
LINE
  5
CC
100
AcDbEntity
  8
第一立臂
  6
ByLayer
 62
  256
370
   -1
100
AcDbLine
 10
390
 20
250
 11
410
 21
250
  0
LINE
  5
CD
100
AcDbEntity
  8
第一立臂
  6
ByLayer
 62
  256
370
   -1
100
AcDbLine
 10
410
 20
250
 11
410
 21
120
  0
LINE
  5
CE
100
AcDbEntity
  8
第一立臂
  6
ByLayer
 62
  256
370
   -1
100
AcDbLine
 10
410
 20
120
 11
390
 21
120
  0
LINE
  5
CF
100
AcDbEntity
  8
第一立臂
  6
ByLayer
 62
  256
370
   -1
100
AcDbLine
 10
390
 20
690
 11
330
 21
690
  0
LINE
  5
D0
100
AcDbEntity
  8
第一立臂
  6
ByLayer
 62
  256
370
   -1
100
AcDbLine
 10
330
 20
690
 11
220
 21
360
  0
LINE
  5
D1
100
AcDbEntity
  8
第一立臂
  6
ByLayer
 62
  256
370
   -1
100
AcDbLine
 10
390
 20
690
 11
390
 21
360
  0
DIMENSION
  5
D2
100
AcDbEntity
  8
尺寸
  6
ByLayer
 62
  256
370
   -1
100
AcDbDimension
  2
*D3
 10
250
 20
440
 30
0
 11
295
 21
442.625
 31
0
 70
   32
  1
90
 71
    5
  3
Standard
 53
0
210
0
220
0
230
1
100
AcDbAlignedDimension
 13
340
 23
440
 33
0
 14
250
 24
440
 34
0
 50
180
100
AcDbRotatedDimension
  0
DIMENSION
  5
D3
100
AcDbEntity
  8
尺寸
  6
ByLayer
 62
  256
370
   -1
100
AcDbDimension
  2
*D4
 10
320
 20
370
 30
0
 11
317.375
 21
420
 31
0
 70
   32
  1
90
 71
    5
  3
Standard
 53
0
210
0
220
0
230
1
100
AcDbAlignedDimension
 13
320
 23
470
 33
0
 14
320
 24
370
 34
0
 50
90.00000000000001
100
AcDbRotatedDimension
  0
DIMENSION
  5
D4
100
AcDbEntity
  8
尺寸
  6
ByLayer
 62
  256
370
   -1
100
AcDbDimension
  2
*D5
 10
308.9271503632789
 20
414.4291398546885
 30
0
 11
295.9749005254296
 21
422.4372513135738
 31
0
 70
   35
  1
%%C26
 71
    5
  3
Standard
 53
0
210
0
220
0
230
1
100
AcDbDiametricDimension
 15
281.0728496367212
 25
425.5708601453115
 35
0
 40
0
  0
CIRCLE
  5
D5
100
AcDbEntity
  8
轨迹
  6
ByLayer
 62
  256
370
   -1
100
AcDbCircle
 10
360
 20
670
 40
130
  0
LINE
  5
D6
100
AcDbEntity
  8
中心线
  6
ByLayer
 62
  256
370
   -1
100
AcDbLine
 10
295.0000000000001
 20
70
 11
295.0000000000001
 21
480
  0
CIRCLE
  5
D7
100
AcDbEntity
  8
轨迹
  6
ByLayer
 62
  256
370
   -1
100
AcDbCircle
 10
360.0000000000001
 20
670
 40
200
  0
LINE
  5
D8
100
AcDbEntity
  8
中心线
  6
ByLayer
 62
  256
370
   -1
100
AcDbLine
 10
560
 20
610
 11
560
 21
730
  0
LINE
  5
D9
100
AcDbEntity
  8
大臂
  6
ByLayer
 62
  256
370
   -1
100
AcDbLine
 10
210
 20
700
 11
210
 21
640
  0
LINE
  5
DA
100
AcDbEntity
  8
大臂
  6
ByLayer
 62
  256
370
   -1
100
AcDbLine
 10
210
 20
640
 11
580
 21
640
  0
LINE
  5
DB
100
AcDbEntity
  8
大臂
  6
ByLayer
 62
  256
370
   -1
100
AcDbLine
 10
580
 20
640
 11
580
 21
700
  0
LINE
  5
DC
100
AcDbEntity
  8
大臂
  6
ByLayer
 62
  256
370
   -1
100
AcDbLine
 10
580
 20
700
 11
210
 21
700
  0
CIRCLE
  5
DD
100
AcDbEntity
  8
轨迹
  6
ByLayer
 62
  256
370
   -1
100
AcDbCircle
 10
560
 20
670
 40
250
  0
DIMENSION
  5
DE
100
AcDbEntity
  8
尺寸
  6
ByLayer
 62
  256
370
   -1
100
AcDbDimension
  2
*D6
 10
560
 20
670
 30
0
 11
653.9230434319516
 21
752.5248601179047
 31
0
 70
   36
 71
    5
  3
Standard
 53
0
210
0
220
0
230
1
100
AcDbRadialDimension
 15
751.2277995292627
 25
831.033936445695
 35
0
 40
0
  0
DIMENSION
  5
DF
100
AcDbEntity
  8
尺寸
  6
ByLayer
 62
  256
370
   -1
100
AcDbDimension
  2
*D7
 10
360.0000000000001
 20
670
 30
0
 11
431.3144414170919
 21
740.1508451151386
 31
0
 70
   36
 71
    5
  3
Standard
 53
0
210
0
220
0
230
1
100
AcDbRadialDimension
 15
506.2110536485739
 25
806.4636500720022
 35
0
 40
0
  0
DIMENSION
  5
E0
100
AcDbEntity
  8
尺寸
  6
ByLayer
 62
  256
370
   -1
100
AcDbDimension
  2
*D8
 10
360
 20
670
 30
0
 11
388.820912615337
 21
728.3201990824715
 31
0
 70
   36
 71
    5
  3
Standard
 53
0
210
0
220
0
230
1
100
AcDbRadialDimension
 15
422.2507769884745
 25
784.1264244788699
 35
0
 40
0
  0
DIMENSION
  5
E1
100
AcDbEntity
  8
尺寸
  6
ByLayer
 62
  256
370
   -1
100
AcDbDimension
  2
*D9
 10
150
 20
320
 30
0
 11
147.375
 21
495
 31
0
 70
   32
 71
    5
  3
Standard
 53
0
210
0
220
0
230
1
100
AcDbAlignedDimension
 13
150
 23
670
 33
0
 14
300
 24
320
 34
0
 50
90
100
AcDbRotatedDimension
  0
LINE
  5
E2
100
AcDbEntity
  8
中心线
  6
ByLayer
 62
  256
370
   -1
100
AcDbLine
 10
1240
 20
420
 11
220
 21
420
  0
LINE
  5
E3
100
AcDbEntity
  8
中心线
  6
ByLayer
 62
  256
370
   -1
100
AcDbLine
 10
1150
 20
670
 11
-170
 21
670
  0
LINE
  5
E4
100
AcDbEntity
  8
第一立臂
  6
ByLayer
 62
  256
370
   -1
100
AcDbLine
 10
790
 20
690
 11
790
 21
360
  0
LINE
  5
E5
100
AcDbEntity
  8
第一立臂
  6
ByLayer
 62
  256
370
   -1
100
AcDbLine
 10
710
 20
690
 11
710
 21
360
  0
LINE
  5
E6
100
AcDbEntity
  8
第一立臂
  6
ByLayer
 62
  256
370
   -1
100
AcDbLine
 10
700
 20
690
 11
700
 21
360
  0
LINE
  5
E7
100
AcDbEntity
  8
第一立臂
  6
ByLayer
 62
  256
370
   -1
100
AcDbLine
 10
700
 20
690
 11
710
 21
690
  0
LINE
  5
E8
100
AcDbEntity
  8
第一立臂
  6
ByLayer
 62
  256
370
   -1
100
AcDbLine
 10
790
 20
690
 11
800
 21
690
  0
LINE
  5
E9
100
AcDbEntity
  8
第一立臂
  6
ByLayer
 62
  256
370
   -1
100
AcDbLine
 10
700
 20
360
 11
710
 21
360
  0
LINE
  5
EA
100
AcDbEntity
  8
第一立臂
  6
ByLayer
 62
  256
370
   -1
100
AcDbLine
 10
790
 20
360
 11
800
 21
360
  0
LINE
  5
EB
100
AcDbEntity
  8
第一立臂
  6
ByLayer
 62
  256
370
   -1
100
AcDbLine
 10
800
 20
360
 11
800
 21
690
  0
LINE
  5
EC
100
AcDbEntity
  8
大臂
  6
ByLayer
 62
  256
370
   -1
100
AcDbLine
 10
770
 20
700
 11
780
 21
700
  0
LINE
  5
ED
100
AcDbEntity
  8
大臂
  6
ByLayer
 62
  256
370
   -1
100
AcDbLine
 10
780
 20
700
 11
770
 21
700
  0
LINE
  5
EE
100
AcDbEntity
  8
大臂
  6
ByLayer
 62
  256
370
   -1
100
AcDbLine
 10
770
 20
700
 11
770
 21
640
  0
LINE
  5
EF
100
AcDbEntity
  8
大臂
  6
ByLayer
 62
  256
370
   -1
100
AcDbLine
 10
770
 20
640
 11
780
 21
640
  0
LINE
  5
F0
100
AcDbEntity
  8
大臂
  6
ByLayer
 62
  256
370
   -1
100
AcDbLine
 10
720
 20
640
 11
710
 21
640
  0
LINE
  5
F1
100
AcDbEntity
  8
大臂
  6
ByLayer
 62
  256
370
   -1
100
AcDbLine
 10
710
 20
640
 11
710
 21
700
  0
LINE
  5
F2
100
AcDbEntity
  8
大臂
  6
ByLayer
 62
  256
370
   -1
100
AcDbLine
 10
710
 20
700
 11
720
 21
700
  0
LINE
  5
F3
100
AcDbEntity
  8
大臂
  6
ByLayer
 62
  256
370
   -1
100
AcDbLine
 10
720
 20
700
 11
720
 21
640
  0
LINE
  5
F4
100
AcDbEntity
  8
小臂
  6
ByLayer
 62
  256
370
   -1
100
AcDbLine
 10
550
 20
680
 11
570
 21
680
  0
LINE
  5
F5
100
AcDbEntity
  8
小臂
  6
ByLayer
 62
  256
370
   -1
100
AcDbLine
 10
570
 20
680
 11
570
 21
410
  0
LINE
  5
F6
100
AcDbEntity
  8
小臂
  6
ByLayer
 62
  256
370
   -1
100
AcDbLine
 10
570
 20
410
 11
550
 21
410
  0
LINE
  5
F7
100
AcDbEntity
  8
小臂
  6
ByLayer
 62
  256
370
   -1
100
AcDbLine
 10
550
 20
410
 11
550
 21
680
  0
LINE
  5
F8
100
AcDbEntity
  8
中心线
  6
ByLayer
 62
  256
370
   -1
100
AcDbLine
 10
560
 20
430
 11
560
 21
390
  0
CIRCLE
  5
F9
100
AcDbEntity
  8
第一立臂同步轮
  6
ByLayer
 62
  256
370
   -1
100
AcDbCircle
 10
360
 20
670
 40
60
  0
CIRCLE
  5
FA
100
AcDbEntity
  8
第一立臂同步轮
  6
ByLayer
 62
  256
370
   -1
100
AcDbCircle
 10
360
 20
520
 40
60
  0
CIRCLE
  5
FB
100
AcDbEntity
  8
第一立臂同步轮
  6
ByLayer
 62
  256
370
   -1
100
AcDbCircle
 10
360
 20
520
 40
20
  0
LINE
  5
FC
100
AcDbEntity
  8
第一立臂同步轮
  6
ByLayer
 62
  256
370
   -1
100
AcDbLine
 10
780
 20
610
 11
780
 21
730
  0
LINE
  5
FD
100
AcDbEntity
  8
第一立臂同步轮
  6
ByLayer
 62
  256
370
   -1
100
AcDbLine
 10
780
 20
540
 11
780
 21
500
  0
LINE
  5
FE
100
AcDbEntity
  8
第一立臂同步轮
  6
ByLayer
 62
  256
370
   -1
100
AcDbLine
 10
810
 20
405
 11
810
 21
435
  0
LINE
  5
FF
100
AcDbEntity
  8
第一立臂同步轮
  6
ByLayer
 62
  256
370
   -1
100
AcDbLine
 10
810
 20
435
 11
800
 21
435
  0
LINE
  5
100
100
AcDbEntity
  8
第一立臂同步轮
  6
ByLayer
 62
  256
370
   -1
100
AcDbLine
 10
810
 20
405
 11
800
 21
405
  0
LINE
  5
101
100
AcDbEntity
  8
第一立臂同步轮
  6
ByLayer
 62
  256
370
   -1
100
AcDbLine
 10
790
 20
540
 11
780
 21
540
  0
LINE
  5
102
100
AcDbEntity
  8
第一立臂同步轮
  6
ByLayer
 62
  256
370
   -1
100
AcDbLine
 10
780
 20
500
 11
790
 21
500
  0
LINE
  5
103
100
AcDbEntity
  8
第一立臂同步轮
  6
ByLayer
 62
  256
370
   -1
100
AcDbLine
 10
780
 20
730
 11
790
 21
730
  0
LINE
  5
104
100
AcDbEntity
  8
第一立臂同步轮
  6
ByLayer
 62
  256
370
   -1
100
AcDbLine
 10
790
 20
610
 11
780
 21
610
  0
LINE
  5
105
100
AcDbEntity
  8
第一立臂同步轮
  6
ByLayer
 62
  256
370
   -1
100
AcDbLine
 10
790
 20
730
 11
790
 21
610
  0
LINE
  5
106
100
AcDbEntity
  8
第一立臂同步轮
  6
ByLayer
 62
  256
370
   -1
100
AcDbLine
 10
790
 20
540
 11
790
 21
500
  0
LINE
  5
107
100
AcDbEntity
  8
第一立臂同步轮
  6
ByLayer
 62
  256
370
   -1
100
AcDbLine
 10
800
 20
435
 11
800
 21
405
  0
LINE
  5
108
100
AcDbEntity
  8
第一立臂同步轮
  6
ByLayer
 62
  256
370
   -1
100
AcDbLine
 10
800
 20
580
 11
810
 21
580
  0
LINE
  5
109
100
AcDbEntity
  8
第一立臂同步轮
  6
ByLayer
 62
  256
370
   -1
100
AcDbLine
 10
810
 20
580
 11
810
 21
460
  0
LINE
  5
10A
100
AcDbEntity
  8
第一立臂同步轮
  6
ByLayer
 62
  256
370
   -1
100
AcDbLine
 10
810
 20
460
 11
800
 21
460
  0
LINE
  5
10B
100
AcDbEntity
  8
第一立臂同步轮
  6
ByLayer
 62
  256
370
   -1
100
AcDbLine
 10
800
 20
580
 11
800
 21
460
  0
CIRCLE
  5
10C
100
AcDbEntity
  8
第一立臂同步轮
  6
ByLayer
 62
  256
370
   -1
100
AcDbCircle
 10
295
 20
420
 40
15
  0
LINE
  5
10D
100
AcDbEntity
  8
大臂
  6
ByLayer
 62
  256
370
   -1
100
AcDbLine
 10
780
 20
700
 11
780
 21
640
  0
LINE
  5
10E
100
AcDbEntity
  8
同步带
  6
ByLayer
 62
  256
370
   -1
100
AcDbLine
 10
231.2862238363689
 20
682.9362138295082
 11
334.1121176931191
 21
724.1277890705419
  0
LINE
  5
10F
100
AcDbEntity
  8
同步带
  6
ByLayer
 62
  256
370
   -1
100
AcDbLine
 10
351.9572208749389
 20
688.3115729511553
 11
540.6052550854583
 21
726.7789121474466
  0
LINE
  5
110
100
AcDbEntity
  8
同步带
  6
ByLayer
 62
  256
370
   -1
100
AcDbLine
 10
540.3633528168402
 20
613.304311505065
 11
353.9251747793727
 21
650.9449088551424
  0
LINE
  5
111
100
AcDbEntity
  8
同步带
  6
ByLayer
 62
  256
370
   -1
100
AcDbLine
 10
333.8108267389242
 20
616.0173434897712
 11
226.3056466258061
 21
657.5359816613351
  0
CIRCLE
  5
112
100
AcDbEntity
  8
大臂同步轮
  6
ByLayer
 62
  256
370
   -1
100
AcDbCircle
 10
230
 20
670
 40
13
  0
CIRCLE
  5
113
100
AcDbEntity
  8
大臂同步轮
  6
ByLayer
 62
  256
370
   -1
100
AcDbCircle
 10
360
 20
670
 40
60
  0
CIRCLE
  5
114
100
AcDbEntity
  8
大臂同步轮
  6
ByLayer
 62
  256
370
   -1
100
AcDbCircle
 10
560
 20
670
 40
60
  0
CIRCLE
  5
115
100
AcDbEntity
  8
大臂同步轮
  6
ByLayer
 62
  256
370
   -1
100
AcDbCircle
 10
360
 20
670
 40
20
  0
CIRCLE
  5
116
100
AcDbEntity
  8
大臂同步轮
  6
ByLayer
 62
  256
370
   -1
100
AcDbCircle
 10
360
 20
670
 40
60
  0
ENDSEC
  0
SECTION
  2
OBJECTS
  0
DICTIONARY
  5
C
330
0
100
AcDbDictionary
281
    1
  3
ACAD_GROUP
350
D
  0
DICTIONARY
  5
D
330
C
100
AcDbDictionary
281
    1
  0
ENDSEC
  0
EOF
